<svg width="78" height="95" viewBox="0 0 78 95" fill="none" xmlns="http://www.w3.org/2000/svg">
<path d="M66.35 9.4C69.65 14.5 72.3 20.35 74.3 26.95C76.3 33.45 77.3 40.1 77.3 46.9C77.3 55 75.9 62.7 73.1 70C70.4 77.3 66.3 83.25 60.8 87.85C55.4 92.45 48.8 94.75 41 94.75C33.7 94.75 27 92.9 20.9 89.2C14.8 85.4 10.2 81 7.1 76C4.8 72.3 3.05 68.15 1.85 63.55C0.65 58.85 0.0500003 54.15 0.0500003 49.45C0.0500003 41.25 1.75 33.25 5.15 25.45C8.65 17.65 13.45 11.4 19.55 6.7C25.35 2.4 32 0.25 39.5 0.25C47.8 0.25 56.75 3.3 66.35 9.4ZM26.15 19.75C25.25 21.25 24.35 22.6 23.45 23.8C21.25 27.1 19.65 29.9 18.65 32.2C17.65 34.4 16.75 37.8 15.95 42.4C15.55 44.5 15.35 46.95 15.35 49.75C15.35 56.85 16.75 63 19.55 68.2C22.45 73.3 26.4 76.75 31.4 78.55C33.8 79.45 36.5 79.9 39.5 79.9C47 79.9 52.65 76.6 56.45 70C60.35 63.3 62.3 55.05 62.3 45.25C62.3 36.15 60.6 28.7 57.2 22.9C53.8 17 48.55 14.05 41.45 14.05C38.55 14.05 36.05 14.5 33.95 15.4C31.95 16.3 29.35 17.75 26.15 19.75Z" fill="#A9A9A9"/>
</svg>
