<svg width="82" height="96" viewBox="0 0 82 96" fill="none" xmlns="http://www.w3.org/2000/svg">
<path d="M30.4 5C30.4 9.9 29.5 15.6 27.7 22.1C26 28.5 23.5 36.4 20.2 45.8L16.75 56.15C18.45 56.45 20.2 56.6 22 56.6C25.1 56.6 29.75 56.3 35.95 55.7C42.15 55.1 46.6 54.8 49.3 54.8L49.15 38.3C48.95 26.9 48.85 18.5 48.85 13.1C48.85 6 51.2 2.44999 55.9 2.44999C59.6 2.44999 61.95 3.39999 62.95 5.29999C64.05 7.19999 64.6 10.05 64.6 13.85C64.6 17.75 64.3 23.8 63.7 32C63.6 33.6 63.45 36.25 63.25 39.95C63.05 43.65 62.95 46.85 62.95 49.55L63.1 54.35L66.1 54.2C68.5 54 70.35 53.9 71.65 53.9C74.05 53.9 76.35 54.7 78.55 56.3C80.75 57.8 81.85 59.6 81.85 61.7C81.85 64.2 81.45 66.15 80.65 67.55C79.95 68.95 79.1 69.65 78.1 69.65C76.4 69.65 74.25 69.45 71.65 69.05C71.05 69.05 70.15 69 68.95 68.9C67.75 68.7 66.6 68.6 65.5 68.6L62.95 68.75L63.1 89C63.1 91.1 62.4 92.7 61 93.8C59.6 94.9 58 95.45 56.2 95.45C54 95.45 52.05 94.75 50.35 93.35C48.65 91.95 47.8 90.2 47.8 88.1C47.8 81.4 47.9 76.15 48.1 72.35C48.2 71.45 48.25 70.35 48.25 69.05C45.25 68.95 40.05 69.3 32.65 70.1C25.65 70.9 20.35 71.3 16.75 71.3C12.15 71.3 8.25 70.65 5.05 69.35C1.95 68.05 0.4 66 0.4 63.2C0.4 60.5 0.95 57.2 2.05 53.3C3.15 49.4 4.8 44.15 7 37.55C8 34.95 8.75 32.8 9.25 31.1C11.05 26 12.4 21.7 13.3 18.2C14.2 14.6 15.2 10.25 16.3 5.14999C16.7 3.55 17.55 2.35 18.85 1.55C20.15 0.749995 21.65 0.349994 23.35 0.349994C25.15 0.349994 26.75 0.799994 28.15 1.69999C29.65 2.5 30.4 3.6 30.4 5Z" fill="#A9A9A9"/>
</svg>
