<svg width="24" height="25" viewBox="0 0 24 25" fill="none" xmlns="http://www.w3.org/2000/svg">
<path d="M4.00046 7.58408C4.00046 6.85793 3.99886 6.13177 4.001 5.40561C4.00367 4.61961 4.54869 4.07298 5.33362 4.07192C6.79235 4.06978 8.25161 4.06978 9.71034 4.07192C10.4857 4.07298 11.0371 4.618 11.0387 5.38905C11.0419 6.85472 11.0419 8.32039 11.0387 9.78607C11.0371 10.5598 10.4889 11.1085 9.71622 11.1096C8.25054 11.1123 6.78487 11.1123 5.31919 11.1096C4.54869 11.108 4.00313 10.5566 4.00046 9.78233C3.99832 9.04976 4.00046 8.31665 4.00046 7.58408Z" fill="white"/>
<path d="M16.4691 11.1103C15.7499 11.1103 15.0301 11.1113 14.3109 11.1097C13.5003 11.1081 12.9612 10.5669 12.9607 9.75361C12.9596 8.30824 12.9591 6.86233 12.9607 5.41696C12.9617 4.61707 13.5041 4.07258 14.3013 4.07151C15.7536 4.06991 17.2059 4.06991 18.6583 4.07151C19.4555 4.07258 19.9978 4.61653 19.9989 5.4175C20.001 6.86982 20.001 8.32213 19.9989 9.77445C19.9978 10.5615 19.4523 11.1076 18.6679 11.1103C17.9348 11.1119 17.2017 11.1103 16.4691 11.1103Z" fill="white"/>
<path d="M7.50782 20.0712C6.79502 20.0712 6.08222 20.0718 5.36942 20.0712C4.54121 20.0701 4.00153 19.5353 4.00046 18.7129C3.99939 17.2676 3.99886 15.8217 4.00046 14.3763C4.00153 13.5769 4.54441 13.0335 5.34271 13.0325C6.79502 13.0308 8.24734 13.0308 9.69966 13.0325C10.4963 13.0335 11.0376 13.578 11.0387 14.38C11.0403 15.8254 11.0403 17.2713 11.0387 18.7167C11.0376 19.5283 10.4963 20.0691 9.68576 20.0712C8.96014 20.0723 8.23398 20.0712 7.50782 20.0712Z" fill="white"/>
<path d="M16.4798 13.0313C19.5822 13.0201 21.1365 16.9175 18.9314 19.0735C16.7491 21.2066 12.9709 19.5897 12.9607 16.5557C12.9538 14.6166 14.5301 13.0388 16.4798 13.0313Z" fill="white"/>
</svg>
