<svg width="50" height="50" viewBox="0 0 50 50" fill="none" xmlns="http://www.w3.org/2000/svg">
<path d="M17.5003 -2.84124e-06C16.8372 -2.89921e-06 16.2014 0.263387 15.7325 0.732228C15.2637 1.20107 15.0003 1.83696 15.0003 2.5C15.0003 3.16304 15.2637 3.79892 15.7325 4.26777C16.2014 4.73661 16.8372 5 17.5003 5L38.3336 5C40.1017 5 41.7974 5.70238 43.0477 6.95262C44.2979 8.20287 45.0003 9.89856 45.0003 11.6667L45.0003 38.3333C45.0003 40.1014 44.2979 41.7971 43.0477 43.0474C41.7974 44.2976 40.1017 45 38.3336 45L17.5003 45C16.8372 45 16.2014 45.2634 15.7325 45.7322C15.2637 46.2011 15.0003 46.837 15.0003 47.5C15.0003 48.163 15.2637 48.7989 15.7325 49.2678C16.2014 49.7366 16.8372 50 17.5003 50L38.3336 50C41.4278 50 44.3953 48.7708 46.5832 46.5829C48.7711 44.395 50.0003 41.4275 50.0003 38.3333L50.0003 11.6667C50.0003 8.57248 48.7711 5.60501 46.5832 3.41709C44.3953 1.22916 41.4278 -7.4943e-07 38.3336 -1.01993e-06L17.5003 -2.84124e-06ZM14.1969 37.67C13.9558 37.8929 13.6731 38.066 13.365 38.1796C13.0569 38.2932 12.7294 38.3449 12.4013 38.3319C12.0732 38.3189 11.7508 38.2414 11.4527 38.1038C11.1545 37.9662 10.8864 37.7712 10.6636 37.53L0.663611 26.6967C0.236777 26.2347 -0.000276342 25.6289 -0.000276287 25C-0.000276232 24.3711 0.236777 23.7652 0.663611 23.3033L10.6636 12.47C11.114 11.9833 11.7393 11.6955 12.402 11.6699C13.0646 11.6443 13.7103 11.8829 14.1969 12.3333C14.6836 12.7838 14.9714 13.4091 14.9971 14.0717C15.0227 14.7343 14.784 15.38 14.3336 15.8667L8.20695 22.5033L34.1669 22.5033C34.83 22.5033 35.4659 22.7667 35.9347 23.2356C36.4036 23.7044 36.6669 24.3403 36.6669 25.0033C36.6669 25.6664 36.4036 26.3023 35.9347 26.7711C35.4659 27.2399 34.83 27.5033 34.1669 27.5033L8.21028 27.5033L14.3369 34.14C14.5598 34.3812 14.733 34.6639 14.8465 34.972C14.9601 35.2801 15.0119 35.6076 14.9989 35.9357C14.9859 36.2638 14.9084 36.5861 14.7708 36.8843C14.6332 37.1824 14.4382 37.4505 14.1969 37.6733L14.1969 37.67Z" fill="#212121"/>
</svg>
