<svg width="12" height="12" viewBox="0 0 12 12" fill="none" xmlns="http://www.w3.org/2000/svg">
<path d="M11.1008 4.914H9.36678C7.94478 4.914 6.78678 3.756 6.78678 2.334V0.6C6.78678 0.27 6.51678 0 6.18678 0H3.64278C1.79478 0 0.300781 1.2 0.300781 3.342V8.658C0.300781 10.8 1.79478 12 3.64278 12H8.35878C10.2068 12 11.7008 10.8 11.7008 8.658V5.514C11.7008 5.184 11.4308 4.914 11.1008 4.914ZM6.16878 8.268L4.96878 9.468C4.92678 9.51 4.87278 9.546 4.81878 9.564C4.76608 9.5882 4.70877 9.60073 4.65078 9.60073C4.59279 9.60073 4.53548 9.5882 4.48278 9.564C4.43314 9.54325 4.38823 9.51263 4.35078 9.474C4.34478 9.468 4.33878 9.468 4.33878 9.462L3.13878 8.262C3.05509 8.17732 3.00816 8.06306 3.00816 7.944C3.00816 7.82494 3.05509 7.71068 3.13878 7.626C3.31278 7.452 3.60078 7.452 3.77478 7.626L4.20078 8.064V5.55C4.20078 5.304 4.40478 5.1 4.65078 5.1C4.89678 5.1 5.10078 5.304 5.10078 5.55V8.064L5.53278 7.632C5.70678 7.458 5.99478 7.458 6.16878 7.632C6.34278 7.806 6.34278 8.094 6.16878 8.268Z" fill="#0050E5"/>
<path d="M9.25547 4.08668C9.82547 4.09268 10.6175 4.09268 11.2955 4.09268C11.6375 4.09268 11.8175 3.69068 11.5775 3.45068C10.7135 2.58068 9.16547 1.01468 8.27747 0.126679C8.03147 -0.119321 7.60547 0.0486795 7.60547 0.390679V2.48468C7.60547 3.36068 8.34947 4.08668 9.25547 4.08668Z" fill="#0050E5"/>
</svg>
