<svg width="16" height="16" viewBox="0 0 16 16" fill="none" xmlns="http://www.w3.org/2000/svg">
<path d="M5.60012 2.87739e-05C5.38795 2.87554e-05 5.18447 0.0843136 5.03444 0.234343C4.88441 0.384372 4.80012 0.587856 4.80012 0.800029C4.80012 1.0122 4.88441 1.21569 5.03444 1.36571C5.18447 1.51574 5.38795 1.60003 5.60012 1.60003L12.2668 1.60003C12.8326 1.60003 13.3752 1.82479 13.7753 2.22487C14.1754 2.62495 14.4001 3.16757 14.4001 3.73336L14.4001 12.2667C14.4001 12.8325 14.1754 13.3751 13.7753 13.7752C13.3752 14.1753 12.8326 14.4 12.2668 14.4L5.60012 14.4C5.38795 14.4 5.18447 14.4843 5.03444 14.6343C4.88441 14.7844 4.80012 14.9879 4.80012 15.2C4.80012 15.4122 4.88441 15.6157 5.03444 15.7657C5.18447 15.9157 5.38795 16 5.60012 16L12.2668 16C13.2569 16 14.2065 15.6067 14.9067 14.9066C15.6068 14.2064 16.0001 13.2568 16.0001 12.2667L16.0001 3.73336C16.0001 2.74322 15.6068 1.79363 14.9067 1.0935C14.2065 0.393361 13.2569 2.94433e-05 12.2668 2.93567e-05L5.60012 2.87739e-05ZM4.54305 12.0544C4.46588 12.1257 4.37541 12.1812 4.27682 12.2175C4.17823 12.2538 4.07344 12.2704 3.96844 12.2663C3.86344 12.2621 3.7603 12.2373 3.66489 12.1933C3.56948 12.1492 3.48368 12.0868 3.41239 12.0096L0.212388 8.54296C0.0758013 8.39515 -5.50843e-05 8.20129 -5.50667e-05 8.00003C-5.50491e-05 7.79877 0.0758014 7.60491 0.212388 7.4571L3.41239 3.99043C3.55653 3.83469 3.75662 3.7426 3.96866 3.73439C4.18071 3.72619 4.38732 3.80256 4.54306 3.9467C4.69879 4.09083 4.79089 4.29093 4.79909 4.50297C4.80729 4.71501 4.73093 4.92163 4.58679 5.07736L2.62626 7.2011L10.9335 7.2011C11.1456 7.2011 11.3491 7.28538 11.4991 7.43541C11.6492 7.58544 11.7335 7.78892 11.7335 8.0011C11.7335 8.21327 11.6492 8.41675 11.4991 8.56678C11.3491 8.71681 11.1456 8.8011 10.9335 8.8011L2.62732 8.8011L4.58785 10.9248C4.65917 11.002 4.71458 11.0925 4.75093 11.1911C4.78727 11.2897 4.80384 11.3944 4.79968 11.4994C4.79552 11.6044 4.77071 11.7076 4.72668 11.803C4.68265 11.8984 4.62025 11.9842 4.54305 12.0555L4.54305 12.0544Z" fill="#0050E5"/>
</svg>
