<svg width="25" height="24" viewBox="0 0 25 24" fill="none" xmlns="http://www.w3.org/2000/svg">
<path d="M17.7709 4.14226C18.2379 3.99053 18.9975 4.10692 19.4876 4.14508C19.9527 4.18137 20.3579 4.33121 20.6915 4.66671C21.4313 5.4117 21.1698 6.66465 21.1698 7.61603C15.4992 7.61603 9.83998 7.61603 4.17413 7.61603C4.17413 6.70565 3.91449 5.39662 4.51953 4.62619C5.10854 3.87555 6.31013 4.1187 7.13993 4.1187C7.13993 4.57012 7.1324 5.02154 7.13993 5.47296C7.14559 5.81741 7.20213 6.19203 7.61916 6.23491C8.51776 6.32726 8.20534 4.6342 8.20534 4.13283C11.0378 4.13283 13.8566 4.13283 16.6938 4.13283C16.7225 4.64033 16.4091 6.11475 17.1565 6.23302C18.0353 6.37203 17.7705 4.7963 17.7705 4.32838C17.7709 4.26524 17.7709 4.2021 17.7709 4.14226Z" fill="#9E9E9E"/>
<path d="M4.14036 8.61621C9.83166 8.61621 15.5027 8.61621 21.1945 8.61621C21.1945 8.70668 21.1945 8.78726 21.1945 8.86784C21.1945 11.9486 21.1945 15.0294 21.1945 18.1102C21.1945 19.1275 20.4594 19.8857 19.4364 19.9225C19.3657 19.9248 19.2955 19.9243 19.2248 19.9243C14.7384 19.9243 10.2515 19.9121 5.7651 19.9328C4.61864 19.938 4.13801 19.1737 4.13895 18.3006C4.14225 15.7197 4.13989 13.1384 4.13989 10.5576C4.14036 9.91675 4.14036 9.27638 4.14036 8.61621ZM17.7947 11.6734C17.7947 11.4081 17.8889 10.9614 17.7056 10.7338C17.5082 10.4879 17.0648 10.5755 16.7962 10.575C16.5045 10.5746 16.0309 10.4799 15.7882 10.6589C15.5286 10.8507 15.612 11.2861 15.6111 11.5717C15.6101 11.852 15.5149 12.4076 15.7312 12.6281C15.9357 12.8369 16.3513 12.7549 16.6147 12.7558C16.8965 12.7567 17.4691 12.8689 17.6933 12.6314C17.8946 12.4189 17.7942 11.9302 17.7947 11.6734ZM12.4535 17.5306C12.7141 17.5306 13.2121 17.6338 13.4279 17.4283C13.6471 17.2191 13.5505 16.7168 13.5505 16.4553C13.5505 16.1806 13.6504 15.6896 13.4242 15.4723C13.2013 15.2579 12.7282 15.3503 12.4558 15.3503C12.1825 15.3503 11.6981 15.2518 11.4833 15.4789C11.2575 15.7183 11.3669 16.2503 11.3673 16.5406C11.3678 16.8026 11.282 17.2036 11.4884 17.4109C11.7 17.623 12.1891 17.5306 12.4535 17.5306ZM16.7029 17.5306C16.963 17.5306 17.4248 17.6291 17.6486 17.4481C17.8865 17.2559 17.7961 16.7979 17.7961 16.5396C17.7965 16.2461 17.8927 15.7654 17.7098 15.5223C17.5181 15.2674 17.0836 15.3508 16.8009 15.3498C16.5172 15.3489 15.9598 15.2528 15.7378 15.4723C15.531 15.6768 15.612 16.0873 15.6111 16.3502C15.6101 16.6424 15.5013 17.1894 15.7463 17.4194C15.9664 17.6262 16.4366 17.5311 16.7029 17.5306ZM12.4591 10.576C12.1962 10.576 11.75 10.4846 11.5261 10.6632C11.2802 10.8592 11.3683 11.2932 11.3678 11.5702C11.3673 11.8567 11.2561 12.385 11.4757 12.6206C11.6826 12.8425 12.1934 12.7558 12.4676 12.7553C12.7075 12.7549 13.2465 12.843 13.4393 12.6422C13.6442 12.4288 13.549 11.9288 13.549 11.6682C13.549 11.3959 13.6353 10.8903 13.4162 10.6839C13.1947 10.4761 12.7287 10.5765 12.4591 10.576ZM7.17167 16.4482C7.17167 16.7126 7.07837 17.1503 7.26261 17.376C7.45439 17.6116 7.88979 17.5325 8.1532 17.5325C8.43687 17.5329 8.92929 17.6206 9.16913 17.4349C9.41558 17.2446 9.3529 16.8761 9.35479 16.6032C9.35667 16.3224 9.45469 15.7998 9.28976 15.5539C9.09798 15.2674 8.64844 15.3503 8.35252 15.3494C8.07309 15.3484 7.50952 15.2495 7.28664 15.4785C7.07036 15.7013 7.17167 16.173 7.17167 16.4482ZM7.17119 11.6579C7.17119 11.9246 7.07507 12.4024 7.2824 12.6229C7.49492 12.8482 7.97037 12.7582 8.2399 12.7577C8.52263 12.7572 8.99007 12.8467 9.21437 12.6192C9.44102 12.3892 9.35479 11.9265 9.35432 11.6404C9.35385 11.37 9.44762 10.8978 9.22049 10.6877C8.98065 10.4657 8.45383 10.575 8.16498 10.5755C7.90346 10.576 7.5001 10.4897 7.2923 10.6952C7.07884 10.9054 7.17167 11.3931 7.17119 11.6579Z" fill="#9E9E9E"/>
</svg>
