<svg width="14" height="16" viewBox="0 0 14 16" fill="none" xmlns="http://www.w3.org/2000/svg">
<path d="M3.00143 6.50362C3.00143 6.42468 3.00143 6.36354 3.00143 6.30239C3.00143 5.55087 3.00006 4.79934 3.00188 4.04782C3.0069 2.0328 4.39314 0.393779 6.37804 0.0533801C8.47428 -0.305727 10.5824 1.18865 10.9264 3.28443C10.9693 3.54726 10.9899 3.81602 10.993 4.08204C11.0017 4.82216 10.9962 5.56228 10.9962 6.30239C10.9962 6.36354 10.9962 6.42514 10.9962 6.49176C11.2495 6.50271 11.489 6.49358 11.7227 6.52689C12.6239 6.65511 13.2399 7.3642 13.2458 8.27862C13.2522 9.29754 13.2476 10.3169 13.2476 11.3358C13.2476 12.2753 13.2485 13.2144 13.2476 14.1539C13.2463 15.2527 12.5011 15.9992 11.4055 15.9997C8.46835 16.0001 5.53115 16.0001 2.5935 15.9997C1.49792 15.9997 0.751873 15.2522 0.751417 14.1539C0.750504 12.2183 0.750504 10.2827 0.751417 8.34707C0.751873 7.25332 1.50249 6.50545 2.59852 6.50362C2.72719 6.50362 2.85632 6.50362 3.00143 6.50362ZM9.48909 6.49769C9.49182 6.4475 9.49502 6.41419 9.49502 6.38042C9.49502 5.57186 9.4973 4.7633 9.49182 3.95519C9.49091 3.79731 9.47312 3.63578 9.43889 3.48155C9.1569 2.21761 7.99014 1.37619 6.7262 1.51856C5.45266 1.66229 4.50813 2.72364 4.50265 4.02181C4.49946 4.79615 4.50174 5.57049 4.50219 6.34483C4.50219 6.39411 4.50858 6.44293 4.51223 6.49769C6.17362 6.49769 7.82268 6.49769 9.48909 6.49769ZM6.99496 12.0052C7.41201 12.0066 7.74648 11.6767 7.74876 11.2624C7.75196 10.6067 6.93518 10.2676 6.47295 10.7262C6.00844 11.1866 6.33743 12.0029 6.99496 12.0052ZM4.25762 12.0052C4.67331 12.0025 5.00139 11.6676 4.99682 11.251C4.98998 10.598 4.1732 10.2635 3.71645 10.7326C3.2606 11.2017 3.60329 12.0098 4.25762 12.0052ZM9.75054 12.0057C10.1676 12.0043 10.4943 11.6744 10.4929 11.2555C10.4907 10.6012 9.67571 10.2644 9.21622 10.7303C8.75718 11.1953 9.09576 12.0075 9.75054 12.0057Z" fill="#0050E5"/>
</svg>
