<svg width="24" height="24" viewBox="0 0 24 24" fill="none" xmlns="http://www.w3.org/2000/svg">
<path d="M18.8 10.552H16.488C14.592 10.552 13.048 9.008 13.048 7.112V4.8C13.048 4.36 12.688 4 12.248 4H8.85599C6.39199 4 4.39999 5.6 4.39999 8.456V15.544C4.39999 18.4 6.39199 20 8.85599 20H15.144C17.608 20 19.6 18.4 19.6 15.544V11.352C19.6 10.912 19.24 10.552 18.8 10.552ZM12.224 15.024L10.624 16.624C10.568 16.68 10.496 16.728 10.424 16.752C10.3537 16.7843 10.2773 16.801 10.2 16.801C10.1227 16.801 10.0463 16.7843 9.97599 16.752C9.90981 16.7243 9.84993 16.6835 9.79999 16.632C9.79199 16.624 9.78399 16.624 9.78399 16.616L8.18399 15.016C8.07241 14.9031 8.00983 14.7507 8.00983 14.592C8.00983 14.4333 8.07241 14.2809 8.18399 14.168C8.41599 13.936 8.79999 13.936 9.03199 14.168L9.59999 14.752V11.4C9.59999 11.072 9.87199 10.8 10.2 10.8C10.528 10.8 10.8 11.072 10.8 11.4V14.752L11.376 14.176C11.608 13.944 11.992 13.944 12.224 14.176C12.456 14.408 12.456 14.792 12.224 15.024Z" fill="white"/>
<path d="M16.344 9.44956C17.104 9.45756 18.16 9.45756 19.064 9.45756C19.52 9.45756 19.76 8.92156 19.44 8.60156C18.288 7.44156 16.224 5.35356 15.04 4.16956C14.712 3.84156 14.144 4.06556 14.144 4.52156V7.31356C14.144 8.48156 15.136 9.44956 16.344 9.44956Z" fill="white"/>
</svg>
