<svg width="16" height="17" viewBox="0 0 16 17" fill="none" xmlns="http://www.w3.org/2000/svg">
<path d="M1.99316 14.1479C2.06169 13.8884 2.13512 13.6315 2.2012 13.372C2.37742 12.6769 2.54629 11.9794 2.72496 11.2819C2.74209 11.2134 2.78125 11.1424 2.8302 11.0934C5.00356 8.91762 7.17692 6.74181 9.35272 4.56846C9.36986 4.55132 9.38699 4.53664 9.39678 4.5293C10.2534 5.38591 11.1051 6.23763 11.9666 7.09915C11.9519 7.11628 11.9226 7.1481 11.8932 7.17747C9.73942 9.33124 7.58809 11.4826 5.43187 13.6339C5.36579 13.7 5.27523 13.7538 5.18467 13.7759C4.25463 14.0133 3.32214 14.2433 2.3921 14.4758C2.18162 14.5297 2.1082 14.4979 1.99316 14.3143C1.99316 14.258 1.99316 14.2042 1.99316 14.1479Z" fill="#0050E5"/>
<path d="M10.1748 3.776C10.6056 3.33546 11.051 2.65995 11.6922 2.52779C12.3653 2.38828 12.8205 2.79701 13.2635 3.24001C13.6943 3.67321 14.1128 4.11865 13.9831 4.77702C13.8534 5.4256 13.1705 5.88573 12.7251 6.32383C11.8758 5.477 11.0241 4.62528 10.1748 3.776Z" fill="#0050E5"/>
</svg>
