<svg width="24" height="24" viewBox="0 0 24 24" fill="none" xmlns="http://www.w3.org/2000/svg">
<path d="M9.6 4C9.38783 4 9.18434 4.08428 9.03432 4.23431C8.88429 4.38434 8.8 4.58782 8.8 4.8C8.8 5.01217 8.88429 5.21566 9.03432 5.36568C9.18434 5.51571 9.38783 5.6 9.6 5.6L16.2667 5.6C16.8325 5.6 17.3751 5.82476 17.7752 6.22484C18.1752 6.62492 18.4 7.16754 18.4 7.73333L18.4 16.2667C18.4 16.8325 18.1752 17.3751 17.7752 17.7752C17.3751 18.1752 16.8325 18.4 16.2667 18.4L9.6 18.4C9.38783 18.4 9.18434 18.4843 9.03431 18.6343C8.88429 18.7843 8.8 18.9878 8.8 19.2C8.8 19.4122 8.88429 19.6157 9.03431 19.7657C9.18434 19.9157 9.38783 20 9.6 20L16.2667 20C17.2568 20 18.2064 19.6067 18.9065 18.9065C19.6067 18.2064 20 17.2568 20 16.2667L20 7.73333C20 6.74319 19.6067 5.7936 18.9065 5.09347C18.2064 4.39333 17.2568 4 16.2667 4L9.6 4ZM8.54293 16.0544C8.46576 16.1257 8.37529 16.1811 8.2767 16.2175C8.1781 16.2538 8.07332 16.2704 7.96832 16.2662C7.86332 16.2621 7.76017 16.2373 7.66476 16.1932C7.56936 16.1492 7.48356 16.0868 7.41227 16.0096L4.21227 12.5429C4.07568 12.3951 3.99982 12.2013 3.99982 12C3.99982 11.7987 4.07568 11.6049 4.21227 11.4571L7.41227 7.9904C7.5564 7.83466 7.7565 7.74257 7.96854 7.73436C8.18058 7.72616 8.3872 7.80253 8.54293 7.94666C8.69867 8.0908 8.79077 8.2909 8.79897 8.50294C8.80717 8.71498 8.7308 8.9216 8.58667 9.07733L6.62613 11.2011L14.9333 11.2011C15.1455 11.2011 15.349 11.2854 15.499 11.4354C15.649 11.5854 15.7333 11.7889 15.7333 12.0011C15.7333 12.2132 15.649 12.4167 15.499 12.5668C15.349 12.7168 15.1455 12.8011 14.9333 12.8011L6.6272 12.8011L8.58773 14.9248C8.65905 15.002 8.71446 15.0924 8.75081 15.191C8.78715 15.2896 8.80372 15.3944 8.79956 15.4994C8.7954 15.6044 8.77059 15.7076 8.72656 15.803C8.68253 15.8984 8.62013 15.9842 8.54293 16.0555L8.54293 16.0544Z" fill="white"/>
</svg>
