<svg width="24" height="25" viewBox="0 0 24 25" fill="none" xmlns="http://www.w3.org/2000/svg">
<path d="M4 14.5056C4 14.4429 4 14.3807 4 14.3181C4.05969 14.2405 4.11187 14.1549 4.18074 14.0865C7.45824 10.8065 10.737 7.52772 14.017 4.25063C14.0859 4.18218 14.171 4.13 14.2487 4.07031C14.3113 4.07031 14.3735 4.07031 14.4361 4.07031C14.507 4.12958 14.583 4.18385 14.6481 4.24896C16.372 5.9712 18.0947 7.69426 19.8173 9.41775C20.0603 9.66068 20.0603 9.81137 19.8211 10.0505C16.5478 13.323 13.2748 16.5959 10.0019 19.8689C9.73187 20.1389 9.59955 20.1377 9.32531 19.8638C7.64649 18.185 5.96767 16.5066 4.28968 14.8265C4.18825 14.7247 4.09642 14.6128 4 14.5056ZM12.6082 14.0731C13.5111 14.0773 14.0208 13.5589 14.002 12.7766C13.9807 11.8826 13.3533 11.0482 12.6404 10.5535C12.0397 10.1369 11.0851 9.82472 10.4481 10.3369C9.73938 10.9075 10.0153 12.0061 10.4456 12.6598C10.8998 13.3485 11.7488 14.0502 12.6082 14.0731ZM6.3425 14.7589C6.42849 14.708 6.52867 14.6717 6.59838 14.6041C6.98657 14.2246 7.38311 13.8477 7.7546 13.452C7.89276 13.3051 8.06724 13.1481 7.96831 12.9282C7.89318 12.7612 7.71244 12.7136 7.55299 12.7662C7.34679 12.8342 7.13642 13.1269 6.98824 13.2754C6.81251 13.4516 6.63636 13.6277 6.46021 13.8039C6.20476 14.0589 5.68049 14.6178 6.3425 14.7589ZM18.0033 9.77422C17.9841 9.59682 17.926 9.49038 17.7996 9.43611C17.4135 9.27124 16.9347 9.99252 16.7022 10.225C16.4847 10.4425 15.7985 10.8996 16.0652 11.2614C16.3766 11.6843 16.8454 11.0264 17.0566 10.8161C17.3847 10.4892 17.7729 10.1762 18.0033 9.77422Z" fill="white"/>
<path d="M4 12.3164C4.06052 12.1791 4.16613 12.1035 4.30805 12.0534C4.79183 11.8823 5.27143 11.7007 5.731 11.5312C5.23595 12.0267 4.72921 12.5339 4.22123 13.0414C4.15444 12.8791 4.07722 12.6912 4 12.5038C4 12.4416 4 12.379 4 12.3164Z" fill="white"/>
<path d="M12.9564 17.8859C13.873 16.9692 14.7775 16.0647 15.6921 15.1502C15.9024 15.52 16.3741 15.2311 16.6596 15.1247C16.986 15.0024 17.6973 14.8859 17.9189 14.6054C18.1439 14.3203 17.8476 14.0353 17.5462 14.0937C17.1417 14.1722 16.7444 14.3988 16.3524 14.5274C17.1856 13.6942 18.0383 12.8415 18.8911 11.9883C19.2409 12.7663 19.4884 13.6091 19.7798 14.4113C19.8795 14.6868 20.1408 15.0992 19.8566 15.3326C19.5468 15.5868 18.9479 15.6882 18.5734 15.8264C16.7264 16.5076 14.8785 17.1884 13.0311 17.8692C13.0123 17.8758 12.9918 17.8779 12.9564 17.8859Z" fill="white"/>
<path d="M8.15156 19.6666C7.82473 19.7859 7.43028 20.0159 7.08132 20.0535C6.70858 20.0936 6.65056 19.7517 6.54412 19.4587C6.27823 18.7282 6.00858 17.999 5.75104 17.2656C6.55079 18.0658 7.34429 18.8593 8.15156 19.6666Z" fill="white"/>
</svg>
