<svg width="24" height="24" viewBox="0 0 24 24" fill="none" xmlns="http://www.w3.org/2000/svg">
<path d="M22.2 9.828H18.732C15.888 9.828 13.572 7.512 13.572 4.668V1.2C13.572 0.54 13.032 0 12.372 0H7.28398C3.58798 0 0.599976 2.4 0.599976 6.684V17.316C0.599976 21.6 3.58798 24 7.28398 24H16.716C20.412 24 23.4 21.6 23.4 17.316V11.028C23.4 10.368 22.86 9.828 22.2 9.828ZM11.436 13.836C11.256 14.016 11.028 14.1 10.8 14.1C10.572 14.1 10.344 14.016 10.164 13.836L9.29998 12.972V18C9.29998 18.492 8.89198 18.9 8.39998 18.9C7.90798 18.9 7.49998 18.492 7.49998 18V12.972L6.63598 13.836C6.28798 14.184 5.71198 14.184 5.36398 13.836C5.1966 13.6666 5.10273 13.4381 5.10273 13.2C5.10273 12.9619 5.1966 12.7334 5.36398 12.564L7.76398 10.164C7.84798 10.092 7.93198 10.032 8.02798 9.984C8.05198 9.972 8.08798 9.96 8.11198 9.948C8.18398 9.924 8.25598 9.912 8.33998 9.9H8.43598C8.53198 9.9 8.62798 9.924 8.72398 9.96H8.74798C8.84398 9.996 8.93998 10.068 9.01198 10.14C9.02398 10.152 9.03598 10.152 9.03598 10.164L11.436 12.564C11.784 12.912 11.784 13.488 11.436 13.836Z" fill="#9E9E9E"/>
<path d="M18.5161 8.17238C19.6561 8.18438 21.2401 8.18438 22.5961 8.18438C23.2801 8.18438 23.6401 7.38038 23.1601 6.90038C21.4321 5.16038 18.3361 2.02838 16.5601 0.252382C16.0681 -0.239618 15.2161 0.0963823 15.2161 0.780382V4.96838C15.2161 6.72038 16.7041 8.17238 18.5161 8.17238Z" fill="#9E9E9E"/>
</svg>
