<svg width="28" height="28" viewBox="0 0 28 28" fill="none" xmlns="http://www.w3.org/2000/svg">
<path d="M2 24.0307C2 19.5155 2 14.9996 2 10.4843C2.00832 10.4715 2.02241 10.4593 2.02433 10.4452C2.17034 9.33866 3.12642 8.49465 4.3681 8.54652C4.84325 8.56637 5.32033 8.56061 5.79548 8.54396C5.95814 8.5382 6.13744 8.49849 6.2764 8.41781C8.68548 7.02436 11.0786 5.60401 13.4985 4.22913C14.8414 3.46645 16.0997 2.54624 17.5617 2C17.7493 2 17.9369 2 18.1239 2C19.0723 2.14985 19.6122 2.77293 20.0521 3.57083C20.9371 5.17624 21.8675 6.75732 22.7724 8.35185C22.8627 8.5113 22.9709 8.5843 23.1496 8.61184C24.0365 8.74824 24.8158 9.5724 24.8741 10.4619C24.9119 11.0376 24.9055 11.6165 24.9099 12.1941C24.9138 12.7109 24.7063 12.9119 24.1844 12.9126C23.1611 12.9139 22.1378 12.9081 21.1145 12.9151C20.7014 12.9183 20.2852 12.9196 19.8766 12.9715C17.4573 13.2782 15.7251 15.7955 16.279 18.1816C16.7599 20.2525 18.4736 21.6248 20.6041 21.6364C21.815 21.6428 23.0253 21.6364 24.2363 21.6383C24.698 21.6389 24.9067 21.8464 24.9099 22.3107C24.9138 22.7794 24.9394 23.2501 24.9016 23.7157C24.8734 24.0672 24.8209 24.4399 24.673 24.7537C24.2709 25.606 23.5485 25.9973 22.6161 25.9986C19.9368 26.0018 17.2575 25.9999 14.5782 25.9999C11.1567 25.9999 7.73517 25.9986 4.31431 26.0005C3.53946 26.0011 2.90036 25.7277 2.42521 25.1014C2.18507 24.7832 2.07684 24.4137 2 24.0307ZM18.8098 3.63423C18.4415 3.06622 17.8633 2.94199 17.2639 3.29099C14.324 5.00078 11.3847 6.7125 8.44598 8.42485C8.40372 8.44919 8.36658 8.48313 8.27757 8.55037C8.94483 8.55037 9.55063 8.55741 10.1564 8.54524C10.2967 8.54268 10.4516 8.50362 10.572 8.43382C13.252 6.88156 15.9275 5.32225 18.6036 3.76358C18.6695 3.72452 18.7336 3.68226 18.8098 3.63423ZM20.4446 6.46916C19.2638 7.15756 18.1111 7.82867 16.9091 8.52923C18.5146 8.52923 20.0514 8.52923 21.6223 8.52923C21.2227 7.83059 20.8404 7.16204 20.4446 6.46916Z" fill="#0050E5"/>
<path d="M22.3671 13.999C22.9991 13.999 23.6318 13.9965 24.2638 13.9997C25.3032 14.0048 25.9948 14.6957 25.998 15.7357C26.0012 16.7507 25.9999 17.765 25.9986 18.78C25.9967 19.8149 25.3672 20.5174 24.3394 20.5379C22.9901 20.5648 21.637 20.5776 20.2897 20.5167C18.6612 20.4437 17.3331 19.0477 17.2812 17.45C17.2242 15.7159 18.4025 14.2424 20.0771 14.0547C20.8314 13.9702 21.6037 14.0406 22.3677 14.0406C22.3671 14.0266 22.3671 14.0131 22.3671 13.999ZM20.5484 16.1884C19.9471 16.1859 19.4578 16.67 19.4559 17.2688C19.454 17.8637 19.9464 18.3587 20.5413 18.3593C21.1382 18.3606 21.6325 17.8707 21.6351 17.2758C21.6383 16.6796 21.1497 16.191 20.5484 16.1884Z" fill="#0050E5"/>
</svg>
