<svg width="24" height="25" viewBox="0 0 24 25" fill="none" xmlns="http://www.w3.org/2000/svg">
<path d="M19.9955 18.8014C18.5853 18.8014 17.1989 18.8014 15.7897 18.8014C15.7897 18.7244 15.7897 18.6543 15.7897 18.5841C15.7897 14.4859 15.7897 10.3883 15.7897 6.29011C15.7897 5.66782 16.1162 5.33821 16.7343 5.33716C17.5169 5.3361 18.2995 5.33505 19.0826 5.33716C19.6606 5.33874 20.0029 5.67784 20.0029 6.25741C20.0045 10.3814 20.0039 14.506 20.0034 18.63C20.0029 18.6827 19.9987 18.7339 19.9955 18.8014Z" fill="white"/>
<path d="M14.0921 18.7992C12.6978 18.7992 11.3129 18.7992 9.89796 18.7992C9.89796 18.729 9.89796 18.6599 9.89796 18.5908C9.89796 15.6112 9.89743 12.6316 9.89849 9.65142C9.89849 9.0307 10.2276 8.70426 10.8483 8.70373C11.6309 8.70321 12.4135 8.70268 13.1966 8.70373C13.7525 8.70479 14.1006 9.04336 14.1011 9.5971C14.1032 12.61 14.1021 15.6223 14.1016 18.6351C14.1011 18.6868 14.0958 18.738 14.0921 18.7992Z" fill="white"/>
<path d="M8.20984 18.8C6.80071 18.8 5.41426 18.8 3.99616 18.8C3.99616 18.7288 3.99616 18.6597 3.99616 18.5906C3.99616 16.7353 3.99564 14.88 3.99669 13.0248C3.99722 12.4093 4.33526 12.0686 4.94648 12.0676C5.72277 12.066 6.49906 12.066 7.27534 12.0676C7.86652 12.0692 8.20984 12.4104 8.20984 12.9968C8.21037 14.8653 8.21037 16.7338 8.21037 18.6022C8.20984 18.6608 8.20984 18.7198 8.20984 18.8Z" fill="white"/>
</svg>
