<svg width="140" height="201" viewBox="0 0 140 201" fill="none" xmlns="http://www.w3.org/2000/svg">
<path d="M90.8004 101.589L77.8918 108.47L89.6018 130.438L102.51 123.558L90.8004 101.589Z" fill="#FDD043"/>
<path opacity="0.3" d="M80.8248 106.885L77.8582 108.466L89.5681 130.434L92.5347 128.853L80.8248 106.885Z" fill="black"/>
<path d="M96.3627 96.3631C114.103 78.6232 114.103 49.8612 96.3627 32.1213C78.6228 14.3814 49.8608 14.3814 32.1209 32.1213C14.381 49.8612 14.381 78.6232 32.1209 96.3631C49.8608 114.103 78.6228 114.103 96.3627 96.3631Z" fill="#ECEFEF" fill-opacity="0.7"/>
<path d="M38.1765 23.0664C14.3731 35.7858 5.37874 65.3129 18.0981 89.1162C30.8174 112.92 60.3445 121.914 84.1479 109.195C107.951 96.4753 116.946 66.9482 104.226 43.1448C91.5069 19.4323 61.9799 10.4379 38.1765 23.0664ZM81.3315 104.107C60.3445 115.282 34.2698 107.378 23.095 86.3906C11.9201 65.4037 19.8243 39.329 40.8112 28.1542C61.7982 16.9793 87.8728 24.8835 99.0477 45.8704C110.223 66.8573 102.318 92.932 81.3315 104.107Z" fill="#D8E3E3"/>
<path d="M42.0831 20.9776C18.2798 33.6969 9.28539 63.224 22.0047 87.0273C34.7241 110.831 64.2512 119.825 88.0545 107.106C111.858 94.3864 120.852 64.8593 108.133 41.056C95.4136 17.3435 65.8865 8.34907 42.0831 20.9776ZM85.2381 102.018C64.2512 113.193 38.1765 105.289 27.0016 84.3018C15.8268 63.3148 23.7309 37.2402 44.7179 26.0653C65.7048 14.8904 91.7795 22.7946 102.954 43.7815C114.129 64.7685 106.225 90.8432 85.2381 102.018Z" fill="#E3EBEB"/>
<path d="M134.662 199.411C129.937 201.955 124.032 200.138 121.488 195.414L86.9642 130.727C86.1465 129.182 86.6916 127.274 88.2361 126.457L99.8653 120.279C101.41 119.461 103.318 120.006 104.135 121.551L138.568 186.238C141.203 190.962 139.386 196.867 134.662 199.411Z" fill="#FDD043"/>
<path opacity="0.3" d="M136.025 198.503C135.57 198.866 135.116 199.139 134.662 199.411C129.937 201.955 124.032 200.138 121.488 195.414L86.9642 130.727C86.1465 129.182 86.6916 127.274 88.2361 126.457L91.1434 124.912C89.5989 125.73 89.0538 127.638 89.8715 129.182L124.305 193.869C126.667 198.139 131.664 199.956 136.025 198.503Z" fill="black"/>
<path opacity="0.4" d="M73.1546 35.5129C74.1539 40.6007 69.5205 45.7793 62.7974 47.0512C56.1651 48.3231 49.9872 45.2342 48.9878 40.1464C47.9884 35.0587 52.6219 29.8801 59.345 28.6081C65.9772 27.2454 72.1552 30.4252 73.1546 35.5129Z" fill="white"/>
<path opacity="0.4" d="M65.7048 52.4121C65.8865 53.5023 64.978 54.5926 63.5243 54.8651C62.0707 55.1377 60.7988 54.5017 60.6171 53.4115C60.4354 52.3212 61.3439 51.231 62.7975 50.9585C64.2512 50.6859 65.5231 51.3219 65.7048 52.4121Z" fill="white"/>
</svg>
