<svg width="16" height="16" viewBox="0 0 16 16" fill="none" xmlns="http://www.w3.org/2000/svg">
<path d="M7.97673 9.88311C6.57105 11.2898 5.16538 12.6965 3.76071 14.1031C2.97208 14.8938 1.30654 17.054 0.218921 15.3664C-0.64094 14.0329 1.44801 12.6614 2.23864 11.8697C3.52492 10.5834 4.84331 9.32124 6.09347 7.99884C4.80819 6.65035 3.46472 5.35504 2.14734 4.03766C1.33764 3.22796 -0.909835 1.68784 0.402532 0.397546C1.69684 -0.87569 3.24599 1.37981 4.04365 2.17847C5.34999 3.48582 6.74263 4.74601 7.95968 6.13463C9.32221 4.83631 10.6316 3.47679 11.963 2.14536C12.7847 1.32363 14.4382 -1.02519 15.6774 0.507912C16.7509 1.83633 14.6138 3.25204 13.8011 4.06374C12.5188 5.344 11.2777 6.85202 9.83592 7.94767C11.0239 9.21689 12.2861 10.4219 13.5162 11.651C14.3329 12.4667 16.5623 13.9115 15.8048 15.2961C14.8065 17.1202 13.0215 14.9118 12.25 14.1413C10.9296 12.8209 9.60916 11.5005 8.28877 10.1801C8.19646 10.0888 8.10014 10.0005 7.97673 9.88311Z" fill="#0050E5"/>
</svg>
