<svg width="28" height="24" viewBox="0 0 28 24" fill="none" xmlns="http://www.w3.org/2000/svg">
<path d="M0.660156 22.0502C0.660156 15.3496 0.660156 8.649 0.660156 1.94838C0.673307 1.92623 0.691303 1.90478 0.697532 1.88124C1.02907 0.645078 1.84095 0.00623146 3.10964 0.00415504C5.62142 2.19012e-06 8.1339 0.00553949 10.6457 2.35904e-06C11.0464 -0.000689782 11.3261 0.150889 11.5372 0.50042C12.4141 1.95461 13.3104 3.39772 14.1894 4.85122C14.305 5.04225 14.4227 5.11769 14.6532 5.117C18.0717 5.108 21.4901 5.10731 24.9086 5.11354C26.1683 5.11631 27.1823 6.13307 27.1837 7.38584C27.1872 12.1685 27.1851 16.9505 27.1844 21.7332C27.1844 22.1963 27.0446 22.6171 26.7809 22.9936C26.2652 23.7294 25.5336 24.0007 24.6574 24C17.7512 23.9945 10.8457 23.9972 3.93952 23.9972C3.64605 23.9972 3.35259 23.9986 3.05912 23.9965C2.22855 23.9924 1.53502 23.6899 1.07198 22.9881C0.886486 22.7071 0.794432 22.3645 0.660156 22.0502ZM19.0123 15.8258C19.0123 13.0088 16.7573 10.7469 13.9375 10.7337C9.48634 10.713 7.18566 16.2792 10.319 19.4243C13.4578 22.5742 19.0123 20.268 19.0123 15.8258Z" fill="#9E9E9E"/>
<path d="M13.6367 1.02302C16.0765 1.02302 18.5163 1.02094 20.9561 1.02302C21.9279 1.02371 23.0374 0.854827 23.888 1.43138C24.5968 1.91173 24.9671 2.74714 24.8806 3.59363C23.218 3.59363 21.5555 3.59294 19.8923 3.59363C19.0375 3.59363 18.1827 3.59432 17.3279 3.59571C16.831 3.5964 15.356 3.8608 15.0646 3.37076C14.6071 2.60041 14.1351 1.83905 13.6367 1.02302Z" fill="#9E9E9E"/>
<path d="M10.8829 17.6724C8.78022 14.6692 12.7863 10.8209 15.7764 12.7804C14.1505 14.4055 12.5185 16.0369 10.8829 17.6724Z" fill="#9E9E9E"/>
<path d="M16.9321 13.9293C19.0521 16.8958 14.9982 21.0314 12.0352 18.8262C13.6624 17.1983 15.2917 15.569 16.9321 13.9293Z" fill="#9E9E9E"/>
</svg>
