<svg width="111" height="126" viewBox="0 0 111 126" fill="none" xmlns="http://www.w3.org/2000/svg">
<path d="M96.0061 10.9203L92.7654 9.44922L92.3151 10.4433C92.1814 10.733 91.8961 10.9203 91.5752 10.9336C91.3968 10.9426 91.223 10.9604 91.0447 10.9871C90.7282 11.0362 90.4117 10.9069 90.2245 10.6483L89.5915 9.76126L86.6984 11.8341L87.3314 12.7212C87.5186 12.9797 87.5364 13.323 87.3893 13.6038C87.3091 13.7598 87.2333 13.9248 87.1709 14.0897C87.055 14.3884 86.7875 14.5979 86.4666 14.6291L85.3789 14.7361L85.7266 18.28L86.8143 18.173C87.1353 18.1418 87.4339 18.2978 87.6078 18.5697C87.6568 18.6411 87.7058 18.7168 87.7549 18.7882C87.8039 18.8595 87.8574 18.9308 87.9109 18.9977C88.1115 19.2473 88.165 19.5816 88.0313 19.8714L87.5766 20.8699L90.8173 22.341L91.2676 21.3469C91.4013 21.0572 91.6866 20.8699 92.0076 20.8566C92.1859 20.8476 92.3597 20.8298 92.5336 20.8075C92.8501 20.7585 93.1666 20.8878 93.3493 21.1463L93.9823 22.0334L96.8754 19.9606L96.2424 19.0735C96.0552 18.8149 96.0373 18.4717 96.1844 18.1908C96.2647 18.0348 96.3405 17.8699 96.4029 17.7094C96.5188 17.4107 96.7862 17.1968 97.1072 17.1656L98.1949 17.0586L97.8472 13.5147L96.7595 13.6217C96.443 13.6529 96.1399 13.4968 95.966 13.2249C95.917 13.1491 95.8679 13.0778 95.8189 13.0065C95.7699 12.9352 95.7164 12.8638 95.6629 12.797C95.4623 12.5473 95.4088 12.2086 95.5425 11.9188L96.0061 10.9203ZM94.1651 14.1967C95.1012 15.5073 94.8025 17.326 93.492 18.2622C92.1814 19.1983 90.3626 18.8996 89.4221 17.5935C88.4859 16.2829 88.7846 14.4597 90.0952 13.5236C91.4058 12.583 93.229 12.8861 94.1651 14.1967Z" fill="#EBEBEB"/>
<path d="M17.46 54.4727L15.298 55.7208L15.6814 56.3806C15.7928 56.5767 15.7839 56.813 15.6591 57.0002C15.5922 57.1027 15.5298 57.2142 15.4719 57.3212C15.3693 57.5218 15.1687 57.651 14.9459 57.651H14.1836V60.1474H14.9459C15.1687 60.1474 15.3693 60.2766 15.4719 60.4772C15.5298 60.5887 15.5922 60.6957 15.6591 60.7982C15.7795 60.9854 15.7928 61.2261 15.6814 61.4178L15.298 62.0775L17.46 63.3257L17.8434 62.6615C17.9548 62.4654 18.1688 62.3584 18.3917 62.3718C18.4541 62.3762 18.5121 62.3762 18.5745 62.3762C18.6369 62.3762 18.6993 62.3762 18.7572 62.3718C18.9801 62.3584 19.1941 62.4654 19.3055 62.6615L19.6889 63.3257L21.8509 62.0775L21.4675 61.4133C21.3561 61.2172 21.365 60.981 21.4898 60.7937C21.5567 60.6912 21.6191 60.5842 21.677 60.4728C21.7796 60.2722 21.9802 60.1474 22.203 60.1474H22.9698V57.651H22.2075C21.9846 57.651 21.784 57.5217 21.6815 57.3256C21.6235 57.2142 21.5611 57.1072 21.4943 57.0047C21.3695 56.8174 21.3605 56.5767 21.472 56.385L21.8553 55.7208L19.6933 54.4727L19.31 55.1369C19.1985 55.333 18.9846 55.4355 18.7617 55.4266C18.6993 55.4222 18.6369 55.4222 18.5789 55.4222C18.5165 55.4222 18.4541 55.4222 18.3961 55.4266C18.1733 55.44 17.9593 55.333 17.8478 55.1369L17.46 54.4727ZM18.5745 56.8575C19.7023 56.8575 20.6161 57.7714 20.6161 58.8992C20.6161 60.027 19.7023 60.9408 18.5745 60.9408C17.4467 60.9408 16.5328 60.027 16.5328 58.8992C16.5328 57.7714 17.4467 56.8575 18.5745 56.8575Z" fill="#EBEBEB"/>
<path d="M102.551 0.294205L100.571 1.80984L101.035 2.41609C101.173 2.5944 101.191 2.83512 101.093 3.03571C101.039 3.14716 100.99 3.26305 100.95 3.37895C100.874 3.58847 100.692 3.74449 100.469 3.77124L99.7109 3.86931L100.032 6.34335L100.79 6.24528C101.013 6.21853 101.227 6.3166 101.356 6.50383C101.427 6.60636 101.503 6.70443 101.583 6.79804C101.73 6.96744 101.77 7.20369 101.686 7.4132L101.392 8.11753L103.696 9.07594L103.99 8.36716C104.075 8.15765 104.276 8.02391 104.499 8.00608C104.561 8.00163 104.619 7.99271 104.681 7.98826C104.744 7.97934 104.802 7.97042 104.864 7.9615C105.083 7.92138 105.31 8.00163 105.444 8.17548L105.912 8.78619L107.891 7.27056L107.427 6.66431C107.289 6.486 107.271 6.24528 107.369 6.04468C107.423 5.93324 107.472 5.81734 107.512 5.70144C107.588 5.49192 107.771 5.3359 107.993 5.30915L108.751 5.21108L108.43 2.73705L107.672 2.83511C107.45 2.86186 107.236 2.76379 107.106 2.57657C107.035 2.47404 106.959 2.37597 106.879 2.28236C106.732 2.11296 106.692 1.8767 106.776 1.66719L107.071 0.95841L104.766 0L104.472 0.708778C104.387 0.913833 104.187 1.04757 103.964 1.0654C103.901 1.06986 103.843 1.07877 103.781 1.08323C103.718 1.09214 103.66 1.10106 103.598 1.10997C103.375 1.15009 103.152 1.06986 103.014 0.891546L102.551 0.294205ZM103.968 2.51416C105.087 2.36706 106.112 3.15607 106.255 4.27496C106.402 5.39385 105.613 6.41913 104.494 6.56624C103.375 6.71334 102.35 5.91987 102.203 4.80543C102.056 3.68209 102.849 2.65681 103.968 2.51416Z" fill="#EBEBEB"/>
<path d="M109.53 119.489C109.53 122.568 85.2973 125.062 55.4074 125.062C25.5175 125.062 1.28516 122.568 1.28516 119.489C1.28516 116.41 25.5175 113.916 55.4074 113.916C85.2973 113.916 109.53 116.413 109.53 119.489Z" fill="#F6F6F6"/>
<path d="M0 107.857L13.8506 107.789L27.7011 107.767L55.405 107.721L83.1089 107.764L96.9594 107.789L110.81 107.857L96.9594 107.923L83.1089 107.947L55.405 107.994L27.7011 107.947L13.8506 107.923L0 107.857Z" fill="#1A2F36"/>
<path d="M77.6628 11.7988H33.1281C30.6419 11.7988 28.625 13.8512 28.625 16.3866V108.057C28.625 110.59 30.6419 112.645 33.1281 112.645H77.6601C80.1464 112.645 82.1687 110.587 82.1687 108.057V16.3866C82.1714 13.8512 80.1491 11.7988 77.6628 11.7988ZM79.3522 105.224C79.3522 107.637 77.5455 109.588 75.3158 109.588H35.478C33.2455 109.588 31.4361 107.637 31.4361 105.224V19.8608C31.4361 14.9456 33.2428 14.7054 35.478 14.7054H43.4581C43.922 14.7054 44.3014 15.2321 44.3014 15.8844V16.1655C44.3014 17.6966 45.1392 17.702 46.1654 17.702H64.6201C65.6572 17.702 66.4896 17.6966 66.4896 16.1655V15.8844C66.4896 15.2321 66.8635 14.7054 67.3356 14.7054H75.3158C77.5455 14.7054 79.3522 15.3577 79.3522 19.8608V105.224Z" fill="#9E9E9E"/>
<path d="M79.3224 19.9425V105.303C79.3224 107.716 77.5157 109.667 75.286 109.667H35.4482C33.2157 109.667 31.4062 107.716 31.4062 105.303V19.9425C31.4062 15.0273 33.213 14.7871 35.4482 14.7871H43.4283C43.8922 14.7871 44.2716 15.3138 44.2716 15.9661V16.2472C44.2716 17.7783 45.1094 17.7837 46.1356 17.7837H64.5903C65.6274 17.7837 66.4598 17.7783 66.4598 16.2472V15.9661C66.4598 15.3138 66.8337 14.7871 67.3058 14.7871H75.2887C77.5157 14.7871 79.3224 15.4394 79.3224 19.9425Z" fill="white"/>
<path d="M79.3236 19.9425V27.6879H31.4102V19.9425C31.4102 15.0273 33.2169 14.7871 35.4521 14.7871H43.4322C43.8961 14.7871 44.2755 15.3138 44.2755 15.9661V16.2472C44.2755 17.7783 45.1133 17.7837 46.1395 17.7837H64.5942C65.6313 17.7837 66.4637 17.7783 66.4637 16.2472V15.9661C66.4637 15.3138 66.8376 14.7871 67.3097 14.7871H75.2898C77.5168 14.7871 79.3236 15.4421 79.3236 19.9425Z" fill="#E0E0E0"/>
<path d="M57.8945 15.8039H52.8619C52.69 15.8039 52.5508 15.6647 52.5508 15.4928C52.5508 15.3208 52.69 15.1816 52.8619 15.1816H57.8945C58.0664 15.1816 58.2056 15.3208 58.2056 15.4928C58.2056 15.6647 58.0664 15.8039 57.8945 15.8039Z" fill="white"/>
<path d="M42.0479 16.6618C42.0233 16.6864 41.996 16.7137 41.9715 16.7382C41.9578 16.7519 41.9414 16.7682 41.9278 16.7819C41.7204 16.5799 41.4748 16.4735 41.1855 16.4735C40.8962 16.4735 40.6505 16.5799 40.4404 16.7819C40.4268 16.7682 40.4131 16.7519 40.3995 16.7382C40.3749 16.7137 40.3476 16.6864 40.323 16.6618H40.3203C40.3203 16.6618 40.3203 16.6618 40.3203 16.6591C40.323 16.6564 40.323 16.6564 40.3258 16.6536C40.3585 16.6236 40.3885 16.5936 40.424 16.5663C40.4922 16.509 40.5687 16.4626 40.6505 16.4216C40.7461 16.3752 40.8443 16.3398 40.9508 16.3207C40.9999 16.3125 41.049 16.307 41.1009 16.3016C41.1172 16.2988 41.2291 16.2988 41.2319 16.2988C41.2646 16.3016 41.3001 16.3016 41.3328 16.307C41.4256 16.3179 41.5184 16.3398 41.6058 16.3725C41.6713 16.3971 41.7313 16.4244 41.7913 16.4598C41.8541 16.4953 41.9141 16.5363 41.9687 16.5827C41.9933 16.61 42.0206 16.6345 42.0479 16.6618Z" fill="white"/>
<path d="M40.7127 17.0374C40.6717 16.9964 40.6308 16.9582 40.5898 16.9173C40.729 16.7808 40.8928 16.6935 41.0866 16.6689C41.3758 16.6307 41.6215 16.7181 41.8316 16.9173C41.7907 16.9582 41.7497 16.9992 41.7088 17.0401C41.5696 16.9064 41.4059 16.8327 41.2094 16.8327C41.0156 16.8299 40.8491 16.9009 40.7127 17.0374Z" fill="white"/>
<path d="M41.554 17.138C41.5131 17.179 41.4749 17.2172 41.4339 17.2581C41.363 17.1899 41.2784 17.1517 41.1774 17.1517C41.0764 17.1517 40.9918 17.1899 40.9209 17.2581C40.8799 17.2172 40.839 17.1763 40.8008 17.138C40.9946 16.9388 41.3412 16.9224 41.554 17.138Z" fill="white"/>
<path d="M41.3082 17.3631C41.3082 17.4231 41.2591 17.4722 41.199 17.4722C41.139 17.4722 41.0898 17.4231 41.0898 17.3631C41.0898 17.303 41.139 17.2539 41.199 17.2539C41.2591 17.2539 41.3082 17.303 41.3082 17.3631Z" fill="white"/>
<path d="M34.4922 16.8771C34.4922 16.7025 34.6341 16.5605 34.8088 16.5605C34.9834 16.5605 35.1254 16.7025 35.1254 16.8771C35.1254 17.0518 34.9834 17.1937 34.8088 17.1937C34.6341 17.1964 34.4922 17.0518 34.4922 16.8771Z" fill="white"/>
<path d="M35.4727 16.8771C35.4727 16.7025 35.6146 16.5605 35.7892 16.5605C35.9639 16.5605 36.1058 16.7025 36.1058 16.8771C36.1058 17.0518 35.9639 17.1937 35.7892 17.1937C35.6173 17.1964 35.4727 17.0518 35.4727 16.8771Z" fill="white"/>
<path d="M36.5156 16.8771C36.5156 16.7025 36.6575 16.5605 36.8322 16.5605C37.0069 16.5605 37.1488 16.7025 37.1488 16.8771C37.1488 17.0518 37.0069 17.1937 36.8322 17.1937C36.6575 17.1937 36.5156 17.0518 36.5156 16.8771Z" fill="white"/>
<path d="M37.4961 16.8771C37.4961 16.7025 37.638 16.5605 37.8127 16.5605C37.9873 16.5605 38.1293 16.7025 38.1293 16.8771C38.1293 17.0518 37.9873 17.1937 37.8127 17.1937C37.638 17.1964 37.4961 17.0518 37.4961 16.8771Z" fill="white"/>
<path d="M38.4805 16.8771C38.4805 16.7025 38.6224 16.5605 38.7971 16.5605C38.9717 16.5605 39.1136 16.7025 39.1136 16.8771C39.1136 17.0518 38.9717 17.1937 38.7971 17.1937C38.6224 17.1964 38.4805 17.0518 38.4805 16.8771Z" fill="white"/>
<path d="M75.6783 17.5712H73.0938V16.373H75.6783V17.5712ZM73.2247 17.4402H75.5473V16.5068H73.2247V17.4402Z" fill="white"/>
<path d="M74.9449 16.5801H73.2773V17.3715H74.9449V16.5801Z" fill="white"/>
<path d="M75.9089 16.6426H75.6797V17.2839H75.9089V16.6426Z" fill="white"/>
<path d="M35.9086 24.7114L34.4922 23.385L35.9086 22.0586L36.127 22.2933L34.9616 23.385L36.127 24.4766L35.9086 24.7114Z" fill="white"/>
<path d="M74.9435 24.8219H73.9883V24.489C73.9883 24.4617 73.972 24.4344 73.9447 24.4207C73.9092 24.4016 73.8737 24.3825 73.8382 24.3607C73.8137 24.3443 73.7809 24.3443 73.7591 24.358L73.4698 24.5244L72.9922 23.6975L73.2815 23.531C73.306 23.5174 73.3197 23.4901 73.317 23.4601C73.317 23.4382 73.3142 23.4191 73.3142 23.4C73.3142 23.3809 73.3142 23.3591 73.3142 23.34C73.317 23.31 73.3033 23.2827 73.2788 23.2663L72.9922 23.0998L73.4698 22.2729L73.7564 22.4393C73.7809 22.453 73.8109 22.453 73.8355 22.4366C73.871 22.4148 73.9065 22.3929 73.9419 22.3738C73.9692 22.3602 73.9856 22.3356 73.9856 22.3056V21.9727H74.9408V22.3056C74.9408 22.3329 74.9572 22.3602 74.9845 22.3738C75.02 22.3929 75.0554 22.4121 75.0909 22.4366C75.1155 22.453 75.1455 22.453 75.1701 22.4393L75.4566 22.2729L75.9342 23.0998L75.6449 23.2663C75.6204 23.2799 75.6067 23.3072 75.6095 23.3372C75.6095 23.3591 75.6122 23.3782 75.6122 23.3973C75.6122 23.4164 75.6122 23.4382 75.6122 23.4573C75.6095 23.4873 75.6231 23.5146 75.6477 23.5283L75.937 23.6948L75.4594 24.5217L75.1701 24.3552C75.1455 24.3416 75.1155 24.3416 75.0909 24.358C75.0582 24.3798 75.0227 24.4016 74.9845 24.4207C74.9572 24.4344 74.9408 24.4589 74.9408 24.489V24.8219H74.9435ZM74.193 24.6172H74.7389V24.489C74.7389 24.3825 74.7989 24.287 74.8944 24.2406C74.9244 24.2242 74.9545 24.2079 74.9818 24.1915C75.0718 24.1314 75.1837 24.1287 75.2765 24.1806L75.3884 24.2433L75.6613 23.7712L75.5494 23.7057C75.4594 23.6538 75.4075 23.5556 75.413 23.4464V23.3973V23.3454C75.4075 23.239 75.4594 23.138 75.5522 23.0862L75.6641 23.0234L75.3911 22.5512L75.282 22.614C75.1892 22.6659 75.0773 22.6631 74.9872 22.6058C74.9599 22.5867 74.9299 22.5703 74.8999 22.5567C74.8044 22.5076 74.7443 22.4121 74.7443 22.3083V22.1801H74.1985V22.3083C74.1985 22.4148 74.1384 22.5103 74.0429 22.5567C74.0129 22.5731 73.9829 22.5895 73.9556 22.6058C73.8655 22.6659 73.7536 22.6686 73.6608 22.614L73.5517 22.5512L73.2788 23.0234L73.3879 23.0862C73.478 23.138 73.5326 23.239 73.5271 23.3454V23.3946V23.4464C73.5326 23.5528 73.4807 23.6511 73.3879 23.703L73.276 23.7657L73.5489 24.2379L73.6608 24.1751C73.7536 24.1232 73.8655 24.126 73.9556 24.1833C73.9829 24.2024 74.0129 24.2188 74.0429 24.2351C74.1384 24.2843 74.1985 24.3798 74.1985 24.4835V24.6172H74.193ZM74.4659 24.1151C74.0702 24.1151 73.7509 23.793 73.7509 23.4C73.7509 23.0043 74.0729 22.6822 74.4659 22.6822C74.8617 22.6822 75.1837 23.0043 75.1837 23.4C75.181 23.7957 74.8617 24.1151 74.4659 24.1151ZM74.4659 22.8897C74.1848 22.8897 73.9556 23.1189 73.9556 23.4027C73.9556 23.6838 74.1848 23.9131 74.4659 23.9131C74.747 23.9131 74.979 23.6838 74.979 23.4027C74.9763 23.1189 74.747 22.8897 74.4659 22.8897Z" fill="white"/>
<path d="M43.2608 87.1445H38.2773V92.128H43.2608V87.1445Z" fill="#EBEBEB"/>
<path d="M50.5538 87.1445H45.5703V92.128H50.5538V87.1445Z" fill="#EBEBEB"/>
<path d="M57.8468 87.1445H52.8633V92.128H57.8468V87.1445Z" fill="#EBEBEB"/>
<path d="M65.0811 87.1445H60.0977V92.128H65.0811V87.1445Z" fill="#EBEBEB"/>
<path d="M72.3741 87.1445H67.3906V92.128H72.3741V87.1445Z" fill="#EBEBEB"/>
<path d="M72.2577 94.7461H38.1484V95.2837H72.2577V94.7461Z" fill="#EBEBEB"/>
<path d="M72.2577 96.1797H38.1484V96.7173H72.2577V96.1797Z" fill="#EBEBEB"/>
<path d="M72.2577 97.584H38.1484V98.1216H72.2577V97.584Z" fill="#EBEBEB"/>
<path d="M53.9831 99.0156H38.1484V99.5533H53.9831V99.0156Z" fill="#EBEBEB"/>
<path d="M87.6091 30.1237C87.5027 29.7361 87.4781 29.3486 87.4727 28.9583C87.4781 28.5708 87.5027 28.1832 87.6091 27.793C87.7156 28.1805 87.7401 28.5681 87.7456 28.9583C87.7428 29.3459 87.7183 29.7361 87.6091 30.1237Z" fill="#263238"/>
<path d="M85.229 30.8184C84.9425 30.5346 84.7269 30.2125 84.5304 29.8769C84.3393 29.5384 84.1674 29.1891 84.0664 28.7988C84.353 29.0799 84.5686 29.4047 84.7651 29.7404C84.9534 30.0815 85.1281 30.4281 85.229 30.8184Z" fill="#263238"/>
<path d="M83.5102 32.5931C83.12 32.4921 82.7733 32.3174 82.4349 32.1291C82.102 31.9299 81.7772 31.717 81.4961 31.4277C81.8864 31.5287 82.233 31.7007 82.5714 31.8917C82.9043 32.0882 83.2291 32.3038 83.5102 32.5931Z" fill="#263238"/>
<path d="M82.9256 34.9919C82.5381 35.0984 82.1506 35.1229 81.7603 35.1284C81.3727 35.1229 80.9852 35.0984 80.5977 34.9919C80.9852 34.8855 81.3727 34.8609 81.763 34.8555C82.1478 34.8609 82.5381 34.8855 82.9256 34.9919Z" fill="#263238"/>
<path d="M83.5899 37.3477C83.3088 37.6342 82.984 37.8498 82.6483 38.0463C82.3099 38.2374 81.9606 38.4093 81.5703 38.5103C81.8514 38.2237 82.1762 38.0081 82.5119 37.8116C82.8503 37.6206 83.1996 37.4459 83.5899 37.3477Z" fill="#263238"/>
<path d="M85.3607 39.0605C85.2597 39.4508 85.085 39.7974 84.8967 40.1358C84.7002 40.4688 84.4846 40.7936 84.1953 41.0747C84.2963 40.6844 84.4682 40.3378 84.6593 39.9994C84.8585 39.6664 85.0741 39.3417 85.3607 39.0605Z" fill="#263238"/>
<path d="M87.7615 39.6641C87.8679 40.0516 87.8925 40.4391 87.8979 40.8294C87.8925 41.217 87.8679 41.6045 87.7615 41.9948C87.655 41.6072 87.6305 41.2197 87.625 40.8294C87.6277 40.4391 87.6523 40.0516 87.7615 39.6641Z" fill="#263238"/>
<path d="M90.1445 38.9844C90.4311 39.2682 90.6467 39.5903 90.8432 39.9259C91.0342 40.2644 91.2062 40.6137 91.3072 41.004C91.0206 40.7229 90.805 40.3981 90.6085 40.0624C90.4175 39.724 90.2455 39.3746 90.1445 38.9844Z" fill="#263238"/>
<path d="M91.8633 37.1855C92.2536 37.2865 92.6002 37.4612 92.9386 37.6495C93.2715 37.846 93.5963 38.0616 93.8774 38.3509C93.4871 38.2499 93.1405 38.078 92.8021 37.8869C92.4664 37.6877 92.1444 37.4721 91.8633 37.1855Z" fill="#263238"/>
<path d="M92.4297 34.8083C92.8172 34.7019 93.2048 34.6773 93.595 34.6719C93.9826 34.6773 94.3701 34.7019 94.7577 34.8083C94.3701 34.9175 93.9826 34.9393 93.5923 34.9448C93.2048 34.9421 92.8172 34.9175 92.4297 34.8083Z" fill="#263238"/>
<path d="M91.7852 32.4283C92.069 32.1417 92.391 31.9261 92.7267 31.7296C93.0651 31.5385 93.4145 31.3666 93.8047 31.2656C93.5236 31.5522 93.1989 31.7678 92.8632 31.9643C92.522 32.1553 92.1754 32.3273 91.7852 32.4283Z" fill="#263238"/>
<path d="M90.0156 30.7114C90.1166 30.3211 90.2913 29.9745 90.4796 29.6361C90.6761 29.3031 90.8917 28.9784 91.181 28.6973C91.08 29.0875 90.9081 29.4341 90.717 29.7726C90.5178 30.1055 90.3022 30.4276 90.0156 30.7114Z" fill="#263238"/>
<path d="M46.2812 35.3809H83.3486C85.8339 35.3809 87.8486 37.3956 87.8486 39.8809V63.9137C87.8486 66.399 85.8339 68.4137 83.3486 68.4137H46.2813C43.796 68.4137 41.7812 66.399 41.7812 63.9137V39.8809C41.7812 37.3956 43.796 35.3809 46.2812 35.3809Z" fill="#FAFAFA" stroke="#FFC54D"/>
<path d="M64.8641 38.5508L52.5938 59.8029H77.1345L64.8641 38.5508Z" fill="#FFC54D"/>
<path d="M64.854 41.5762L55.25 58.2105H74.4579L64.854 41.5762Z" fill="#FFC54D"/>
<path d="M63.8867 46.4121H65.8326L65.7016 53.5817H64.0177L63.8867 46.4121Z" fill="white"/>
<path d="M65.6839 54.4707H64V56.1546H65.6839V54.4707Z" fill="white"/>
<path d="M58.0268 64.9336H57.5872L56.7316 63.5301V64.9336H56.292V62.801H56.7316L57.5885 64.2071V62.801H58.0268V64.9336ZM58.3162 64.1262C58.3162 63.9688 58.3462 63.8288 58.4062 63.7062C58.4671 63.5827 58.5545 63.4875 58.6684 63.4206C58.7823 63.3527 58.9145 63.3188 59.0649 63.3188C59.2789 63.3188 59.4532 63.3845 59.588 63.5158C59.7236 63.6462 59.7993 63.824 59.8149 64.0492L59.8176 64.1575C59.8176 64.4001 59.7497 64.5949 59.6141 64.7419C59.4784 64.8888 59.2962 64.9623 59.0676 64.9623C58.8389 64.9623 58.6562 64.8892 58.5197 64.7432C58.3841 64.5971 58.3162 64.3979 58.3162 64.1458V64.1262ZM58.7402 64.1575C58.7402 64.3079 58.7684 64.4232 58.8249 64.5032C58.8815 64.5823 58.9623 64.6219 59.0676 64.6219C59.1702 64.6219 59.2502 64.5827 59.3076 64.5045C59.3658 64.4253 59.3949 64.2992 59.3949 64.1262C59.3949 63.9792 59.3658 63.8653 59.3076 63.7845C59.2502 63.7027 59.1693 63.6619 59.0649 63.6619C58.9615 63.6619 58.8815 63.7023 58.8249 63.7832C58.7684 63.8632 58.7402 63.9879 58.7402 64.1575ZM60.5851 62.9588V63.3488H60.8565V63.6592H60.5851V64.4497C60.5851 64.5088 60.5965 64.551 60.6191 64.5762C60.6417 64.6014 60.6847 64.614 60.7482 64.614C60.7951 64.614 60.8365 64.6106 60.8721 64.6036V64.9245C60.7895 64.9497 60.7043 64.9623 60.6165 64.9623C60.3191 64.9623 60.1678 64.8127 60.1625 64.5136V63.6592H59.9304V63.3488H60.1625V62.9588H60.5851ZM63.3118 64.0623H62.4679V64.9336H62.0283V62.801H63.4175V63.1571H62.4679V63.7075H63.3118V64.0623ZM63.578 64.1262C63.578 63.9688 63.608 63.8288 63.668 63.7062C63.7288 63.5827 63.8162 63.4875 63.9301 63.4206C64.0441 63.3527 64.1762 63.3188 64.3267 63.3188C64.5406 63.3188 64.7149 63.3845 64.8497 63.5158C64.9854 63.6462 65.061 63.824 65.0767 64.0492L65.0793 64.1575C65.0793 64.4001 65.0114 64.5949 64.8758 64.7419C64.7401 64.8888 64.558 64.9623 64.3293 64.9623C64.1006 64.9623 63.918 64.8892 63.7814 64.7432C63.6458 64.5971 63.578 64.3979 63.578 64.1458V64.1262ZM64.0019 64.1575C64.0019 64.3079 64.0301 64.4232 64.0867 64.5032C64.1432 64.5823 64.2241 64.6219 64.3293 64.6219C64.4319 64.6219 64.5119 64.5827 64.5693 64.5045C64.6275 64.4253 64.6567 64.2992 64.6567 64.1262C64.6567 63.9792 64.6275 63.8653 64.5693 63.7845C64.5119 63.7027 64.431 63.6619 64.3267 63.6619C64.2232 63.6619 64.1432 63.7023 64.0867 63.7832C64.0301 63.8632 64.0019 63.9879 64.0019 64.1575ZM66.289 64.7719C66.1847 64.8988 66.0403 64.9623 65.856 64.9623C65.6864 64.9623 65.5569 64.9136 65.4673 64.8162C65.3777 64.7188 65.3321 64.5758 65.3303 64.3871V63.3488H65.753V64.3727C65.753 64.5379 65.8282 64.6206 65.9786 64.6206C66.1221 64.6206 66.2208 64.5706 66.2747 64.4706V63.3488H66.6999V64.9336H66.3008L66.289 64.7719ZM67.4082 63.3488L67.4212 63.5314C67.5351 63.3897 67.6873 63.3188 67.8777 63.3188C68.0456 63.3188 68.1704 63.3684 68.2521 63.4675C68.3347 63.5658 68.3769 63.7132 68.3786 63.9097V64.9336H67.9547V63.9201C67.9547 63.8306 67.9351 63.7653 67.896 63.7245C67.8569 63.6836 67.7921 63.6632 67.7017 63.6632C67.5825 63.6632 67.493 63.714 67.433 63.8158V64.9336H67.0104V63.3488H67.4082ZM68.6317 64.1288C68.6317 63.8819 68.6869 63.6853 68.7973 63.5392C68.9086 63.3923 69.0604 63.3188 69.2525 63.3188C69.4073 63.3188 69.5347 63.3766 69.6347 63.4923V62.6836H70.0599V64.9336H69.6778L69.6569 64.7653C69.5517 64.8966 69.416 64.9623 69.2499 64.9623C69.0639 64.9623 68.9143 64.8888 68.8012 64.7419C68.6882 64.5949 68.6317 64.3906 68.6317 64.1288ZM69.0556 64.1601C69.0556 64.3088 69.0812 64.4227 69.1325 64.5019C69.1847 64.581 69.2599 64.6206 69.3582 64.6206C69.4895 64.6206 69.5817 64.5653 69.6347 64.4549V63.8288C69.5825 63.7184 69.4912 63.6632 69.3608 63.6632C69.1573 63.6632 69.0556 63.8288 69.0556 64.1601Z" fill="#010101"/>
<path d="M4.13281 38.5332C4.13281 42.2776 7.17039 45.3125 10.9121 45.3125C12.424 45.3125 13.8214 44.8157 14.9513 43.9752L18.2727 44.8239L16.889 41.7318C17.4021 40.7793 17.6914 39.6876 17.6914 38.5332C17.6914 34.7888 14.6538 31.7539 10.9121 31.7539C7.17039 31.7539 4.13281 34.7888 4.13281 38.5332Z" fill="white"/>
<path d="M4.13284 38.5416C4.15467 39.7888 4.4849 41.0361 5.15901 42.0895C5.30911 42.3624 5.51653 42.5999 5.69938 42.851C5.91226 43.0775 6.10876 43.3204 6.34893 43.5196C6.80197 43.9481 7.3287 44.2892 7.88272 44.5676C8.43402 44.8569 9.03717 45.0261 9.64304 45.1517C9.94871 45.1953 10.2544 45.2499 10.5655 45.2499C10.8739 45.269 11.185 45.2635 11.4907 45.2335C12.7216 45.1189 13.9142 44.6522 14.894 43.9071L14.9295 43.8799L14.9759 43.8908L18.3027 44.7177L18.1635 44.8815L16.7689 41.792L16.7416 41.7347L16.7717 41.6774C17.2438 40.7877 17.5113 39.7943 17.5522 38.7899C17.5768 37.7856 17.4157 36.7649 16.9954 35.8479C16.5861 34.9282 15.9693 34.0985 15.2078 33.4353C14.4437 32.7721 13.5185 32.3 12.5387 32.0434C11.5589 31.7896 10.5164 31.7541 9.51477 31.9534C8.51589 32.158 7.56614 32.5947 6.75284 33.217C5.12626 34.4587 4.14102 36.4892 4.13284 38.5416ZM4.13284 38.5416C4.12738 36.4892 5.09623 34.4424 6.73374 33.1842C7.54158 32.5456 8.49133 32.0871 9.50113 31.8606C10.5109 31.6395 11.5726 31.6559 12.5796 31.8988C13.5867 32.1444 14.5446 32.6111 15.3443 33.2797C16.1439 33.9457 16.7935 34.7972 17.222 35.7496C18.0817 37.6519 18.0271 39.9635 17.0091 41.803L17.0145 41.6883L18.3873 44.7859L18.4883 45.0152L18.2481 44.9524L14.9322 44.0818L15.0141 44.0654C13.9934 44.8132 12.7625 45.269 11.5071 45.3645C11.1932 45.3891 10.8766 45.3891 10.5628 45.3645C10.2462 45.3591 9.93779 45.299 9.62667 45.2499C9.01533 45.1107 8.40673 44.9306 7.85543 44.6276C7.30141 44.3384 6.77741 43.9836 6.32436 43.5524C6.0842 43.3504 5.8877 43.1048 5.67482 42.8755C5.49197 42.6217 5.28728 42.3843 5.13717 42.1086C4.46852 41.0415 4.14648 39.7888 4.13284 38.5416Z" fill="#263238"/>
<path d="M10.1016 34.4609H11.6872L11.5808 40.3068H10.208L10.1016 34.4609Z" fill="#FFC829"/>
<path d="M11.5642 41.0273H10.1914V42.4001H11.5642V41.0273Z" fill="#FFC829"/>
</svg>
