<svg width="250" height="190" viewBox="0 0 250 190" fill="none" xmlns="http://www.w3.org/2000/svg">
<path d="M244.911 45.3275L240.32 67.5447L237.366 64.6653L232.344 68.2516L228.504 63.4822L219.888 69.7471L212.537 57.4406L204.323 62.2471L201.071 57.7531L190.647 63.631L187.507 56.9123L194.814 21.5254L233.988 29.6132L244.911 45.3275Z" fill="#EBEBEB"/>
<path d="M233.988 29.6133L244.911 45.3276L231.324 42.5225L233.988 29.6133Z" fill="#DCDBDB"/>
<path d="M239.345 71.9867L232.619 104.591L179.851 93.698L186.533 61.3542L189.665 68.073L200.089 62.195L203.348 66.6891L211.555 61.8751L218.914 74.1891L227.53 67.9242L231.369 72.6935L236.391 69.1072L239.345 71.9867Z" fill="#EBEBEB"/>
<path d="M163.824 68.1696L110.052 71.4955L105.781 2.47024L145.707 0L160.365 12.2917L163.824 68.1696Z" fill="#EBEBEB"/>
<path d="M145.707 0L160.365 12.2917L146.518 13.1473L145.707 0Z" fill="#DCDBDB"/>
<path d="M130.804 46.4435L130.595 44.8884C130.052 41.6592 130.938 38.0506 133.743 34.2783C136.272 30.9375 137.641 28.5119 137.493 25.8036C137.321 22.7381 135.283 20.7961 131.488 20.9524C129.323 21.0714 126.957 21.9271 125.521 23.1548L123.869 19.4494C125.774 17.8943 129.144 16.7411 132.336 16.5625C139.249 16.1756 142.619 20.2679 142.872 24.8437C143.103 28.936 140.982 32.0089 138.289 35.5952C135.818 38.8691 135.007 41.5699 135.357 44.628L135.506 46.1905L130.804 46.4435ZM129.948 54.933C129.821 52.7083 131.243 51.0565 133.341 50.9449C135.446 50.8259 136.979 52.3065 137.098 54.5387C137.217 56.6443 135.923 58.3482 133.698 58.4673C131.6 58.5789 130.067 57.0387 129.948 54.933Z" fill="#DCDBDB"/>
<path d="M17.7381 34.7024L12.3289 32.2471L11.5774 33.9063C11.3542 34.3899 10.878 34.7024 10.3423 34.7248C10.0446 34.7396 9.75447 34.7694 9.45685 34.814C8.92857 34.8959 8.4003 34.6801 8.0878 34.2485L7.03125 32.7679L2.20238 36.2277L3.25893 37.7084C3.57143 38.1399 3.60119 38.7128 3.35566 39.1816C3.22173 39.442 3.09524 39.7173 2.99107 39.9926C2.79762 40.4911 2.35119 40.8408 1.81548 40.8929L0 41.0715L0.580356 46.9867L2.39583 46.8081C2.93155 46.756 3.43006 47.0164 3.72024 47.4703C3.80208 47.5893 3.88393 47.7158 3.96578 47.8349C4.04762 47.9539 4.13691 48.073 4.22619 48.1846C4.56101 48.6012 4.6503 49.1593 4.42708 49.6429L3.66816 51.3096L9.07738 53.7649L9.82887 52.1057C10.0521 51.6221 10.5283 51.3096 11.064 51.2872C11.3616 51.2724 11.6518 51.2426 11.942 51.2054C12.4702 51.1236 12.9985 51.3393 13.3036 51.7709L14.3601 53.2515L19.189 49.7917L18.1324 48.3111C17.8199 47.8795 17.7902 47.3066 18.0357 46.8378C18.1696 46.5774 18.2961 46.3021 18.4003 46.0343C18.5938 45.5358 19.0402 45.1786 19.5759 45.1265L21.3914 44.948L20.811 39.0328L18.9955 39.2114C18.4673 39.2634 17.9613 39.003 17.6711 38.5492C17.5893 38.4227 17.5074 38.3036 17.4256 38.1846C17.3438 38.0655 17.2545 37.9465 17.1652 37.8349C16.8304 37.4182 16.7411 36.8527 16.9643 36.3691L17.7381 34.7024ZM14.6652 40.1712C16.2277 42.3587 15.7292 45.3944 13.5417 46.9569C11.3542 48.5194 8.31845 48.0209 6.74851 45.8408C5.18601 43.6533 5.68453 40.6102 7.87203 39.0477C10.0595 37.4777 13.1027 37.9837 14.6652 40.1712Z" fill="#EBEBEB"/>
<path d="M240.804 113.14L237.195 115.223L237.835 116.324C238.021 116.652 238.006 117.046 237.798 117.359C237.686 117.53 237.582 117.716 237.485 117.894C237.314 118.229 236.979 118.445 236.607 118.445H235.335V122.612H236.607C236.979 122.612 237.314 122.827 237.485 123.162C237.582 123.348 237.686 123.527 237.798 123.698C237.999 124.01 238.021 124.412 237.835 124.732L237.195 125.833L240.804 127.917L241.443 126.808C241.629 126.481 241.987 126.302 242.359 126.324C242.463 126.332 242.56 126.332 242.664 126.332C242.768 126.332 242.872 126.332 242.969 126.324C243.341 126.302 243.698 126.481 243.884 126.808L244.524 127.917L248.132 125.833L247.493 124.725C247.307 124.397 247.321 124.003 247.53 123.691C247.641 123.519 247.746 123.341 247.842 123.155C248.013 122.82 248.348 122.612 248.72 122.612H250V118.445H248.728C248.356 118.445 248.021 118.229 247.85 117.902C247.753 117.716 247.649 117.537 247.537 117.366C247.329 117.054 247.314 116.652 247.5 116.332L248.14 115.223L244.531 113.14L243.891 114.249C243.705 114.576 243.348 114.747 242.976 114.732C242.872 114.725 242.768 114.725 242.671 114.725C242.567 114.725 242.463 114.725 242.366 114.732C241.994 114.754 241.637 114.576 241.451 114.249L240.804 113.14ZM242.664 117.121C244.546 117.121 246.071 118.646 246.071 120.528C246.071 122.411 244.546 123.936 242.664 123.936C240.781 123.936 239.256 122.411 239.256 120.528C239.256 118.646 240.781 117.121 242.664 117.121Z" fill="#EBEBEB"/>
<path d="M28.6756 16.9867L25.372 19.5164L26.1458 20.5283C26.3765 20.826 26.4062 21.2277 26.2426 21.5626C26.1533 21.7486 26.0714 21.942 26.0045 22.1355C25.878 22.4852 25.5729 22.7456 25.2009 22.7902L23.936 22.9539L24.4717 27.0834L25.7366 26.9197C26.1086 26.8751 26.4658 27.0388 26.6815 27.3513C26.8006 27.5224 26.9271 27.6861 27.061 27.8423C27.3065 28.1251 27.3735 28.5194 27.2321 28.8691L26.7411 30.0447L30.5878 31.6444L31.0789 30.4614C31.2202 30.1117 31.5551 29.8885 31.9271 29.8587C32.0312 29.8513 32.128 29.8364 32.2321 29.8289C32.3363 29.8141 32.433 29.7992 32.5372 29.7843C32.9018 29.7173 33.2812 29.8513 33.5045 30.1414L34.2857 31.1608L37.5893 28.631L36.8155 27.6191C36.5848 27.3215 36.5551 26.9197 36.7187 26.5849C36.808 26.3989 36.8899 26.2054 36.9568 26.012C37.0833 25.6623 37.3884 25.4018 37.7604 25.3572L39.0253 25.1935L38.4896 21.0641L37.2247 21.2277C36.8527 21.2724 36.4955 21.1087 36.2798 20.7962C36.1607 20.6251 36.0342 20.4614 35.9003 20.3051C35.6548 20.0224 35.5878 19.628 35.7292 19.2783L36.2202 18.0953L32.3735 16.4956L31.8824 17.6786C31.7411 18.0209 31.4062 18.2441 31.0342 18.2739C30.9301 18.2813 30.8333 18.2962 30.7292 18.3036C30.625 18.3185 30.5283 18.3334 30.4241 18.3483C30.0521 18.4152 29.6801 18.2813 29.4494 17.9837L28.6756 16.9867ZM31.0417 20.692C32.9092 20.4465 34.6205 21.7635 34.8586 23.631C35.1042 25.4986 33.7872 27.2099 31.9196 27.4554C30.0521 27.701 28.3408 26.3766 28.0952 24.5164C27.8497 22.6414 29.1741 20.9301 31.0417 20.692Z" fill="#EBEBEB"/>
<path d="M15.5804 156.518C90.5952 156.064 174.74 156.057 249.747 156.518C174.732 156.979 90.5878 156.972 15.5804 156.518Z" fill="#1A2F36"/>
<path d="M126.562 189.881C190.548 189.881 242.418 184.198 242.418 177.188C242.418 170.177 190.548 164.494 126.562 164.494C62.5772 164.494 10.7068 170.177 10.7068 177.188C10.7068 184.198 62.5772 189.881 126.562 189.881Z" fill="#F6F6F6"/>
<path d="M201.458 180.432H55.372L76.4955 60.6326H222.582L201.458 180.432Z" fill="#FFDC76"/>
<path d="M126.488 48.2292H78.683L76.4955 60.6325H127.656L126.488 48.2292Z" fill="#FFDC76"/>
<path d="M73.5268 53.2889C73.0208 51.9049 73.0134 50.4987 73.5268 49.1147C74.0402 50.4987 74.0327 51.9049 73.5268 53.2889Z" fill="#263238"/>
<path d="M69.2783 54.5165C68.1473 53.5715 67.4405 52.3587 67.1949 50.9004C68.3259 51.8453 69.0253 53.0656 69.2783 54.5165Z" fill="#263238"/>
<path d="M66.2128 57.7086C64.7619 57.4556 63.5417 56.7562 62.5967 55.6252C64.0476 55.8633 65.2679 56.5702 66.2128 57.7086Z" fill="#263238"/>
<path d="M65.1488 62.0017C63.7649 62.5077 62.3586 62.5151 60.9747 62.0017C62.3586 61.4884 63.7649 61.4884 65.1488 62.0017Z" fill="#263238"/>
<path d="M66.3765 66.2502C65.4316 67.3812 64.2188 68.088 62.7604 68.3336C63.7054 67.1952 64.9256 66.4958 66.3765 66.2502Z" fill="#263238"/>
<path d="M69.5684 69.3157C69.3155 70.7666 68.6161 71.9868 67.4851 72.9317C67.7306 71.4734 68.4375 70.2532 69.5684 69.3157Z" fill="#263238"/>
<path d="M73.8616 70.3721C74.3676 71.756 74.375 73.1622 73.8616 74.5462C73.3482 73.1622 73.3482 71.756 73.8616 70.3721Z" fill="#263238"/>
<path d="M78.1101 69.1445C79.2411 70.0895 79.9479 71.3023 80.1935 72.7606C79.0625 71.8157 78.3557 70.5954 78.1101 69.1445Z" fill="#263238"/>
<path d="M81.1756 65.9526C82.6265 66.2056 83.8467 66.905 84.7917 68.036C83.3333 67.7979 82.1131 67.091 81.1756 65.9526Z" fill="#263238"/>
<path d="M82.2321 61.6594C83.6161 61.1534 85.0223 61.146 86.4062 61.6594C85.0223 62.1728 83.6161 62.1728 82.2321 61.6594Z" fill="#263238"/>
<path d="M81.0045 57.411C81.9494 56.28 83.1622 55.5732 84.6205 55.3276C83.6756 56.466 82.4553 57.1654 81.0045 57.411Z" fill="#263238"/>
<path d="M77.8199 54.3453C78.0729 52.8944 78.7723 51.6742 79.9033 50.7292C79.6577 52.1876 78.9509 53.4078 77.8199 54.3453Z" fill="#263238"/>
<path d="M201.243 180.432H54.8437L34.055 64.9851H180.454L201.243 180.432Z" fill="#FFF0C4"/>
<path d="M84.7842 135.558C88.1456 135.558 90.8705 132.833 90.8705 129.472C90.8705 126.11 88.1456 123.385 84.7842 123.385C81.4228 123.385 78.6979 126.11 78.6979 129.472C78.6979 132.833 81.4228 135.558 84.7842 135.558Z" fill="#263238"/>
<path d="M132.887 135.558C136.248 135.558 138.973 132.833 138.973 129.472C138.973 126.11 136.248 123.385 132.887 123.385C129.526 123.385 126.801 126.11 126.801 129.472C126.801 132.833 129.526 135.558 132.887 135.558Z" fill="#263238"/>
<path d="M117.582 136.525L117.247 135.885C117.217 135.826 114.07 130.015 107.746 130.015C101.979 130.015 100.573 135.484 100.513 135.722L100.342 136.421L98.9434 136.086L99.1146 135.387C99.1295 135.32 100.826 128.579 107.746 128.579C114.955 128.579 118.378 134.948 118.519 135.216L118.854 135.856L117.582 136.525Z" fill="#263238"/>
<path d="M191.525 128.772C192.009 128.668 192.493 128.549 192.969 128.415" stroke="#263238" stroke-miterlimit="10"/>
<path d="M195.781 127.455C202.448 124.74 207.813 119.301 208.356 113.021C209.628 98.1548 191.525 89.948 193.4 72.7679C195.186 56.384 212.366 55.2158 219.256 57.4778C226.868 59.9778 224.256 67.2918 217.366 66.3468C205.424 64.7099 197.917 51.7263 203.586 36.9941C207.522 26.7709 216.927 22.4629 221.682 20.8855" stroke="#263238" stroke-miterlimit="10" stroke-dasharray="3.99 3.99"/>
<path d="M223.095 20.4687C224.003 20.2157 224.539 20.1116 224.539 20.1116" stroke="#263238" stroke-miterlimit="10"/>
<path d="M75.8333 18.9807C75.1488 25.5432 69.2634 30.3125 62.7009 29.6205C60.0521 29.3452 57.6935 28.2143 55.8631 26.5327L49.881 27.4107L52.872 22.2396C52.1429 20.4762 51.8378 18.5119 52.0536 16.4881C52.7381 9.9256 58.6235 5.15625 65.186 5.84821C71.756 6.53274 76.5179 12.4107 75.8333 18.9807Z" fill="white"/>
<path d="M75.8333 18.9807C75.5803 21.1608 74.7842 23.3036 73.4226 25.0373C73.1101 25.4911 72.7083 25.8706 72.3363 26.2872C71.9196 26.6518 71.5327 27.0462 71.0789 27.3587C70.2083 28.0283 69.2262 28.5566 68.1994 28.9658C67.18 29.3974 66.0788 29.5983 64.9851 29.7322C64.4345 29.762 63.8765 29.814 63.3259 29.7619C62.7678 29.7471 62.2172 29.6875 61.6741 29.5908C59.4866 29.1965 57.4181 28.1697 55.7589 26.6742L55.9003 26.7188L49.9256 27.634L49.494 27.7009L49.7098 27.3215L52.686 22.1429L52.6711 22.3438C51.2202 18.9361 51.5476 14.8736 53.4077 11.689C54.3303 10.0968 55.625 8.72772 57.1503 7.70094C58.6756 6.67415 60.439 6.03427 62.247 5.78873C64.055 5.55064 65.9226 5.71434 67.6488 6.28725C69.375 6.86761 70.9598 7.84974 72.2544 9.11462C74.8958 11.6146 76.2202 15.3795 75.8333 18.9807ZM75.8333 18.9807C76.1979 15.3795 74.8437 11.637 72.2024 9.16671C70.8928 7.93159 69.308 6.9941 67.5967 6.45094C65.8854 5.91523 64.0476 5.78874 62.2842 6.04915C60.5208 6.31701 58.8095 6.97921 57.3512 7.99855C55.8928 9.02534 54.6652 10.3646 53.7723 11.8974C52.8646 13.4301 52.3958 15.1861 52.2544 16.9569C52.1428 18.7277 52.433 20.5209 53.0952 22.1652L53.1399 22.2694L53.0803 22.3661L50.0744 27.5224L49.8586 27.2099L55.8408 26.3691L55.9226 26.3542L55.9821 26.4063C57.567 27.8944 59.5684 28.9286 61.7038 29.3527C62.2396 29.4569 62.7827 29.5313 63.3259 29.5462C63.869 29.6057 64.4122 29.5611 64.9628 29.5462C66.0416 29.4346 67.1354 29.2486 68.1548 28.8468C69.1741 28.4673 70.1637 27.9614 71.0342 27.2917C71.4955 26.9867 71.8824 26.5923 72.2991 26.2352C72.6637 25.8259 73.0729 25.4539 73.3854 25C74.7545 23.2887 75.5655 21.1608 75.8333 18.9807Z" fill="#263238"/>
<path d="M58.1027 23.3037C58.1027 22.5894 58.6012 22.076 59.2708 22.076C59.9851 22.076 60.439 22.5894 60.439 23.3037C60.439 23.9957 59.9851 24.5314 59.2708 24.5314C58.5789 24.5314 58.1027 24.0031 58.1027 23.3037ZM58.6012 20.4689L58.3259 10.96H60.2306L59.9553 20.4689H58.6012Z" fill="#FFC829"/>
<path d="M62.6637 23.3037C62.6637 22.5894 63.1622 22.076 63.8318 22.076C64.5461 22.076 65 22.5894 65 23.3037C65 23.9957 64.5461 24.5314 63.8318 24.5314C63.1399 24.5314 62.6637 24.0031 62.6637 23.3037ZM63.1548 20.4689L62.8795 10.96H64.7842L64.5089 20.4689H63.1548Z" fill="#FFC829"/>
<path d="M67.2247 23.3037C67.2247 22.5894 67.7232 22.076 68.3929 22.076C69.1072 22.076 69.561 22.5894 69.561 23.3037C69.561 23.9957 69.1072 24.5314 68.3929 24.5314C67.6935 24.5314 67.2247 24.0031 67.2247 23.3037ZM67.7158 20.4689L67.4405 10.96H69.3452L69.07 20.4689H67.7158Z" fill="#FFC829"/>
</svg>
