<svg width="14" height="4" viewBox="0 0 14 4" fill="none" xmlns="http://www.w3.org/2000/svg">
<path d="M1.74324 3.49998C0.781764 3.49998 0 2.71373 0 1.74775C0 0.777289 0.79075 -0.00447362 1.76121 1.92692e-05C2.72269 0.00451216 3.49996 0.795261 3.49996 1.75674C3.49547 2.72271 2.70921 3.50447 1.74324 3.49998Z" fill="#0050E5"/>
<path d="M8.39391 1.74773C8.39391 2.70921 7.61214 3.49996 6.65516 3.49996C5.68469 3.50445 4.89844 2.7182 4.89844 1.74773C4.89844 0.786256 5.6802 0 6.64617 0C7.60765 0.00449289 8.39391 0.786256 8.39391 1.74773Z" fill="#0050E5"/>
<path d="M13.2927 1.97025C13.2073 2.20388 13.1489 2.45099 13.0276 2.66215C12.6187 3.35855 11.7696 3.66407 11.0058 3.41246C10.2375 3.16086 9.7298 2.39707 9.80169 1.59734C9.87357 0.788615 10.4846 0.141639 11.2843 0.0203313C12.2278 -0.123441 13.104 0.510056 13.2702 1.45356C13.2747 1.48052 13.2882 1.50299 13.2972 1.52994C13.2927 1.67821 13.2927 1.82198 13.2927 1.97025Z" fill="#0050E5"/>
</svg>
