<svg width="21" height="6" viewBox="0 0 21 6" fill="none" xmlns="http://www.w3.org/2000/svg">
<path d="M2.73938 5.49997C1.22849 5.49997 0 4.26443 0 2.74647C0 1.22145 1.24261 -0.00702998 2.76762 3.02802e-05C4.27852 0.00709054 5.49994 1.2497 5.49994 2.76059C5.49288 4.27855 4.25734 5.50703 2.73938 5.49997Z" fill="#0050E5"/>
<path d="M13.1921 2.74644C13.1921 4.25734 11.9636 5.49994 10.4598 5.49994C8.93476 5.507 7.69922 4.27146 7.69922 2.74644C7.69922 1.23554 8.9277 0 10.4457 0C11.9566 0.00706026 13.1921 1.23554 13.1921 2.74644Z" fill="#0050E5"/>
<path d="M20.889 3.0961C20.7549 3.46323 20.6631 3.85155 20.4725 4.18338C19.83 5.27772 18.4956 5.75782 17.2954 5.36244C16.0881 4.96707 15.2902 3.76682 15.4032 2.5101C15.5162 1.23925 16.4764 0.222576 17.7331 0.0319492C19.2157 -0.193979 20.5925 0.801516 20.8537 2.28417C20.8608 2.32653 20.882 2.36183 20.8961 2.4042C20.889 2.63718 20.889 2.86311 20.889 3.0961Z" fill="#0050E5"/>
</svg>
