<svg width="260" height="356" viewBox="0 0 260 356" fill="none" xmlns="http://www.w3.org/2000/svg">
<path fill-rule="evenodd" clip-rule="evenodd" d="M121.801 95.2C120.001 82.7 117.801 78.7 110.301 68.1C120.301 53.3 126.001 32.8 130.001 15.5C134.101 33 139.501 53.1 149.701 68.1C142.201 78.7 140.101 82.7 138.201 95.2C133.201 90.5 126.801 90.5 121.801 95.2Z" fill="black"/>
<path fill-rule="evenodd" clip-rule="evenodd" d="M117.998 219.399V159.199C88.5977 147.199 84.5977 128.499 84.5977 101.399C96.4977 106.199 100.798 111.499 106.198 120.199C107.698 112.199 109.598 106.299 113.998 99.7988C128.198 114.299 127.598 156.699 127.598 163.199C127.598 185.499 127.598 207.799 127.598 230.099H27.0977C27.0977 179.999 27.0977 129.899 27.0977 79.8988C27.0977 65.3988 30.1976 42.0988 48.1976 38.7988L52.8976 45.1988C35.5976 51.2988 36.4977 74.0988 36.4977 89.2988V219.299H117.998V219.399Z" fill="#B17D57"/>
<path fill-rule="evenodd" clip-rule="evenodd" d="M93.2008 99.8988C84.2008 87.6988 77.7008 95.9988 78.0008 112.299C72.1008 64.7988 61.0008 40.6988 35.8008 20.2988C68.7008 26.3988 94.8008 49.2988 113.301 93.9988C105.701 90.4988 95.0008 89.9988 93.2008 99.8988Z" fill="black"/>
<path fill-rule="evenodd" clip-rule="evenodd" d="M82.4973 37.4999C82.8973 28.7999 86.7973 16.5999 83.2973 10.4999C79.9973 4.79993 73.0973 7.49993 70.0973 10.2999C61.6973 8.09993 55.7973 16.0999 60.3973 21.9999C65.7973 28.7999 73.8973 28.8999 82.4973 37.4999Z" fill="black"/>
<path fill-rule="evenodd" clip-rule="evenodd" d="M115.798 42.3992L105.198 64.7992C99.1984 55.0992 94.5984 49.1992 86.8984 41.4992C89.9984 32.6992 92.4984 22.1992 92.6984 13.1992C99.0984 23.5992 106.798 33.6992 115.798 42.3992Z" fill="#B17D57"/>
<path fill-rule="evenodd" clip-rule="evenodd" d="M116.7 35.3997C113.1 28.1997 103.4 20.4997 99.5003 12.8997C97.3003 8.59974 98.9003 1.59974 109.8 3.39974C112.2 -0.700258 120.6 0.199737 122.4 5.19974C125.9 14.7997 120 27.4997 116.7 35.3997Z" fill="black"/>
<path fill-rule="evenodd" clip-rule="evenodd" d="M141.998 219.399V159.199C171.398 147.199 175.398 128.499 175.398 101.399C163.498 106.199 159.198 111.499 153.798 120.199C152.298 112.199 150.398 106.299 145.998 99.7988C131.798 114.299 132.398 156.699 132.398 163.199C132.398 185.499 132.398 207.799 132.398 230.099H232.998C232.998 179.999 232.998 129.899 232.998 79.8988C232.998 65.3988 229.898 42.0988 211.898 38.7988L207.198 45.1988C224.498 51.2988 223.598 74.0988 223.598 89.2988V219.299H141.998V219.399Z" fill="#B17D57"/>
<path fill-rule="evenodd" clip-rule="evenodd" d="M166.799 99.8988C175.799 87.6988 182.299 95.9988 181.999 112.299C187.899 64.7988 198.999 40.6988 224.199 20.2988C191.299 26.3988 165.199 49.2988 146.699 93.9988C154.299 90.4988 164.999 89.9988 166.799 99.8988Z" fill="black"/>
<path fill-rule="evenodd" clip-rule="evenodd" d="M177.501 37.4999C177.101 28.7999 173.201 16.5999 176.701 10.4999C180.001 4.79993 186.9 7.49993 189.9 10.2999C198.3 8.09993 204.201 16.0999 199.601 21.9999C194.201 28.7999 186.101 28.8999 177.501 37.4999Z" fill="black"/>
<path fill-rule="evenodd" clip-rule="evenodd" d="M144.199 42.3992L154.799 64.7992C160.799 55.0992 165.399 49.1992 173.099 41.4992C169.999 32.6992 167.499 22.1992 167.299 13.1992C160.899 23.5992 153.199 33.6992 144.199 42.3992Z" fill="#B17D57"/>
<path fill-rule="evenodd" clip-rule="evenodd" d="M143.301 35.3997C146.901 28.1997 156.601 20.4997 160.501 12.8997C162.701 8.59974 161.101 1.59974 150.201 3.39974C147.801 -0.700258 139.401 0.199737 137.601 5.19974C134.101 14.7997 140.001 27.4997 143.301 35.3997Z" fill="black"/>
<path fill-rule="evenodd" clip-rule="evenodd" d="M236.099 342.3C236.199 343.1 235.999 344.2 235.299 345.5C234.499 347.1 233.699 347.9 232.999 347.9C232.499 347.5 231.799 346.9 230.799 346.2C229.799 345.5 229.399 345 229.399 344.7L229.499 344.4C229.799 343.8 230.299 342.7 230.999 341.1C231.199 340.7 231.599 339.9 232.399 338.7L232.699 338.4C232.899 338.6 233.199 338.8 233.699 339.1C234.599 339.7 235.099 340.2 235.299 340.5C235.699 341.1 235.999 341.7 236.099 342.3ZM21.6992 310.9C21.6992 311.1 21.7992 311.3 21.7992 311.7C21.7992 312.5 21.4992 313.3 20.9992 314.1C19.8992 315.7 19.0992 316.5 18.5992 316.6C18.4992 316.6 18.2992 316.5 17.9992 316.3C16.8992 315.6 16.3992 315.1 16.2992 315.1C15.5992 314.6 15.1992 314.4 15.0992 314.4C14.5992 314.1 14.3992 313.8 14.2992 313.4L15.8992 309.8C16.3992 308.9 16.7992 308.2 17.1992 307.7L17.5992 307.1C17.8992 307.2 18.3992 307.5 18.9992 307.9C19.7992 308.5 20.2992 309 20.6992 309.3C21.2992 309.7 21.5992 310.3 21.6992 310.9ZM31.9992 314.8C31.4992 316.8 31.1992 318.3 30.7992 319.3C28.2992 327 24.0992 332.4 18.3992 335.6C16.0992 336.8 13.5992 337.4 10.6992 337.4C7.49922 337.4 5.09922 336.4 3.29922 334.4C1.59922 332.4 0.699219 329.8 0.699219 326.6C0.699219 321.5 2.89922 315.3 7.19922 307.8C7.69922 306.9 8.09922 306.5 8.39922 306.6C8.49922 306.7 8.49922 306.9 8.49922 307.4C8.39922 307.9 8.29922 308.3 8.19922 308.7L5.69922 314.2C4.49922 316.9 3.89922 319.2 3.89922 321.1C3.89922 326.5 6.89922 329.2 12.7992 329.2C19.0992 329.2 24.1992 326.3 27.7992 320.6C28.9992 318.8 29.5992 316.7 29.5992 314.4L29.7992 308.9C29.8992 307.4 30.2992 305.5 31.0992 303.4L32.5992 300.4C32.9992 299.6 33.2992 299 33.5992 298.8C33.8992 299.1 33.9992 299.4 33.8992 299.8L33.4992 302.5L33.0992 306.3C33.1992 308.6 32.7992 311.4 31.9992 314.8ZM42.7992 311V310.8V309.2C42.7992 306.3 42.9992 303.4 43.4992 300.3C43.7992 298.8 44.1992 295.8 44.8992 291.4C45.3992 288.4 45.5992 286.3 45.5992 284.9C45.6992 284.6 45.5992 284.4 45.4992 284.4C45.3992 284.4 45.2992 284.5 45.2992 284.5L42.1992 292.3L41.0992 299.6L40.4992 305.3C39.9992 310.4 39.6992 314.1 39.6992 316.3L39.5992 316.4C39.5992 321.7 41.2992 324.4 44.6992 324.4C45.9992 324.4 47.0992 323.9 47.9992 322.9C49.1992 321 49.9992 319.5 50.5992 318.6C51.9992 316.4 53.0992 315.3 53.8992 315.3C54.2992 315.3 54.7992 315.5 55.3992 316C56.5992 316.9 59.4992 317.6 64.0992 318.1C67.7992 318.5 70.8992 318.7 73.4992 318.7C82.8992 318.7 91.9992 317.5 101.099 315C106.399 313.6 112.799 311 120.399 307.2C125.399 304.7 130.199 301.9 134.699 298.7L147.399 289.9C148.799 288.9 150.599 288 152.999 287.3C154.299 286.9 155.499 285.6 156.599 283.6C157.199 282.6 157.499 281.9 157.599 281.5C157.699 281.3 157.499 281.1 157.299 281.1C156.099 281.4 155.299 281.7 154.899 282C153.099 282.4 148.199 285.2 140.299 290.4C135.199 293.7 131.899 295.8 130.499 296.6C121.699 301.6 113.099 305.3 104.699 307.6C99.4992 309 93.6992 310 87.2992 310.6C83.4992 310.9 80.2992 311.1 77.5992 311.1H75.2992C74.4992 311.1 73.8992 311.1 73.4992 311V310.9C71.6992 310.9 68.9992 310.5 65.3992 309.7C61.7992 308.9 59.1992 308.5 57.6992 308.5C56.1992 308.5 54.3992 310.1 52.2992 313.3C51.4992 314.4 50.9992 315.1 50.7992 315.4C50.0992 316 49.0992 316.4 47.8992 316.4C44.7992 316.4 43.1992 314.6 42.7992 311ZM75.5992 344.8C75.6992 345.6 75.4992 346.7 74.7992 348C73.9992 349.6 73.1992 350.4 72.4992 350.4C71.9992 350 71.2992 349.4 70.2992 348.7C69.2992 348 68.7992 347.5 68.7992 347.2L68.8992 346.9C69.1992 346.3 69.6992 345.2 70.3992 343.6C70.5992 343.2 70.9992 342.4 71.7992 341.2L72.0992 340.9C72.2992 341.1 72.5992 341.3 73.0992 341.6C73.9992 342.2 74.4992 342.7 74.6992 343C75.0992 343.6 75.4992 344.2 75.5992 344.8ZM68.4992 345.2C68.5992 346 68.3992 347.1 67.6992 348.4C66.8992 350 66.0992 350.8 65.3992 350.8C64.8992 350.4 64.1992 349.8 63.1992 349.1C62.1992 348.4 61.6992 347.9 61.6992 347.6L61.7992 347.3C62.0992 346.7 62.5992 345.6 63.2992 344C63.4992 343.6 63.8992 342.8 64.6992 341.6L64.9992 341.3C65.1992 341.5 65.4992 341.7 65.9992 342C66.8992 342.6 67.3992 343.1 67.5992 343.4C67.9992 344 68.3992 344.6 68.4992 345.2ZM141.999 307.9C141.999 309.2 141.699 311.2 140.999 314L140.199 317.4C139.499 319.6 138.899 321 138.399 321.8C137.499 323.3 136.399 324.3 134.999 324.8L132.499 325.8C131.399 326.3 130.299 326.5 129.299 326.5C129.099 326.5 128.899 326.4 128.899 326.2C128.799 325.8 129.399 325 130.799 323.9C131.299 323.5 132.199 322.8 133.599 321.8C135.399 320.4 136.899 318.7 137.999 316.7C138.299 316.2 138.899 314.6 139.799 311.8L140.599 309.3C141.099 307.9 141.399 307.2 141.699 307.2C141.799 307.5 141.999 307.7 141.999 307.9ZM153.099 313.8L153.199 314.8C153.199 317.8 154.399 319.4 156.899 319.4C157.699 319.4 158.399 318.3 158.999 316.2C159.099 315.8 159.299 315.6 159.399 315.6C159.599 315.6 159.699 315.8 159.699 316.3C159.699 316.6 159.599 317.2 159.399 318C158.199 323.7 156.499 326.6 154.299 326.6C151.599 326.6 150.299 324.2 150.299 319.3H150.199C150.199 316.1 150.899 310.5 152.199 302.3C152.499 301.1 153.399 298.8 154.999 295.6L155.299 295.5C155.299 295.6 155.299 296 155.199 296.6L154.899 298.4L153.699 306.8C153.299 309.7 153.099 312 153.099 313.8ZM163.199 341.6C163.199 342.6 162.899 343.5 162.299 344.4C161.299 345.8 160.399 346.5 159.699 346.5C159.699 346.5 159.099 345.9 157.899 344.8C156.699 343.7 156.199 343.1 156.199 343C156.199 342.8 156.799 341.7 157.899 339.8C158.899 338.1 159.499 337.2 159.699 337.2C159.899 337.2 160.299 337.5 161.099 338.2C162.499 339.5 163.199 340.6 163.199 341.6ZM156.299 341.6C156.299 342.6 155.999 343.5 155.399 344.4C154.399 345.8 153.499 346.5 152.799 346.5C152.799 346.5 152.199 345.9 150.999 344.8C149.799 343.7 149.299 343.1 149.299 343C149.299 342.8 149.899 341.7 150.999 339.8C151.999 338.1 152.599 337.2 152.799 337.2C152.999 337.2 153.399 337.5 154.199 338.2C155.699 339.5 156.299 340.6 156.299 341.6ZM159.499 350.3C159.499 351.3 159.199 352.2 158.599 353.1C157.599 354.5 156.699 355.2 155.999 355.2C155.999 355.2 155.399 354.6 154.199 353.5C152.999 352.4 152.499 351.8 152.499 351.7C152.499 351.5 153.099 350.4 154.199 348.5C155.199 346.8 155.799 345.9 155.999 345.9C156.199 345.9 156.599 346.2 157.399 346.9C158.799 348.2 159.499 349.3 159.499 350.3ZM223.199 284.6C224.399 283.3 226.899 281.2 230.399 278.4L240.399 270.5C242.299 269 244.599 267 247.299 264.6C247.999 263.9 250.099 262 253.499 258.7C257.099 255.3 258.999 253.4 259.299 253C259.299 253.3 259.199 253.5 259.099 253.7C258.399 256.8 255.599 260.8 250.599 265.7C248.299 268 244.899 271 240.199 274.8C239.999 275 236.099 277.9 228.699 283.7L223.299 287.9C221.099 289.6 219.999 290.4 219.899 290.2C220.699 287.9 221.799 286.1 223.199 284.6ZM220.699 276.2C220.799 277 220.599 278.1 219.899 279.4C219.099 281 218.299 281.8 217.599 281.8C217.099 281.4 216.399 280.8 215.399 280.1C214.399 279.4 213.999 278.9 213.999 278.6L214.099 278.3C214.399 277.7 214.899 276.6 215.599 275C215.799 274.6 216.199 273.8 216.999 272.6L217.299 272.3C217.499 272.5 217.799 272.7 218.299 273C219.199 273.6 219.699 274.1 219.899 274.4C220.199 275 220.499 275.6 220.699 276.2ZM216.699 312.5V313.6C216.699 317 218.099 318.7 220.799 318.7C221.699 318.7 222.499 317.5 223.099 315.1C223.299 314.6 223.399 314.4 223.599 314.4C223.899 314.4 223.999 314.7 223.999 315.2C223.999 315.6 223.899 316.2 223.699 317.1C222.299 323.5 220.399 326.6 217.899 326.6C214.899 326.6 213.399 323.9 213.399 318.4C213.399 317.7 213.499 316.3 213.699 314.4L214.099 310.6C214.099 310.4 214.099 310.3 213.999 310.3C213.799 310.2 213.299 310.9 212.399 312.1C212.099 312.6 211.499 313.5 210.499 314.7C207.099 319.2 202.199 322.5 195.699 324.8C190.199 326.7 184.199 327.7 177.699 327.7H176.499C171.299 327.7 167.899 326.9 166.499 325.2C165.699 324.2 165.299 322.8 165.299 320.9C165.299 315.8 165.699 313.2 166.599 313.2C166.899 314.3 167.399 315.7 168.099 317.4C169.499 318.9 172.899 319.7 178.299 319.7C181.199 319.7 183.499 319.6 185.399 319.5C192.299 318.9 198.199 317.5 203.099 315.2C209.599 312.2 213.499 307.9 214.899 302.4L215.999 298C216.099 297.7 216.599 296.4 217.699 294.1C218.099 293.2 218.799 292 219.799 290.4V291.6C219.699 291.8 219.599 292.7 219.299 294.2L217.699 302.3C217.499 303.3 217.299 305.3 216.999 308.3C216.799 310 216.699 311.4 216.699 312.5ZM228.499 319.1C228.499 315.9 229.199 310.3 230.499 302.1C230.799 300.9 231.699 298.6 233.299 295.4L233.599 295.3C233.599 295.4 233.599 295.8 233.499 296.4L233.199 298.2L231.999 306.6C231.599 309.6 231.399 312 231.399 313.7V314.7C231.399 317.7 232.599 319.3 235.099 319.3C235.899 319.3 236.599 318.2 237.199 316.1C237.299 315.7 237.499 315.5 237.599 315.5C237.799 315.5 237.899 315.7 237.899 316.2C237.899 316.5 237.799 317.1 237.599 317.9C236.399 323.6 234.699 326.5 232.499 326.5C229.899 326.4 228.499 323.9 228.499 319.1Z" fill="black"/>
</svg>
