<svg width="18" height="16" viewBox="0 0 18 16" fill="none" xmlns="http://www.w3.org/2000/svg">
<path d="M12.7453 4.09168C12.7458 6.34884 10.908 8.18336 8.64898 8.18149C6.3853 8.17963 4.55544 6.35117 4.55591 4.09075C4.55591 1.83126 6.39043 -0.00186246 8.64992 1.4201e-06C10.9122 0.00233127 12.7449 1.83313 12.7453 4.09168Z" fill="#0050E5"/>
<path d="M9.66012 15.2621C7.6667 15.2621 5.67282 15.263 3.6794 15.2621C2.96134 15.2616 1.96929 15.4615 1.39801 14.9028C0.854228 14.3712 0.97072 13.3409 1.04621 12.655C1.22747 11.0157 2.90403 10.0386 4.31032 9.53532C5.94494 8.95007 7.9831 8.59919 9.71371 8.87504C8.0474 10.9873 8.02736 13.1074 9.66012 15.2621Z" fill="#0050E5"/>
<path d="M13.1111 15.9999C10.9546 15.9967 9.20672 14.2498 9.20532 12.0961C9.20439 9.94141 10.9755 8.17632 13.1279 8.18657C15.2848 8.19682 17.0271 9.95073 17.0192 12.1044C17.0112 14.2675 15.2694 16.0032 13.1111 15.9999ZM13.6702 13.0448C13.6702 12.5835 13.8571 11.6096 13.1679 11.542C12.4112 11.4679 12.5515 12.4702 12.551 12.9343C12.5505 13.4054 12.3576 14.5335 13.1269 14.5168C13.8478 14.5009 13.6702 13.5079 13.6702 13.0448ZM12.3711 10.4186C12.3697 10.8249 12.701 11.1622 13.1074 11.1678C13.7653 11.1772 14.0966 10.3515 13.6362 9.89668C13.1782 9.44375 12.3739 9.76853 12.3711 10.4186Z" fill="#0050E5"/>
</svg>
