<svg width="18" height="16" viewBox="0 0 18 16" fill="none" xmlns="http://www.w3.org/2000/svg">
<path d="M12.7453 4.09168C12.7458 6.34884 10.908 8.18336 8.64898 8.18149C6.3853 8.17963 4.55544 6.35117 4.55591 4.09075C4.55591 1.83126 6.39043 -0.00186246 8.64992 1.4201e-06C10.9122 0.00233127 12.7449 1.83313 12.7453 4.09168Z" fill="#0050E5"/>
<path d="M9.66018 15.2619C7.66676 15.2619 5.67288 15.2628 3.67946 15.2619C2.9614 15.2614 1.96935 15.4613 1.39808 14.9026C0.854289 14.371 0.970781 13.3407 1.04627 12.6548C1.22753 11.0155 2.90409 10.0384 4.31038 9.53514C5.94501 8.94988 7.98316 8.59901 9.71377 8.87486C8.04746 10.9871 8.02742 13.1073 9.66018 15.2619Z" fill="#0050E5"/>
<path d="M13.1111 16C10.9546 15.9967 9.20672 14.2498 9.20532 12.0961C9.20439 9.94147 10.9755 8.17638 13.1279 8.18663C15.2848 8.19688 17.0271 9.95079 17.0192 12.1045C17.0112 14.2675 15.2694 16.0033 13.1111 16ZM13.6702 13.0448C13.6702 12.5835 13.8571 11.6096 13.1679 11.5421C12.4112 11.468 12.5515 12.4703 12.551 12.9344C12.5505 13.4055 12.3576 14.5336 13.1269 14.5168C13.8478 14.501 13.6702 13.508 13.6702 13.0448ZM12.3711 10.4186C12.3697 10.8249 12.701 11.1623 13.1074 11.1679C13.7653 11.1772 14.0966 10.3515 13.6362 9.89674C13.1782 9.44382 12.3739 9.7686 12.3711 10.4186Z" fill="#0050E5"/>
</svg>
