<svg width="134" height="53" viewBox="0 0 134 53" fill="none" xmlns="http://www.w3.org/2000/svg">
<path d="M129.833 51.9271C128.675 51.4297 128.149 50.484 128.043 49.291C127.894 47.6153 128.085 45.9361 128.049 44.2574C127.999 41.9957 128.145 39.7322 128.036 37.4713C127.86 33.8147 126.131 31.058 123.089 29.0881C122.413 28.6504 121.634 28.6317 120.866 28.6309C117.607 28.627 114.349 28.6355 111.09 28.6383C110.934 28.6386 110.778 28.6283 110.622 28.6227C110.589 28.5967 110.557 28.5487 110.523 28.5485C109.827 28.5413 109.126 28.4827 108.437 28.5508C107.556 28.6378 107.008 29.3595 107.125 30.1696C107.343 31.6847 107.394 33.2124 107.449 34.7372C107.504 36.2952 107.392 37.8491 107.214 39.4004C107.051 40.8235 106.786 42.2199 106.38 43.5927C105.823 45.4733 104.911 47.1839 103.927 48.8661C103.561 49.49 103.227 50.1568 103.683 50.9006C103.715 50.953 103.69 51.0398 103.692 51.1104C103.148 50.5133 103.025 49.7692 103.019 49.0102C102.999 46.4069 103 43.8034 103 41.1998C103.001 35.6084 103.004 30.0171 103.01 24.4259C103.012 23.0049 103.881 22.1583 105.311 22.1673C105.795 22.1704 106.278 22.1771 106.761 22.1819C106.765 22.577 106.926 22.8908 107.233 23.1405C107.706 23.526 108.289 23.5327 108.841 23.5614C109.707 23.6066 110.577 23.5807 111.444 23.5666C112.936 23.5422 114.416 23.6678 115.877 23.9518C118.05 24.3746 120.091 25.1636 122.005 26.2803C124.065 27.4826 125.905 28.9517 127.432 30.7909C128.799 32.4375 129.866 34.2682 130.699 36.2395C131.706 38.6232 132.24 41.1143 132.387 43.6888C132.448 44.7524 132.394 45.8177 132.22 46.8721C131.965 48.4141 131.54 49.8897 130.534 51.1369C130.451 51.2396 130.32 51.3372 130.346 51.5041L130.348 51.5023C130.283 51.5039 130.178 51.4725 130.265 51.6015C130.149 51.7466 129.911 51.7314 129.833 51.9271Z" fill="#333333"/>
<path d="M126.408 23.2456C125.673 22.9089 124.952 22.5442 124.187 22.2735C123.806 22.1389 123.785 21.8392 124.134 21.5621C124.637 21.1619 125.089 20.7101 125.532 20.2481C127.726 17.9612 128.141 15.2937 127.053 12.4035C126.23 10.2162 124.66 8.63463 122.588 7.55565C122.1 7.30112 121.582 7.17039 121.031 7.17014C117.588 7.16885 114.145 7.16294 110.703 7.16885C109.851 7.17039 109.271 7.77242 109.243 8.6241C109.214 9.54692 109.342 10.4774 109.179 11.3918C108.893 12.9983 107.75 13.9859 106.221 13.9974C104.687 14.009 103.458 13.0094 103.122 11.4637C103.062 11.1873 103.018 10.9012 103.017 10.6195C103.008 8.0159 103.009 5.41208 103.01 2.80851C103.011 2.14792 103.239 1.5893 103.783 1.18427C104.555 1.19402 105.327 1.20353 106.099 1.21329C105.906 1.86874 106.117 2.29483 106.772 2.48669C107.326 2.64927 107.905 2.62127 108.46 2.52162C109.52 2.3313 110.587 2.20057 111.658 2.15332C113.032 2.09296 114.407 2.15948 115.777 2.30536C117.914 2.53267 119.947 3.07279 121.824 4.15254C124.211 5.5256 125.911 7.50377 127.002 10.0118C127.621 11.4349 128.011 12.921 128.141 14.4772C128.258 15.8913 128.263 17.2952 128.071 18.7053C128.015 19.1239 127.758 19.5333 127.943 19.9781C127.749 20.6572 127.499 21.314 127.155 21.9319C126.91 22.3711 126.657 22.8075 126.408 23.2456Z" fill="#1528A3"/>
<path d="M106.099 1.21231C105.327 1.20281 104.555 1.19305 103.783 1.18329C104.139 0.838612 104.578 0.690161 105.06 0.690418C110.011 0.691189 114.964 0.622355 119.914 0.722009C126.18 0.848373 131.953 4.95316 133.356 11.6533C134.119 15.3012 133.772 18.8728 131.892 22.1873C131.304 23.2228 130.48 24.0748 129.649 24.9149C129.359 25.2077 129.046 25.2215 128.74 24.9562C128.008 24.3224 127.219 23.7699 126.408 23.2457C126.657 22.8075 126.91 22.3712 127.155 21.9307C127.499 21.3127 127.749 20.656 127.943 19.9769C128.649 17.4316 128.804 14.8512 128.283 12.2623C127.62 8.95984 125.954 6.21912 123.283 4.17237C120.61 2.12306 117.538 1.12293 114.155 1.12627C111.65 1.12858 109.145 1.1255 106.641 1.12114C106.452 1.12062 106.273 1.14425 106.099 1.21231ZM121.521 1.45374C121.119 1.4278 120.724 1.4599 120.335 1.54697C120.169 1.5837 119.975 1.61503 119.944 1.81871C119.913 2.02366 120.11 2.06553 120.245 2.12434C120.426 2.20319 120.616 2.26381 120.808 2.31132C121.374 2.45156 121.931 2.62235 122.447 2.89409C123.91 3.66383 125.111 4.7405 126.212 5.9705C127.971 7.93608 128.829 10.2122 128.804 12.8322C128.795 13.7416 128.885 14.6462 128.917 15.5531C128.939 16.206 128.982 16.8797 129.219 17.5146C129.464 18.1703 129.848 18.318 130.426 17.9019C131.302 17.2709 131.898 16.3814 132.547 15.5393C133.027 14.9167 133.207 14.2091 133.142 13.4648C133.035 12.2173 132.699 11.0197 132.17 9.87752C130.814 6.94931 129.021 4.38529 126.127 2.78082C124.703 1.99053 123.179 1.46607 121.521 1.45374Z" fill="#1A59E2"/>
<path d="M103.693 51.1114C103.691 51.0405 103.715 50.9537 103.683 50.9015C103.228 50.1577 103.562 49.4912 103.927 48.8671C104.912 47.1851 105.823 45.4743 106.38 43.5937C106.787 42.2209 107.052 40.8245 107.215 39.4013C107.392 37.85 107.505 36.2962 107.449 34.7382C107.395 33.2133 107.343 31.6857 107.125 30.1706C107.009 29.3605 107.556 28.6388 108.437 28.5517C109.126 28.4837 109.828 28.5422 110.524 28.5494C110.557 28.5497 110.59 28.5979 110.622 28.6236C109.53 28.9329 109.253 29.3081 109.253 30.4821C109.253 36.6812 109.253 42.8805 109.253 49.0795C109.253 50.862 108.185 52.1269 106.427 52.3136C105.563 52.4053 104.746 52.1775 104.126 51.4915C104.088 51.4689 104.05 51.4463 104.012 51.4237C103.992 51.4085 103.972 51.3936 103.952 51.3785C103.958 51.229 103.885 51.1596 103.737 51.1666C103.722 51.1483 103.707 51.1298 103.693 51.1114Z" fill="#4D4D4D"/>
<path d="M129.833 51.928C129.911 51.7323 130.148 51.7474 130.265 51.6021C130.292 51.5689 130.32 51.536 130.348 51.5029L130.346 51.5047C131.045 51.1734 131.349 50.5262 131.614 49.8679C132.478 47.7194 132.834 45.4991 132.672 43.1731C132.575 41.7842 132.39 40.4219 132.053 39.0766C131.809 38.1016 131.451 37.1636 131.098 36.2246C131.332 36.1951 131.328 35.986 131.357 35.836C131.596 34.6096 131.675 33.3835 131.469 32.135C130.967 29.1015 129.433 26.727 126.928 24.9874C125.668 24.1127 124.265 23.5689 122.719 23.3881C121.416 23.2358 120.152 23.3324 118.818 23.7125C119.028 23.7937 119.157 23.8479 119.289 23.8936C120.325 24.2539 121.309 24.7314 122.257 25.2764C124.531 26.5842 126.367 28.3762 127.892 30.4946C128.142 30.8421 128.497 31.1405 128.549 31.6098C128.485 31.5545 128.407 31.5096 128.359 31.4428C127.377 30.0621 126.198 28.8657 124.925 27.7556C123.405 26.4311 121.725 25.3647 119.905 24.4971C117.483 23.3427 114.947 22.6091 112.288 22.2853C112.183 22.2724 112.087 22.2688 112.064 22.1404C114.865 22.107 117.672 21.9046 120.463 22.2326C125.994 22.8824 129.736 26.0238 132.214 30.8508C133.004 32.3893 133.404 34.0443 133.601 35.7634C133.928 38.6148 133.872 41.4711 133.782 44.3281C133.75 45.3396 133.879 46.3433 133.84 47.3534C133.808 48.1771 133.782 48.9998 133.677 49.8188C133.535 50.9335 132.529 51.9192 131.352 52.1013C130.826 52.1828 130.315 52.1974 129.833 51.928Z" fill="#4D4D4D"/>
<path d="M118.05 35.6053L118.07 35.596L118.084 35.6137C118.207 35.5996 118.331 35.5857 118.454 35.5719C120.413 35.6245 121.757 37.3708 121.296 39.2611C121.214 39.6004 121.062 39.9073 120.822 40.1544C120.377 40.6131 120.276 41.1499 120.352 41.765C120.565 43.5002 120.895 45.2164 121.161 46.9429C121.215 47.2932 121.255 47.6456 121.301 47.9972C121.14 48.2512 120.887 48.262 120.625 48.2615C119.573 48.2597 118.521 48.2612 117.469 48.261C116.466 48.2607 116.185 47.8962 116.451 46.9385C116.47 46.8702 116.498 46.8044 116.515 46.7359C116.927 45.1332 117.387 43.5403 117.601 41.8945C117.672 41.3482 117.589 40.8694 117.074 40.4708C115.642 39.3625 115.521 37.6438 116.717 36.3059C116.772 36.2438 116.848 36.1908 116.816 36.0889C116.816 36.0889 116.824 36.0843 116.825 36.0848C116.985 36.1464 117.068 36.0868 117.083 35.9209L117.089 35.9471C117.123 35.9186 117.158 35.8898 117.192 35.8613L117.184 35.869C117.284 35.8665 117.398 35.895 117.444 35.7604C117.444 35.7604 117.434 35.7743 117.434 35.7745C117.539 35.7838 117.648 35.8038 117.702 35.6754C117.702 35.6754 117.693 35.6928 117.693 35.6928C117.817 35.6849 117.957 35.7386 118.05 35.6053Z" fill="#1A59E2"/>
<path d="M112.063 22.1398C112.086 22.2682 112.182 22.2721 112.287 22.2846C114.946 22.6085 117.482 23.3421 119.904 24.4965C121.724 25.3641 123.404 26.4305 124.924 27.755C126.198 28.8654 127.376 30.0614 128.358 31.4422C128.406 31.509 128.484 31.5539 128.548 31.6089C128.84 32.074 129.126 32.5428 129.425 33.0035C130.086 34.0234 130.545 35.1479 131.097 36.224C131.451 37.163 131.809 38.101 132.053 39.076C132.389 40.4213 132.574 41.7835 132.671 43.1725C132.833 45.4984 132.478 47.7188 131.613 49.8673C131.348 50.5255 131.044 51.1725 130.345 51.5041C130.319 51.3372 130.45 51.2396 130.533 51.1368C131.54 49.8896 131.965 48.4141 132.219 46.872C132.393 45.8177 132.447 44.7523 132.387 43.6888C132.239 41.1142 131.705 38.6231 130.698 36.2394C129.865 34.2682 128.799 32.4377 127.431 30.7909C125.904 28.9517 124.064 27.4825 122.004 26.2803C120.09 25.1635 118.049 24.3743 115.876 23.9518C114.415 23.6677 112.935 23.5421 111.444 23.5665C110.576 23.5807 109.706 23.6066 108.84 23.5614C108.288 23.5326 107.705 23.5257 107.232 23.1404C106.926 22.8908 106.764 22.5769 106.76 22.1819C107.236 22.0851 107.717 22.1424 108.195 22.1388C109.485 22.1293 110.774 22.1382 112.063 22.1398Z" fill="#010101"/>
<path d="M116.816 36.0882C116.848 36.1901 116.773 36.243 116.717 36.3052C115.521 37.6431 115.642 39.3618 117.074 40.4701C117.589 40.8687 117.672 41.3474 117.601 41.8937C117.388 43.5395 116.927 45.1325 116.515 46.7351C116.498 46.8037 116.47 46.8695 116.451 46.9378C116.185 47.8955 116.466 48.26 117.469 48.2602C118.521 48.2605 119.573 48.2592 120.625 48.2608C120.887 48.2613 121.14 48.2505 121.301 47.9965C121.349 48.5253 121.085 48.8487 120.539 48.862C119.701 48.8826 118.863 48.8713 118.025 48.8728C117.514 48.8736 117.002 48.88 116.491 48.8707C115.8 48.8584 115.491 48.5446 115.571 47.8516C115.665 47.0359 115.822 46.2276 115.951 45.416C116.135 44.2543 116.318 43.0927 116.501 41.931C116.613 41.2213 116.455 40.6232 115.975 40.043C115.024 38.8944 115.503 36.796 116.816 36.0882Z" fill="#1528A3"/>
<path d="M117.084 35.92C117.068 36.0856 116.985 36.1455 116.825 36.0838C116.871 35.9641 116.976 35.9392 117.084 35.92Z" fill="#1528A3"/>
<path d="M118.455 35.5714C118.331 35.5852 118.208 35.5994 118.084 35.6132C118.198 35.5087 118.329 35.5593 118.455 35.5714Z" fill="#1528A3"/>
<path d="M118.05 35.6046C117.956 35.7376 117.817 35.6842 117.693 35.6919C117.789 35.5679 117.931 35.6323 118.05 35.6046Z" fill="#1528A3"/>
<path d="M103.736 51.1659C103.884 51.1592 103.957 51.2283 103.951 51.3778C103.879 51.3071 103.808 51.2365 103.736 51.1659Z" fill="#333333"/>
<path d="M117.702 35.6758C117.648 35.804 117.539 35.7842 117.434 35.775C117.497 35.6697 117.607 35.6928 117.702 35.6758Z" fill="#1528A3"/>
<path d="M117.445 35.7611C117.399 35.8954 117.286 35.8669 117.185 35.8698C117.247 35.7742 117.349 35.7737 117.445 35.7611Z" fill="#1528A3"/>
<path d="M104.012 51.4236C104.05 51.4462 104.088 51.4688 104.126 51.4914C104.066 51.506 104.035 51.4703 104.012 51.4236Z" fill="#333333"/>
<path d="M117.192 35.8615C117.158 35.8901 117.124 35.9188 117.089 35.9473C117.078 35.8636 117.145 35.8746 117.192 35.8615Z" fill="#1528A3"/>
<path d="M130.349 51.503C130.321 51.5361 130.294 51.569 130.266 51.6021C130.179 51.4732 130.284 51.5045 130.349 51.503Z" fill="#010101"/>
<path d="M106.098 1.21234C106.273 1.14428 106.452 1.12065 106.64 1.12116C109.145 1.12579 111.649 1.12887 114.154 1.1263C117.537 1.12322 120.609 2.12309 123.282 4.1724C125.953 6.21914 127.619 8.95986 128.282 12.2623C128.802 14.8512 128.648 17.4317 127.942 19.9769C127.757 19.5321 128.014 19.1229 128.07 18.704C128.262 17.294 128.257 15.8901 128.14 14.476C128.01 12.9198 127.621 11.434 127.001 10.0106C125.91 7.50256 124.21 5.5244 121.823 4.15134C119.946 3.07159 117.912 2.53146 115.776 2.30416C114.406 2.15827 113.031 2.0915 111.657 2.15211C110.586 2.19911 109.519 2.3301 108.459 2.52042C107.904 2.62007 107.325 2.64807 106.771 2.48549C106.116 2.29389 105.905 1.86779 106.098 1.21234Z" fill="#0A1870"/>
<path d="M121.521 1.45354C123.178 1.46587 124.703 1.99059 126.128 2.78037C129.021 4.38483 130.814 6.9491 132.171 9.87706C132.7 11.0192 133.036 12.2169 133.143 13.4643C133.207 14.2086 133.027 14.9165 132.547 15.5388C131.898 16.381 131.303 17.2704 130.427 17.9015C129.849 18.3175 129.464 18.1699 129.22 17.5141C128.983 16.879 128.94 16.2053 128.917 15.5527C128.886 14.6458 128.795 13.7412 128.804 12.8317C128.83 10.212 127.972 7.93588 126.213 5.97004C125.112 4.74004 123.91 3.66338 122.448 2.89363C121.932 2.6219 121.375 2.45136 120.809 2.31086C120.617 2.26335 120.426 2.20299 120.246 2.12389C120.111 2.06507 119.913 2.02321 119.945 1.81825C119.976 1.61432 120.17 1.58324 120.335 1.54651C120.725 1.4597 121.119 1.42734 121.521 1.45354Z" fill="#3774F9"/>
<path d="M131.098 36.2246C130.545 35.1488 130.086 34.0243 129.425 33.0042C129.126 32.5434 128.84 32.0747 128.548 31.6095C128.497 31.1403 128.142 30.8418 127.892 30.4943C126.367 28.3759 124.53 26.584 122.256 25.2762C121.309 24.7311 120.324 24.2537 119.288 23.8933C119.156 23.8476 119.028 23.7934 118.817 23.7123C120.151 23.3321 121.415 23.2356 122.718 23.3879C124.264 23.5687 125.668 24.1124 126.927 24.9872C129.433 26.727 130.966 29.1012 131.468 32.1348C131.674 33.3832 131.596 34.6094 131.356 35.8358C131.327 35.986 131.332 36.1951 131.098 36.2246Z" fill="#656565"/>
<path d="M7.42909 20.8521C7.86819 20.8521 8.16872 20.417 8.02222 20.0032C8.02103 19.9997 8.01984 19.9961 8.01865 19.9925C7.89551 19.6413 7.83375 19.281 7.83375 18.9116C7.83375 18.2218 7.9937 17.5966 8.31402 17.036C8.63435 16.4757 9.08098 16.0287 9.65391 15.6961C10.2268 15.3635 10.858 15.1972 11.5481 15.1972C12.2751 15.1972 12.9217 15.3481 13.4887 15.6498C14.0553 15.9519 14.4959 16.3799 14.8099 16.9342C15.1239 17.4886 15.2811 18.1169 15.2811 18.8193C15.2811 19.2137 15.2134 19.5835 15.078 19.928C15.0713 19.9454 15.0641 19.9628 15.057 19.9799C14.8856 20.3956 15.1912 20.8517 15.6406 20.8517H16.6301C16.7532 20.8517 16.815 21.2766 16.815 22.1267C16.815 22.9154 16.7532 23.3094 16.6301 23.3094H14.1352C13.4328 23.3094 12.8813 23.2817 12.4814 23.2262C12.1987 23.187 11.9603 23.128 11.7667 23.0488C11.6237 22.9906 11.4638 22.9894 11.3197 23.0433C11.1249 23.1161 10.8837 23.1739 10.5963 23.2167C10.1833 23.2785 9.64441 23.309 8.97922 23.309H4.11897C2.99764 23.309 2.14438 23.0164 1.55957 22.4312C0.974359 21.8463 0.681747 21.0054 0.681747 19.9086V18.1343C0.681747 17.481 1.21113 16.9516 1.86445 16.9516C2.51776 16.9516 3.04714 17.481 3.04714 18.1343V19.5942C3.04714 20.0258 3.13939 20.3425 3.3243 20.5461C3.50921 20.7492 3.81686 20.8509 4.24844 20.8509H7.42909V20.8521ZM11.2163 20.6573C11.419 20.7931 11.6847 20.7971 11.8918 20.6684C12.1832 20.4875 12.4168 20.2681 12.5926 20.0115C12.833 19.6603 12.9529 19.3 12.9529 18.9306C12.9529 18.4871 12.833 18.145 12.5926 17.9051C12.3523 17.6648 12.0043 17.5448 11.5485 17.5448C11.1173 17.5448 10.7816 17.6743 10.5412 17.9328C10.3009 18.1914 10.1809 18.5243 10.1809 18.9306C10.1809 19.3127 10.3009 19.673 10.5412 20.0115C10.7158 20.2578 10.9407 20.4728 11.2163 20.6573Z" fill="#333333"/>
<path d="M18.7727 20.8524C19.0803 20.8524 19.3302 20.7692 19.521 20.6029C19.7119 20.4366 19.8073 20.2121 19.8073 19.9282V18.1358C19.8073 17.4825 20.3367 16.9531 20.99 16.9531C21.6433 16.9531 22.1727 17.4825 22.1727 18.1358V19.836C22.1727 20.1686 22.2558 20.4212 22.4221 20.5938C22.5884 20.7665 22.8438 20.8524 23.1891 20.8524H23.8915C24.0146 20.8524 24.0764 21.2654 24.0764 22.0905C24.0764 22.9038 24.0146 23.31 23.8915 23.31H23.0968C22.5793 23.31 22.1418 23.2392 21.7846 23.0974C21.4271 22.9561 21.1563 22.7312 20.9714 22.4227C20.7496 22.7308 20.4566 22.9557 20.0935 23.0974C19.7301 23.2392 19.2898 23.31 18.7723 23.31H16.6286C16.5055 23.31 16.4437 22.9161 16.4437 22.1273C16.4437 21.5976 16.4623 21.2527 16.4991 21.0923C16.536 20.9324 16.5795 20.852 16.6286 20.852H18.7727V20.8524Z" fill="#333333"/>
<path d="M25.3154 20.8517C25.7465 20.8517 26.0669 20.7531 26.2763 20.556C26.4858 20.3592 26.5903 20.0939 26.5903 19.7613V18.1256C26.5903 17.4775 27.1157 16.9521 27.7639 16.9521C28.4121 16.9521 28.9375 17.4775 28.9375 18.1256V19.7613C28.9375 20.1062 29.0392 20.3742 29.2423 20.5651C29.4455 20.7563 29.769 20.8513 30.2124 20.8513C30.6191 20.8513 30.9299 20.7528 31.1457 20.5556C31.3611 20.3588 31.4692 20.0935 31.4692 19.7609V18.1252C31.4692 17.4771 31.9946 16.9517 32.6428 16.9517C33.2909 16.9517 33.8163 17.4771 33.8163 18.1252V19.7423C33.8163 20.0998 33.9149 20.3738 34.1121 20.5647C34.3089 20.7559 34.611 20.8509 35.0176 20.8509C35.4243 20.8509 35.7228 20.7555 35.9141 20.5647C36.1049 20.3738 36.2003 20.0998 36.2003 19.7423V18.1252C36.2003 17.4771 36.7258 16.9517 37.3739 16.9517H37.3925C38.0407 16.9517 38.5661 17.4771 38.5661 18.1252V19.7609C38.5661 20.8822 38.2521 21.7537 37.6238 22.3757C36.9954 22.9982 36.1204 23.309 34.9994 23.309C34.3588 23.309 33.8413 23.2258 33.4469 23.0595C33.3408 23.0148 33.2422 22.9645 33.1516 22.9087C32.7849 22.6834 32.3193 22.6798 31.9514 22.9027C31.8552 22.9609 31.7535 23.0132 31.6454 23.0595C31.2573 23.2258 30.7735 23.309 30.1946 23.309C29.5168 23.309 28.9779 23.2258 28.5776 23.0595C28.4643 23.0124 28.3594 22.9594 28.2624 22.9004C27.8945 22.6755 27.4261 22.6763 27.0579 22.9004C26.9605 22.9598 26.8572 23.0128 26.7479 23.0595C26.3599 23.2258 25.8823 23.309 25.3157 23.309H23.8927C23.7696 23.309 23.7078 22.915 23.7078 22.1263C23.7078 21.5965 23.7264 21.2516 23.7632 21.0913C23.8001 20.9313 23.8436 20.8509 23.8927 20.8509H25.3154V20.8517Z" fill="#333333"/>
<path d="M44.2399 22.6258C44.2399 23.6359 44.0367 24.5291 43.6301 25.3056C43.2235 26.0817 42.6414 26.6791 41.8836 27.0981C41.1257 27.5166 40.2416 27.7264 39.2315 27.7264H38.7683C38.153 27.7264 37.6402 27.2544 37.5895 26.6411L37.582 26.5489C37.525 25.8595 38.069 25.2688 38.7608 25.2688H39.1947C40.0448 25.2688 40.7037 25.0379 41.1721 24.5759C41.6401 24.1138 41.8745 23.47 41.8745 22.6448V18.1358C41.8745 17.4825 42.4039 16.9531 43.0572 16.9531C43.7105 16.9531 44.2399 17.4825 44.2399 18.1358V22.6258Z" fill="#333333"/>
<path d="M50.6895 20.8511C50.7508 20.8511 50.7972 20.9315 50.828 21.0914C50.8585 21.2518 50.8744 21.5966 50.8744 22.1264C50.8744 22.6316 50.8589 22.9551 50.828 23.0965C50.7972 23.2382 50.7508 23.3091 50.6895 23.3091H50.0243C48.9893 23.3091 48.2041 23.0106 47.668 22.4127C47.1323 21.8152 46.8642 20.9619 46.8642 19.8533V12.5722C46.8642 11.9189 47.3936 11.3895 48.0469 11.3895C48.7002 11.3895 49.2296 11.9189 49.2296 12.5722V19.687C49.2296 20.0813 49.3064 20.374 49.4604 20.5648C49.6145 20.7561 49.8576 20.8511 50.1902 20.8511H50.6895Z" fill="#333333"/>
<path d="M55.5859 20.8521C55.9676 20.8521 56.2633 20.7907 56.4728 20.6672C56.6823 20.5441 56.7868 20.3714 56.7868 20.1497C56.7868 19.9529 56.7373 19.7739 56.6391 19.6136C56.5405 19.4536 56.3865 19.2624 56.177 19.0406L52.3846 15.3354C52.2453 15.1996 52.1669 15.0131 52.1669 14.8187V13.6966C52.1669 13.398 52.3506 13.1299 52.6293 13.0223L57.9639 10.9617C58.605 10.7143 59.3216 11.0647 59.5196 11.7228C59.6982 12.3159 59.3878 12.9462 58.8085 13.166L56.1129 14.1899C55.6227 14.376 55.4877 15.0055 55.8587 15.3766L57.933 17.4509C59.0049 18.5227 59.8055 19.2869 60.3353 19.7423C60.865 20.1984 61.2899 20.4969 61.6102 20.6387C61.9305 20.7804 62.3063 20.8513 62.7375 20.8513C62.8606 20.8513 62.9224 21.2762 62.9224 22.1263C62.9224 22.915 62.8606 23.3089 62.7375 23.3089C62.1091 23.3089 61.6011 23.2658 61.2127 23.1795C60.8247 23.0936 60.4548 22.9332 60.104 22.6988C59.9179 22.5749 59.7136 22.4145 59.4911 22.2177C59.1866 21.9485 58.723 21.9845 58.4589 22.2933C58.3832 22.3816 58.3005 22.4644 58.2098 22.5416C57.9141 22.7942 57.5474 22.9851 57.1103 23.1146C56.6728 23.244 56.1893 23.3086 55.6595 23.3086H50.6884C50.5653 23.3086 50.5035 22.9146 50.5035 22.1259C50.5035 21.5961 50.5221 21.2512 50.5589 21.0909C50.5958 20.9309 50.6393 20.8505 50.6884 20.8505H55.5859V20.8521ZM58.6212 8.70207L58.6339 8.74483C58.7392 9.10237 58.5555 9.4817 58.209 9.62028L53.1579 11.6408C52.6832 11.8308 52.1669 11.4812 52.1669 10.9697C52.1669 10.6763 52.3443 10.4122 52.6155 10.3009L57.6539 8.23762C58.0507 8.07568 58.5001 8.29147 58.6212 8.70207Z" fill="#333333"/>
<path d="M67.9317 20.0023C67.9317 21.0373 67.6296 21.8474 67.0262 22.4326C66.4224 23.0178 65.5968 23.3104 64.55 23.3104H62.7389C62.6158 23.3104 62.554 22.9165 62.554 22.1277C62.554 21.5979 62.5726 21.2531 62.6094 21.0927C62.6462 20.9328 62.6898 20.8524 62.7389 20.8524H64.55C64.8703 20.8524 65.1229 20.7692 65.3078 20.6029C65.4927 20.4366 65.585 20.2058 65.585 19.91V18.1267C65.585 17.4785 66.1104 16.9531 66.7585 16.9531C67.4067 16.9531 67.9321 17.4785 67.9321 18.1267V20.0023H67.9317Z" fill="#333333"/>
<path d="M73.6054 19.7255C73.6054 20.1199 73.6976 20.4065 73.8825 20.5847C74.0674 20.7633 74.3691 20.8528 74.788 20.8528H75.1207C75.2438 20.8528 75.3056 21.2776 75.3056 22.1277C75.3056 22.9165 75.2438 23.3104 75.1207 23.3104H74.8249C74.5659 23.3104 74.326 23.2768 74.1043 23.2087C73.8825 23.141 73.7099 23.0455 73.5867 22.9224V22.9038C73.5373 23.8398 73.3096 24.6749 72.9029 25.4078C72.4963 26.1407 71.9265 26.7104 71.1936 27.1171C70.4603 27.5237 69.5952 27.7268 68.597 27.7268H68.1761C67.5367 27.7268 67.0041 27.2366 66.9515 26.5992C66.8921 25.8829 67.4575 25.2688 68.1761 25.2688H68.5602C69.4103 25.2688 70.0692 25.0379 70.5376 24.5759C71.0056 24.1138 71.24 23.47 71.24 22.6448V18.1358C71.24 17.4825 71.7694 16.9531 72.4227 16.9531C73.076 16.9531 73.6054 17.4825 73.6054 18.1358V19.7255Z" fill="#333333"/>
<path d="M75.5991 20.8526C75.9439 20.8526 76.1875 20.7849 76.3292 20.6495C76.4706 20.5141 76.5418 20.2924 76.5418 19.9843V19.4668C76.5418 18.2719 76.8835 17.3263 77.5673 16.6303C78.2511 15.9346 79.178 15.5862 80.3485 15.5862C81.5189 15.5862 82.4149 15.9251 83.0373 16.6025C83.6594 17.2804 83.9706 18.2414 83.9706 19.4854C83.9706 20.6931 83.6439 21.6323 82.991 22.3038C82.3377 22.9753 81.4262 23.3111 80.2558 23.3111C79.6397 23.3111 79.1285 23.2311 78.7219 23.0707C78.5188 22.9908 78.3398 22.8969 78.1858 22.7888C77.953 22.6261 77.6457 22.6336 77.4224 22.809C77.2799 22.9211 77.1215 23.0145 76.9477 23.089C76.6028 23.2366 76.153 23.3107 75.5987 23.3107H75.1184C74.9953 23.3107 74.9335 22.9167 74.9335 22.128C74.9335 21.5982 74.9521 21.2533 74.9889 21.093C75.0258 20.933 75.0693 20.8526 75.1184 20.8526H75.5991ZM81.642 19.485C81.642 18.9675 81.528 18.5795 81.2999 18.321C81.0719 18.0624 80.7298 17.9329 80.2744 17.9329C79.7941 17.9329 79.4398 18.0624 79.2117 18.321C78.9836 18.5799 78.87 18.9679 78.87 19.485C78.87 19.9285 78.9868 20.2706 79.2212 20.5105C79.4552 20.7509 79.806 20.8709 80.2744 20.8709C80.7424 20.8709 81.0877 20.7572 81.3094 20.5292C81.5312 20.3015 81.642 19.9534 81.642 19.485Z" fill="#333333"/>
<path d="M89.6628 22.6258C89.6628 23.6359 89.4597 24.5291 89.0531 25.3056C88.6464 26.0817 88.0644 26.6791 87.3065 27.0981C86.5487 27.5166 85.6645 27.7264 84.6545 27.7264H84.1912C83.5759 27.7264 83.0632 27.2544 83.0125 26.6411L83.005 26.5489C82.9479 25.8595 83.492 25.2688 84.1837 25.2688H84.6177C85.4678 25.2688 86.1266 25.0379 86.595 24.5759C87.063 24.1138 87.2974 23.47 87.2974 22.6448V18.1358C87.2974 17.4825 87.8268 16.9531 88.4801 16.9531C89.1334 16.9531 89.6628 17.4825 89.6628 18.1358V22.6258Z" fill="#333333"/>
<path d="M66.6133 15.278C67.2516 15.278 67.7691 14.7605 67.7691 14.1222C67.7691 13.4839 67.2516 12.9664 66.6133 12.9664C65.975 12.9664 65.4576 13.4839 65.4576 14.1222C65.4576 14.7605 65.975 15.278 66.6133 15.278Z" fill="#333333"/>
<path d="M72.4302 15.278C73.0685 15.278 73.586 14.7605 73.586 14.1222C73.586 13.4839 73.0685 12.9664 72.4302 12.9664C71.7919 12.9664 71.2744 13.4839 71.2744 14.1222C71.2744 14.7605 71.7919 15.278 72.4302 15.278Z" fill="#333333"/>
<path d="M16.8116 27.7255C17.4499 27.7255 17.9674 27.208 17.9674 26.5697C17.9674 25.9314 17.4499 25.4139 16.8116 25.4139C16.1733 25.4139 15.6559 25.9314 15.6559 26.5697C15.6559 27.208 16.1733 27.7255 16.8116 27.7255Z" fill="#333333"/>
<path d="M19.1019 27.7255C19.7402 27.7255 20.2577 27.208 20.2577 26.5697C20.2577 25.9314 19.7402 25.4139 19.1019 25.4139C18.4636 25.4139 17.9462 25.9314 17.9462 26.5697C17.9462 27.208 18.4636 27.7255 19.1019 27.7255Z" fill="#333333"/>
<path d="M11.5634 13.1938C12.2017 13.1938 12.7192 12.6763 12.7192 12.038C12.7192 11.3997 12.2017 10.8822 11.5634 10.8822C10.9251 10.8822 10.4076 11.3997 10.4076 12.038C10.4076 12.6763 10.9251 13.1938 11.5634 13.1938Z" fill="#333333"/>
<path d="M2.60083 41.6971H2.10317V43.9507C2.10317 44.2475 2.03774 44.4659 1.90686 44.6064C1.77599 44.7468 1.60551 44.8169 1.39502 44.8169C1.16828 44.8169 0.993233 44.7435 0.86861 44.5968C0.744404 44.4501 0.681885 44.2346 0.681885 43.9507V38.5532C0.681885 38.2468 0.750654 38.0251 0.887781 37.888C1.02491 37.7508 1.24664 37.6821 1.55299 37.6821H3.86415C4.183 37.6821 4.456 37.6958 4.68232 37.7229C4.90864 37.75 5.11288 37.805 5.29503 37.888C5.5151 37.9805 5.70973 38.1131 5.87895 38.2852C6.04817 38.4573 6.17656 38.6578 6.26408 38.8858C6.35161 39.1138 6.39578 39.3555 6.39578 39.6106C6.39578 40.1337 6.24825 40.5517 5.95315 40.8643C5.65806 41.1769 5.21083 41.3987 4.61105 41.5296C4.86322 41.6633 5.10412 41.8613 5.33378 42.1231C5.56343 42.3848 5.7685 42.6633 5.94855 42.9579C6.12861 43.253 6.26908 43.5194 6.36953 43.7569C6.46997 43.9945 6.52041 44.1579 6.52041 44.2475C6.52041 44.34 6.49081 44.4318 6.43205 44.5226C6.37286 44.6135 6.29243 44.6852 6.19031 44.7381C6.08819 44.7906 5.97024 44.8169 5.83603 44.8169C5.6764 44.8169 5.5426 44.7793 5.43423 44.7043C5.32586 44.6293 5.23249 44.5343 5.15413 44.4196C5.07577 44.305 4.96991 44.1358 4.83612 43.9124L4.26679 42.965C4.06255 42.6174 3.87998 42.3523 3.71868 42.1706C3.55738 41.9889 3.39399 41.8642 3.2281 41.7971C3.0618 41.7304 2.85299 41.6971 2.60083 41.6971ZM3.41442 38.7495H2.10317V40.678H3.37608C3.71744 40.678 4.00461 40.6484 4.2376 40.5897C4.47059 40.5305 4.64814 40.4301 4.7711 40.2884C4.89405 40.1466 4.95532 39.9511 4.95532 39.7023C4.95532 39.5077 4.90574 39.3364 4.80696 39.188C4.70817 39.0396 4.57104 38.9287 4.39557 38.8554C4.22968 38.7845 3.90249 38.7495 3.41442 38.7495Z" fill="#3774F9"/>
<path d="M12.2293 43.9033L11.8942 43.023H9.04201L8.7069 43.9224C8.57602 44.2734 8.46434 44.5101 8.37181 44.6331C8.27928 44.756 8.12798 44.8173 7.91708 44.8173C7.73827 44.8173 7.5803 44.7519 7.44317 44.621C7.30604 44.4901 7.23727 44.3417 7.23727 44.1758C7.23727 44.08 7.25311 43.9812 7.2852 43.8791C7.31688 43.777 7.36981 43.6349 7.44317 43.4531L9.2375 38.8975C9.28835 38.7666 9.35004 38.6095 9.42173 38.4261C9.49341 38.2427 9.5701 38.0906 9.65137 37.9693C9.73265 37.848 9.83976 37.7501 9.97189 37.675C10.1044 37.6 10.2678 37.5625 10.4625 37.5625C10.66 37.5625 10.8255 37.6 10.9576 37.675C11.0902 37.7501 11.1969 37.8464 11.2782 37.9647C11.3594 38.0827 11.4282 38.2094 11.484 38.3453C11.5399 38.4807 11.6107 38.662 11.697 38.8883L13.5297 43.4152C13.6731 43.7599 13.7452 44.0104 13.7452 44.1667C13.7452 44.3292 13.6772 44.4784 13.5418 44.6139C13.4063 44.7494 13.2425 44.8173 13.0512 44.8173C12.9395 44.8173 12.8436 44.7973 12.764 44.7577C12.6844 44.7177 12.6173 44.6635 12.5631 44.5951C12.5089 44.5268 12.4506 44.4214 12.3885 44.2792C12.3272 44.1367 12.2739 44.0116 12.2293 43.9033ZM9.41546 41.9556H11.5115L10.4541 39.0605L9.41546 41.9556Z" fill="#3774F9"/>
<path d="M17.1574 43.6394L16.0329 39.1701V44.0128C16.0329 44.2808 15.9729 44.4818 15.8533 44.616C15.7336 44.7498 15.5748 44.8169 15.3773 44.8169C15.186 44.8169 15.0297 44.7506 14.9084 44.6185C14.7871 44.4859 14.7267 44.2842 14.7267 44.0133V38.4623C14.7267 38.156 14.8063 37.9497 14.9659 37.8425C15.1255 37.7358 15.3406 37.6821 15.6119 37.6821H16.0521C16.3167 37.6821 16.5089 37.7058 16.6285 37.7538C16.7481 37.8017 16.8365 37.8876 16.894 38.0122C16.9515 38.1368 17.017 38.3394 17.0903 38.6199L18.1094 42.4624L19.1285 38.6199C19.2018 38.339 19.2673 38.1364 19.3248 38.0122C19.3823 37.8876 19.4707 37.8017 19.5903 37.7538C19.7099 37.7058 19.9021 37.6821 20.1667 37.6821H20.6068C20.8778 37.6821 21.0933 37.7354 21.2529 37.8425C21.4125 37.9493 21.4921 38.156 21.4921 38.4623V44.0133C21.4921 44.2813 21.4325 44.4822 21.3125 44.6164C21.1929 44.7502 21.0324 44.8173 20.8315 44.8173C20.6431 44.8173 20.4885 44.7502 20.3672 44.6164C20.2459 44.4826 20.1855 44.2813 20.1855 44.0133V39.1705L19.0609 43.6398C18.9876 43.9299 18.9276 44.1429 18.8813 44.2788C18.835 44.4143 18.7496 44.538 18.6254 44.6497C18.5012 44.7614 18.3286 44.8173 18.1085 44.8173C17.9427 44.8173 17.8022 44.7815 17.6876 44.7098C17.5726 44.6381 17.4834 44.5464 17.4196 44.4347C17.3558 44.323 17.3054 44.1996 17.2687 44.0637C17.2333 43.9274 17.1958 43.7861 17.1574 43.6394Z" fill="#3774F9"/>
<path d="M22.7659 43.0605L26.3692 38.7491H23.2732C23.056 38.7491 22.8927 38.7012 22.7826 38.6057C22.6726 38.5103 22.6175 38.384 22.6175 38.2277C22.6175 38.0651 22.6726 37.9334 22.7826 37.833C22.8927 37.7325 23.056 37.6821 23.2732 37.6821H27.264C27.7809 37.6821 28.0393 37.923 28.0393 38.4048C28.0393 38.6345 27.9964 38.8179 27.9101 38.955C27.8238 39.0921 27.65 39.3139 27.3887 39.6202L24.0201 43.6302H27.7333C27.9534 43.6302 28.1176 43.6757 28.2264 43.7666C28.3348 43.8574 28.389 43.9841 28.389 44.1471C28.389 44.3163 28.3348 44.4501 28.2264 44.5489C28.1181 44.6476 27.9538 44.6973 27.7333 44.6973H23.1777C22.8685 44.6973 22.6355 44.6277 22.4792 44.4893C22.3229 44.3505 22.2449 44.1646 22.2449 43.9316C22.2449 43.852 22.2575 43.7786 22.2833 43.7115C22.3087 43.6444 22.3433 43.5815 22.3862 43.5223C22.4292 43.4631 22.4892 43.3885 22.5654 43.2972C22.6413 43.2063 22.7084 43.1276 22.7659 43.0605Z" fill="#3774F9"/>
<path d="M31.1349 38.4145L33.8674 42.5487V38.3761C33.8674 38.1052 33.9258 37.9018 34.0421 37.7659C34.1584 37.6304 34.3155 37.5625 34.5135 37.5625C34.7177 37.5625 34.8786 37.6304 34.997 37.7659C35.1149 37.9014 35.1741 38.1047 35.1741 38.3761V43.8932C35.1741 44.5089 34.919 44.8169 34.4085 44.8169C34.2809 44.8169 34.1659 44.7985 34.0637 44.7619C33.9616 44.7252 33.8658 44.6668 33.7766 44.5872C33.6874 44.5076 33.6045 44.4143 33.5278 44.3072C33.4511 44.2 33.3748 44.0908 33.2981 43.9795L30.6327 39.8928V44.0033C30.6327 44.2713 30.5706 44.4739 30.4459 44.611C30.3213 44.7481 30.1621 44.8169 29.9675 44.8169C29.7666 44.8169 29.6052 44.7473 29.484 44.6089C29.3627 44.4701 29.3023 44.2684 29.3023 44.0037V38.5916C29.3023 38.3619 29.3277 38.1819 29.3789 38.051C29.4394 37.9076 29.5402 37.7901 29.6803 37.6992C29.8207 37.6084 29.972 37.5629 30.135 37.5629C30.2625 37.5629 30.3718 37.5838 30.4626 37.625C30.5535 37.6667 30.6331 37.7221 30.7019 37.7926C30.7702 37.8626 30.8407 37.9539 30.9124 38.0651C30.9845 38.1768 31.0586 38.2932 31.1349 38.4145Z" fill="#3774F9"/>
<path d="M41.3511 38.7779H38.1497V40.5005H41.0973C41.314 40.5005 41.4762 40.5493 41.5829 40.6464C41.6896 40.7435 41.7434 40.8723 41.7434 41.0315C41.7434 41.1907 41.6908 41.3212 41.5854 41.4216C41.4799 41.5221 41.3174 41.5725 41.0973 41.5725H38.1497V43.5681H41.4612C41.6846 43.5681 41.8525 43.6198 41.9659 43.7236C42.0793 43.8274 42.136 43.9653 42.136 44.1375C42.136 44.3034 42.0793 44.438 41.9659 44.5418C41.8525 44.6456 41.6841 44.6973 41.4612 44.6973H37.5995C37.2903 44.6973 37.0677 44.6285 36.9318 44.4914C36.7963 44.3542 36.7284 44.1325 36.7284 43.8261V38.5528C36.7284 38.3485 36.7588 38.1818 36.8193 38.0526C36.8797 37.9234 36.9747 37.8292 37.1039 37.7705C37.2331 37.7113 37.3982 37.6821 37.5991 37.6821H41.3507C41.5771 37.6821 41.7454 37.7325 41.8554 37.833C41.9655 37.9334 42.0205 38.0651 42.0205 38.2277C42.0205 38.3936 41.9655 38.5269 41.8554 38.6274C41.7454 38.7278 41.5775 38.7779 41.3511 38.7779Z" fill="#3774F9"/>
<path d="M49.6731 41.8447V43.1893C49.6731 43.3681 49.6556 43.5107 49.6206 43.6178C49.5855 43.7245 49.521 43.8212 49.4268 43.9075C49.3326 43.9937 49.2121 44.0767 49.0654 44.1563C48.6411 44.3859 48.2326 44.5535 47.8404 44.659C47.4482 44.7644 47.0206 44.8169 46.5579 44.8169C46.0186 44.8169 45.5276 44.734 45.0841 44.5681C44.6406 44.4022 44.2626 44.1613 43.95 43.8453C43.6374 43.5294 43.3973 43.1468 43.2298 42.6971C43.0622 42.2473 42.9784 41.7447 42.9784 41.1895C42.9784 40.6439 43.0597 40.1446 43.2227 39.692C43.3852 39.2389 43.6245 38.8546 43.9404 38.5387C44.2563 38.2227 44.6406 37.981 45.0937 37.8138C45.5467 37.6463 46.0603 37.5625 46.6346 37.5625C47.1068 37.5625 47.5245 37.6254 47.8884 37.7517C48.2522 37.8776 48.5469 38.0364 48.7736 38.2277C48.9999 38.419 49.1708 38.6216 49.2858 38.8354C49.4005 39.0492 49.458 39.2389 49.458 39.4048C49.458 39.5836 49.3917 39.7357 49.2596 39.8616C49.1271 39.9874 48.9683 40.0508 48.7836 40.0508C48.6815 40.0508 48.5836 40.0271 48.4894 39.9791C48.3952 39.9312 48.3164 39.8641 48.2526 39.7782C48.0771 39.504 47.9288 39.2964 47.8075 39.1563C47.6862 39.0159 47.5228 38.8979 47.3169 38.8021C47.111 38.7062 46.8488 38.6587 46.5296 38.6587C46.2011 38.6587 45.9077 38.7154 45.6493 38.8288C45.3909 38.9421 45.17 39.1063 44.9866 39.3218C44.8032 39.5373 44.6627 39.8011 44.5656 40.1137C44.4685 40.4263 44.4197 40.7727 44.4197 41.152C44.4197 41.9752 44.6086 42.6083 44.9866 43.0518C45.3646 43.4952 45.8919 43.717 46.5679 43.717C46.8963 43.717 47.2052 43.674 47.4936 43.5878C47.7825 43.5015 48.0751 43.379 48.3718 43.2193V42.0806H47.271C47.0064 42.0806 46.8059 42.0406 46.6704 41.961C46.535 41.8814 46.467 41.7455 46.467 41.5542C46.467 41.3979 46.5237 41.2687 46.6371 41.1666C46.7505 41.0645 46.9043 41.0136 47.0989 41.0136H48.7115C48.9095 41.0136 49.0766 41.0311 49.2138 41.0661C49.3509 41.1011 49.4617 41.1795 49.5463 41.3004C49.631 41.4204 49.6731 41.6021 49.6731 41.8447Z" fill="#3774F9"/>
<path d="M55.1427 43.9033L54.8076 43.023H51.9555L51.6203 43.9224C51.4895 44.2734 51.3778 44.5101 51.2852 44.6331C51.1927 44.756 51.041 44.8173 50.8305 44.8173C50.6517 44.8173 50.4937 44.7519 50.3566 44.621C50.2195 44.4901 50.1507 44.3417 50.1507 44.1758C50.1507 44.08 50.1665 43.9812 50.1986 43.8791C50.2303 43.777 50.2832 43.6349 50.3566 43.4531L52.1509 38.8975C52.2018 38.7666 52.2634 38.6095 52.3351 38.4261C52.4068 38.2427 52.4835 38.0906 52.5648 37.9693C52.6461 37.848 52.7532 37.7501 52.8853 37.675C53.0179 37.6 53.1813 37.5625 53.3759 37.5625C53.5739 37.5625 53.7389 37.6 53.8711 37.675C54.0036 37.7501 54.1103 37.8464 54.1916 37.9647C54.2728 38.0827 54.3416 38.2094 54.3975 38.3453C54.4533 38.4807 54.5242 38.662 54.6104 38.8883L56.4431 43.4152C56.5865 43.7599 56.6586 44.0104 56.6586 44.1667C56.6586 44.3292 56.5907 44.4784 56.4552 44.6139C56.3198 44.7494 56.1559 44.8173 55.9646 44.8173C55.8529 44.8173 55.7571 44.7973 55.6775 44.7577C55.5979 44.7177 55.5307 44.6635 55.4766 44.5951C55.4224 44.5268 55.364 44.4214 55.3019 44.2792C55.2407 44.1367 55.1873 44.0116 55.1427 43.9033ZM52.3289 41.9556H54.425L53.3676 39.0605L52.3289 41.9556Z" fill="#3774F9"/>
<path d="M59.6119 41.6971H59.1143V43.9507C59.1143 44.2475 59.0489 44.4659 58.918 44.6064C58.7871 44.7468 58.6166 44.8169 58.4062 44.8169C58.1798 44.8169 58.0044 44.7435 57.8797 44.5968C57.7555 44.4501 57.693 44.2346 57.693 43.9507V38.5532C57.693 38.2468 57.7618 38.0251 57.8989 37.888C58.036 37.7508 58.2578 37.6821 58.5641 37.6821H60.8753C61.1941 37.6821 61.4671 37.6958 61.6935 37.7229C61.9198 37.75 62.124 37.805 62.3062 37.888C62.5262 37.9805 62.7209 38.1131 62.8901 38.2852C63.0593 38.4573 63.1877 38.6578 63.2752 38.8858C63.3627 39.1138 63.4069 39.3555 63.4069 39.6106C63.4069 40.1337 63.2594 40.5517 62.9643 40.8643C62.6692 41.1769 62.222 41.3987 61.6222 41.5296C61.8743 41.6633 62.1152 41.8613 62.3449 42.1231C62.5746 42.3848 62.7796 42.6633 62.9597 42.9579C63.1397 43.253 63.2802 43.5194 63.3806 43.7569C63.4811 43.9945 63.5315 44.1579 63.5315 44.2475C63.5315 44.34 63.5019 44.4318 63.4432 44.5226C63.384 44.6135 63.3035 44.6852 63.2014 44.7381C63.0993 44.7906 62.9813 44.8169 62.8471 44.8169C62.6875 44.8169 62.5537 44.7793 62.4454 44.7043C62.337 44.6293 62.2436 44.5343 62.1653 44.4196C62.0869 44.305 61.9811 44.1358 61.8473 43.9124L61.2779 42.965C61.0737 42.6174 60.8911 42.3523 60.7298 42.1706C60.5685 41.9889 60.4051 41.8642 60.2393 41.7971C60.073 41.7304 59.8637 41.6971 59.6119 41.6971ZM60.4251 38.7495H59.1139V40.678H60.3868C60.7282 40.678 61.0153 40.6484 61.2483 40.5897C61.4813 40.5305 61.6589 40.4301 61.7818 40.2884C61.9048 40.1466 61.966 39.9511 61.966 39.7023C61.966 39.5077 61.9164 39.3364 61.8176 39.188C61.7189 39.0396 61.5813 38.9287 61.4063 38.8554C61.2404 38.7845 60.9132 38.7495 60.4251 38.7495Z" fill="#3774F9"/>
<path d="M70.082 42.5912C70.082 43.0155 69.9728 43.3969 69.754 43.7349C69.5356 44.0729 69.2155 44.338 68.7946 44.5293C68.3736 44.7206 67.8743 44.8165 67.297 44.8165C66.6047 44.8165 66.0337 44.6856 65.5839 44.4243C65.2651 44.2359 65.0058 43.985 64.8062 43.6707C64.607 43.3565 64.5069 43.0509 64.5069 42.7542C64.5069 42.582 64.5669 42.4345 64.6866 42.3115C64.8062 42.1886 64.9583 42.1273 65.1434 42.1273C65.2934 42.1273 65.4202 42.1752 65.5239 42.2707C65.6277 42.3665 65.7161 42.5083 65.7894 42.6967C65.8786 42.9201 65.9753 43.1064 66.0791 43.2564C66.1829 43.4065 66.3288 43.5298 66.5167 43.6274C66.7051 43.7245 66.9523 43.7733 67.2582 43.7733C67.6792 43.7733 68.0214 43.6753 68.2848 43.479C68.5482 43.2827 68.6795 43.038 68.6795 42.7446C68.6795 42.5116 68.6087 42.3228 68.4665 42.1777C68.3244 42.0327 68.141 41.9218 67.9164 41.8451C67.6913 41.7684 67.3908 41.6872 67.0144 41.6013C66.5105 41.4833 66.0883 41.3454 65.7486 41.1874C65.4089 41.0295 65.1392 40.814 64.94 40.5414C64.7408 40.2688 64.6407 39.9295 64.6407 39.5244C64.6407 39.1384 64.7462 38.7954 64.9567 38.4957C65.1672 38.1961 65.4718 37.9656 65.8707 37.8043C66.2696 37.6434 66.7385 37.5625 67.2774 37.5625C67.7079 37.5625 68.0806 37.6159 68.3949 37.723C68.7091 37.8297 68.9696 37.9718 69.1772 38.1489C69.3843 38.3261 69.536 38.512 69.6319 38.7066C69.7278 38.9013 69.7753 39.0909 69.7753 39.276C69.7753 39.4452 69.7153 39.5973 69.5956 39.7328C69.476 39.8682 69.3268 39.9362 69.1484 39.9362C68.9859 39.9362 68.8621 39.8953 68.7775 39.8141C68.6929 39.7328 68.6012 39.5994 68.5024 39.4144C68.3749 39.1497 68.2215 38.943 68.0431 38.7946C67.8643 38.6462 67.5771 38.572 67.1815 38.572C66.8148 38.572 66.5188 38.6525 66.2938 38.8138C66.0687 38.9751 65.9566 39.1689 65.9566 39.3952C65.9566 39.5357 65.9949 39.6569 66.0716 39.759C66.1483 39.8612 66.2533 39.9487 66.3875 40.0221C66.5213 40.0954 66.6572 40.1529 66.7943 40.1942C66.9315 40.2359 67.1578 40.2963 67.4737 40.3759C67.8692 40.4684 68.2273 40.5706 68.5478 40.6823C68.8683 40.794 69.1413 40.9294 69.366 41.0891C69.5911 41.2487 69.7661 41.4504 69.8924 41.6943C70.0187 41.9381 70.082 42.2369 70.082 42.5912Z" fill="#3774F9"/>
<path d="M75.7762 43.9033L75.4411 43.023H72.5894L72.2543 43.9224C72.1234 44.2734 72.0117 44.5101 71.9192 44.6331C71.8266 44.756 71.6749 44.8173 71.4644 44.8173C71.2856 44.8173 71.1277 44.7519 70.9905 44.621C70.8534 44.4901 70.7847 44.3417 70.7847 44.1758C70.7847 44.08 70.8005 43.9812 70.8326 43.8791C70.8642 43.777 70.9172 43.6349 70.9905 43.4531L72.7849 38.8975C72.8357 38.7666 72.8974 38.6095 72.9691 38.4261C73.0408 38.2427 73.1175 38.0906 73.1988 37.9693C73.28 37.848 73.3871 37.7501 73.5192 37.675C73.6518 37.6 73.8152 37.5625 74.0098 37.5625C74.2078 37.5625 74.3729 37.6 74.505 37.675C74.6375 37.7501 74.7443 37.8464 74.8255 37.9647C74.9068 38.0827 74.9756 38.2094 75.0314 38.3453C75.0873 38.4807 75.1581 38.662 75.2444 38.8883L77.0771 43.4152C77.2204 43.7599 77.2925 44.0104 77.2925 44.1667C77.2925 44.3292 77.2246 44.4784 77.0891 44.6139C76.9537 44.7494 76.7899 44.8173 76.5986 44.8173C76.4869 44.8173 76.391 44.7973 76.3114 44.7577C76.2318 44.7177 76.1647 44.6635 76.1105 44.5951C76.0563 44.5268 75.998 44.4214 75.9359 44.2792C75.8742 44.1367 75.8208 44.0116 75.7762 43.9033ZM72.9624 41.9556H75.0585L74.0011 39.0605L72.9624 41.9556Z" fill="#3774F9"/>
<path d="M82.5282 38.7779H79.729V40.5722H82.0689C82.2856 40.5722 82.4478 40.6209 82.5545 40.7181C82.6612 40.8152 82.7149 40.9452 82.7149 41.1082C82.7149 41.2707 82.6607 41.3999 82.5524 41.4958C82.444 41.5917 82.2827 41.6392 82.0693 41.6392H79.729V43.9503C79.729 44.2438 79.6627 44.4618 79.5306 44.6035C79.398 44.7452 79.2284 44.8164 79.0208 44.8164C78.8103 44.8164 78.6386 44.7448 78.5065 44.601C78.3739 44.4576 78.3081 44.2404 78.3081 43.9503V38.5528C78.3081 38.3485 78.3385 38.1818 78.399 38.0526C78.4594 37.9234 78.5544 37.8292 78.6836 37.7705C78.8128 37.7113 78.9779 37.6821 79.1788 37.6821H82.5286C82.7549 37.6821 82.9233 37.7325 83.0334 37.833C83.1434 37.9334 83.1984 38.0651 83.1984 38.2277C83.1984 38.3936 83.1434 38.5269 83.0334 38.6274C82.9233 38.7278 82.7545 38.7779 82.5282 38.7779Z" fill="#3774F9"/>
<path d="M88.8779 38.7779H85.6765V40.5005H88.6241C88.8408 40.5005 89.003 40.5493 89.1097 40.6464C89.2164 40.7435 89.2701 40.8723 89.2701 41.0315C89.2701 41.1907 89.2176 41.3212 89.1122 41.4216C89.0067 41.5221 88.8442 41.5725 88.6241 41.5725H85.6765V43.5681H88.988C89.2114 43.5681 89.3793 43.6198 89.4927 43.7236C89.6061 43.8274 89.6628 43.9653 89.6628 44.1375C89.6628 44.3034 89.6061 44.438 89.4927 44.5418C89.3793 44.6456 89.2114 44.6973 88.988 44.6973H85.1263C84.817 44.6973 84.5945 44.6285 84.4586 44.4914C84.3227 44.3542 84.2552 44.1325 84.2552 43.8261V38.5528C84.2552 38.3485 84.2856 38.1818 84.3461 38.0526C84.4065 37.9234 84.5015 37.8292 84.6308 37.7705C84.76 37.7113 84.925 37.6821 85.1259 37.6821H88.8775C89.1038 37.6821 89.2722 37.7325 89.3823 37.833C89.4923 37.9334 89.5473 38.0651 89.5473 38.2277C89.5473 38.3936 89.4923 38.5269 89.3823 38.6274C89.2722 38.7278 89.1042 38.7779 88.8779 38.7779Z" fill="#3774F9"/>
</svg>
