<svg width="37" height="60" viewBox="0 0 37 60" fill="none" xmlns="http://www.w3.org/2000/svg">
<path d="M31.5837 59.5353C30.2395 58.9576 29.6286 57.8594 29.5052 56.474C29.3319 54.5282 29.5544 52.5782 29.5114 50.6288C29.4539 48.0024 29.623 45.3739 29.4968 42.7484C29.2928 38.5021 27.285 35.301 23.7524 33.0134C22.9677 32.5052 22.0625 32.4834 21.1702 32.4825C17.3862 32.478 13.6023 32.4879 9.81865 32.4911C9.63731 32.4914 9.45597 32.4795 9.27463 32.4729C9.23675 32.4428 9.19887 32.3871 9.16039 32.3868C8.35213 32.3784 7.5373 32.3104 6.73708 32.3894C5.71407 32.4905 5.0782 33.3286 5.2136 34.2693C5.46682 36.0287 5.52678 37.8027 5.58971 39.5735C5.65384 41.3827 5.52349 43.1871 5.31739 44.9886C5.1283 46.6412 4.82051 48.2628 4.34838 49.857C3.70176 52.0408 2.64296 54.0271 1.49975 55.9807C1.07563 56.7051 0.687912 57.4794 1.21672 58.3432C1.254 58.404 1.22536 58.5048 1.22745 58.5868C0.595449 57.8934 0.452587 57.0294 0.445727 56.148C0.422165 53.1249 0.423657 50.1015 0.423955 47.0781C0.424552 40.5851 0.428433 34.0922 0.435591 27.5995C0.437381 25.9492 1.44697 24.9662 3.10795 24.9766C3.66896 24.9802 4.22997 24.988 4.79129 24.9936C4.79606 25.4524 4.98335 25.8168 5.33917 26.1067C5.88855 26.5544 6.56529 26.5622 7.20683 26.5956C8.21195 26.6481 9.22213 26.6179 10.2299 26.6015C11.9619 26.5732 13.6807 26.719 15.3772 27.0489C17.901 27.5398 20.2706 28.4561 22.4929 29.7529C24.8855 31.149 27.0225 32.855 28.7956 34.9908C30.3832 36.9029 31.6222 39.0289 32.5891 41.318C33.7586 44.086 34.3783 46.9788 34.5498 49.9685C34.6208 51.2036 34.5576 52.4407 34.3554 53.6651C34.0598 55.4558 33.5665 57.1692 32.3976 58.6176C32.3013 58.7369 32.1489 58.8502 32.1796 59.0441L32.1817 59.042C32.1059 59.0438 31.9842 59.0074 32.085 59.1571C31.9502 59.3256 31.6747 59.308 31.5837 59.5353Z" fill="#333333"/>
<path d="M27.6013 26.2282C26.748 25.8372 25.9105 25.4136 25.022 25.0993C24.5803 24.943 24.5552 24.5949 24.9603 24.2731C25.5448 23.8084 26.0692 23.2838 26.5837 22.7472C29.1313 20.0916 29.6133 16.9939 28.3508 13.6377C27.3952 11.0978 25.5717 9.26111 23.1657 8.00815C22.5984 7.71258 21.9971 7.56077 21.3577 7.56047C17.3596 7.55898 13.3615 7.55212 9.36341 7.55898C8.3747 7.56077 7.70064 8.25988 7.66872 9.24889C7.63442 10.3205 7.78326 11.4011 7.59447 12.4629C7.26251 14.3284 5.93438 15.4752 4.15918 15.4886C2.37771 15.5021 0.95057 14.3413 0.560753 12.5464C0.490961 12.2255 0.439957 11.8932 0.438764 11.566C0.428325 8.54262 0.428929 5.51893 0.430718 2.49553C0.431315 1.72842 0.696763 1.07972 1.32846 0.609375C2.22472 0.620709 3.12126 0.631744 4.01751 0.643078C3.79322 1.40422 4.03838 1.89902 4.79863 2.12182C5.44226 2.31061 6.11483 2.2781 6.75936 2.16238C7.98995 1.94137 9.22889 1.78956 10.4726 1.73468C12.0683 1.6646 13.6648 1.74184 15.2566 1.91125C17.7372 2.17521 20.099 2.80243 22.2787 4.05629C25.0506 5.65075 27.0242 7.9479 28.2915 10.8603C29.0106 12.513 29.4633 14.2387 29.6133 16.0458C29.7496 17.688 29.7553 19.3182 29.5331 20.9556C29.4672 21.4418 29.1695 21.9172 29.3834 22.4338C29.1585 23.2224 28.8683 23.985 28.4686 24.7026C28.1844 25.2126 27.8909 25.7193 27.6013 26.2282Z" fill="#1528A3"/>
<path d="M3.99765 0.632118C3.1011 0.621083 2.20485 0.609749 1.30859 0.598416C1.72197 0.19816 2.2314 0.025771 2.79092 0.0260692C8.54095 0.026964 14.2925 -0.0529685 20.0401 0.0627538C27.3172 0.209494 34.0213 4.97618 35.6498 12.7567C36.5362 16.9928 36.1336 21.1403 33.95 24.9893C33.2676 26.1918 32.3108 27.1811 31.3448 28.1567C31.0081 28.4967 30.6448 28.5128 30.2893 28.2047C29.4402 27.4687 28.523 26.8271 27.5811 26.2184C27.8707 25.7096 28.1642 25.2028 28.4491 24.6913C28.8487 23.9737 29.1386 23.2111 29.3638 22.4225C30.1846 19.4668 30.3635 16.4703 29.7596 13.4639C28.9892 9.62893 27.0541 6.44627 23.9532 4.06949C20.8484 1.68973 17.2818 0.528327 13.3527 0.532204C10.4441 0.534889 7.53553 0.531311 4.62726 0.526241C4.40804 0.525644 4.20017 0.553081 3.99765 0.632118ZM21.9063 0.912477C21.4401 0.882354 20.9814 0.919636 20.5289 1.02074C20.3372 1.06339 20.1117 1.09978 20.0753 1.33629C20.0389 1.5743 20.2686 1.62292 20.4248 1.69122C20.6345 1.78278 20.8561 1.85317 21.0786 1.90835C21.736 2.07119 22.3829 2.26953 22.9824 2.58508C24.6806 3.47895 26.0756 4.72923 27.3542 6.15756C29.3972 8.44009 30.3928 11.0832 30.3635 14.1257C30.3534 15.1818 30.4581 16.2323 30.4948 17.2854C30.521 18.0436 30.5708 18.8259 30.8461 19.5632C31.1304 20.3246 31.5768 20.4961 32.2476 20.0129C33.2653 19.2801 33.9566 18.2473 34.7103 17.2693C35.2674 16.5463 35.4765 15.7246 35.4019 14.8603C35.2773 13.4117 34.8875 12.0209 34.2731 10.6946C32.698 7.2942 30.6156 4.31674 27.2554 2.45355C25.6022 1.53583 23.8315 0.926794 21.9063 0.912477Z" fill="#1A59E2"/>
<path d="M1.2884 58.5809C1.28632 58.4986 1.31465 58.3978 1.27767 58.3373C0.748867 57.4735 1.13659 56.6995 1.56071 55.9748C2.70391 54.0215 3.76272 52.0349 4.40933 49.8511C4.88147 48.2569 5.18926 46.6353 5.37835 44.9827C5.58445 43.1812 5.71509 41.3768 5.65067 39.5676C5.58774 37.7968 5.52778 36.0228 5.27456 34.2634C5.13915 33.3227 5.77473 32.4846 6.79804 32.3835C7.59826 32.3045 8.41308 32.3725 9.22135 32.3809C9.25983 32.3812 9.29741 32.4372 9.33559 32.467C8.06652 32.8261 7.7453 33.2619 7.7453 34.6252C7.7453 41.8239 7.7453 49.0228 7.7453 56.2214C7.7453 58.2913 6.50487 59.7602 4.46392 59.9771C3.46029 60.0835 2.51125 59.819 1.79156 59.0223C1.74742 58.9961 1.70328 58.9699 1.65914 58.9436C1.63587 58.926 1.61231 58.9087 1.58905 58.8911C1.5965 58.7175 1.5115 58.637 1.33971 58.6451C1.32271 58.6239 1.3054 58.6024 1.2884 58.5809Z" fill="#4D4D4D"/>
<path d="M31.6003 59.5164C31.6912 59.2891 31.9668 59.3067 32.1019 59.1379C32.1341 59.0994 32.1663 59.0613 32.1986 59.0228L32.1965 59.0249C33.0077 58.6401 33.3606 57.8885 33.6684 57.1241C34.6726 54.6292 35.0854 52.0508 34.8969 49.3498C34.7844 47.7369 34.57 46.1549 34.179 44.5927C33.8956 43.4605 33.4799 42.3713 33.0698 41.2809C33.3418 41.2466 33.3364 41.0038 33.3704 40.8296C33.6484 39.4055 33.7393 37.9816 33.4998 36.5318C32.9177 33.0091 31.1365 30.2518 28.2273 28.2317C26.7644 27.2158 25.1347 26.5844 23.3395 26.3745C21.8265 26.1976 20.3585 26.3097 18.8091 26.7512C19.0533 26.8454 19.2028 26.9083 19.3558 26.9614C20.5592 27.3799 21.7024 27.9343 22.8027 28.5672C25.4434 30.0859 27.5762 32.1668 29.347 34.6268C29.6375 35.0304 30.0497 35.3769 30.109 35.9219C30.035 35.8577 29.9444 35.8055 29.8892 35.728C28.7484 34.1246 27.3797 32.7353 25.9006 31.4463C24.1359 29.9082 22.1853 28.6698 20.0716 27.6623C17.2591 26.3217 14.3138 25.4699 11.2263 25.0938C11.1049 25.0788 10.9933 25.0747 10.9668 24.9255C14.2187 24.8868 17.4783 24.6518 20.7191 25.0326C27.142 25.7872 31.4878 29.4351 34.3657 35.0405C35.2828 36.8271 35.7472 38.749 35.976 40.7452C36.3556 44.0564 36.2903 47.3733 36.1859 50.6911C36.1489 51.8656 36.2993 53.0312 36.2536 54.2042C36.2163 55.1607 36.1859 56.116 36.0645 57.0671C35.8993 58.3615 34.7307 59.5062 33.3644 59.7177C32.7533 59.8123 32.1604 59.8293 31.6003 59.5164Z" fill="#4D4D4D"/>
<path d="M17.8854 40.5622L17.9086 40.5515L17.9241 40.572C18.0676 40.5556 18.2111 40.5395 18.3545 40.5234C20.6296 40.5846 22.1904 42.6124 21.655 44.8075C21.559 45.2015 21.3833 45.558 21.1047 45.8449C20.5873 46.3776 20.4703 47.0009 20.5583 47.7152C20.8062 49.7302 21.1891 51.7232 21.4981 53.728C21.5608 54.1348 21.607 54.544 21.6604 54.9523C21.474 55.2473 21.1793 55.2598 20.8754 55.2592C19.6537 55.2572 18.4324 55.2589 17.2107 55.2587C16.0457 55.2584 15.7197 54.8351 16.0278 53.7229C16.0499 53.6436 16.0824 53.5673 16.103 53.4876C16.5814 51.6265 17.1159 49.7767 17.364 47.8655C17.4463 47.2312 17.3494 46.6752 16.7514 46.2123C15.0892 44.9254 14.9482 42.9295 16.3371 41.3758C16.4016 41.3037 16.4892 41.2422 16.4526 41.1238C16.4526 41.1238 16.4621 41.1185 16.4624 41.119C16.6482 41.1906 16.7446 41.1214 16.7627 40.9288L16.769 40.9592C16.8093 40.9261 16.8492 40.8927 16.8892 40.8596L16.8794 40.8685C16.9963 40.8655 17.1281 40.8986 17.1812 40.7424C17.1812 40.7424 17.1699 40.7585 17.1702 40.7588C17.2921 40.7695 17.4186 40.7928 17.4815 40.6436C17.4815 40.6436 17.4705 40.6639 17.4708 40.6639C17.6148 40.6547 17.7768 40.717 17.8854 40.5622Z" fill="#1A59E2"/>
<path d="M11.0392 24.9174C11.0657 25.0665 11.1773 25.071 11.2987 25.0856C14.3862 25.4617 17.3315 26.3135 20.144 27.6541C22.2577 28.6616 24.208 29.9 25.973 31.4381C27.4524 32.7274 28.8208 34.1164 29.9616 35.7198C30.0168 35.7973 30.1074 35.8495 30.1814 35.9134C30.5205 36.4535 30.8534 36.9978 31.2002 37.5329C31.9682 38.7172 32.5009 40.023 33.1425 41.2727C33.5526 42.3631 33.9683 43.4523 34.2517 44.5845C34.6427 46.1467 34.8568 47.7287 34.9696 49.3416C35.1581 52.0426 34.7453 54.621 33.7411 57.1159C33.4333 57.8803 33.0804 58.6316 32.2692 59.0167C32.2382 58.8228 32.3909 58.7095 32.4872 58.5902C33.656 57.1419 34.1494 55.4284 34.4449 53.6377C34.6471 52.4133 34.7101 51.1762 34.6394 49.9411C34.4679 46.9514 33.8478 44.0587 32.6787 41.2906C31.7117 39.0015 30.4728 36.8758 28.8852 34.9634C27.1121 32.8276 24.9751 31.1216 22.5825 29.7255C20.3599 28.4287 17.9903 27.5122 15.4668 27.0215C13.7703 26.6917 12.0515 26.5458 10.3195 26.5742C9.3117 26.5906 8.30152 26.6207 7.29641 26.5682C6.65486 26.5348 5.97812 26.5267 5.42874 26.0793C5.07292 25.7894 4.88563 25.425 4.88086 24.9663C5.43322 24.8538 5.99214 24.9203 6.54719 24.9162C8.04472 24.9051 9.54196 24.9156 11.0392 24.9174Z" fill="#010101"/>
<path d="M16.4233 41.1348C16.4603 41.2532 16.3726 41.3146 16.3079 41.3868C14.9186 42.9404 15.06 44.9363 16.7222 46.2233C17.3202 46.6862 17.4171 47.2421 17.3348 47.8765C17.0866 49.7877 16.5522 51.6375 16.0738 53.4986C16.0532 53.5782 16.0207 53.6546 15.9986 53.7339C15.6905 54.8461 16.0162 55.2693 17.1815 55.2696C18.4031 55.2699 19.6245 55.2684 20.8461 55.2702C21.15 55.2708 21.4447 55.2583 21.6311 54.9633C21.6866 55.5774 21.38 55.9529 20.7465 55.9684C19.7736 55.9923 18.8001 55.9791 17.8269 55.9809C17.2331 55.9818 16.6389 55.9893 16.0451 55.9785C15.2434 55.9642 14.8846 55.5998 14.9771 54.7951C15.0859 53.8478 15.2691 52.9092 15.4185 51.9667C15.6323 50.6177 15.8444 49.2687 16.0576 47.9197C16.1877 47.0957 16.004 46.401 15.4468 45.7273C14.3424 44.3935 14.8977 41.9568 16.4233 41.1348Z" fill="#1528A3"/>
<path d="M16.8863 40.9531C16.8681 41.1455 16.7715 41.215 16.5859 41.1434C16.6387 41.0044 16.7604 40.9755 16.8863 40.9531Z" fill="#1528A3"/>
<path d="M18.4362 40.5129C18.2928 40.529 18.1493 40.5454 18.0059 40.5615C18.1374 40.4401 18.2895 40.4988 18.4362 40.5129Z" fill="#1528A3"/>
<path d="M17.938 40.5898C17.8292 40.7443 17.6675 40.6823 17.5234 40.6912C17.6347 40.5472 17.7993 40.6221 17.938 40.5898Z" fill="#1528A3"/>
<path d="M1.21289 58.6489C1.38468 58.6412 1.46938 58.7214 1.46223 58.895C1.37901 58.813 1.2961 58.731 1.21289 58.6489Z" fill="#333333"/>
<path d="M17.4129 40.6445C17.35 40.7934 17.2235 40.7704 17.1016 40.7597C17.1743 40.6374 17.3023 40.6642 17.4129 40.6445Z" fill="#1528A3"/>
<path d="M17.2667 40.7305C17.2136 40.8865 17.0818 40.8533 16.9648 40.8566C17.0367 40.7457 17.1545 40.7451 17.2667 40.7305Z" fill="#1528A3"/>
<path d="M1.5918 58.9434C1.63594 58.9696 1.68008 58.9959 1.72422 59.0221C1.65413 59.0391 1.61924 58.9976 1.5918 58.9434Z" fill="#333333"/>
<path d="M16.856 40.8457C16.8161 40.8788 16.7761 40.9122 16.7358 40.9453C16.7227 40.8481 16.8012 40.8609 16.856 40.8457Z" fill="#1528A3"/>
<path d="M32.2033 59.0066C32.1711 59.045 32.1389 59.0832 32.1067 59.1217C32.0059 58.972 32.1273 59.0084 32.2033 59.0066Z" fill="#010101"/>
<path d="M4.02296 0.633231C4.22547 0.554194 4.43335 0.526757 4.65197 0.527353C7.56054 0.532722 10.4691 0.536299 13.3774 0.533317C17.3066 0.529738 20.8731 1.69084 23.9779 4.0706C27.0788 6.44738 29.0139 9.63004 29.7843 13.465C30.3883 16.4714 30.2093 19.4679 29.3885 22.4236C29.1747 21.907 29.4723 21.4319 29.5382 20.9455C29.7601 19.3081 29.7548 17.6778 29.6185 16.0356C29.4684 14.2285 29.016 12.5031 28.2966 10.8502C27.0293 7.93776 25.0558 5.64061 22.2838 4.04615C20.1042 2.79229 17.7423 2.16506 15.2617 1.90111C13.67 1.7317 12.0734 1.65415 10.4778 1.72454C9.23404 1.77912 7.9951 1.93123 6.7645 2.15224C6.11998 2.26796 5.44741 2.30047 4.80378 2.11167C4.04413 1.88918 3.79897 1.39437 4.02296 0.633231Z" fill="#0A1870"/>
<path d="M21.9045 0.889168C23.8295 0.903484 25.6005 1.51282 27.2543 2.42995C30.6141 4.29313 32.6968 7.27089 34.2719 10.671C34.8863 11.9973 35.2761 13.3881 35.4008 14.8367C35.4754 15.701 35.2663 16.523 34.7092 17.2457C33.9555 18.2237 33.2641 19.2565 32.2465 19.9893C31.5757 20.4725 31.1292 20.301 30.845 19.5395C30.5697 18.802 30.5199 18.0197 30.4936 17.2618C30.457 16.2087 30.352 15.1582 30.3624 14.1021C30.3919 11.0599 29.3961 8.41678 27.353 6.13395C26.0747 4.70562 24.6795 3.45534 22.9812 2.56148C22.3817 2.24592 21.7348 2.04788 21.0775 1.88474C20.855 1.82956 20.6334 1.75947 20.4237 1.66761C20.2674 1.59931 20.0378 1.5507 20.0742 1.31269C20.1103 1.07588 20.3357 1.03979 20.5278 0.997135C20.98 0.896326 21.4384 0.858746 21.9045 0.889168Z" fill="#3774F9"/>
<path d="M33.136 41.2914C32.4945 40.0421 31.9615 38.7363 31.1938 37.5517C30.8469 37.0166 30.5141 36.4723 30.1749 35.9321C30.1156 35.3872 29.7034 35.0407 29.4129 34.6371C27.6425 32.1771 25.5094 30.0962 22.8686 28.5775C21.7684 27.9446 20.6252 27.3902 19.4217 26.9717C19.269 26.9186 19.1196 26.8557 18.875 26.7614C20.4244 26.32 21.8924 26.2079 23.4055 26.3847C25.2007 26.5947 26.8303 27.2261 28.2933 28.242C31.2024 30.2623 32.9836 33.0194 33.5658 36.5421C33.8053 37.9919 33.7143 39.4157 33.4363 40.8399C33.4023 41.0144 33.408 41.2571 33.136 41.2914Z" fill="#656565"/>
</svg>
