<svg width="16" height="16" viewBox="0 0 16 16" fill="none" xmlns="http://www.w3.org/2000/svg">
<path d="M6.81243 0C7.94587 0.182776 8.99674 0.467312 9.94898 1.13658C10.8496 1.76905 11.5975 2.64419 12.0695 3.63909C12.5626 4.67782 12.754 5.86449 12.635 7.00694C12.5047 8.26015 11.9591 9.28871 11.2711 10.3184C12.1744 11.2672 13.1231 12.1767 14.0495 13.1031C14.5333 13.5869 15.017 14.0702 15.5011 14.5532C15.8393 14.891 16.253 15.3536 15.8033 15.8064C15.401 16.2115 14.9587 15.9035 14.6397 15.5869C14.1458 15.0961 13.6546 14.6025 13.1622 14.1102C12.6902 13.6386 12.2182 13.1665 11.7466 12.6945C11.2816 12.2296 10.7345 11.781 10.3431 11.2531C9.31454 11.9454 8.29773 12.4836 7.04413 12.6245C5.89307 12.7536 4.72753 12.5775 3.67783 12.0832C2.70172 11.6233 1.83481 10.9251 1.20311 10.0484C0.889615 9.61317 0.634042 9.13725 0.437567 8.63823C0.32798 8.36035 0.236787 8.07542 0.167121 7.78502C0.0915838 7.46995 0.0947149 7.1181 0 6.81282C0 6.48993 0 6.16704 0 5.84414C0.00939321 5.81518 0.0246572 5.787 0.0273969 5.75765C0.11311 4.76079 0.427391 3.83947 0.960456 2.99565C1.89312 1.51857 3.21678 0.578465 4.90991 0.163207C5.22576 0.085713 5.55295 0.0532282 5.87506 0C6.18739 0 6.5001 0 6.81243 0ZM11.3274 6.3275C11.3106 3.55533 9.06288 1.32014 6.31146 1.3401C3.55024 1.36006 1.32014 3.60973 1.33971 6.35529C1.35928 9.10946 3.61012 11.3478 6.33924 11.3274C9.10868 11.3067 11.3439 9.06601 11.3274 6.3275Z" fill="white"/>
</svg>
