<svg width="24" height="24" viewBox="0 0 24 24" fill="none" xmlns="http://www.w3.org/2000/svg">
<path d="M3.90336 16.654L15.3184 22.3615C22.9862 26.2021 26.1333 23.055 22.2927 15.3872L21.1326 13.0668C20.7992 12.3867 20.7992 11.5999 21.1326 10.9198L22.2927 8.61283C26.1333 0.945034 22.9995 -2.2021 15.3184 1.63847L3.90336 7.34598C-1.2174 9.90635 -1.2174 14.0936 3.90336 16.654ZM8.21066 10.9999L15.4117 10.9999C15.9585 10.9999 16.4119 11.4533 16.4119 12C16.4119 12.5467 15.9585 13.0001 15.4117 13.0001L8.21066 13.0001C7.66391 13.0001 7.21051 12.5467 7.21051 12C7.21051 11.4533 7.66391 10.9999 8.21066 10.9999Z" fill="#0050E5"/>
</svg>
