<svg width="16" height="17" viewBox="0 0 16 17" fill="none" xmlns="http://www.w3.org/2000/svg">
<path d="M12.8933 2.41016H6.91209V3.49765C6.91209 3.64186 6.8548 3.78017 6.75283 3.88214C6.65085 3.98411 6.51255 4.0414 6.36834 4.0414C6.22413 4.0414 6.08582 3.98411 5.98385 3.88214C5.88188 3.78017 5.82459 3.64186 5.82459 3.49765V2.41016H4.73709V3.49765C4.73709 3.64186 4.67981 3.78017 4.57783 3.88214C4.47586 3.98411 4.33756 4.0414 4.19335 4.0414C4.04914 4.0414 3.91083 3.98411 3.80886 3.88214C3.70689 3.78017 3.6496 3.64186 3.6496 3.49765V2.41016H3.10585C2.67322 2.41016 2.25831 2.58202 1.95239 2.88794C1.64647 3.19385 1.47461 3.60877 1.47461 4.0414C1.47461 4.47403 1.64647 4.88894 1.95239 5.19486C2.25831 5.50078 2.67322 5.67264 3.10585 5.67264H12.8933C13.3259 5.67264 13.7409 5.50078 14.0468 5.19486C14.3527 4.88894 14.5246 4.47403 14.5246 4.0414C14.5246 3.60877 14.3527 3.19385 14.0468 2.88794C13.7409 2.58202 13.3259 2.41016 12.8933 2.41016Z" fill="#0050E5"/>
<path d="M12.8933 6.86865H6.91209V7.95615C6.91209 8.10036 6.8548 8.23866 6.75283 8.34064C6.65085 8.44261 6.51255 8.4999 6.36834 8.4999C6.22413 8.4999 6.08582 8.44261 5.98385 8.34064C5.88188 8.23866 5.82459 8.10036 5.82459 7.95615V6.86865H4.73709V7.95615C4.73709 8.10036 4.67981 8.23866 4.57783 8.34064C4.47586 8.44261 4.33756 8.4999 4.19335 8.4999C4.04914 8.4999 3.91083 8.44261 3.80886 8.34064C3.70689 8.23866 3.6496 8.10036 3.6496 7.95615V6.86865H3.10585C2.67322 6.86865 2.25831 7.04051 1.95239 7.34643C1.64647 7.65235 1.47461 8.06726 1.47461 8.4999C1.47461 8.93253 1.64647 9.34744 1.95239 9.65336C2.25831 9.95928 2.67322 10.1311 3.10585 10.1311H12.8933C13.3259 10.1311 13.7409 9.95928 14.0468 9.65336C14.3527 9.34744 14.5246 8.93253 14.5246 8.4999C14.5246 8.06726 14.3527 7.65235 14.0468 7.34643C13.7409 7.04051 13.3259 6.86865 12.8933 6.86865Z" fill="#0050E5"/>
<path d="M12.8933 11.3276H6.91209V12.4151C6.91209 12.5593 6.8548 12.6976 6.75283 12.7996C6.65085 12.9016 6.51255 12.9589 6.36834 12.9589C6.22413 12.9589 6.08582 12.9016 5.98385 12.7996C5.88188 12.6976 5.82459 12.5593 5.82459 12.4151V11.3276H4.73709V12.4151C4.73709 12.5593 4.67981 12.6976 4.57783 12.7996C4.47586 12.9016 4.33756 12.9589 4.19335 12.9589C4.04914 12.9589 3.91083 12.9016 3.80886 12.7996C3.70689 12.6976 3.6496 12.5593 3.6496 12.4151V11.3276H3.10585C2.67322 11.3276 2.25831 11.4995 1.95239 11.8054C1.64647 12.1113 1.47461 12.5262 1.47461 12.9589C1.47461 13.3915 1.64647 13.8064 1.95239 14.1123C2.25831 14.4183 2.67322 14.5901 3.10585 14.5901H12.8933C13.3259 14.5901 13.7409 14.4183 14.0468 14.1123C14.3527 13.8064 14.5246 13.3915 14.5246 12.9589C14.5246 12.5262 14.3527 12.1113 14.0468 11.8054C13.7409 11.4995 13.3259 11.3276 12.8933 11.3276Z" fill="#0050E5"/>
</svg>
