<svg width="24" height="25" viewBox="0 0 24 25" fill="none" xmlns="http://www.w3.org/2000/svg">
<path d="M18.4952 8.9265C18.3222 8.9265 18.1714 8.9265 18.0212 8.9265C17.261 8.9265 16.5009 8.92975 15.7403 8.92557C14.9271 8.92091 14.3777 8.36871 14.3758 7.5546C14.373 6.46927 14.3749 5.38394 14.3749 4.29908C14.3749 4.23069 14.3749 4.16231 14.3749 4.08601C14.3339 4.07997 14.307 4.07206 14.2795 4.07206C11.8362 4.07206 9.39297 4.06508 6.94969 4.07904C6.30724 4.08276 5.76016 4.34467 5.54942 5.07597C5.50988 5.21275 5.49964 5.36208 5.49918 5.50583C5.49685 9.8932 5.49685 14.2806 5.49732 18.6679C5.49732 19.5253 6.04347 20.0691 6.90224 20.0696C10.3029 20.0705 13.704 20.0705 17.1047 20.0696C17.9528 20.0691 18.5022 19.5235 18.5022 18.6786C18.5036 15.4924 18.5027 12.3062 18.5022 9.12049C18.5036 9.0628 18.4989 9.00605 18.4952 8.9265ZM12.0032 11.1265C11.238 11.1265 10.4722 11.126 9.70698 11.1265C9.24456 11.1269 8.42394 11.2214 8.48116 10.518C8.53093 9.90902 9.27713 10.0123 9.70326 10.0123C10.4369 10.0118 11.1705 10.0118 11.9042 10.0118C12.6378 10.0118 13.3714 10.0118 14.1051 10.0123C14.5637 10.0123 15.4788 9.84482 15.5253 10.5333C15.5705 11.2069 14.7829 11.126 14.3423 11.1269C13.5622 11.1279 12.7829 11.1265 12.0032 11.1265ZM12.0009 17.0686C11.0207 17.0686 10.0405 17.07 9.06034 17.0681C8.71748 17.0676 8.47697 16.835 8.47697 16.5131C8.47697 16.1949 8.72027 15.9558 9.06174 15.9553C11.0221 15.953 12.9825 15.9525 14.9424 15.959C15.0624 15.9595 15.196 16.0056 15.2988 16.0698C15.5011 16.1963 15.5756 16.4587 15.5021 16.6852C15.4276 16.9155 15.2188 17.0672 14.9587 17.0676C13.9725 17.07 12.9867 17.0686 12.0009 17.0686ZM12.0014 12.9873C12.9816 12.9873 13.9618 12.9859 14.942 12.9882C15.289 12.9892 15.5253 13.218 15.5253 13.5423C15.5258 13.8623 15.2844 14.1001 14.941 14.1005C12.9806 14.1029 11.0207 14.1038 9.06034 14.0968C8.94032 14.0963 8.8068 14.0503 8.70446 13.9861C8.5007 13.8577 8.42626 13.5949 8.5007 13.3711C8.57839 13.1376 8.78168 12.9892 9.04359 12.9887C10.0298 12.9864 11.0156 12.9878 12.0014 12.9873ZM10.5416 8.30079C10.0215 8.30079 8.47506 8.30079 8.47697 7.59833C8.47885 6.90517 9.84375 6.90517 10.5192 6.90517C11.2394 6.90517 12.5582 6.90517 12.5582 7.60903C12.5582 8.30092 11.0593 8.30079 10.5416 8.30079Z" fill="white"/>
<path d="M15.5072 5.00484C15.5072 5.5603 15.5072 6.11622 15.5072 6.67168C15.5072 6.9964 15.5076 7.32111 15.5072 7.64583C15.5067 7.78306 15.5639 7.87331 15.7095 7.87378C16.5036 7.87564 17.2973 7.87471 18.1435 7.87471C17.2587 6.88986 16.4027 5.93712 15.5462 4.98438C15.5332 4.99089 15.5202 4.99787 15.5072 5.00484Z" fill="white"/>
</svg>
