<svg width="24" height="24" viewBox="0 0 24 24" fill="none" xmlns="http://www.w3.org/2000/svg">
<path d="M1.69824 16.4734C1.76489 16.1203 1.83799 15.7682 1.89712 15.4134C2.1347 13.9955 2.36851 12.5765 2.60233 11.158C2.6163 11.0725 2.6206 10.9849 2.62114 10.8984C2.62222 9.05473 2.64049 7.21055 2.61308 5.36743C2.60125 4.56977 3.19628 3.99679 3.98104 4.00001C7.78874 4.01453 11.597 4.00646 15.4052 4.00646C16.2566 4.00646 16.771 4.51656 16.7716 5.36851C16.7732 7.7416 16.7732 10.1152 16.7716 12.4883C16.771 13.3526 16.2615 13.8558 15.3923 13.8558C12.342 13.8558 9.29161 13.8541 6.24126 13.8611C6.09828 13.8617 5.93649 13.9079 5.81609 13.9842C4.49866 14.8206 3.18821 15.6672 1.87508 16.51C1.82079 16.5449 1.75737 16.5664 1.69824 16.5938C1.69824 16.554 1.69824 16.5137 1.69824 16.4734ZM9.84686 6.17047C9.1309 6.17047 8.41494 6.17047 7.69844 6.17047C7.40066 6.17047 6.22889 5.96729 6.32941 6.52469C6.41272 6.98694 7.51945 6.77839 7.84948 6.77839C8.51491 6.77839 9.17981 6.77839 9.84524 6.77839C10.5472 6.77839 11.2498 6.77839 11.9517 6.77839C12.2587 6.77839 13.4105 6.99232 13.3708 6.44944C13.3353 5.96622 12.2388 6.17101 11.9335 6.17101C11.2374 6.17047 10.5424 6.17047 9.84686 6.17047ZM9.84632 8.92681C10.5741 8.92681 11.3024 8.92681 12.0302 8.92681C12.2936 8.92681 13.5454 9.11386 13.3605 8.53335C13.2321 8.12915 12.235 8.31835 11.9335 8.31781C11.2374 8.31781 10.5413 8.31727 9.84524 8.31727C9.11262 8.31727 8.37946 8.31727 7.64684 8.31781C7.341 8.31781 6.38423 8.13022 6.32564 8.58925C6.25846 9.11762 7.3797 8.92627 7.66189 8.92627C8.39021 8.92681 9.11853 8.92681 9.84632 8.92681ZM9.84309 10.4759C9.11047 10.4759 8.37785 10.4759 7.64523 10.4759C7.35336 10.4759 6.25308 10.2765 6.32779 10.8172C6.39337 11.2935 7.50547 11.0833 7.83443 11.0833C8.49825 11.0833 9.16153 11.0833 9.82536 11.0833C10.5257 11.0833 11.2266 11.0833 11.927 11.0833C12.2323 11.0833 13.3552 11.2956 13.3364 10.7667C13.3186 10.2711 12.2216 10.4759 11.9173 10.4759C11.2261 10.4759 10.5349 10.4759 9.84309 10.4759Z" fill="white"/>
<path d="M17.3783 7.38792C17.4734 7.38792 17.5449 7.38792 17.617 7.38792C18.4281 7.38792 19.2392 7.38738 20.0508 7.38792C20.856 7.38899 21.3741 7.90178 21.3752 8.70374C21.3774 10.2458 21.3967 11.788 21.3677 13.3295C21.3505 14.2282 21.4811 15.1022 21.6316 15.98C21.8584 17.3044 22.0745 18.6304 22.3029 20C22.2078 19.9414 22.1428 19.9027 22.0793 19.8624C20.7775 19.0266 19.4773 18.1875 18.1717 17.3576C18.0615 17.2877 17.9142 17.2415 17.7841 17.2415C14.7203 17.2351 11.6565 17.2367 8.59221 17.2367C7.7365 17.2367 7.22801 16.7314 7.22533 15.8779C7.22371 15.4161 7.22533 14.955 7.22533 14.4637C7.31993 14.4637 7.39679 14.4637 7.47419 14.4637C10.1494 14.4637 12.824 14.4647 15.4992 14.4631C16.4043 14.4626 17.13 13.8901 17.3289 13.014C17.3697 12.8334 17.3762 12.6415 17.3767 12.455C17.3805 10.8527 17.3788 9.25038 17.3788 7.64807C17.3783 7.5696 17.3783 7.49112 17.3783 7.38792Z" fill="white"/>
</svg>
