<svg width="10" height="13" viewBox="0 0 10 13" fill="none" xmlns="http://www.w3.org/2000/svg">
<path d="M5.99975 4.00035V0.72999C6.45623 0.902983 6.87621 1.16947 7.2322 1.52496L8.97413 3.26788C9.33011 3.62337 9.5966 4.04335 9.76959 4.49983H6.49973C6.22374 4.49983 5.99975 4.27584 5.99975 4.00035ZM9.98758 5.50029H6.49973C5.67276 5.50029 4.99979 4.82732 4.99979 4.00035V0.511999C4.91929 0.5065 4.8388 0.5 4.7573 0.5H2.4999C1.12145 0.5005 0 1.62195 0 3.0004V10.0001C0 11.3785 1.12145 12.5 2.4999 12.5H7.49969C8.87813 12.5 9.99958 11.3785 9.99958 10.0001V5.74278C9.99958 5.66128 9.99308 5.58079 9.98758 5.50029ZM6.85321 8.94015C6.75572 9.03764 6.62772 9.08664 6.49973 9.08664C6.37173 9.08664 6.24374 9.03764 6.14624 8.94015L5.49977 8.29368V10.4926C5.49977 10.7686 5.27578 10.9926 4.99979 10.9926C4.7238 10.9926 4.49981 10.7686 4.49981 10.4926V8.29368L3.85334 8.94015C3.65785 9.13564 3.34186 9.13564 3.14637 8.94015C2.95088 8.74466 2.95088 8.42867 3.14637 8.23318L3.95334 7.42621C4.53031 6.84924 5.46927 6.84924 6.04675 7.42621L6.85371 8.23318C7.04921 8.42867 7.04921 8.74466 6.85371 8.94015H6.85321Z" fill="#0050E5"/>
</svg>
