<svg width="32" height="33" viewBox="0 0 32 33" fill="none" xmlns="http://www.w3.org/2000/svg">
<path d="M26.1996 13.9261H22.7316C19.8876 13.9261 17.5716 11.6101 17.5716 8.76614V5.29814C17.5716 4.63814 17.0316 4.09814 16.3716 4.09814H11.2836C7.58761 4.09814 4.59961 6.49814 4.59961 10.7821V21.4141C4.59961 25.6981 7.58761 28.0981 11.2836 28.0981H20.7156C24.4116 28.0981 27.3996 25.6981 27.3996 21.4141V15.1261C27.3996 14.4661 26.8596 13.9261 26.1996 13.9261ZM15.4356 17.9341C15.2556 18.1141 15.0276 18.1981 14.7996 18.1981C14.5716 18.1981 14.3436 18.1141 14.1636 17.9341L13.2996 17.0701V22.0981C13.2996 22.5901 12.8916 22.9981 12.3996 22.9981C11.9076 22.9981 11.4996 22.5901 11.4996 22.0981V17.0701L10.6356 17.9341C10.2876 18.2821 9.71161 18.2821 9.36361 17.9341C9.19623 17.7648 9.10237 17.5363 9.10237 17.2981C9.10237 17.06 9.19623 16.8315 9.36361 16.6621L11.7636 14.2621C11.8476 14.1901 11.9316 14.1301 12.0276 14.0821C12.0516 14.0701 12.0876 14.0581 12.1116 14.0461C12.1836 14.0221 12.2556 14.0101 12.3396 13.9981H12.4356C12.5316 13.9981 12.6276 14.0221 12.7236 14.0581H12.7476C12.8436 14.0941 12.9396 14.1661 13.0116 14.2381C13.0236 14.2501 13.0356 14.2501 13.0356 14.2621L15.4356 16.6621C15.7836 17.0101 15.7836 17.5861 15.4356 17.9341Z" fill="#0050E5"/>
<path d="M22.5148 12.27C23.6548 12.282 25.2388 12.282 26.5948 12.282C27.2788 12.282 27.6388 11.478 27.1588 10.998C25.4308 9.25804 22.3348 6.12604 20.5588 4.35004C20.0668 3.85804 19.2148 4.19404 19.2148 4.87804V9.06604C19.2148 10.818 20.7028 12.27 22.5148 12.27Z" fill="#0050E5"/>
</svg>
