<svg width="24" height="25" viewBox="0 0 24 25" fill="none" xmlns="http://www.w3.org/2000/svg">
<path d="M3.99912 20.0703C3.99912 15.8854 3.99801 11.701 4.00023 7.51611C4.00079 6.62692 3.8997 5.71884 4.48509 4.97739C4.96051 4.37478 5.6792 4.08653 6.43343 4.09597C8.47285 4.12096 10.5139 4.11263 12.5545 4.11319C13.6236 4.11319 14.6927 4.11374 15.7619 4.1143C16.6638 4.11485 17.7852 3.93102 18.63 4.31091C20.3667 5.0918 19.9662 7.1912 19.9662 8.73021C19.9662 10.7907 19.9662 12.8513 19.9668 14.9118C19.9668 15.7088 19.743 16.4313 19.0954 16.939C18.4617 17.4366 17.788 17.4305 17.0243 17.4222C14.6672 17.3966 12.3079 17.4222 9.95076 17.4211C9.38037 17.4205 8.80997 17.4205 8.23958 17.42C7.79193 17.4194 7.01548 17.2717 6.61615 17.4816C6.18461 17.7088 5.77528 18.3069 5.4276 18.6552C5.01494 19.0684 4.60117 19.4805 4.18851 19.8931C4.13741 19.9448 4.08243 19.9931 3.99912 20.0703ZM14.3106 9.42057C14.3106 8.05318 13.2926 7.02958 12.0218 6.9957C11.2876 6.97626 10.5784 7.33894 10.134 7.91822C9.80302 8.35032 9.3998 9.26117 9.82024 9.75658C10.0246 9.99707 10.4029 10.0593 10.6728 9.88877C11.0032 9.68049 10.9316 9.32393 11.0421 9.0018C11.2554 8.38031 12.0335 8.12871 12.5672 8.51638C14.334 9.79935 10.3362 10.7713 11.5009 11.9943C12.1429 12.668 12.7105 11.6066 13.1521 11.2784C13.7919 10.8041 14.2779 10.2587 14.3106 9.42057ZM11.9963 14.7596C12.4817 14.7607 12.8844 14.3642 12.8899 13.8799C12.8983 13.0945 11.9119 12.7013 11.3692 13.2517C10.8283 13.8004 11.2215 14.7585 11.9963 14.7596Z" fill="white"/>
</svg>
