<svg width="28" height="28" viewBox="0 0 28 28" fill="none" xmlns="http://www.w3.org/2000/svg">
<path d="M27.2709 18.9165C26.9688 20.501 26.6045 21.937 25.559 23.213C24.5904 24.3954 23.2228 25.2913 21.7552 25.7156C18.8136 26.5663 15.6035 25.4587 13.7274 23.0751C11.8091 20.6378 11.5659 17.1088 13.2136 14.4578C14.8644 11.8036 17.9776 10.4233 21.0435 10.9666C22.5995 11.2424 24.0187 11.9878 25.1116 13.1312C25.6801 13.726 26.1707 14.4093 26.5318 15.1495C26.9667 16.0433 27.0288 16.9393 27.2709 17.8784C27.2709 18.2258 27.2709 18.5711 27.2709 18.9165Z" fill="#FFC54D"/>
<path d="M9.51469 9.57034C7.16058 9.54718 4.63169 9.1829 2.56289 7.98689C1.72484 7.50259 0.624635 6.68665 0.769925 5.5875C0.905739 4.55678 2.03542 3.84086 2.87768 3.40394C4.98965 2.3069 7.51748 1.95946 9.8716 2.00368C12.2099 2.0479 14.7662 2.43008 16.7866 3.68715C17.6815 4.2441 18.7596 5.18953 18.2932 6.35712C17.8141 7.55418 16.2717 8.23957 15.1463 8.65333C13.3522 9.31345 11.4866 9.5556 9.51469 9.57034Z" fill="#FFC54D"/>
<path d="M11.8558 11.9906C11.5579 12.4349 11.2536 12.8518 10.9883 13.294C10.7672 13.6625 10.6009 14.0626 10.3945 14.4405C10.3513 14.5184 10.2397 14.6058 10.1566 14.6079C8.0446 14.6658 5.97263 14.43 3.97858 13.6909C3.10052 13.3656 2.2709 12.9529 1.56445 12.3222C1.00646 11.8243 0.672709 11.2347 0.736932 10.4608C0.752724 10.2671 0.739037 10.0713 0.739037 9.85547C4.19968 11.9337 7.95826 12.2959 11.8558 11.9906Z" fill="#FFC54D"/>
<path d="M11.6097 24.6136C9.29142 24.8811 6.8415 24.7263 4.61056 24.0188C3.61985 23.704 2.60177 23.286 1.79004 22.6228C0.858288 21.8616 0.739319 21.1298 0.739319 19.9844C2.27329 20.7666 3.76514 21.4668 5.46651 21.8047C6.2856 21.9679 7.11523 22.05 7.94802 22.0963C8.33967 22.1185 10.1632 21.9553 10.3621 22.3143C10.7854 23.0734 11.1928 23.8388 11.6097 24.6136Z" fill="#FFC54D"/>
<path d="M0.740161 14.8945C3.48804 16.6054 6.50438 17.1065 9.61864 17.1592C9.61864 18.0004 9.61864 18.8247 9.61864 19.6628C8.83007 19.8481 7.71408 19.5986 6.9192 19.4827C5.96849 19.3448 5.02832 19.1237 4.12394 18.7974C2.75948 18.3046 0.621192 17.3445 0.738056 15.5894C0.751742 15.3746 0.740161 15.1577 0.740161 14.8945Z" fill="#FFC54D"/>
</svg>
