<svg width="16" height="17" viewBox="0 0 16 17" fill="none" xmlns="http://www.w3.org/2000/svg">
<path d="M2.60354 11.3859L10.2136 15.1909C15.3254 17.7513 17.4235 15.6532 14.8631 10.5413L14.0897 8.99442C13.8674 8.54102 13.8674 8.0165 14.0897 7.5631L14.8631 6.02509C17.4235 0.913224 15.3343 -1.18486 10.2136 1.37552L2.60354 5.18052C-0.810298 6.88744 -0.810298 9.67896 2.60354 11.3859ZM5.47507 7.61644L10.2758 7.61644C10.6403 7.61644 10.9425 7.9187 10.9425 8.2832C10.9425 8.6477 10.6403 8.94997 10.2758 8.94997L5.47507 8.94997C5.11058 8.94997 4.80831 8.6477 4.80831 8.2832C4.80831 7.9187 5.11058 7.61644 5.47507 7.61644Z" fill="white" fill-opacity="0.5"/>
</svg>
