<svg width="24" height="25" viewBox="0 0 24 25" fill="none" xmlns="http://www.w3.org/2000/svg">
<path d="M22.8041 24.5H1.19529C0.703089 24.5 0.294922 24.0918 0.294922 23.5996C0.294922 23.1074 0.703089 22.6993 1.19529 22.6993H22.8041C23.2963 22.6993 23.7045 23.1074 23.7045 23.5996C23.7045 24.0918 23.2963 24.5 22.8041 24.5ZM20.4272 2.2693C18.0982 -0.0596578 15.8173 -0.119682 13.4283 2.2693L11.9757 3.72189C11.8557 3.84194 11.8076 4.03402 11.8557 4.20209C12.3148 5.77759 13.1638 7.21187 14.3242 8.37226C15.4846 9.53265 16.9189 10.3817 18.4944 10.8408C18.5795 10.8687 18.6706 10.8722 18.7576 10.851C18.8446 10.8298 18.9239 10.7847 18.9866 10.7208L20.4272 9.26816C21.6157 8.09168 22.1919 6.95121 22.1919 5.79874C22.2039 4.61025 21.6277 3.45778 20.4272 2.2693ZM16.3335 11.9309C15.9853 11.7628 15.6492 11.5947 15.3251 11.4026C15.0618 11.2458 14.8054 11.0776 14.5568 10.8984C14.3527 10.7664 14.1126 10.5743 13.8845 10.3822C13.811 10.3287 13.7427 10.2684 13.6804 10.2021C13.2842 9.86601 12.8401 9.43383 12.4439 8.95363C12.4079 8.92962 12.3479 8.84559 12.2638 8.73755C12.1438 8.59349 11.9397 8.35339 11.7596 8.07727C11.5885 7.85149 11.4321 7.6149 11.2914 7.36898C11.0993 7.04485 10.9313 6.72072 10.7632 6.38458C10.7382 6.33082 10.7138 6.2768 10.69 6.22252C10.5123 5.82275 9.99009 5.7063 9.68157 6.01483L2.80395 12.8924C2.64789 13.0485 2.50383 13.3486 2.46781 13.5527L1.81955 18.1506C1.6995 18.9669 1.92759 19.7353 2.4318 20.2515C2.86397 20.6716 3.46422 20.8997 4.11249 20.8997C4.25654 20.8997 4.4006 20.8877 4.54466 20.8637L9.15455 20.2154C9.37064 20.1794 9.67076 20.0354 9.81482 19.8793L16.684 13.0113C16.9962 12.6992 16.8773 12.1649 16.4727 11.9909C16.4263 11.971 16.3799 11.951 16.3335 11.9309Z" fill="white"/>
</svg>
