<svg width="16" height="16" viewBox="0 0 16 16" fill="none" xmlns="http://www.w3.org/2000/svg">
<path d="M15.2034 16H0.797511C0.469377 16 0.197266 15.7279 0.197266 15.3998C0.197266 15.0716 0.469377 14.7995 0.797511 14.7995H15.2034C15.5315 14.7995 15.8037 15.0716 15.8037 15.3998C15.8037 15.7279 15.5315 16 15.2034 16ZM13.6188 1.17953C12.0661 -0.373105 10.5455 -0.413121 8.95285 1.17953L7.98445 2.14793C7.90442 2.22796 7.87241 2.35601 7.90442 2.46806C8.21051 3.51839 8.77653 4.47458 9.55012 5.24817C10.3237 6.02176 11.2799 6.58778 12.3302 6.89387C12.387 6.91244 12.4477 6.91479 12.5057 6.90065C12.5637 6.88651 12.6166 6.85644 12.6584 6.81384L13.6188 5.84544C14.4111 5.06112 14.7952 4.30081 14.7952 3.53249C14.8032 2.74017 14.4191 1.97186 13.6188 1.17953ZM10.8896 7.62057C10.6575 7.50852 10.4335 7.39648 10.2174 7.26842C10.0418 7.16386 9.87094 7.05171 9.70516 6.93229C9.5691 6.84425 9.40904 6.7162 9.25698 6.58815C9.208 6.55244 9.16245 6.51225 9.12092 6.4681C8.85681 6.244 8.56069 5.95589 8.29658 5.63576C8.27257 5.61975 8.23256 5.56373 8.17653 5.4917C8.0965 5.39566 7.96045 5.23559 7.8404 5.05152C7.72631 4.90099 7.62205 4.74327 7.52827 4.57932C7.40022 4.36323 7.28817 4.14715 7.17612 3.92305C7.15946 3.88722 7.14319 3.8512 7.1273 3.81501C7.00886 3.5485 6.66071 3.47087 6.45503 3.67655L1.86995 8.26163C1.76591 8.36567 1.66987 8.56575 1.64586 8.70181L1.21368 11.7671C1.13365 12.3113 1.28571 12.8235 1.62185 13.1676C1.90997 13.4478 2.31013 13.5998 2.74231 13.5998C2.83835 13.5998 2.93439 13.5918 3.03043 13.5758L6.10368 13.1436C6.24774 13.1196 6.44783 13.0236 6.54387 12.9195L11.1233 8.34086C11.3314 8.13278 11.2522 7.77663 10.9825 7.66058C10.9515 7.64732 10.9206 7.63398 10.8896 7.62057Z" fill="#FFC54D"/>
</svg>
