<svg width="90" height="90" viewBox="0 0 90 90" fill="none" xmlns="http://www.w3.org/2000/svg">
<path d="M70.6463 33.6402C69.6863 31.3402 68.2862 29.2501 66.5262 27.4901L57.0863 18.0501C55.3263 16.2901 53.2362 14.8902 50.9362 13.9302C48.6362 12.9802 46.1663 12.4902 43.6763 12.5002H31.4562C27.8662 12.5002 24.4162 13.9301 21.8862 16.4701C19.3462 19.0101 17.9162 22.4502 17.9062 26.0402V63.9601C17.9162 67.5501 19.3462 70.9901 21.8862 73.5301C24.4162 76.0701 27.8662 77.5002 31.4562 77.5002H58.5363C62.1263 77.5002 65.5662 76.0701 68.1063 73.5301C70.6463 70.9901 72.0763 67.5501 72.0763 63.9601V40.9002C72.0863 38.4102 71.5963 35.9401 70.6463 33.6402ZM50.4062 19.7702C51.4463 20.3402 52.4062 21.0601 53.2562 21.8801L62.6963 31.3202C63.5263 32.1702 64.2362 33.1301 64.8062 34.1701H53.1162C52.3962 34.1701 51.7162 33.8801 51.2062 33.3701C50.6963 32.8701 50.4062 32.1801 50.4062 31.4601V19.7702ZM66.6563 63.9601C66.6563 66.1101 65.8062 68.1801 64.2762 69.7001C62.7562 71.2301 60.6863 72.0802 58.5363 72.0802H31.4562C29.2962 72.0802 27.2262 71.2301 25.7062 69.7001C24.1862 68.1801 23.3263 66.1101 23.3263 63.9601V26.0402C23.3263 23.8902 24.1862 21.8201 25.7062 20.3001C27.2262 18.7701 29.2962 17.9202 31.4562 17.9202H43.6763C44.1263 17.9202 44.5562 18.0002 44.9963 18.0402V31.4601C44.9963 33.6101 45.8463 35.6802 47.3763 37.2002C48.8963 38.7302 50.9662 39.5802 53.1162 39.5802H66.5363C66.5763 40.0202 66.6563 40.4502 66.6563 40.9002V63.9601Z" fill="#9E9E9E"/>
<path d="M57.3783 47.535C57.36 48.1936 57.0856 48.8157 56.6099 49.2731L47.718 57.7259C46.3184 59.1072 44.4339 59.8756 42.4671 59.8665C40.5094 59.8574 38.6341 59.0706 37.2436 57.6893L33.4288 54.2862C32.9348 53.8471 32.6421 53.2342 32.6055 52.5755C32.5872 52.2462 32.633 51.926 32.7336 51.615C32.8434 51.304 33.008 51.0295 33.2276 50.7825C33.4471 50.5355 33.7033 50.3434 34.0052 50.1971C34.2979 50.0598 34.6089 49.9775 34.9383 49.9592C35.5969 49.9226 36.2373 50.1422 36.7313 50.5813L40.6558 54.085C40.8845 54.3411 41.1589 54.5424 41.4608 54.6796C41.7718 54.8259 42.1011 54.9083 42.4396 54.9174C42.7781 54.9266 43.1166 54.8625 43.4276 54.7345C43.7386 54.6155 44.0222 54.4234 44.2601 54.1856L53.1794 45.6871C53.4172 45.4584 53.7008 45.2846 54.0027 45.1656C54.3046 45.0467 54.6339 44.9918 54.9541 45.001C55.2834 45.001 55.6036 45.0742 55.9055 45.2114C56.1982 45.3395 56.4727 45.5316 56.6922 45.7694C57.1496 46.2451 57.3875 46.8855 57.3783 47.535Z" fill="#FFC54D"/>
</svg>
