<svg width="91" height="91" viewBox="0 0 91 91" fill="none" xmlns="http://www.w3.org/2000/svg">
<path d="M58.0815 35.742C58.0632 36.4007 57.7887 37.0227 57.313 37.4801L48.4212 45.9329C47.0215 47.3142 45.137 48.0827 43.1702 48.0735C41.2125 48.0644 39.3372 47.2777 37.9467 45.8963L34.132 42.4932C33.638 42.0541 33.3452 41.4412 33.3086 40.7826C33.2903 40.4532 33.3361 40.1331 33.4367 39.822C33.5465 39.511 33.7111 39.2366 33.9307 38.9896C34.1503 38.7426 34.4064 38.5505 34.7083 38.4041C35.001 38.2669 35.312 38.1845 35.6414 38.1662C36.3 38.1296 36.9404 38.3492 37.4344 38.7883L41.3589 42.292C41.5876 42.5481 41.862 42.7494 42.1639 42.8866C42.4749 43.033 42.8043 43.1153 43.1428 43.1245C43.4812 43.1336 43.8197 43.0696 44.1307 42.9415C44.4418 42.8226 44.7254 42.6305 44.9632 42.3926L53.8825 33.8941C54.1204 33.6654 54.404 33.4916 54.7058 33.3727C55.0077 33.2538 55.3371 33.1989 55.6572 33.208C55.9866 33.208 56.3067 33.2812 56.6086 33.4184C56.9014 33.5465 57.1758 33.7386 57.3954 33.9764C57.8528 34.4521 58.0906 35.0925 58.0815 35.742Z" fill="#FFC54D"/>
<path d="M83.2584 65.9054V25.2208C83.2584 22.7307 82.2693 20.3427 80.5085 18.5819C78.7478 16.8212 76.3597 15.832 73.8697 15.832H17.5372C15.0471 15.832 12.6591 16.8212 10.8983 18.5819C9.13761 20.3427 8.14844 22.7307 8.14844 25.2208L8.14844 65.9054H42.5739V69.0349H30.0555V75.2941H61.3514V69.0349H48.833V65.9054H83.2584ZM14.4076 25.2208C14.4076 24.3908 14.7373 23.5947 15.3242 23.0078C15.9111 22.4209 16.7072 22.0912 17.5372 22.0912H73.8697C74.6997 22.0912 75.4957 22.4209 76.0826 23.0078C76.6695 23.5947 76.9993 24.3908 76.9993 25.2208V59.6462H14.4076V25.2208Z" fill="#9E9E9E"/>
</svg>
