<svg width="91" height="90" viewBox="0 0 91 90" fill="none" xmlns="http://www.w3.org/2000/svg">
<g opacity="0.9">
<path d="M64.6188 33.6631C63.4025 34.5302 61.7077 34.2509 60.8406 33.0321C60.4052 32.4228 59.9177 31.8451 59.3946 31.3259L49.9557 21.8844C49.0949 21.0236 48.139 20.2949 47.1094 19.7046V31.4579C47.1094 32.9509 48.3231 34.1671 49.8186 34.1671H57.9436C59.4403 34.1671 60.6515 35.3795 60.6515 36.875C60.6515 38.3705 59.4403 39.5829 57.9436 39.5829H49.8186C45.3384 39.5829 41.6936 35.9381 41.6936 31.4579V17.9793C41.2594 17.9387 40.8214 17.9171 40.3796 17.9171H28.1515C23.6713 17.9171 20.0265 21.5619 20.0265 26.0421V63.9579C20.0265 68.4381 23.6713 72.0829 28.1515 72.0829H52.5265C54.0245 72.0829 55.2344 73.2966 55.2344 74.7921C55.2344 76.2863 54.0245 77.5 52.5265 77.5H28.1515C20.6841 77.5 14.6094 71.4253 14.6094 63.9579V26.0421C14.6094 18.5747 20.6841 12.5 28.1515 12.5H40.3796C45.4412 12.5 50.2032 14.4716 53.7858 18.0517L63.2223 27.4932C63.9561 28.227 64.6378 29.0318 65.2472 29.885C66.1168 31.1012 65.835 32.7935 64.6188 33.6631Z" fill="#9E9E9E"/>
<path d="M76.8972 63.9551C76.8972 68.4353 73.2524 72.0801 68.7722 72.0801V74.7893C68.7722 76.2835 67.5611 77.4972 66.0643 77.4972C64.5663 77.4972 63.3551 76.2835 63.3551 74.7893V72.0801H62.6302C59.737 72.0801 57.0392 70.5262 55.5932 68.0201C54.8404 66.7265 55.2847 65.071 56.5796 64.3207C57.8796 63.5704 59.5338 64.0122 60.279 65.3097C60.764 66.1438 61.6628 66.6643 62.6264 66.6643H68.7697C70.2639 66.6643 71.4776 65.448 71.4776 63.9551C71.4776 62.9318 70.7438 62.0647 69.7332 61.8972L61.4978 60.5235C57.8657 59.9205 55.2276 56.8051 55.2276 53.1222C55.2276 48.642 58.8737 44.9972 63.3526 44.9972V42.2893C63.3526 40.7937 64.5637 39.5801 66.0618 39.5801C67.5585 39.5801 68.7697 40.7937 68.7697 42.2893V44.9972H69.4958C72.3878 44.9972 75.0856 46.5549 76.5316 49.0597C77.2844 50.3546 76.8401 52.0088 75.5452 52.7591C74.2426 53.5068 72.591 53.065 71.8457 51.7701C71.3608 50.936 70.462 50.4168 69.4984 50.4168H63.3551C61.8609 50.4168 60.6472 51.633 60.6472 53.1247C60.6472 54.1479 61.381 55.015 62.3915 55.1826L70.627 56.5562V56.5537C74.2591 57.158 76.8972 60.2722 76.8972 63.9551Z" fill="#FFC54D"/>
<path d="M35.0934 49.9203H27.9027L29.7816 44.963C29.9948 44.4066 30.3713 43.9277 30.8616 43.5892C31.352 43.2507 31.9332 43.0685 32.5291 43.0664H35.0934V49.9203ZM37.0517 49.9203H45.6925L41.7906 44.3246C41.5201 43.9363 41.1597 43.619 40.7401 43.4C40.3206 43.1809 39.8543 43.0665 39.381 43.0664H37.0517V49.9203ZM49.7803 54.816C49.7803 54.0369 49.4709 53.2898 48.92 52.7389C48.3691 52.188 47.622 51.8786 46.843 51.8786H29.2186C28.4396 51.8786 27.6925 52.188 27.1416 52.7389C26.5907 53.2898 26.2812 54.0369 26.2812 54.816V58.7325H49.7803V54.816ZM34.0575 60.6907C34.6322 64.5622 28.6997 64.5602 29.2754 60.6907H34.0575ZM42.0041 60.6907C41.4293 64.5622 47.3619 64.5602 46.7862 60.6907H42.0041Z" fill="#9E9E9E"/>
</g>
</svg>
