<svg width="91" height="91" viewBox="0 0 91 91" fill="none" xmlns="http://www.w3.org/2000/svg">
<g opacity="0.9">
<path d="M64.1891 34.0576C62.9729 34.9247 61.278 34.6454 60.4109 33.4267C59.9755 32.8173 59.488 32.2396 58.9649 31.7204L49.526 22.2789C48.6652 21.4182 47.7093 20.6895 46.6797 20.0991V31.8524C46.6797 33.3454 47.8934 34.5616 49.3889 34.5616H57.5139C59.0106 34.5616 60.2218 35.774 60.2218 37.2695C60.2218 38.765 59.0106 39.9774 57.5139 39.9774H49.3889C44.9087 39.9774 41.2639 36.3326 41.2639 31.8524V18.3738C40.8297 18.3332 40.3917 18.3116 39.9499 18.3116H27.7218C23.2416 18.3116 19.5968 21.9564 19.5968 26.4366V64.3524C19.5968 68.8326 23.2416 72.4774 27.7218 72.4774H52.0968C53.5948 72.4774 54.8047 73.6911 54.8047 75.1866C54.8047 76.6809 53.5948 77.8945 52.0968 77.8945H27.7218C20.2544 77.8945 14.1797 71.8198 14.1797 64.3524V26.4366C14.1797 18.9692 20.2544 12.8945 27.7218 12.8945H39.9499C45.0115 12.8945 49.7735 14.8661 53.3562 18.4462L62.7926 27.8877C63.5264 28.6215 64.2081 29.4264 64.8175 30.2795C65.6871 31.4957 65.4053 33.188 64.1891 34.0576Z" fill="#9E9E9E"/>
<path d="M76.4675 64.3496C76.4675 68.8298 72.8227 72.4746 68.3425 72.4746V75.1838C68.3425 76.678 67.1314 77.8917 65.6346 77.8917C64.1366 77.8917 62.9254 76.678 62.9254 75.1838V72.4746H62.2005C59.3073 72.4746 56.6095 70.9207 55.1635 68.4146C54.4107 67.121 54.855 65.4655 56.1499 64.7152C57.4499 63.9649 59.1041 64.4067 59.8494 65.7042C60.3343 66.5383 61.2331 67.0588 62.1967 67.0588H68.34C69.8342 67.0588 71.0479 65.8426 71.0479 64.3496C71.0479 63.3264 70.3141 62.4593 69.3036 62.2917L61.0681 60.9181C57.436 60.315 54.7979 57.1996 54.7979 53.5167C54.7979 49.0365 58.444 45.3917 62.9229 45.3917V42.6838C62.9229 41.1883 64.134 39.9746 65.6321 39.9746C67.1289 39.9746 68.34 41.1883 68.34 42.6838V45.3917H69.0662C71.9581 45.3917 74.6559 46.9494 76.1019 49.4542C76.8547 50.7491 76.4104 52.4033 75.1155 53.1536C73.8129 53.9014 72.1613 53.4596 71.4161 52.1646C70.9311 51.3306 70.0323 50.8113 69.0687 50.8113H62.9254C61.4312 50.8113 60.2175 52.0275 60.2175 53.5192C60.2175 54.5425 60.9513 55.4096 61.9619 55.5771L70.1973 56.9508V56.9482C73.8294 57.5525 76.4675 60.6667 76.4675 64.3496Z" fill="#FFC54D"/>
<path d="M52.1163 54.5643C52.1163 56.3042 50.7042 57.7147 48.9643 57.7147H44.2379L38.2176 65.3435C37.6032 66.469 36.4245 67.1676 35.1454 67.1676H34.1366C32.9329 67.1676 32.1072 65.9579 32.5414 64.8369L35.3123 57.7147H31.1531C29.7602 57.7147 28.4368 57.1003 27.5388 56.0354L24.0856 51.9396C23.1491 50.3016 24.3307 48.2619 26.2184 48.2619C26.8697 48.2619 27.4945 48.5203 27.9539 48.9812L31.4514 51.4138H35.3625L32.5547 44.299C32.1102 43.1765 32.9388 41.9609 34.1455 41.9609H35.0849C36.3669 41.9609 37.5456 42.6596 38.157 43.785L44.2349 51.4138H48.9614C50.7013 51.4138 52.1133 52.8243 52.1133 54.5643H52.1163Z" fill="#9E9E9E"/>
</g>
</svg>
