<svg width="56" height="67" viewBox="0 0 56 67" fill="none" xmlns="http://www.w3.org/2000/svg">
<path d="M14.3601 18.1927C15.0407 24.3176 17.3545 31.1231 21.0295 37.6563C24.8405 44.1895 29.4682 49.4978 34.5043 53.1727L41.1736 64.8781L48.2513 60.7948C57.5067 55.3504 57.5067 37.7924 48.2513 21.7315C38.9958 5.53457 23.8878 -3.1764 14.6324 2.26795L7.55469 6.35122L14.3601 18.1927Z" fill="url(#paint0_linear_8772_21168)"/>
<path d="M41.1699 25.8155C50.4253 42.0125 50.4253 59.4344 41.1699 64.8788C31.9145 70.3232 16.8063 61.6122 7.55093 45.4152C-1.70448 29.2183 -1.70448 11.7963 7.55093 6.35194C16.8063 0.90758 31.9145 9.61856 41.1699 25.8155Z" fill="#FFC54D"/>
<path d="M38.0388 27.7194C45.5248 40.7859 45.5248 55.0773 38.0388 59.4328C30.5528 63.7883 18.303 56.8467 10.6809 43.6441C3.19491 30.5777 3.19491 16.2862 10.6809 11.9308C18.303 7.43916 30.5528 14.5168 38.0388 27.7194Z" fill="#FFCD66"/>
<path d="M8.33203 28.2665L10.6459 26.9054C11.4625 26.4971 12.5514 26.6332 13.6403 27.1776C14.593 27.7221 15.6819 28.6748 16.3625 30.0359L14.0486 31.397C13.2319 30.172 12.2792 29.0831 11.3264 28.5387C10.2376 27.8582 9.14869 27.722 8.33203 28.2665Z" fill="#D9D9D9"/>
<path d="M13.8398 31.3605L16.2898 29.8633L20.6453 36.9409L18.433 38.9164L13.8398 31.3605Z" fill="#D9D9D9"/>
<path d="M34.5049 39.9998L36.9549 38.6387L24.8412 48.4385L22.5273 49.7996L34.5049 39.9998Z" fill="#D9D9D9"/>
<path d="M28.4336 30.2059L30.7474 28.8448C31.5641 28.4365 32.653 28.5726 33.7418 29.1171L31.428 30.4782C30.3391 29.7976 29.2502 29.6615 28.4336 30.2059Z" fill="#D9D9D9"/>
<path d="M31.375 30.4548L33.6888 29.0938C34.6416 29.6382 35.5944 30.5909 36.2749 31.6798C38.0443 34.402 38.3166 37.5325 36.8194 38.7575L34.5055 40.1186C36.0027 38.8936 35.7305 35.7631 33.9611 33.0409C33.2805 31.8159 32.3278 30.9993 31.375 30.4548Z" fill="#D9D9D9"/>
<path d="M31.5063 30.4443C32.459 30.9887 33.4118 31.9414 34.0923 33.0303C35.8617 35.7525 36.134 38.883 34.6368 40.108L22.6592 49.9078C21.7064 50.7245 20.3453 50.5884 18.8481 49.7717C17.6231 49.0912 16.5343 48.0023 15.5815 46.5051L8.50385 35.2081C6.73444 32.4859 6.73442 29.3554 8.23162 28.2665C9.04827 27.7221 10.1371 27.8582 11.3621 28.4026C12.3149 28.9471 13.4038 29.8998 14.0843 31.2609L18.4398 38.3386L28.2397 30.3081C29.0563 29.6276 30.2813 29.7637 31.5063 30.4443Z" fill="white"/>
<defs>
<linearGradient id="paint0_linear_8772_21168" x1="51.5688" y1="58.938" x2="17.8025" y2="0.453082" gradientUnits="userSpaceOnUse">
<stop stop-color="#FFC54C"/>
<stop offset="1" stop-color="#FFDE9B"/>
</linearGradient>
</defs>
</svg>
