<svg width="132" height="315" viewBox="0 0 132 315" fill="none" xmlns="http://www.w3.org/2000/svg">
<path d="M122.852 81.1809C122.852 75.2809 119.652 69.7809 114.552 66.7809L9.05234 5.88086C5.95234 4.08086 2.15234 5.78086 1.15234 8.98086C1.75235 6.48086 3.25233 4.38086 5.45233 2.98086L5.85233 2.78085C8.45232 1.18085 11.4523 0.380859 14.5523 0.380859C15.4523 0.380859 16.4523 0.580856 17.3523 1.08086L122.852 61.9809C127.952 64.9809 131.152 70.3809 131.152 76.3809V304.581C131.152 308.781 126.652 311.381 122.952 309.281L122.852 309.181V81.1809Z" fill="#BFBFBF"/>
<path d="M9.24924 253.18L114.749 314.079C118.349 316.18 122.949 313.579 122.949 309.379V81.1795C122.949 75.2795 119.749 69.7795 114.649 66.7795L9.04922 5.87951C5.44923 3.77951 0.849213 6.37951 0.849213 10.5795V238.78C0.949211 244.68 4.04924 250.18 9.24924 253.18Z" fill="#D9D9D9"/>
<path d="M122.85 309.381V81.1809C122.85 78.6809 122.25 76.1809 121.25 73.9809L129.45 68.8809C130.55 71.1809 131.25 73.6809 131.25 76.2809V303.981V304.481V306.381C131.25 308.181 130.25 309.881 128.65 310.881L124.45 313.381C122.95 314.281 121.35 314.681 119.65 314.681H117.55C120.35 314.781 122.85 312.481 122.85 309.381Z" fill="#BFBFBF"/>
<path d="M12.8523 27.7812V219.581C12.8523 224.781 15.6523 229.681 20.1523 232.281L113.352 286.081C114.052 286.481 114.852 286.681 115.652 286.681C114.552 289.181 111.452 290.381 108.852 288.881L15.6523 235.081C11.1523 232.481 8.35233 227.581 8.35233 222.381V32.5813C8.35233 29.8813 10.4523 27.9813 12.8523 27.7812Z" fill="#BFBFBF"/>
<path d="M115.651 286.78C114.851 286.78 114.051 286.58 113.351 286.18L20.1508 232.38C15.6508 229.78 12.8508 224.88 12.8508 219.68V27.7803C12.4508 27.7803 14.2508 27.6803 15.5508 28.3803L108.751 82.1803C113.251 84.7803 116.051 89.6803 116.051 94.8803V284.78C116.051 285.58 115.951 286.18 115.651 286.78Z" fill="#F2F2F2"/>
<path d="M76.6508 54.079C76.6508 55.179 77.4508 56.479 78.3508 56.979C79.2508 57.479 80.0508 57.079 80.0508 55.979C80.0508 54.879 79.2508 53.579 78.3508 53.079C77.4508 52.579 76.6508 53.079 76.6508 54.079Z" fill="#BFBFBF"/>
<path d="M70.4516 50.4794C70.4516 51.5794 71.2516 52.8794 72.1516 53.3794C73.0516 53.8794 73.8516 53.4794 73.8516 52.3794C73.8516 51.2794 73.0516 49.9794 72.1516 49.4794C71.1516 48.9794 70.4516 49.4794 70.4516 50.4794Z" fill="#BFBFBF"/>
<path d="M45.2508 37.8794L65.5508 49.5794C66.3508 50.0794 67.0508 49.5794 67.0508 48.4794C67.0508 47.3794 66.3508 46.1794 65.5508 45.6794L45.2508 33.9794C44.4508 33.4794 43.7508 33.9794 43.7508 35.0794C43.7508 36.1794 44.4508 37.4794 45.2508 37.8794Z" fill="#BFBFBF"/>
<path d="M48.6492 260.38C47.4492 260.38 46.6492 261.68 46.6492 263.68C46.6492 266.78 48.6492 270.58 50.9492 271.88L60.6492 277.48C61.1492 277.78 61.6492 277.98 62.0492 277.98C63.2492 277.98 64.0492 276.68 64.0492 274.68C64.0492 271.58 62.0492 267.78 59.7492 266.48L50.0492 260.88C49.5492 260.48 49.1492 260.38 48.6492 260.38ZM48.6492 259.48C49.2492 259.48 49.8492 259.68 50.5492 260.08L60.2492 265.68C62.8492 267.18 64.9492 271.18 64.9492 274.68C64.9492 277.28 63.7492 278.78 62.1492 278.78C61.5492 278.78 60.9492 278.58 60.2492 278.18L50.5492 272.58C47.9492 271.08 45.8492 267.08 45.8492 263.58C45.8492 261.08 47.0492 259.48 48.6492 259.48Z" fill="#BFBFBF"/>
<path d="M99.5354 130.509L31.9599 92.3078C30.0292 91.2046 28.2363 91.3425 26.9952 92.3078L21.203 96.3072L25.2023 101.272V172.433C25.2023 177.398 28.2363 183.19 31.9599 185.397L97.8805 222.632L98.1563 227.873L104.362 223.597C105.603 222.632 106.293 220.839 106.293 218.357V143.334C106.293 138.507 103.259 132.715 99.5354 130.509Z" fill="#BFBFBF"/>
<path d="M93.7424 227.596L26.1669 189.396C22.4434 187.189 19.4094 181.397 19.4094 176.432V101.41C19.4094 96.4448 22.4434 94.1003 26.1669 96.3069L93.7424 134.508C97.466 136.714 100.5 142.506 100.5 147.471V222.494C100.5 227.459 97.466 229.803 93.7424 227.596Z" fill="#D0D0D0"/>
<path d="M79.5402 164.867C79.2644 164.867 78.9886 164.72 78.8507 164.277C77.4716 158.673 75.1271 153.069 72.231 148.203C72.0931 147.908 72.0931 147.465 72.5068 147.17C72.7827 147.023 73.1964 147.023 73.4722 147.465C76.5062 152.479 78.8507 158.231 80.2298 163.982C80.3677 164.425 80.0918 164.72 79.6781 164.867H79.5402Z" fill="white"/>
<path d="M81.0593 179.91C80.6455 179.91 80.3697 179.468 80.3697 179.173C80.3697 178.436 80.5076 177.551 80.5076 176.666C80.5076 174.306 80.2318 171.652 79.8181 169.145C79.8181 168.702 79.956 168.407 80.3697 168.26C80.7834 168.26 81.0593 168.407 81.1972 168.85C81.6109 171.504 81.8867 174.159 81.8867 176.666C81.8867 177.551 81.8867 178.436 81.7488 179.173C81.7488 179.615 81.473 179.91 81.0593 179.91Z" fill="white"/>
<path d="M38.8572 155.428C38.4435 155.428 38.1677 155.133 38.1677 154.691C38.0298 153.364 38.0298 152.184 38.0298 150.857C38.0298 143.63 39.8226 137.731 43.1324 134.192C43.4083 133.897 43.822 133.897 44.0978 134.192C44.3736 134.487 44.3736 134.929 44.0978 135.224C41.0638 138.469 39.4089 144.073 39.4089 150.857C39.4089 152.036 39.4089 153.216 39.5468 154.544C39.6847 154.986 39.4089 155.428 38.8572 155.428C38.9952 155.428 38.9952 155.428 38.8572 155.428Z" fill="white"/>
<path d="M69.475 143.482C69.3371 143.482 69.0613 143.335 68.9234 143.187C66.0273 139.353 62.8554 136.551 59.6834 134.486C55.1324 131.684 50.8572 131.242 47.2716 133.012C46.9958 133.159 46.582 133.012 46.3062 132.717C46.1683 132.274 46.3062 131.979 46.5821 131.684C50.5814 129.767 55.2703 130.21 60.2351 133.307C63.6828 135.371 66.8547 138.468 69.8887 142.303C70.1645 142.598 70.0266 143.04 69.7508 143.335C69.7508 143.482 69.6129 143.482 69.475 143.482Z" fill="white"/>
<path d="M43.6847 156.019C43.2709 156.019 42.9951 155.724 42.9951 155.282C42.9951 154.839 42.9951 154.397 42.9951 153.955C42.9951 148.645 44.2363 144.369 46.4428 141.567C46.7187 141.272 47.1324 141.272 47.4082 141.419C47.684 141.714 47.684 142.157 47.5461 142.451C45.4775 144.959 44.3742 148.94 44.3742 153.807C44.3742 154.25 44.3742 154.692 44.3742 155.134C44.3742 155.577 44.0984 156.019 43.6847 156.019Z" fill="white"/>
<path d="M49.0641 140.829C48.7882 140.829 48.6503 140.682 48.5124 140.534C48.3745 140.239 48.3745 139.797 48.7883 139.502C50.5811 138.322 52.5118 137.879 54.5804 138.174C54.9942 138.174 55.27 138.617 55.1321 138.912C55.1321 139.354 54.7184 139.649 54.4426 139.502C52.6497 139.354 50.8569 139.649 49.4778 140.682C49.3399 140.682 49.202 140.829 49.0641 140.829Z" fill="white"/>
<path d="M79.5451 189.346C79.2693 189.346 78.9934 189.198 78.8555 188.903L78.0281 186.691C76.3732 182.415 75.5457 177.843 75.5457 173.713C75.5457 161.178 68.3744 146.725 59.5482 141.416C59.2724 141.269 59.1345 140.826 59.2724 140.384C59.4103 140.089 59.8241 139.942 60.2378 140.089C69.4777 145.693 76.9248 160.736 76.9248 173.566C76.9248 177.548 77.7523 181.972 79.2693 186.101L80.0967 188.166C80.2346 188.608 80.0967 188.903 79.683 189.198C79.683 189.346 79.683 189.346 79.5451 189.346Z" fill="white"/>
<path d="M47.8224 180.942C47.5466 180.942 47.2708 180.794 47.1329 180.499C43.6852 170.323 42.8577 159.115 42.8577 158.968C42.8577 158.525 43.1335 158.23 43.5472 158.23C43.8231 158.23 44.2368 158.525 44.2368 158.968C44.2368 159.115 45.0642 170.176 48.3741 180.057C48.512 180.499 48.3741 180.794 47.9604 180.942C48.0983 180.942 47.9603 180.942 47.8224 180.942Z" fill="white"/>
<path d="M75.5412 194.361C75.2654 194.361 74.9895 194.213 74.8516 193.918L73.0588 188.609C71.1281 183.005 70.0248 177.401 70.0248 172.387V166.635C70.0248 159.704 65.3359 151.298 59.6816 147.906C57.0613 146.284 54.579 145.989 52.7862 147.169C50.9933 148.201 50.028 150.561 50.028 153.805V158.967C50.028 166.488 51.6829 174.894 54.579 183.3L56.9234 189.642C57.0613 190.084 56.9235 190.379 56.5097 190.526C56.096 190.674 55.8202 190.526 55.6823 190.084L53.3378 183.743C50.3038 175.189 48.6489 166.635 48.6489 158.819V153.658C48.6489 149.971 49.8901 147.169 52.0966 145.841C54.3032 144.514 57.3372 144.662 60.3712 146.579C66.4392 150.266 71.4039 159.262 71.4039 166.635V172.387C71.4039 177.254 72.3693 182.71 74.3 188.019L76.0928 193.328C76.2307 193.771 76.0928 194.066 75.6791 194.213C75.6791 194.361 75.5412 194.361 75.5412 194.361Z" fill="white"/>
<path d="M69.4769 196.427C69.2011 196.427 68.9253 196.279 68.7874 195.837L67.822 192.297C66.0292 185.661 65.0638 179.319 65.0638 173.42V164.424C65.0638 160.738 62.5814 156.166 59.5474 154.396C58.1683 153.511 56.9271 153.364 56.0997 153.954C55.2722 154.544 54.7206 155.723 54.7206 157.346C54.7206 167.374 57.6167 178.73 62.7193 189.643L64.6501 193.772C64.788 194.067 64.6501 194.509 64.3742 194.804C64.0984 194.952 63.6847 194.804 63.4089 194.509L61.4782 190.38C56.2376 179.319 53.3415 167.521 53.3415 157.346C53.3415 155.134 54.031 153.511 55.4101 152.774C56.7892 151.889 58.4441 152.037 60.237 153.216C63.6847 155.281 66.4429 160.443 66.4429 164.572V173.568C66.4429 179.319 67.4082 185.513 69.2011 192.002L70.1664 195.542C70.3044 195.984 70.0285 196.279 69.7527 196.427C69.4769 196.427 69.4769 196.427 69.4769 196.427Z" fill="white"/>
<path d="M61.6156 180.941C61.3398 180.941 61.064 180.646 60.9261 180.351L60.2365 177.254C59.6849 174.157 59.2711 171.06 59.2711 167.963V159.704C59.2711 159.262 59.547 158.967 59.9607 158.967C60.3744 158.967 60.6502 159.262 60.6502 159.704V167.963C60.6502 170.912 60.9261 174.009 61.4777 176.811L62.1673 179.908C62.3052 180.351 62.0293 180.646 61.6156 180.793C61.7535 180.941 61.7535 180.941 61.6156 180.941Z" fill="white"/>
<path d="M40.3734 164.865C39.9597 164.865 39.6839 164.57 39.6839 164.127L39.2702 159.851C39.2702 159.408 39.546 159.113 39.8218 159.113C40.2355 159.113 40.5114 159.408 40.5114 159.703L40.9251 163.98C41.063 164.422 40.7872 164.865 40.3734 164.865Z" fill="white"/>
</svg>
