<svg width="259" height="172" viewBox="0 0 259 172" fill="none" xmlns="http://www.w3.org/2000/svg">
<path d="M138.017 139.068L74.6484 97.7488L75.8015 79.3516L139.135 120.671L141.458 132.062L138.017 139.068Z" fill="#696969"/>
<path d="M247.068 76.1714L186.477 33.3145L185.953 15.7559L246.613 58.6827L250.23 69.9517L247.068 76.1714Z" fill="#6E230D"/>
<path d="M2.19826 128.094C0.241476 126.749 2.19827 128.846 8.87229 126.819C12.8208 125.631 75.0534 139.887 78.1458 138.769C80.0152 138.07 79.8405 95.8948 78.6699 95.5104L109.611 77.6723L75.1582 57.7725L75.6124 56.9863L60.0106 66.2111C48.3748 72.9725 7.94629 97.3449 3.28146 100.105C3.28146 100.105 2.75733 103.39 2.35549 104.613L2.58263 112.405L2.61758 112.527V112.562L2.68745 117.489L2.19826 128.094Z" fill="#C5C5C5"/>
<path d="M75.6362 56.9885L120.275 30.5894L106.98 17.1191L106.91 14.4285L135.807 19.3554L173.283 3.70117C173.283 3.70117 208.662 11.0566 220.123 17.5733C229.837 23.0943 238.189 29.5411 246.785 36.4073L244.81 37.5954H244.775C244.775 37.5954 245.562 38.3467 235.9 37.4906C218.848 35.9531 204.993 19.897 201.482 23.6184C198.494 26.8156 186.334 33.3324 186.334 33.3324C186.753 31.4455 186.98 29.5761 186.98 27.794C186.98 16.6998 179.066 12.2621 169.282 17.8704C159.516 23.5136 161.752 31.2359 161.752 42.3651C161.752 44.1471 161.979 45.8069 162.381 47.257L155.742 51.0657L109.688 77.7269L75.2344 57.8271L75.6362 56.9885Z" fill="#F39729"/>
<path d="M135.789 19.3561C135.789 19.3561 151.688 26.3795 163.551 33.2283C184.272 45.1786 204 61.1914 204 61.1914L244.74 37.5961H244.775L248.583 35.3248L247.238 34.4687L246.225 33.8747C246.225 33.8747 227.531 18.0632 220.804 14.3768C201.498 3.73678 191.872 2.56622 191.051 2.2168L188.849 2.40898L173.247 3.73679L135.789 19.3561Z" fill="#C5C5C5"/>
<path d="M66.7464 139.979L46.7768 136.712L7.88574 113.021L5.49219 105.194L6.17357 100.599L18.4908 93.7324L144.424 95.6018L66.7464 139.979Z" fill="#C5C5C5"/>
<path d="M1.71094 108.463C1.71094 109.179 1.97302 110.56 2.56704 112.412C2.60198 112.499 2.60197 112.569 2.63691 112.639C3.72013 115.818 5.69438 122.265 8.85667 126.825C11.6695 130.826 15.321 134.845 20.0907 138.164C32.1808 146.603 71.0369 153.504 71.0369 153.504L71.3339 143.283L70.7049 140.89C64.1357 138.723 41.7725 134.845 21.2787 121.182C21.0516 121.042 20.8594 120.885 20.6847 120.728C16.7013 117.932 13.5914 114.98 11.2852 112.324C7.24932 107.852 5.46726 104.34 5.34496 104.252L5.22265 104.183L3.58037 100.828C3.17854 102.016 2.72426 103.361 2.30495 104.602C2.07783 105.353 1.90313 106.052 1.74589 106.664L1.71094 108.463Z" fill="#A1A1A1"/>
<path d="M109.646 163.111L133.128 123.696L120.88 116.637L120.845 116.672C117.893 115.03 113.822 115.327 109.384 117.913C100.352 123.102 93.0312 135.646 93.0312 145.902C93.0312 150.829 94.7085 154.305 97.4689 156.052L97.6961 156.192C97.766 156.227 97.8358 156.262 97.8883 156.297L109.646 163.111Z" fill="#080A0D"/>
<path d="M128.922 126.16L112.272 116.568C111.346 116.9 110.368 117.355 109.39 117.914C100.357 123.103 93.0365 135.647 93.0365 145.903C93.0365 147.807 78.0637 157.399 78.5179 158.849L106.542 158.29C107.957 157.888 109.425 157.276 110.91 156.42C112.587 155.442 114.194 154.254 115.732 152.874L128.084 132.188C128.591 130.161 128.888 128.134 128.922 126.16Z" fill="#27292C"/>
<path d="M137.626 133.914C137.626 144.187 130.306 156.731 121.273 161.903C112.24 167.092 104.938 163.021 104.938 152.765C104.938 142.492 112.258 129.966 121.273 124.777C130.306 119.588 137.626 123.693 137.626 133.914Z" fill="#323437"/>
<path d="M136.97 134.298C136.97 144.152 129.964 156.207 121.246 161.204C112.597 166.201 105.539 162.252 105.539 152.399C105.539 142.545 112.597 130.49 121.246 125.493C129.964 120.479 136.97 124.445 136.97 134.298Z" fill="#25272A"/>
<path d="M133.474 136.31C133.474 143.962 128.023 153.327 121.262 157.206C114.553 161.084 109.102 158.027 109.102 150.374C109.102 142.722 114.553 133.357 121.262 129.479C128.04 125.6 133.474 128.658 133.474 136.31Z" fill="#202225"/>
<path d="M116.873 150.495C122.586 146.355 126.552 138.178 125.696 132.238C125.574 131.539 125.434 130.858 125.207 130.298C128.527 129.932 131.06 131.836 131.637 135.784C132.458 141.725 128.544 149.901 122.831 154.077C117.834 157.728 113.134 157.064 111.492 152.836C113.134 152.662 114.969 151.91 116.873 150.495Z" fill="#646D70"/>
<mask id="mask0_5865_21091" style="mask-type:luminance" maskUnits="userSpaceOnUse" x="110" y="130" width="22" height="27">
<path d="M122.804 154.083C128.517 149.907 132.431 141.731 131.61 135.79C130.753 129.885 125.442 128.435 119.747 132.611C114.068 136.786 110.12 144.963 110.976 150.903C111.797 156.843 117.108 158.258 122.804 154.083Z" fill="white"/>
</mask>
<g mask="url(#mask0_5865_21091)">
<path d="M112.109 154.87L115.429 144.912L108.423 148.895C108.301 147.183 108.528 145.383 109.052 143.531L115.778 139.688L114.887 133.485C115.639 132.734 116.425 131.983 117.229 131.389C117.927 130.9 118.609 130.463 119.273 130.131L120.164 136.473L127.03 130.271C127.938 131.092 128.602 132.297 128.934 133.782L121.771 140.282L127.257 144.125C126.401 145.96 125.248 147.759 123.937 149.349L119.098 145.942L116.075 154.94C114.608 155.359 113.263 155.324 112.109 154.87Z" fill="#646D70"/>
<path d="M119.54 146.065L124.589 149.577C125.847 148.039 126.93 146.327 127.804 144.545L122.125 140.596L129.586 133.835C129.254 132.385 128.625 131.214 127.751 130.411L120.588 136.875L119.61 130.166C118.981 130.498 118.299 130.917 117.635 131.424C116.849 131.983 116.063 132.647 115.364 133.398L116.307 140.002L109.214 144.073C108.725 145.855 108.515 147.62 108.62 149.262L116.045 145.051L112.586 155.429C113.704 155.849 115.015 155.849 116.43 155.464L119.54 146.065Z" fill="#778083"/>
<path d="M119.97 146.204L125.159 149.821C126.399 148.318 127.43 146.659 128.286 144.929L122.433 140.823L130.191 133.852C129.859 132.437 129.265 131.319 128.478 130.498L120.983 137.259L119.97 130.131C119.306 130.463 118.66 130.882 117.996 131.354C117.262 131.913 116.546 132.559 115.847 133.258L116.86 140.282L109.365 144.58C108.911 146.292 108.718 147.969 108.841 149.541L116.598 145.139L113.016 155.936C114.1 156.268 115.358 156.303 116.755 155.936L119.97 146.204Z" fill="#899296"/>
<path d="M120.429 146.329L125.793 150.05C126.946 148.635 127.994 147.028 128.816 145.35L122.77 141.14L130.842 133.872C130.493 132.526 129.934 131.443 129.2 130.622L121.39 137.68L120.307 130.15C119.678 130.517 119.032 130.902 118.403 131.373C117.704 131.863 116.987 132.492 116.341 133.138L117.389 140.598L109.475 145.123C109.021 146.766 108.881 148.408 109.003 149.893L117.18 145.263L113.406 156.462C114.524 156.759 115.73 156.759 117.022 156.427L120.429 146.329Z" fill="#9CA5A9"/>
<path d="M120.892 146.432L126.448 150.31C127.566 148.895 128.544 147.375 129.33 145.768L123.128 141.435L131.479 133.887C131.182 132.577 130.658 131.546 129.942 130.725L121.818 138.045L120.7 130.131C120.053 130.498 119.424 130.882 118.778 131.319C118.149 131.808 117.467 132.367 116.839 132.996L117.957 140.876L109.588 145.575C109.204 147.218 109.099 148.755 109.169 150.205L117.712 145.348L113.833 156.949C114.917 157.211 116.105 157.211 117.345 156.879L120.892 146.432Z" fill="#AFB8BC"/>
<path d="M121.324 146.538L127.072 150.574C128.121 149.194 129.047 147.744 129.833 146.171L123.456 141.699L132.069 133.942C131.807 132.684 131.318 131.635 130.636 130.849L122.198 138.467L120.992 130.15C120.363 130.517 119.769 130.902 119.175 131.338C118.546 131.775 117.9 132.299 117.306 132.893L118.459 141.14L109.723 146.102C109.391 147.674 109.287 149.159 109.357 150.539L118.319 145.455L114.283 157.475C115.332 157.703 116.485 157.668 117.69 157.371L121.324 146.538Z" fill="#C1CACF"/>
<path d="M121.773 146.695L127.678 150.801C128.691 149.491 129.582 148.076 130.369 146.591L123.799 141.996L132.71 133.924C132.448 132.736 131.993 131.723 131.399 130.901L122.629 138.816L121.388 130.115C120.759 130.482 120.148 130.867 119.571 131.268C119.012 131.723 118.401 132.194 117.807 132.718L119.03 141.419L109.892 146.643C109.595 148.093 109.525 149.526 109.595 150.854L118.89 145.56L114.749 157.982C115.798 158.174 116.863 158.139 118.034 157.842L121.773 146.695Z" fill="#D4DDE2"/>
</g>
<path d="M109.217 152.139C110.231 159.075 116.415 160.717 123.054 155.878C129.711 150.986 134.288 141.464 133.328 134.563C132.349 127.627 126.147 125.985 119.508 130.824C112.834 135.716 108.239 145.22 109.217 152.139ZM110.982 150.899C110.126 144.958 114.074 136.782 119.752 132.606C125.465 128.431 130.759 129.881 131.615 135.786C132.437 141.726 128.523 149.903 122.81 154.078C117.097 158.254 111.786 156.839 110.982 150.899Z" fill="#99AAB2"/>
<path d="M115.824 147.316C116.26 150.461 119.073 151.195 122.096 148.993C125.118 146.792 127.18 142.459 126.726 139.367C126.289 136.222 123.476 135.488 120.488 137.689C117.466 139.891 115.387 144.223 115.824 147.316Z" fill="#99AAB2"/>
<path d="M118.393 145.467C118.62 147.109 120.105 147.511 121.73 146.358C123.285 145.205 124.403 142.881 124.176 141.239C123.914 139.597 122.429 139.195 120.857 140.348C119.267 141.501 118.183 143.807 118.393 145.467Z" fill="#55575A"/>
<path d="M120.219 144.101C120.324 144.695 120.848 144.853 121.407 144.433C122.001 143.997 122.42 143.175 122.315 142.564C122.245 141.97 121.669 141.813 121.11 142.232C120.551 142.686 120.149 143.507 120.219 144.101Z" fill="#D4DDE2"/>
<path d="M109.65 163.112L102.487 158.936C102.417 158.901 102.329 158.866 102.259 158.814L102.032 158.674C99.3068 156.927 97.5946 153.45 97.5946 148.523C97.5946 138.267 104.915 125.758 113.93 120.569C118.42 117.948 122.456 117.686 125.426 119.294V119.259L124.605 118.805V118.839C121.652 117.197 117.582 117.494 113.109 120.062C104.076 125.286 96.7734 137.796 96.7734 148.051C96.7734 152.978 98.4856 156.455 101.211 158.202L101.473 158.342C101.526 158.377 101.596 158.412 101.665 158.464L109.65 163.112Z" fill="#080A0D"/>
<path d="M109.647 163.109L106.152 161.065C106.083 161.03 105.995 160.995 105.96 160.96L105.681 160.803C102.973 159.056 101.243 155.579 101.243 150.652C101.243 140.379 108.563 127.852 117.596 122.663C122.069 120.095 126.105 119.781 129.092 121.406L128.271 120.916V120.951C125.318 119.344 121.248 119.641 116.775 122.227C107.777 127.416 100.422 139.96 100.422 150.216C100.422 155.142 102.134 158.619 104.895 160.331L104.86 160.366L105.122 160.524C105.192 160.559 105.226 160.593 105.296 160.628L109.647 163.109Z" fill="#080A0D"/>
<path d="M219.111 99.9839L242.592 60.6037L230.31 53.5103V53.5453C227.323 51.903 223.287 52.2 218.814 54.7858C209.781 59.9747 202.461 72.5191 202.461 82.7747C202.461 87.7016 204.173 91.1783 206.899 92.9255L207.126 93.0653C207.196 93.1002 207.283 93.1352 207.353 93.1701L219.111 99.9839Z" fill="#080A0D"/>
<path d="M238.364 63.0857L221.679 53.459C220.736 53.7909 219.81 54.2452 218.814 54.8043C209.781 59.9933 202.461 72.5376 202.461 82.7932C202.461 84.6976 202.723 86.3399 203.16 87.79L216.001 95.1803C217.381 94.7785 218.831 94.167 220.369 93.3109C222.046 92.3325 223.654 91.1445 225.191 89.7642L237.543 69.0958C237.98 67.0342 238.277 65.025 238.364 63.0857Z" fill="#27292C"/>
<path d="M247.073 70.8086C247.073 81.0817 239.753 93.6086 230.72 98.7975C221.688 103.986 214.367 99.8807 214.367 89.66C214.367 79.3869 221.688 66.8601 230.72 61.6536C239.753 56.4647 247.073 60.5355 247.073 70.8086Z" fill="#323437"/>
<path d="M246.423 71.1754C246.423 81.0292 239.365 93.0844 230.699 98.0811C221.998 103.078 214.992 99.1294 214.992 89.2756C214.992 79.4218 222.016 67.3667 230.699 62.3699C239.365 57.3731 246.423 61.3216 246.423 71.1754Z" fill="#25272A"/>
<path d="M242.909 73.2006C242.909 80.853 237.423 90.2176 230.697 94.0962C223.935 97.9748 218.484 94.9174 218.484 87.2649C218.484 79.6125 223.935 70.248 230.697 66.3694C237.423 62.4907 242.909 65.5482 242.909 73.2006Z" fill="#202225"/>
<path d="M226.312 87.3878C232.025 83.2471 235.939 75.0706 235.083 69.1303C235.013 68.4315 234.821 67.7501 234.594 67.1911C237.913 66.8242 240.446 68.7285 241.006 72.677C241.862 78.6172 237.913 86.7938 232.235 90.9694C227.186 94.6209 222.486 93.957 220.844 89.729C222.538 89.5368 224.408 88.7855 226.312 87.3878Z" fill="#646D70"/>
<mask id="mask1_5865_21091" style="mask-type:luminance" maskUnits="userSpaceOnUse" x="220" y="67" width="22" height="27">
<path d="M232.253 90.9489C237.931 86.7733 241.88 78.5967 241.024 72.6565C240.202 66.7338 234.909 65.3011 229.196 69.4942C223.483 73.6699 219.534 81.8464 220.39 87.7866C221.246 93.7269 226.557 95.142 232.253 90.9489Z" fill="white"/>
</mask>
<g mask="url(#mask1_5865_21091)">
<path d="M221.511 91.7354L224.866 81.7768L217.807 85.7777C217.703 84.0655 217.912 82.231 218.436 80.3966L225.163 76.5878L224.272 70.3506C225.058 69.5993 225.827 68.8655 226.648 68.254C227.329 67.7648 228.028 67.3106 228.657 66.9961L229.601 73.3382L236.432 67.1359C237.375 67.957 238.004 69.1625 238.371 70.6476L231.173 77.1469L236.659 80.9906C235.803 82.8251 234.685 84.6071 233.339 86.2145L228.482 82.825L225.495 91.8228C224.01 92.2246 222.664 92.1896 221.511 91.7354Z" fill="#646D70"/>
<path d="M228.935 82.9299L233.985 86.4416C235.26 84.9041 236.326 83.192 237.182 81.3924L231.504 77.409L238.981 70.7C238.684 69.2324 238.038 68.0794 237.182 67.2582L229.984 73.705L229.058 66.9961C228.376 67.328 227.712 67.7474 227.083 68.2366C226.262 68.8306 225.511 69.512 224.812 70.2458L225.756 76.8499L218.627 80.9032C218.138 82.7028 217.963 84.4499 218.068 86.0922L225.459 81.8816L221.982 92.2596C223.1 92.6789 224.445 92.6788 225.826 92.2945L228.935 82.9299Z" fill="#778083"/>
<path d="M229.389 83.0872L234.613 86.7037C235.836 85.2186 236.884 83.5239 237.705 81.8117L231.852 77.706L239.627 70.7175C239.33 69.3023 238.736 68.1842 237.897 67.363L230.385 74.1244L229.389 66.9961C228.76 67.328 228.079 67.7474 227.45 68.2366C226.698 68.7957 225.947 69.4246 225.283 70.141L226.297 77.1644L218.749 81.4623C218.295 83.1745 218.12 84.8517 218.225 86.4241L226.034 82.0214L222.418 92.8012C223.536 93.1331 224.811 93.1681 226.157 92.8012L229.389 83.0872Z" fill="#899296"/>
<path d="M229.842 83.192L235.258 86.9308C236.411 85.5156 237.424 83.9083 238.245 82.231L232.2 78.0204L240.255 70.735C239.958 69.3897 239.399 68.3064 238.647 67.4853L230.803 74.5437L229.754 66.9961C229.126 67.363 228.444 67.7474 227.815 68.2366C227.099 68.7258 226.435 69.3548 225.771 69.9837L226.819 77.4439L218.905 81.9515C218.485 83.5938 218.346 85.2361 218.416 86.7211L226.592 82.0913L222.853 93.2904C223.937 93.5874 225.16 93.5873 226.47 93.2554L229.842 83.192Z" fill="#9CA5A9"/>
<path d="M230.29 83.3163L235.846 87.1949C236.964 85.7797 237.942 84.2423 238.763 82.6349L232.561 78.302L240.877 70.7719C240.58 69.4616 240.056 68.4308 239.34 67.6096L231.198 74.9301L230.08 67.0156C229.451 67.3825 228.822 67.7669 228.211 68.2037C227.547 68.6929 226.865 69.252 226.236 69.8809L227.355 77.7604L219.021 82.4951C218.654 84.1025 218.497 85.6225 218.619 87.0901L227.162 82.2331L223.266 93.834C224.315 94.0961 225.503 94.0961 226.778 93.7641L230.29 83.3163Z" fill="#AFB8BC"/>
<path d="M230.728 83.4191L236.476 87.4375C237.56 86.0572 238.485 84.6072 239.272 83.0347L232.895 78.5621L241.525 70.7874C241.228 69.5294 240.739 68.4812 240.11 67.695L231.637 75.3124L230.484 66.9961C229.855 67.363 229.208 67.7474 228.614 68.1842C228.02 68.6384 227.374 69.1626 226.745 69.7566L227.933 78.003L219.197 82.9648C218.865 84.5373 218.708 86.0223 218.83 87.4026L227.758 82.3184L223.757 94.3386C224.805 94.5658 225.924 94.5308 227.112 94.2163L230.728 83.4191Z" fill="#C1CACF"/>
<path d="M231.173 83.5607L237.113 87.6664C238.127 86.3561 239.018 84.9409 239.804 83.4384L233.235 78.8609L242.163 70.7892C241.901 69.6011 241.446 68.5878 240.817 67.7666L232.047 75.6811L230.806 66.9805C230.177 67.3474 229.566 67.7317 229.007 68.1336C228.413 68.5704 227.819 69.0595 227.26 69.5837L228.5 78.2844L219.31 83.4733C219.048 84.9759 218.943 86.391 219.013 87.7363L228.343 82.4425L224.202 94.8646C225.216 95.0393 226.299 95.0218 227.452 94.7248L231.173 83.5607Z" fill="#D4DDE2"/>
</g>
<path d="M218.663 89.0108C219.623 95.9469 225.826 97.5892 232.465 92.7496C239.139 87.8577 243.734 78.3358 242.738 71.4347C241.76 64.4811 235.575 62.8389 228.918 67.6959C222.279 72.5878 217.684 82.1096 218.663 89.0108ZM220.375 87.7878C219.519 81.8476 223.467 73.671 229.18 69.4954C234.893 65.3198 240.187 66.735 241.008 72.6577C241.864 78.5979 237.916 86.7745 232.238 90.9501C226.542 95.1432 221.231 93.728 220.375 87.7878Z" fill="#99AAB2"/>
<path d="M225.274 84.2037C225.728 87.331 228.523 88.0823 231.511 85.8809C234.533 83.6795 236.63 79.3467 236.176 76.2543C235.721 73.1269 232.926 72.3756 229.904 74.577C226.881 76.7784 224.819 81.0589 225.274 84.2037Z" fill="#99AAB2"/>
<path d="M227.795 82.3381C228.057 83.9803 229.507 84.3822 231.114 83.2466C232.721 82.0585 233.805 79.7698 233.578 78.1275C233.35 76.4852 231.865 76.0834 230.258 77.2365C228.703 78.3721 227.567 80.6958 227.795 82.3381Z" fill="#55575A"/>
<path d="M229.673 80.9901C229.743 81.5841 230.267 81.7414 230.861 81.3221C231.42 80.8853 231.839 80.0641 231.752 79.4526C231.647 78.8586 231.123 78.7014 230.564 79.1207C229.97 79.5749 229.568 80.3961 229.673 80.9901Z" fill="#D4DDE2"/>
<path d="M219.111 99.9835L211.895 95.8079C211.825 95.7729 211.79 95.7205 211.72 95.6856L211.458 95.5458H211.493C208.733 93.7986 207.056 90.3219 207.056 85.395C207.056 75.1219 214.376 62.6299 223.409 57.3886C227.846 54.8203 231.917 54.5582 234.87 56.1656V56.1306L234.084 55.6764L234.049 55.7113C231.096 54.069 227.06 54.366 222.587 56.9518C213.555 62.1407 206.234 74.6851 206.234 84.9407C206.234 89.8676 207.912 93.3444 210.672 95.0915L210.899 95.2488C210.969 95.2837 211.039 95.3187 211.126 95.3536L219.111 99.9835Z" fill="#080A0D"/>
<path d="M219.108 99.9822L215.561 97.9206C215.526 97.8857 215.456 97.8507 215.369 97.8158L215.107 97.6585H215.142C212.381 95.9114 210.704 92.4346 210.704 87.5077C210.704 77.2346 218.024 64.7077 227.057 59.5188C231.495 56.9505 235.566 56.636 238.518 58.2434L237.732 57.7542L237.697 57.7891C234.744 56.1818 230.726 56.4788 226.236 59.0646C217.203 64.2535 209.883 76.7979 209.883 87.0535C209.883 91.9804 211.56 95.4572 214.321 97.1693V97.2043L214.548 97.3615C214.618 97.3964 214.705 97.4314 214.775 97.4663L219.108 99.9822Z" fill="#080A0D"/>
<path d="M71.2429 160.523L70.7188 140.885C70.7188 140.885 110.134 115.168 123.377 107.515L244.75 37.5603L248.524 35.324L248.559 35.2891C248.856 35.5511 256.7 44.1295 256.7 44.1295L258.867 45.929L258.605 57.2854C258.605 57.2854 257.853 60.9019 256.176 65.0426C254.936 68.0651 253.223 71.3847 250.917 73.8481C248.349 76.5736 249.677 74.7042 247.039 76.1543C247.301 74.3373 247.79 72.1709 247.79 70.3015C247.755 68.1001 248.052 65.9686 246.969 63.9594C246.672 63.4352 246.252 63.1382 245.851 63.0334C243.02 57.8794 236.923 56.6914 229.882 60.7622C220.552 66.1433 212.9 78.7576 212.218 89.5373C212.183 90.0615 212.183 90.5855 212.183 91.0747C212.183 92.8568 212.411 94.5166 212.777 95.9667L209.528 97.1548L205.09 97.8711L200.163 99.4784L149.409 129.372L140.342 137.723L138.035 139.068C138.367 137.269 138.595 135.487 138.595 133.809C138.595 133.18 138.595 132.569 138.525 132.01C138.07 126.751 135.677 123.274 132.148 121.964C129.09 120.846 125.194 121.405 120.914 123.868C111.654 129.215 104.054 141.637 103.303 152.346C103.233 152.94 103.233 153.587 103.233 154.181C103.233 155.037 103.268 155.858 103.39 156.609C103.46 157.396 103.617 158.147 103.809 158.846C103.809 158.846 102.691 159.737 100.717 160.488C79.8912 168.105 78.5808 167.284 70.8236 171.093L70.876 170.342L71.2429 160.523Z" fill="#C5C5C5"/>
<path d="M254.523 62.1443C256.76 59.7507 258.402 57.7416 258.629 57.3223C258.559 57.7241 257.773 61.1659 256.2 65.0445C254.96 68.0671 253.248 71.3866 250.942 73.85C249.998 74.8284 251.99 64.8698 254.523 62.1443Z" fill="#C5C5C5"/>
<path d="M209.234 93.3149C209.234 94.6602 209.339 96.0055 209.531 97.1586C211.506 96.4597 212.781 95.9705 212.781 95.9705C212.641 95.2717 212.484 94.5204 212.379 93.7692C212.309 92.9829 212.222 92.1618 212.222 91.3057C212.222 80.1765 220.171 66.6363 229.92 60.9931C234.218 58.5296 238.062 58.3025 241.119 59.4207C245.068 60.8358 247.654 64.6446 247.654 70.9168C247.654 72.594 247.427 74.3935 247.06 76.1756L249.366 74.8653C249.628 73.188 249.785 71.5458 249.785 69.9384C249.785 57.2019 240.718 52.1352 229.519 58.5471C218.319 65.0289 209.234 80.5958 209.234 93.3149Z" fill="#C5C5C5"/>
<path d="M0.25 122.508L2.2068 128.099C2.2068 134.336 4.7401 139.962 21.8095 151.755C31.838 158.656 61.4518 170.082 73.3846 170.536C71.952 167.357 70.8513 157.398 72.0743 152.279C72.0743 152.279 63.6881 151.65 61.4693 151.126C41.4297 147.911 24.9019 139.071 16.4983 132.571C5.78839 124.325 2.76587 112.969 1.78748 109.125L0.477135 117.232L0.25 122.508Z" fill="#C5C5C5"/>
<path d="M138.016 121.758C138.016 121.758 141.038 128.764 142.174 129.375C143.257 130.004 159.383 124.029 159.383 124.029L140.339 137.727L138.033 139.072L139.413 132.38L138.033 124.099V121.758H138.016Z" fill="#C5C5C5"/>
<path d="M0 127.836C0 130.701 10.605 143.997 21.8041 151.754C31.9549 158.743 58.9829 170.833 70.7586 171.095C70.8634 171.095 71.0556 171.095 71.1953 171.095C75.5631 170.99 83.1457 170.378 83.1457 170.378L100.652 160.49C102.626 159.738 103.744 158.847 103.744 158.847C103.552 158.131 103.412 157.397 103.325 156.611C103.22 155.86 103.168 155.039 103.168 154.183C103.168 143.053 111.082 129.513 120.866 123.87C125.164 121.407 129.043 120.848 132.1 121.966C136.049 123.381 138.547 127.522 138.547 133.794C138.547 135.471 138.32 137.27 137.988 139.053L140.294 137.707C140.556 136.065 140.713 134.423 140.713 132.815C140.713 120.079 131.611 115.012 120.412 121.424C109.772 127.556 101.071 141.883 100.215 154.2L97.1401 158.009L92.9994 158.428L82.7438 164.036C80.6997 164.526 74.3052 164.7 70.7236 164.63C58.9305 164.368 31.9025 152.278 21.7692 145.29C11.6533 138.266 1.60734 126.7 0.227108 122.49L0 127.836ZM100.512 159.494C100.512 159.424 100.477 159.337 100.477 159.232C100.477 159.337 100.512 159.407 100.512 159.494Z" fill="#C5C5C5"/>
<path d="M153.587 51.8534C153.36 51.7836 153.098 51.7137 152.766 51.5215L153.482 51.9758L153.587 51.8534Z" fill="#F0BD83"/>
<path d="M123.43 34.6094L123.832 34.8365L124.251 35.0636L124.356 34.9588C124.163 34.9064 123.832 34.7841 123.43 34.6094Z" fill="#F0BD83"/>
<path d="M85.5625 50.9084L86.3138 50.8735L86.5409 50.9433L86.506 49.9824L85.5625 50.9084Z" fill="#F0BD83"/>
<path d="M41.6831 55.1094L44.9327 58.5338L63.1378 70.851H63.2076L63.6095 71.113L64.0288 71.3402L94.1492 86.942V86.977L94.9005 87.3963L104.37 92.8473L84.8545 124.61L80.8711 131.511L80.4343 128.978C51.6067 123.562 31.1654 105.601 26.4656 102.107C18.5511 96.1668 18.3939 91.3273 18.2891 91.1351L41.6831 55.1094Z" fill="#C5C5C5"/>
<path d="M171.388 50.1973L204.269 59.8414L96.7857 124.031L93.0469 116.274L104.91 92.7573L174.603 53.0451L171.388 50.1973Z" fill="#080A0D"/>
<path d="M103.719 107.052L108.471 92.3932L137.578 75.481L138.399 75.0268L158.369 63.5307L174.041 54.498L191.285 58.6038V66.9376L170.686 79.0627L151.974 90.2268L130.852 102.841L110.847 114.739L103.719 107.052Z" fill="#28485C"/>
<path d="M151.621 66.3711L159.203 86.7426L156.058 88.909L149 67.8911L151.621 66.3711Z" fill="#080A0D"/>
<path d="M122.908 83.6152L124.69 107.341L120.602 109.63L120.305 85.1352L122.908 83.6152Z" fill="#080A0D"/>
<path d="M138.881 108.584L132.312 112.427C132.312 111.169 132.085 110.418 133.395 109.667C133.395 109.667 135.404 108.252 137.274 107.308C139.003 106.452 138.881 108.584 138.881 108.584Z" fill="#A1A1A1"/>
<path d="M174.384 87.8605L167.815 91.7042C167.815 90.4812 167.623 89.73 168.898 88.9787C168.898 88.9787 170.942 87.5635 172.777 86.6201C174.541 85.7291 174.384 87.8605 174.384 87.8605Z" fill="#A1A1A1"/>
<path d="M107.25 14.4141L119.69 20.3194L138.838 29.3869L142.053 30.9244L150.159 36.3754L167.543 48.1336L170.042 49.8108L204.006 60.2236C204.006 60.2236 198.974 56.4849 192.702 51.9773C187.286 48.0637 180.909 43.5736 176.087 40.4113C174.375 39.2582 163.735 33.3354 162.512 32.654C160.31 31.3612 157.462 29.8586 154.405 28.2862C148.063 25.089 140.742 21.6472 135.815 19.3934C132.478 17.821 107.25 14.4141 107.25 14.4141Z" fill="#080A0D"/>
<path d="M119.406 18.082L122.132 19.3574L137.699 26.7478L142.975 29.2636L151.186 34.7845L154.506 37.0558L168.57 46.5427L170.859 48.0802L174.371 49.1634L193.851 55.1386C193.117 54.6144 192.366 54.0553 191.58 53.4963C190.759 52.9022 189.711 52.151 188.592 51.3648C184.679 48.5694 179.403 44.8654 175.052 41.9652C174.528 41.5983 172.921 40.6898 171.016 39.5891C168.361 38.0866 165.111 36.2521 163.294 35.2563L161.582 34.2779C159.45 33.0199 156.655 31.5349 153.563 29.945C152.147 29.2287 150.68 28.5124 149.23 27.796C143.709 25.088 138.223 22.5547 135.043 21.1045C134.746 20.9823 134.222 20.7901 133.488 20.6154C130.693 19.934 125.189 18.9556 119.406 18.082Z" fill="#28485C"/>
<path d="M41.6952 55.1008L106.898 14.4277C106.898 14.4277 133.926 23.9845 142.959 29.2608C150.943 33.8907 174.599 53.0392 174.599 53.0392L106.741 92.1573L104.382 93.0833C102.932 93.5376 63.4119 74.9482 63.4119 74.9482C63.4119 74.9482 40.28 57.5118 41.6952 55.1008Z" fill="#C5C5C5"/>
<path d="M103.667 119.955L96.8005 124.025L67 143.691L71.5 134.191L103.37 93.1188L104.925 92.752L98.0934 110.817L103.667 119.955Z" fill="#C5C5C5"/>
<path d="M71.3764 140.45L74.6261 153.519L71.2192 158.865L64.2132 158.376L58.2031 150.583L59.8105 137.672L64.353 135.034C64.353 134.999 70.0311 135.978 71.3764 140.45Z" fill="#484848"/>
<path d="M9.00251 102.346L5.68299 104.774L6.08482 121.232L2.53816 121.652L0.476562 118.297L1.47241 103.481C1.50735 102.922 1.62966 102.363 1.80437 101.839C2.46828 99.8998 4.89678 99.0787 6.69632 100.127C7.55241 100.599 8.40849 101.298 9.00251 102.346Z" fill="#484848"/>
<path d="M244.439 41.3213L240.805 29.3535C240.805 29.3535 247.112 33.3894 250.851 36.2372C252.615 37.6174 256.599 42.0551 256.704 44.1517C256.704 44.1517 253.279 45.759 252.109 45.0951C250.938 44.3788 244.439 41.3213 244.439 41.3213Z" fill="#D5E4F4"/>
<path d="M38.263 133.217L44.9719 147.089C44.9719 147.089 34.5591 144.661 25.3692 138.808C12.9472 130.858 11.9688 128.133 11.9688 128.133L17.8391 121.109C17.8391 121.109 19.8483 123.433 26.5573 127.207C32.0607 130.264 38.263 133.217 38.263 133.217Z" fill="#A1A1A1"/>
<path d="M44.9701 147.089L38.5232 139.856L18.7457 128.063L11.9844 128.133L17.8547 121.109C17.8547 121.109 24.1269 125.634 28.9315 128.465C34.1204 131.487 38.2611 133.2 38.2611 133.2L44.9701 147.089Z" fill="#A1A1A1"/>
<path d="M19.6016 131.714L35.9022 141.131V133.915L19.6016 124.516V131.714Z" fill="#DCDCDC"/>
<path d="M184.981 0.749968C182.255 0.487899 179.495 0.942151 176.997 2.06031L173.258 3.70259L198.05 4.10444L190.694 1.65845C190.694 1.64098 188.825 1.09939 184.981 0.749968Z" fill="#ABC8E3"/>
<path d="M196.806 57.5834C196.806 57.5834 195.723 51.9402 203.445 55.976C211.325 60.0818 210.276 62.353 210.276 62.353C210.276 62.353 208.337 68.9222 203.707 66.2316C200.056 64.1351 198.885 63.4363 197.889 62.4229C197.295 61.8289 194.343 63.8381 194.343 63.8381C192.962 62.685 191.949 60.4836 193.329 59.3305L195.199 58.6491L196.806 57.5834Z" fill="#A1A1A1"/>
<path d="M197.628 57.4088C197.628 57.4088 198.082 55.1375 200.808 56.7798C203.533 58.4571 206.626 59.9945 206.958 61.8989C207.325 63.8382 206.503 66.3016 204.267 65.5504C202.101 64.8341 198.711 62.458 198.711 62.458C198.711 62.458 197.401 59.2782 197.628 57.4088Z" fill="#E3E3E3"/>
<path d="M61.3724 138.177L62.0014 137.618C63.4166 136.412 65.5131 136.395 66.9982 137.513L67.2602 137.74C68.1513 138.404 68.6754 139.505 68.6754 140.658V141.444L66.2469 142.789L60.9531 141.147L61.3724 138.177Z" fill="#999999"/>
<path d="M63.4248 142.772L63.5296 146.581L66.1154 147.996L70.3609 145.602L72.4574 154.111L69.0506 156.469L64.6478 155.98L60.0703 150.372L60.8391 141.863L63.4248 142.772Z" fill="#999999"/>
<path d="M63.9453 143.073L64.0502 145.991L66.2515 146.882L69.8681 144.872C69.8681 144.872 69.8331 144.156 69.641 143.195C69.5012 142.479 69.274 141.885 69.274 141.885L66.0943 143.859L63.9453 143.073Z" fill="#999999"/>
<path d="M2.06392 106.451L3.47909 108.285L3.35681 104.441L4.47496 106.084L4.73702 119.362L1.97656 118.121L2.06392 106.451Z" fill="#999999"/>
<path d="M2.0625 102.973L2.20227 105.925L3.09332 107.236L2.95355 104.213L2.0625 102.973Z" fill="#999999"/>
<path d="M7.75985 102.239L4.7373 104.056V105.524L2.34375 102.414L2.79799 101.034L5.38376 100.178L7.75985 102.239Z" fill="#999999"/>
<path d="M252.755 45.2349L249.505 41.4611C249.505 41.4611 251.113 39.1025 249.505 36.9011C247.933 34.6997 245.365 35.2937 245.365 35.2937C245.365 35.2937 244.998 33.8786 242.901 31.6248C240.805 29.3535 240.805 29.3535 240.805 29.3535L244.439 41.3213L252.755 45.2349Z" fill="#ABC8E3"/>
<path d="M61 73.1777C52.9613 67.5249 42 56.6777 42 56.6777L21 88.6777C34.6 106.278 63.3333 118.011 76 121.678L101 91.6777C101 91.6777 75.0784 83.0777 61 73.1777Z" fill="#28485C"/>
</svg>
