<svg width="106" height="127" viewBox="0 0 106 127" fill="none" xmlns="http://www.w3.org/2000/svg">
<path d="M102.465 1.04484L103.56 1.70164C102.356 0.935365 100.604 1.04484 98.7431 2.13953L97.6484 1.48271C99.5094 0.388027 101.261 0.278566 102.465 1.04484Z" fill="#FFC100"/>
<path d="M3.17449 126.496L2.07981 125.84C0.875656 125.073 0.109375 123.65 0.109375 121.461L1.20406 122.118C1.20406 124.198 1.97034 125.73 3.17449 126.496Z" fill="#FFC100"/>
<path d="M1.20416 122.116L0.109475 121.46L0 65.7402L1.09468 66.397L1.20416 122.116Z" fill="#FFC100"/>
<path d="M7.89156 54.5745L6.79688 53.9177L97.6555 1.48242L98.7502 2.13924L7.89156 54.5745Z" fill="#FFC100"/>
<path d="M98.7394 2.13786C102.461 -0.051501 105.526 1.69998 105.636 6.07871L105.745 61.7981C105.745 66.1768 102.68 71.4313 98.9584 73.6206L8.09973 126.056C4.37781 128.245 1.20322 126.494 1.20322 122.115L1.09375 66.3957C1.09375 62.017 4.15886 56.7625 7.88078 54.5731L98.7394 2.13786Z" fill="#FFDC6E"/>
<path d="M1.09468 66.3973L0 65.7406C0 61.3618 3.06511 56.1073 6.78703 53.918L7.88171 54.5748C4.15979 56.7641 1.09468 62.0186 1.09468 66.3973Z" fill="#FFC100"/>
<path d="M69.9473 65.5228L50.3525 76.798C49.6957 77.1264 49.2578 78.0022 49.2578 78.659V82.7093C49.2578 83.3661 49.8052 83.6945 50.3525 83.3661L69.9473 72.0909C70.4947 71.7625 71.042 70.8867 71.042 70.2299V66.1796C70.9325 65.4133 70.4947 65.1944 69.9473 65.5228Z" fill="#FFC100"/>
<path d="M98.1993 49.2103L76.3056 61.9086C75.6488 62.237 75.2109 63.1127 75.2109 63.7695V67.8199C75.2109 68.4767 75.6488 68.8051 76.3056 68.4767L98.1993 55.7784C98.7466 55.45 99.294 54.5742 99.294 53.9174V49.8671C99.294 49.1008 98.7466 48.8819 98.1993 49.2103Z" fill="#FFC100"/>
<path d="M77.2817 70.3378L50.3525 85.8823C49.8052 86.2107 49.2578 87.0865 49.2578 87.7433V91.0273C49.2578 91.6841 49.6957 92.0125 50.3525 91.6841L77.2817 76.1397C77.829 75.8113 78.3764 74.9355 78.3764 74.2787V70.9946C78.3764 70.3378 77.829 70.0094 77.2817 70.3378Z" fill="#FFC100"/>
<path d="M105.526 14.6191L1.09375 74.9361V89.9333L105.636 29.6163L105.526 14.6191Z" fill="white"/>
</svg>
