<svg width="91" height="91" viewBox="0 0 91 91" fill="none" xmlns="http://www.w3.org/2000/svg">
<path d="M44.1368 48.3644C44.1368 49.8612 42.9243 51.0737 41.4287 51.0737H33.3031C31.8062 51.0737 30.5938 49.8612 30.5938 48.3644C30.5938 46.8687 31.8062 45.6562 33.3031 45.6562H41.4287C42.9243 45.6562 44.1368 46.8687 44.1368 48.3644Z" fill="#FFC54D"/>
<path d="M57.6798 26.6977C57.6798 28.1933 56.4674 29.4058 54.9705 29.4058H33.3031C31.8062 29.4058 30.5938 28.1933 30.5938 26.6977C30.5938 25.2008 31.8062 23.9883 33.3031 23.9883H54.9705C56.4674 23.9883 57.6798 25.2008 57.6798 26.6977Z" fill="#FFC54D"/>
<path d="M57.6798 37.5304C57.6798 39.026 56.4674 40.2385 54.9705 40.2385H33.3031C31.8062 40.2385 30.5938 39.026 30.5938 37.5304C30.5938 36.0348 31.8062 34.8223 33.3031 34.8223H54.9705C56.4674 34.8223 57.6798 36.0348 57.6798 37.5304Z" fill="#FFC54D"/>
<path d="M68.5113 49.3994V26.6973C68.5024 19.2218 62.4437 13.1632 54.9682 13.1543H33.3009C25.8253 13.1632 19.7667 19.2218 19.7578 26.6973V59.1996C19.7667 66.6752 25.8253 72.7325 33.3009 72.7414H46.8426C48.3395 72.7414 49.552 71.5289 49.552 70.0333C49.552 68.5377 48.3395 67.3252 46.8426 67.3252H33.3009C28.8128 67.3252 25.1753 63.6865 25.1753 59.1996V26.6973C25.1753 22.2092 28.8128 18.5718 33.3009 18.5718H54.9682C59.4563 18.5718 63.0938 22.2092 63.0938 26.6973V46.0413C62.2114 45.7975 61.3011 45.668 60.3857 45.6566C56.5057 45.6426 52.9178 47.7121 50.9854 51.0753C48.0132 56.2465 49.7971 62.8473 54.9682 65.8195V76.2011C54.9682 76.7191 55.1739 77.2168 55.5408 77.5825C56.3039 78.3455 57.5405 78.3443 58.3022 77.5825L60.3857 75.5016L62.4691 77.5825C62.8348 77.9481 63.3325 78.1551 63.8505 78.1538C64.9297 78.1538 65.8032 77.279 65.8032 76.2011V65.8195C66.4583 65.4462 67.0728 65.0056 67.6365 64.5041C72.0484 60.5746 72.4407 53.8126 68.5113 49.3994ZM60.3857 61.9077C57.3945 61.9077 54.9682 59.4828 54.9682 56.4903C54.9682 53.499 57.3945 51.0741 60.3857 51.0741C63.3769 51.0741 65.8032 53.499 65.8032 56.4903C65.8032 59.4828 63.3769 61.9077 60.3857 61.9077Z" fill="#9E9E9E"/>
</svg>
