<svg width="197" height="394" viewBox="0 0 197 394" fill="none" xmlns="http://www.w3.org/2000/svg">
<path d="M-1.72223e-05 -8.61114e-06C25.8704 -9.74197e-06 51.4875 5.09554 75.3886 14.9957C99.2898 24.8959 121.007 39.4068 139.3 57.7C157.593 75.9931 172.104 97.7102 182.004 121.611C191.904 145.512 197 171.13 197 197C197 222.87 191.904 248.487 182.004 272.389C172.104 296.29 157.593 318.007 139.3 336.3C121.007 354.593 99.2898 369.104 75.3886 379.004C51.4875 388.904 25.8704 394 -1.52588e-05 394L-8.61114e-06 197L-1.72223e-05 -8.61114e-06Z" fill="#F2F6FE"/>
</svg>
