<svg width="169" height="200" viewBox="0 0 169 200" fill="none" xmlns="http://www.w3.org/2000/svg">
<path d="M129.441 186.785H98.5547C98.5547 186.785 98.5547 190.978 98.5547 191.013C98.5547 195.984 105.471 199.999 113.998 199.999C122.524 199.999 129.441 195.966 129.441 191.013C129.441 190.978 129.441 186.785 129.441 186.785Z" fill="url(#paint0_linear_1984_15826)"/>
<path d="M113.998 195.844C122.527 195.844 129.441 191.821 129.441 186.858C129.441 181.894 122.527 177.871 113.998 177.871C105.469 177.871 98.5547 181.894 98.5547 186.858C98.5547 191.821 105.469 195.844 113.998 195.844Z" fill="url(#paint1_linear_1984_15826)"/>
<path d="M114.004 195.808C105.566 195.808 98.7196 191.863 98.5781 186.98C98.5781 187.034 98.5781 187.087 98.5781 187.14C98.5781 192.11 105.495 196.126 114.021 196.126C122.548 196.126 129.464 192.093 129.464 187.14C129.464 187.087 129.464 187.034 129.464 186.98C129.288 191.863 122.442 195.808 114.004 195.808Z" fill="url(#paint2_radial_1984_15826)"/>
<path d="M120.231 116.311H108.008C108.008 116.311 108.008 186.45 108.008 186.468C108.008 188.432 110.75 190.024 114.111 190.024C117.489 190.024 120.214 188.432 120.214 186.468C120.231 186.433 120.231 116.311 120.231 116.311Z" fill="url(#paint3_linear_1984_15826)"/>
<path d="M120.231 116.311H108.008C108.008 116.311 108.008 186.45 108.008 186.468C108.008 188.432 110.75 190.024 114.111 190.024C117.489 190.024 120.214 188.432 120.214 186.468C120.231 186.433 120.231 116.311 120.231 116.311Z" fill="url(#paint4_radial_1984_15826)"/>
<path d="M91.4516 133.999L36.9141 102.511V68.1756C36.9141 48.0978 49.12 38.8637 64.1916 47.5494C79.2456 56.2527 91.4692 79.5678 91.4692 99.6634V133.999H91.4516Z" fill="url(#paint5_linear_1984_15826)"/>
<path d="M36.8828 102.513L118.963 54.3438L91.438 134.001L36.8828 102.513Z" fill="url(#paint6_linear_1984_15826)"/>
<path d="M64.1604 47.5497C49.1065 38.8463 36.8828 48.0804 36.8828 68.176V102.512L91.4203 134V99.6637C91.438 79.5858 79.2144 56.2531 64.1604 47.5497Z" fill="url(#paint7_linear_1984_15826)"/>
<path d="M141.489 3.2719C134.944 -0.496012 128.947 -0.902876 124.26 1.50293L124.206 1.41448L47.5391 45.2497L47.6452 45.4443C52.2268 43.4276 57.9583 43.9583 64.1674 47.5493C79.2214 56.2527 91.445 79.5678 91.445 99.6633V133.999L168.785 89.7217V55.3859C168.767 35.308 156.561 11.9753 141.489 3.2719Z" fill="url(#paint8_linear_1984_15826)"/>
<path d="M100.719 90.0754C100.719 94.4271 103.797 96.1784 107.582 93.9849C111.386 91.7913 114.446 86.4844 114.446 82.1327C114.446 77.7811 111.368 76.0298 107.582 78.2233C103.797 80.4168 100.719 85.7238 100.719 90.0754Z" fill="url(#paint9_radial_1984_15826)"/>
<path d="M101.992 87.9694C101.992 89.8091 102.629 91.1182 103.673 91.755C103.708 91.7727 105.035 92.6572 105.052 92.6749C106.132 93.2763 105.442 91.9142 107.087 90.959C110.377 89.0485 113.048 84.4491 113.048 80.6635C113.048 78.7884 114.782 78.7707 113.72 78.1516C113.685 78.1339 112.164 77.214 112.128 77.1963C111.049 76.6126 109.581 76.7187 107.954 77.6563C104.663 79.5667 101.992 84.1838 101.992 87.9694Z" fill="#D1D1D1"/>
<path d="M103.539 88.9249C103.539 92.7106 106.21 94.2319 109.5 92.3214C112.791 90.4109 115.462 85.8116 115.462 82.026C115.462 78.2403 112.791 76.719 109.5 78.6295C106.21 80.54 103.539 85.157 103.539 88.9249Z" fill="url(#paint10_linear_1984_15826)"/>
<path d="M109.141 78.3992C110.857 77.4086 112.396 77.3555 113.475 78.0631C112.502 77.8155 111.299 78.0101 110.008 78.7707C106.718 80.6812 104.047 85.2805 104.047 89.0661C104.047 90.8882 104.666 92.1618 105.674 92.7987C104.17 92.4272 103.18 90.9766 103.18 88.6947C103.162 84.9091 105.833 80.292 109.141 78.3992Z" fill="url(#paint11_radial_1984_15826)"/>
<path d="M112.682 59.2441L107.039 59.2441L107.039 86.0087C107.039 86.9109 108.295 87.6539 109.869 87.6539C111.444 87.6539 112.7 86.9109 112.7 86.0087C112.682 86.0087 112.682 59.2441 112.682 59.2441Z" fill="#FEA903"/>
<path d="M123.872 56.9753L123.89 58.1428L107.031 66.7047L107.031 56.0554L123.872 46.3438L123.837 47.3875L118.583 54.711L123.872 56.9753Z" fill="#FFEBAA"/>
<path d="M123.872 58.1081L107.031 67.8198L107.031 57.1882L123.872 47.4766L118.583 55.8438L123.872 58.1081Z" fill="#FEA903"/>
<path d="M64.1604 47.5491C59.6849 44.9664 55.4747 43.9758 51.7422 44.3649L52.5205 46.0632C52.7859 46.0455 53.0512 46.0101 53.3166 46.0101C56.43 46.0101 59.7733 47.0361 63.2759 49.0527C77.8346 57.4554 89.669 80.1513 89.669 99.6454V130.956L91.4203 133.981V99.6454C91.438 79.5852 79.2144 56.2525 64.1604 47.5491Z" fill="#F3F3F3"/>
<defs>
<linearGradient id="paint0_linear_1984_15826" x1="98.7111" y1="193.403" x2="129.101" y2="193.403" gradientUnits="userSpaceOnUse">
<stop stop-color="#868686"/>
</linearGradient>
<linearGradient id="paint1_linear_1984_15826" x1="132.134" y1="167.413" x2="107.673" y2="193.641" gradientUnits="userSpaceOnUse">
<stop stop-color="#C8C8C8"/>
<stop offset="1" stop-color="#F7F6FB"/>
</linearGradient>
<radialGradient id="paint2_radial_1984_15826" cx="0" cy="0" r="1" gradientUnits="userSpaceOnUse" gradientTransform="translate(109.054 194.603) scale(11.3865 11.3866)">
<stop stop-color="white"/>
<stop offset="1" stop-color="#606060"/>
</radialGradient>
<linearGradient id="paint3_linear_1984_15826" x1="108.078" y1="153.158" x2="120.101" y2="153.158" gradientUnits="userSpaceOnUse">
<stop stop-color="#B9BFEA"/>
<stop offset="0.2475" stop-color="#E5E9FF"/>
<stop offset="0.702" stop-color="#AFB6E5"/>
<stop offset="0.9464" stop-color="#BAC0EA"/>
<stop offset="1" stop-color="#BDC3EC"/>
</linearGradient>
<radialGradient id="paint4_radial_1984_15826" cx="0" cy="0" r="1" gradientUnits="userSpaceOnUse" gradientTransform="translate(112.54 113.778) scale(28.6731 28.6731)">
<stop offset="0.1818" stop-color="#929292"/>
<stop offset="0.9343" stop-color="white"/>
</radialGradient>
<linearGradient id="paint5_linear_1984_15826" x1="60.0951" y1="81.8839" x2="175.003" y2="165.624" gradientUnits="userSpaceOnUse">
<stop stop-color="#B3B3B3"/>
</linearGradient>
<linearGradient id="paint6_linear_1984_15826" x1="145.097" y1="62.1736" x2="10.6545" y2="155.34" gradientUnits="userSpaceOnUse">
<stop stop-color="#B3B3B3"/>
<stop offset="1" stop-color="#F4F4F4"/>
</linearGradient>
<linearGradient id="paint7_linear_1984_15826" x1="64.1516" y1="44.2734" x2="64.1516" y2="134" gradientUnits="userSpaceOnUse">
<stop stop-color="#DFDFDF"/>
<stop offset="1" stop-color="#858585"/>
</linearGradient>
<linearGradient id="paint8_linear_1984_15826" x1="94.2285" y1="21.9365" x2="169.949" y2="158.686" gradientUnits="userSpaceOnUse">
<stop stop-color="#DFDFDF"/>
<stop offset="1" stop-color="#474747"/>
</linearGradient>
<radialGradient id="paint9_radial_1984_15826" cx="0" cy="0" r="1" gradientUnits="userSpaceOnUse" gradientTransform="translate(107.591 87.5143) rotate(180) scale(7.91136 7.91139)">
<stop stop-color="#B7B7B7"/>
<stop offset="1" stop-color="white"/>
</radialGradient>
<linearGradient id="paint10_linear_1984_15826" x1="118.008" y1="79.6716" x2="99.3365" y2="92.4477" gradientUnits="userSpaceOnUse">
<stop stop-color="#D9D9D9"/>
<stop offset="1" stop-color="white"/>
</linearGradient>
<radialGradient id="paint11_radial_1984_15826" cx="0" cy="0" r="1" gradientUnits="userSpaceOnUse" gradientTransform="translate(107.952 83.8363) rotate(180) scale(6.49621 6.49621)">
<stop stop-color="white"/>
<stop offset="1" stop-color="#434343"/>
</radialGradient>
</defs>
</svg>
