<svg width="91" height="91" viewBox="0 0 91 91" fill="none" xmlns="http://www.w3.org/2000/svg">
<path d="M37.3984 31.9345V24.8816C37.3984 24.8816 38.1524 12.6765 56.4679 12.598C69.9925 12.5508 75.2075 17.8444 77.014 20.609C77.5794 21.473 77.8622 22.4783 77.8622 23.515V58.748C77.8622 58.748 75.3332 69.8064 50.3732 69.131L37.3984 31.9345Z" fill="#FFC54D"/>
<path d="M13.8994 41.8459C13.8994 41.8459 14.2763 31.1331 33.283 31.243C52.2896 31.353 52.431 41.8459 52.431 41.8459V68.9422C52.431 68.9422 51.9284 77.6287 33.173 77.5973C14.4177 77.5658 13.7266 66.6959 13.7266 66.6959L13.8994 41.8459Z" fill="#9E9E9E"/>
<path d="M33.0792 36.4426C35.4354 36.4426 37.6188 36.7096 39.5509 37.1652C39.6138 37.1495 39.6766 37.1338 39.7394 37.1338C39.9436 37.1338 40.085 37.2123 40.195 37.3223C44.9859 38.5946 48.0804 41.0136 48.0804 43.2599C48.0804 46.48 41.6558 50.0771 33.0792 50.0771C24.5027 50.0771 18.0781 46.48 18.0781 43.2599C18.0781 40.0397 24.487 36.4426 33.0792 36.4426ZM48.0804 65.094C48.0804 68.3141 41.6558 71.9112 33.0792 71.9112C24.5027 71.9112 18.0781 68.3141 18.0781 65.094V62.6121C21.7852 64.9997 27.0945 66.4605 33.0792 66.4605C39.064 66.4605 44.3733 64.9997 48.0804 62.6121V65.094ZM33.0792 60.9942C24.487 60.9942 18.0781 57.397 18.0781 54.1769V51.6951C21.7852 54.0827 27.0945 55.5435 33.0792 55.5435C39.064 55.5435 44.3733 54.0827 48.0804 51.6951V54.1769C48.0804 57.397 41.6715 60.9942 33.0792 60.9942ZM72.6476 56.9101C72.6476 60.1302 66.2231 63.7274 57.6465 63.7274C56.2485 63.7274 54.8819 63.6331 53.5467 63.4446V58.0254C54.8819 58.1824 56.2485 58.261 57.6465 58.261C63.6313 58.261 68.9405 56.8001 72.6476 54.4125V56.9101ZM72.6476 45.9931C72.6476 49.2132 66.2231 52.8103 57.6465 52.8103C56.2485 52.8103 54.8819 52.7161 53.5467 52.5276V47.1083C54.8819 47.2654 56.2485 47.3439 57.6465 47.3439C63.6313 47.3439 68.9405 45.8831 72.6476 43.4955V45.9931ZM72.6476 35.076C72.6476 38.2962 66.2231 41.8933 57.6465 41.8933C56.1857 41.8933 54.7562 41.7833 53.3739 41.5948C52.887 39.3329 52.3252 37.459 50.1104 35.7782C49.9533 35.6525 49.7962 35.5426 49.6391 35.4326C52.3252 36.2023 54.4264 36.4583 57.6465 36.4583C63.6313 36.4583 68.9405 34.9975 72.6476 32.6099V35.076ZM57.6308 30.9919C49.0385 30.9919 42.6297 27.3948 42.6297 24.1747C42.6297 20.9545 49.0543 17.3574 57.6308 17.3574C66.2074 17.3574 72.6319 20.9545 72.6319 24.1747C72.6319 27.3948 66.2231 30.9919 57.6308 30.9919Z" fill="white"/>
</svg>
