<svg width="90" height="90" viewBox="0 0 90 90" fill="none" xmlns="http://www.w3.org/2000/svg">
<path d="M75.1269 44.6694C72.0547 41.5972 66.6973 41.5972 63.6377 44.6694L45.4707 62.8364C43.4268 64.8804 42.2969 67.5972 42.2969 70.4917V74.7827C42.2969 76.2808 43.5029 77.4868 45.001 77.4868H49.292C52.1865 77.4868 54.9033 76.3569 56.9473 74.313L75.1143 56.146C76.6504 54.6099 77.501 52.5659 77.501 50.395C77.501 48.2495 76.6504 46.2056 75.1269 44.6694ZM71.293 52.3374L53.126 70.4917C52.1104 71.52 50.7393 72.0786 49.292 72.0786H47.7051V70.4917C47.7051 69.0444 48.2637 67.686 49.292 66.6577L67.459 48.4907C68.4746 47.4624 70.2647 47.4624 71.293 48.4907C71.8008 48.9985 72.0801 49.6841 72.0801 50.4077C72.0801 51.144 71.8008 51.8169 71.293 52.3374Z" fill="#FFC54D"/>
<path d="M66.0742 36.2021C65.2363 32.9014 63.5098 29.8926 61.1104 27.4932L51.6777 18.0479C48.0977 14.4678 43.3369 12.5 38.2715 12.5H26.0459C18.5684 12.5 12.5 18.5684 12.5 26.0459V63.9668C12.5 71.4316 18.5684 77.5 26.0459 77.5H34.1709C35.6689 77.5 36.875 76.2812 36.875 74.7959C36.875 73.2979 35.6562 72.0918 34.1709 72.0918H26.0459C21.5645 72.0918 17.9209 68.4482 17.9209 63.9668V26.0459C17.9209 21.5645 21.5645 17.9209 26.0459 17.9209H38.2715C38.7158 17.9209 39.1475 17.9463 39.5791 17.9844V31.4668C39.5791 35.9482 43.2227 39.5918 47.7041 39.5918H63.4463C64.2842 39.5918 65.0713 39.2109 65.5918 38.5508C66.0996 37.8779 66.2773 37.0146 66.0742 36.2021ZM47.7041 34.1709C46.2061 34.1709 45 32.9521 45 31.4668V19.6982C46.0283 20.2949 46.9805 21.0186 47.8438 21.8818L57.2764 31.3271C58.127 32.1777 58.8506 33.1299 59.4473 34.1709H47.7041Z" fill="#9E9E9E"/>
</svg>
