<svg width="37" height="47" viewBox="0 0 37 47" fill="none" xmlns="http://www.w3.org/2000/svg">
<path d="M27.5677 45.4943C29.1052 44.6104 30.6113 43.683 32.1069 42.7337C36.1127 40.1804 37.9117 33.7318 35.6421 24.5445C34.0418 18.0522 30.7159 12.1055 26.093 7.44636C19.5457 0.855898 13.2808 -0.682609 9.17037 1.69607C7.63291 2.57989 6.12682 3.50735 4.63118 4.45664C0.635857 7.0099 23.4678 47.8729 27.5677 45.4943Z" fill="#FFDC4A"/>
<path opacity="0.2" d="M31.3656 40.6161L35.6852 37.9864C35.2668 39.1321 34.702 40.0923 34.0431 40.9216L29.8281 43.4857C30.4557 42.6783 30.9577 41.7072 31.3656 40.6161ZM31.1983 26.6932L35.5178 24.0635C35.3714 23.507 35.225 22.9615 35.0472 22.4159L30.6753 25.0674C30.8636 25.6129 31.0519 26.1476 31.1983 26.6932ZM28.709 20.2336L33.1541 17.5276C32.9136 17.0257 32.6521 16.5456 32.4011 16.0546L27.9874 18.7388C28.2384 19.2298 28.4685 19.7317 28.709 20.2336ZM30.0792 23.387L34.4719 20.7137C34.2837 20.19 34.085 19.6662 33.8653 19.1534L29.4935 21.8158C29.7131 22.3286 29.8804 22.8633 30.0792 23.387ZM32.0873 38.1174L36.3232 35.5423C36.4487 34.8767 36.5428 34.1893 36.5951 33.4473L32.2651 36.0769C32.2128 36.7644 32.2023 37.4845 32.0873 38.1174ZM32.0036 30.1957L36.2709 27.5988C36.1872 27.0423 36.0512 26.4531 35.9257 25.8748L31.6166 28.4935C31.7421 29.0609 31.9095 29.6283 32.0036 30.1957ZM32.3487 33.971L36.616 31.3741C36.6056 30.774 36.5428 30.1521 36.4801 29.5192L32.1919 32.127C32.2546 32.749 32.3278 33.3709 32.3487 33.971ZM27.1193 17.2112L31.5329 14.527C31.2506 14.0469 30.9786 13.5777 30.6753 13.1194L26.2303 15.8254C26.5336 16.2728 26.8473 16.7311 27.1193 17.2112ZM14.7358 4.80498L19.0763 2.16443C18.4279 1.848 17.8003 1.59704 17.1832 1.37881L12.9578 3.95389C13.5226 4.16121 14.1397 4.51037 14.7358 4.80498ZM25.2994 14.3306L29.6713 11.6682C29.347 11.2208 29.0019 10.7844 28.6567 10.3479L24.264 13.0212C24.6196 13.4577 24.9752 13.8723 25.2994 14.3306ZM10.4895 3.3974L14.8091 0.767777C13.6167 0.593195 12.5081 0.647748 11.4727 0.865975L7.28906 3.40832C8.28266 3.21192 9.35994 3.23373 10.4895 3.3974ZM18.0095 6.80176L22.2977 4.19394C21.7957 3.82296 21.3041 3.47379 20.8125 3.16827L16.5453 5.76518C17.0473 6.0707 17.5179 6.45259 18.0095 6.80176ZM20.7602 9.11496L25.0693 6.49624C24.651 6.10343 24.2221 5.68879 23.8038 5.32872L19.5365 7.92563C19.9549 8.2857 20.3523 8.72215 20.7602 9.11496ZM23.1658 11.6355L27.5272 8.98403C27.1507 8.55849 26.7741 8.15476 26.3767 7.75104L22.0571 10.3807C22.4441 10.7844 22.7997 11.2099 23.1658 11.6355Z" fill="#F4A025"/>
<path d="M0.101744 15.2594C0.0599081 4.54443 7.25567 0.16898 16.1667 5.49372C25.0778 10.8076 32.3468 23.803 32.3886 34.5179C32.4304 45.2329 25.2347 49.6083 16.3236 44.2836C7.41258 38.9698 0.154039 25.9743 0.101744 15.2594Z" fill="url(#paint0_linear_3327_21388)"/>
<path opacity="0.1" d="M1.54707 16.1211C1.50524 6.3663 8.063 2.38365 16.1792 7.21738C24.2953 12.062 30.9159 23.9009 30.9472 33.6556C30.9891 43.4104 24.4313 47.393 16.3151 42.5593C8.19898 37.7146 1.58891 25.8758 1.54707 16.1211Z" fill="#FFCF68"/>
<path opacity="0.4" d="M17.0681 41.6208C9.17155 36.9071 2.72883 25.3956 2.69745 15.9027C2.66608 8.99586 6.04431 5.08959 10.9182 5.26417C5.41677 4.5222 1.52604 8.59213 1.54696 16.121C1.58879 25.8757 8.19886 37.7145 16.315 42.5592C22.5799 46.2909 27.8931 44.7633 29.9849 39.4058C27.7362 43.9122 22.81 45.047 17.0681 41.6208Z" fill="#FFDC4A"/>
<path opacity="0.3" d="M15.1454 12.1264C13.7752 11.5044 12.29 11.2753 11.2128 11.9191L10.3551 12.4319C9.49749 12.9011 8.83858 14.0468 8.82812 16.1418C8.8595 19.9716 10.784 22.9395 13.8275 26.1475L15.1454 27.5223V33.1417C14.6642 32.3669 14.1727 31.1994 13.702 29.3881C13.5033 28.6462 13.2418 28.177 12.6143 27.7951C12.2587 27.5769 11.4533 27.2932 10.9408 27.5987L10.0832 28.1115C9.8322 28.2534 9.63345 28.5698 9.63345 29.159C9.63345 30.6211 11.3592 33.9054 15.1454 36.2732V39.0556L16.756 40.0158L17.6137 39.503V37.6699C19.1093 38.3355 20.4271 38.4664 21.358 37.8881C21.3266 37.9099 22.1842 37.3971 22.1842 37.3971C23.0837 36.8624 23.6171 35.684 23.6171 33.72C23.6171 30.4902 21.6926 27.5659 19.1093 24.8381L17.6137 23.2887V16.6764C18.1575 17.5166 18.806 18.9132 19.4544 21.281C19.7159 22.1975 20.0297 22.7322 20.72 23.1468C21.1593 23.4087 21.8077 23.4305 22.2574 23.1032C22.1738 23.1687 23.0314 22.6558 23.0314 22.6558C23.387 22.4376 23.6485 22.0339 23.6485 21.3683C23.6485 20.1899 22.4457 16.6219 17.6137 13.523V9.91136L16.003 8.95117L15.1454 9.46401V12.1264ZM19.2453 33.9382C19.2453 34.571 19.1093 35.0621 18.8583 35.4112C18.4922 35.4549 18.0739 35.3785 17.6032 35.1275V30.1519C18.5759 31.2976 19.2453 32.6397 19.2453 33.9382ZM22.7281 22.3721C22.7595 22.2303 22.7804 22.0775 22.7804 21.892C22.7804 22.0666 22.7595 22.2303 22.7281 22.3721ZM15.1454 14.6905V20.6372C14.0785 19.186 13.3882 17.5384 13.3882 15.8471C13.3882 15.1488 13.5242 14.6251 13.7543 14.2759C14.1517 14.2323 14.6224 14.3741 15.1454 14.6905Z" fill="#EA9418"/>
<path d="M15.1454 13.0863C12.4992 11.5041 8.84904 11.1659 8.82812 16.1415C8.8595 19.9713 10.784 22.9392 13.8275 26.1472L15.1454 27.522V34.6799C14.4028 34.0579 13.5974 32.814 12.8444 29.9007C12.6456 29.1587 12.3842 28.6895 11.7566 28.3076C11.2128 27.9803 9.63345 27.4893 9.63345 29.1587C9.63345 30.6208 11.3592 33.9051 15.1454 36.2729V39.0553L16.756 40.0155V37.2331C20.0611 39.0771 22.7595 38.6079 22.7595 34.2325C22.7595 31.0027 20.835 28.0785 18.2517 25.3506L16.756 23.8012V15.6504C17.3313 16.1305 18.3981 17.429 19.4544 21.2916C19.7159 22.2082 20.0297 22.7428 20.72 23.1574C21.4626 23.6048 22.7909 23.3866 22.7909 21.8917C22.7909 20.7133 21.5881 17.1453 16.756 14.0465V10.4348L15.1454 9.47461V13.0863ZM19.2453 33.9379C19.2453 35.6728 18.2098 36.4148 16.7456 35.64V29.2569C18.1575 30.5554 19.2453 32.2794 19.2453 33.9379ZM15.1454 14.6902V22.1863C13.5974 20.5278 12.5306 18.4656 12.5306 16.3488C12.5306 14.2974 13.6183 13.7737 15.1454 14.6902Z" fill="url(#paint1_linear_3327_21388)"/>
<defs>
<linearGradient id="paint0_linear_3327_21388" x1="8.52226" y1="38.7101" x2="27.7669" y2="7.07397" gradientUnits="userSpaceOnUse">
<stop stop-color="#D88000"/>
<stop offset="1" stop-color="#FFAC33"/>
</linearGradient>
<linearGradient id="paint1_linear_3327_21388" x1="7.35195" y1="40.6106" x2="23.8165" y2="13.0153" gradientUnits="userSpaceOnUse">
<stop stop-color="#FEAC0C"/>
<stop offset="1" stop-color="#FFEDB5"/>
</linearGradient>
</defs>
</svg>
