<svg width="91" height="91" viewBox="0 0 91 91" fill="none" xmlns="http://www.w3.org/2000/svg">
<g opacity="0.9">
<path d="M64.1891 34.0576C62.9729 34.9247 61.278 34.6454 60.4109 33.4267C59.9755 32.8173 59.488 32.2396 58.9649 31.7204L49.526 22.2789C48.6652 21.4182 47.7093 20.6895 46.6797 20.0991V31.8524C46.6797 33.3454 47.8934 34.5616 49.3889 34.5616H57.5139C59.0106 34.5616 60.2218 35.774 60.2218 37.2695C60.2218 38.765 59.0106 39.9774 57.5139 39.9774H49.3889C44.9087 39.9774 41.2639 36.3326 41.2639 31.8524V18.3738C40.8297 18.3332 40.3917 18.3116 39.9499 18.3116H27.7218C23.2416 18.3116 19.5968 21.9564 19.5968 26.4366V64.3524C19.5968 68.8326 23.2416 72.4774 27.7218 72.4774H52.0968C53.5948 72.4774 54.8047 73.6911 54.8047 75.1866C54.8047 76.6809 53.5948 77.8945 52.0968 77.8945H27.7218C20.2544 77.8945 14.1797 71.8198 14.1797 64.3524V26.4366C14.1797 18.9692 20.2544 12.8945 27.7218 12.8945H39.9499C45.0115 12.8945 49.7735 14.8661 53.3562 18.4462L62.7926 27.8877C63.5264 28.6215 64.2081 29.4264 64.8175 30.2795C65.6871 31.4957 65.4053 33.188 64.1891 34.0576Z" fill="#9E9E9E"/>
<path d="M76.4675 64.3496C76.4675 68.8298 72.8227 72.4746 68.3425 72.4746V75.1838C68.3425 76.678 67.1314 77.8917 65.6346 77.8917C64.1366 77.8917 62.9254 76.678 62.9254 75.1838V72.4746H62.2005C59.3073 72.4746 56.6095 70.9207 55.1635 68.4146C54.4107 67.121 54.855 65.4655 56.1499 64.7152C57.4499 63.9649 59.1041 64.4067 59.8494 65.7042C60.3343 66.5383 61.2331 67.0588 62.1967 67.0588H68.34C69.8342 67.0588 71.0479 65.8426 71.0479 64.3496C71.0479 63.3264 70.3141 62.4593 69.3036 62.2917L61.0681 60.9181C57.436 60.315 54.7979 57.1996 54.7979 53.5167C54.7979 49.0365 58.444 45.3917 62.9229 45.3917V42.6838C62.9229 41.1883 64.134 39.9746 65.6321 39.9746C67.1289 39.9746 68.34 41.1883 68.34 42.6838V45.3917H69.0662C71.9581 45.3917 74.6559 46.9494 76.1019 49.4542C76.8547 50.7491 76.4104 52.4033 75.1155 53.1536C73.8129 53.9014 72.1613 53.4596 71.4161 52.1646C70.9311 51.3306 70.0323 50.8113 69.0687 50.8113H62.9254C61.4312 50.8113 60.2175 52.0275 60.2175 53.5192C60.2175 54.5425 60.9513 55.4096 61.9619 55.5771L70.1973 56.9508V56.9482C73.8294 57.5525 76.4675 60.6667 76.4675 64.3496Z" fill="#FFC54D"/>
<path d="M36.6359 42.7129C29.3795 42.7129 23.6953 45.7917 23.6953 49.7224V57.2711C23.6953 61.2018 29.3795 64.2806 36.6359 64.2806C43.8924 64.2806 49.5766 61.2018 49.5766 57.2711V49.7224C49.5766 45.7917 43.8924 42.7129 36.6359 42.7129ZM36.6359 44.8697C42.9909 44.8697 47.4198 47.4276 47.4198 49.7224C47.4198 52.0172 42.9909 54.5751 36.6359 54.5751C30.281 54.5751 25.8521 52.0172 25.8521 49.7224C25.8521 47.4276 30.281 44.8697 36.6359 44.8697ZM31.244 56.1097V61.438C30.4471 61.2191 29.7278 60.9538 29.0872 60.6583V55.4432C29.7602 55.701 30.4805 55.9242 31.244 56.1097ZM33.4008 56.5108C34.0985 56.6047 34.8167 56.6715 35.5576 56.7039V62.0969C34.8059 62.0613 34.0856 61.9901 33.4008 61.8877V56.5108ZM37.7143 56.7039C38.4552 56.6726 39.1734 56.6057 39.8711 56.5108V61.8877C39.1863 61.9901 38.466 62.0613 37.7143 62.0969V56.7039ZM42.0279 56.1108C42.7914 55.9253 43.5117 55.7021 44.1846 55.4443V60.6594C43.5441 60.9549 42.8248 61.2202 42.0279 61.4391V56.1108ZM25.8521 57.2722V53.6466C26.1767 53.9119 26.5433 54.1589 26.9305 54.395V59.2758C26.2392 58.632 25.8521 57.9408 25.8521 57.2711V57.2722ZM46.3414 59.2769V54.3961C46.7286 54.1589 47.0952 53.9119 47.4198 53.6477V57.2733C47.4198 57.9429 47.0327 58.632 46.3414 59.2769Z" fill="#9E9E9E"/>
</g>
</svg>
