<svg width="163" height="789" viewBox="0 0 163 789" fill="none" xmlns="http://www.w3.org/2000/svg">
<path d="M1.00781 41.3574H160.008V500.357H1.00781V41.3574Z" fill="url(#paint0_linear_2036_15512)"/>
<path d="M1.00781 41.3574H160.008V788.357H1.00781V41.3574Z" fill="url(#paint1_linear_2036_15512)"/>
<path d="M90.9092 89.3124L158.402 51.1696C163.738 48.1445 163.081 42.8718 156.9 39.3904L92.9466 3.24172C86.7826 -0.239637 77.4417 -0.628333 72.1064 2.39673L4.61328 40.5396C-0.721939 43.5647 -0.0658112 48.8374 6.11545 52.3188L70.069 88.4674C76.233 91.9657 85.5567 92.3375 90.9092 89.3124Z" fill="url(#paint2_linear_2036_15512)"/>
<path d="M6.00781 47.8588L69.2028 87.7806C75.2904 91.8891 84.5156 92.3478 89.7846 88.7778L158.504 47.3585C160.516 46.0022 161.659 44.2671 161.983 42.3923C162.409 45.0449 161.284 47.6576 158.504 49.5324L89.7846 90.9517C84.5156 94.5217 75.2904 94.063 69.2028 89.9545L6.00781 50.0327C2.2393 47.4798 0.551147 44.1292 1.06271 41.0977C1.45491 43.471 3.12601 45.9042 6.00781 47.8588Z" fill="white"/>
<path d="M62.9603 48.4889L80.7692 39.0007L72.3713 34.5261C69.7799 33.1424 65.5517 33.1604 62.9408 34.5441L59.6868 36.2692C57.0759 37.6529 57.0564 39.8992 59.6479 41.2829L60.2714 41.6244C60.9534 41.9838 60.9534 42.5767 60.2714 42.9361L57.9332 44.1761C57.2513 44.5355 56.1407 44.5355 55.4587 44.1761L53.4128 43.0799C48.8534 40.654 48.8729 36.7005 53.4713 34.2566L59.1997 31.2017C63.7786 28.7577 71.2022 28.7398 75.7616 31.1657L85.5818 36.395L85.8741 36.2513C88.0174 35.1191 91.4662 35.1012 93.59 36.2333L110.425 45.2004C112.548 46.3325 112.529 48.1655 110.405 49.2976L87.4914 61.4993C85.348 62.6314 81.8992 62.6494 79.7754 61.5172L62.9408 52.5502C60.817 51.472 60.8365 49.621 62.9603 48.4889ZM86.4002 50.2859L91.9143 53.233L94.7786 51.7056L89.2645 48.7584C89.8685 47.8599 89.5178 46.8357 88.1733 46.1169C86.3223 45.1285 83.3217 45.1465 81.4706 46.1348C79.6196 47.1232 79.6001 48.7226 81.4511 49.7109C82.7761 50.4297 84.7245 50.6094 86.4002 50.2859Z" fill="#E0E0E0"/>
<defs>
<linearGradient id="paint0_linear_2036_15512" x1="160.005" y1="270.865" x2="1.00184" y2="270.865" gradientUnits="userSpaceOnUse">
<stop offset="0.1414" stop-color="#F0F8FA"/>
<stop offset="0.3647" stop-color="#F3FAFB"/>
<stop offset="0.5" stop-color="#FAFDFD"/>
<stop offset="0.596" stop-color="#DAEBF2"/>
</linearGradient>
<linearGradient id="paint1_linear_2036_15512" x1="80.5034" y1="441.679" x2="80.5034" y2="-201.317" gradientUnits="userSpaceOnUse">
<stop stop-color="white"/>
<stop offset="1" stop-color="#DAEBF2"/>
</linearGradient>
<linearGradient id="paint2_linear_2036_15512" x1="97.5687" y1="76.1024" x2="57.102" y2="-3.40506" gradientUnits="userSpaceOnUse">
<stop stop-color="#FAFDFD"/>
<stop offset="1" stop-color="#F3F9FB"/>
</linearGradient>
</defs>
</svg>
