<svg width="16" height="16" viewBox="0 0 16 16" fill="none" xmlns="http://www.w3.org/2000/svg">
<path d="M14.7779 1.21129L14.0782 0.604811C13.2718 -0.201604 11.9655 -0.201604 11.1591 0.604811C11.1391 0.624805 9.90614 2.23097 9.90614 2.23097C9.14637 3.03072 9.14637 4.29033 9.90614 5.08341L10.6792 6.05644C9.7062 8.26242 8.19334 9.78194 6.06067 10.6883L5.08764 9.90857C4.29456 9.14214 3.02829 9.14214 2.2352 9.90857C2.2352 9.90857 0.629036 11.1415 0.609042 11.1615C-0.197372 11.9679 -0.197372 13.2742 0.575719 14.0473L1.24218 14.8137C2.00861 15.5801 3.04162 16 4.16127 16C9.25301 16 15.9976 9.24878 15.9976 4.1637C15.9976 3.05071 15.5777 2.01104 14.7779 1.21795V1.21129ZM4.16127 14.6604C3.4015 14.6604 2.70172 14.3805 2.22187 13.894L1.55541 13.1276C1.28217 12.8543 1.26884 12.4078 1.52875 12.1212C1.52875 12.1212 3.12159 10.8949 3.14158 10.8749C3.41483 10.6017 3.89468 10.6017 4.1746 10.8749C4.19459 10.8949 5.53417 11.9679 5.53417 11.9679C5.72078 12.1145 5.96737 12.1545 6.1873 12.0679C8.94644 11.0149 10.9258 9.04218 12.0655 6.1964C12.1521 5.97647 12.1188 5.72321 11.9655 5.52994C11.9655 5.52994 10.8925 4.18369 10.8792 4.17036C10.5926 3.88379 10.5926 3.42393 10.8792 3.13735C10.8992 3.11736 12.1254 1.52452 12.1254 1.52452C12.412 1.2646 12.8585 1.27127 13.1651 1.57784L13.8649 2.18432C14.3781 2.69749 14.6647 3.39727 14.6647 4.15703C14.6647 8.79558 8.15335 14.6604 4.16127 14.6604Z" fill="#212121"/>
</svg>
