<svg width="112" height="82" viewBox="0 0 112 82" fill="none" xmlns="http://www.w3.org/2000/svg">
<circle cx="105.46" cy="75.1925" r="6.53846" transform="rotate(-90 105.46 75.1925)" fill="#ECECEC"/>
<circle cx="66.2308" cy="52.3078" r="5.23076" transform="rotate(-90 66.2308 52.3078)" fill="#ECECEC"/>
<circle cx="85.1893" cy="52.3078" r="5.88461" transform="rotate(-90 85.1893 52.3078)" fill="#ECECEC"/>
<circle cx="105.46" cy="52.3077" r="6.53846" transform="rotate(-90 105.46 52.3077)" fill="#ECECEC"/>
<circle cx="32.2278" cy="29.4231" r="3.92307" transform="rotate(-90 32.2278 29.4231)" fill="#ECECEC"/>
<circle cx="48.5769" cy="29.4231" r="4.57692" transform="rotate(-90 48.5769 29.4231)" fill="#ECECEC"/>
<circle cx="66.2308" cy="29.423" r="5.23076" transform="rotate(-90 66.2308 29.423)" fill="#ECECEC"/>
<circle cx="85.1893" cy="29.423" r="5.88461" transform="rotate(-90 85.1893 29.423)" fill="#ECECEC"/>
<circle cx="105.46" cy="29.4235" r="6.53846" transform="rotate(-90 105.46 29.4235)" fill="#ECECEC"/>
<circle cx="3.45913" cy="6.53843" r="2.61538" transform="rotate(-90 3.45913 6.53843)" fill="#ECECEC"/>
<circle cx="17.1911" cy="6.53888" r="3.26923" transform="rotate(-90 17.1911 6.53888)" fill="#ECECEC"/>
<circle cx="32.2278" cy="6.53884" r="3.92307" transform="rotate(-90 32.2278 6.53884)" fill="#ECECEC"/>
<circle cx="48.5769" cy="6.5388" r="4.57692" transform="rotate(-90 48.5769 6.5388)" fill="#ECECEC"/>
<circle cx="66.2308" cy="6.53877" r="5.23076" transform="rotate(-90 66.2308 6.53877)" fill="#ECECEC"/>
<circle cx="85.1893" cy="6.53873" r="5.88461" transform="rotate(-90 85.1893 6.53873)" fill="#ECECEC"/>
<circle cx="105.46" cy="6.53869" r="6.53846" transform="rotate(-90 105.46 6.53869)" fill="#ECECEC"/>
</svg>
