<svg width="112" height="82" viewBox="0 0 112 82" fill="none" xmlns="http://www.w3.org/2000/svg">
<circle cx="6.53846" cy="6.53846" r="6.53846" transform="matrix(1.31134e-07 1 1 -1.31134e-07 98.0781 0)" fill="#ECECEC" fill-opacity="0.2"/>
<circle cx="5.23076" cy="5.23076" r="5.23076" transform="matrix(1.31134e-07 1 1 -1.31134e-07 60.1563 24.1914)" fill="#ECECEC" fill-opacity="0.2"/>
<circle cx="5.88461" cy="5.88461" r="5.88461" transform="matrix(1.31134e-07 1 1 -1.31134e-07 78.4609 23.5391)" fill="#ECECEC" fill-opacity="0.2"/>
<circle cx="6.53846" cy="6.53846" r="6.53846" transform="matrix(1.31134e-07 1 1 -1.31134e-07 98.0781 22.8848)" fill="#ECECEC" fill-opacity="0.2"/>
<circle cx="3.92307" cy="3.92307" r="3.92307" transform="matrix(1.31134e-07 1 1 -1.31134e-07 27.4609 48.3848)" fill="#ECECEC" fill-opacity="0.2"/>
<circle cx="4.57692" cy="4.57692" r="4.57692" transform="matrix(1.31134e-07 1 1 -1.31134e-07 43.1562 47.7305)" fill="#ECECEC" fill-opacity="0.2"/>
<circle cx="5.23076" cy="5.23076" r="5.23076" transform="matrix(1.31134e-07 1 1 -1.31134e-07 60.1563 47.0762)" fill="#ECECEC" fill-opacity="0.2"/>
<circle cx="5.88461" cy="5.88461" r="5.88461" transform="matrix(1.31134e-07 1 1 -1.31134e-07 78.4609 46.4238)" fill="#ECECEC" fill-opacity="0.2"/>
<circle cx="6.53846" cy="6.53846" r="6.53846" transform="matrix(1.31134e-07 1 1 -1.31134e-07 98.0781 45.7695)" fill="#ECECEC" fill-opacity="0.2"/>
<circle cx="2.61538" cy="2.61538" r="2.61538" transform="matrix(1.31134e-07 1 1 -1.31134e-07 0 72.5762)" fill="#ECECEC" fill-opacity="0.2"/>
<circle cx="3.26923" cy="3.26923" r="3.26923" transform="matrix(1.31134e-07 1 1 -1.31134e-07 13.0781 71.9238)" fill="#ECECEC" fill-opacity="0.2"/>
<circle cx="3.92307" cy="3.92307" r="3.92307" transform="matrix(1.31134e-07 1 1 -1.31134e-07 27.4609 71.2695)" fill="#ECECEC" fill-opacity="0.2"/>
<circle cx="4.57692" cy="4.57692" r="4.57692" transform="matrix(1.31134e-07 1 1 -1.31134e-07 43.1562 70.6152)" fill="#ECECEC" fill-opacity="0.2"/>
<circle cx="5.23076" cy="5.23076" r="5.23076" transform="matrix(1.31134e-07 1 1 -1.31134e-07 60.1563 69.9609)" fill="#ECECEC" fill-opacity="0.2"/>
<circle cx="5.88461" cy="5.88461" r="5.88461" transform="matrix(1.31134e-07 1 1 -1.31134e-07 78.4609 69.3086)" fill="#ECECEC" fill-opacity="0.2"/>
<circle cx="6.53846" cy="6.53846" r="6.53846" transform="matrix(1.31134e-07 1 1 -1.31134e-07 98.0781 68.6543)" fill="#ECECEC" fill-opacity="0.2"/>
</svg>
