<svg width="179" height="205" viewBox="0 0 179 205" fill="none" xmlns="http://www.w3.org/2000/svg">
<path d="M79.2925 20.5688C96.6226 10.57 112.398 9.05078 124.252 14.6685L133.773 20.0741L133.773 20.1271C121.955 14.6331 106.25 16.1877 89.044 26.1335C52.2817 47.3676 22.4797 98.7747 22.4797 140.96C22.4797 161.435 29.5106 175.974 40.9403 183.093L34.5453 179.365C21.1547 173.129 12.7282 157.831 12.7283 135.413C12.7283 93.1923 42.5303 41.7852 79.2925 20.5688Z" fill="#0050E5"/>
<path d="M89.0452 26.1159C125.807 4.88177 155.609 21.8762 155.609 64.0618C155.609 106.247 125.807 157.654 89.045 178.889C52.2828 200.123 22.4809 183.128 22.4809 140.943C22.4632 98.7571 52.2652 47.35 89.0452 26.1159Z" fill="url(#paint0_linear_3327_23149)"/>
<path d="M88.0592 25.5505C106.696 14.7921 123.55 13.8558 135.633 21.0457C123.62 14.4741 107.173 15.64 89.0308 26.1158C52.2685 47.3499 22.4664 98.757 22.4664 140.943C22.4663 161.735 29.7092 176.398 41.4569 183.393C29.1263 176.645 21.4771 161.753 21.4771 140.377C21.4948 98.1916 51.2969 46.7846 88.0592 25.5505Z" fill="white"/>
<path d="M22.4652 140.943C22.4652 183.128 52.2672 200.123 89.0294 178.889C125.792 157.654 155.594 106.247 155.594 64.0618C155.594 21.8762 125.792 4.88177 89.0295 26.1159C52.2673 47.35 22.4653 98.7571 22.4652 140.943Z" fill="#D2E2FF"/>
<path d="M44.239 179.136C19.8046 164.851 20.0552 118.96 44.7988 76.6357C69.5424 34.3114 109.409 11.5808 133.843 25.8656C158.278 40.1503 158.027 86.0412 133.284 128.366C108.54 170.69 68.6734 193.421 44.239 179.136Z" fill="white"/>
<path d="M50.6881 168.094C29.7744 155.867 29.9891 116.589 51.1676 80.3623C72.3462 44.136 106.469 24.6803 127.382 36.9068C148.296 49.1334 148.081 88.4121 126.903 124.638C105.724 160.865 71.6018 180.32 50.6881 168.094Z" fill="#D2E2FF"/>
<path d="M57.9509 155.667C41.0043 145.76 41.1817 113.926 58.3471 84.5641C75.5125 55.2023 103.166 39.4314 120.112 49.3386C137.059 59.2459 136.882 91.0798 119.716 120.442C102.551 149.803 74.8975 165.574 57.9509 155.667Z" fill="white"/>
<path d="M64.8121 143.923C51.6052 136.202 51.7405 111.398 65.1144 88.5215C78.4882 65.6453 100.036 53.3595 113.243 61.0805C126.45 68.8015 126.315 93.6054 112.941 116.482C99.5669 139.358 78.019 151.644 64.8121 143.923Z" fill="#D2E2FF"/>
<path d="M71.2767 132.883C61.5906 127.22 61.69 109.028 71.4988 92.25C81.3076 75.4719 97.1114 66.461 106.798 72.1237C116.484 77.7864 116.384 95.9783 106.576 112.756C96.7667 129.535 80.9629 138.545 71.2767 132.883Z" fill="white"/>
<path d="M75.1358 110.523C75.1358 119.32 81.3541 122.871 89.021 118.437C96.6879 114.003 102.906 103.28 102.906 94.4824C102.906 85.6849 96.6879 82.1341 89.021 86.5682C81.3541 91.0022 75.1358 101.725 75.1358 110.523Z" fill="url(#paint1_linear_3327_23149)"/>
<path opacity="0.5" d="M87.5673 102.822C87.5673 103.511 88.0619 103.794 88.6625 103.44C89.2632 103.087 89.7578 102.239 89.7578 101.55C89.7578 100.861 89.2632 100.579 88.6625 100.932C88.0442 101.285 87.5673 102.133 87.5673 102.822Z" fill="url(#paint2_linear_3327_23149)"/>
<defs>
<linearGradient id="paint0_linear_3327_23149" x1="155.606" y1="64.0693" x2="22.4702" y2="64.0692" gradientUnits="userSpaceOnUse">
<stop stop-color="#311B61"/>
<stop offset="0.2031" stop-color="#290F52"/>
<stop offset="0.4949" stop-color="#200041"/>
<stop offset="1" stop-color="#0F001F"/>
</linearGradient>
<linearGradient id="paint1_linear_3327_23149" x1="118.216" y1="138.31" x2="82.0977" y2="93.9968" gradientUnits="userSpaceOnUse">
<stop offset="0.00505051" stop-color="#FFF5D6"/>
<stop offset="1" stop-color="#FEA903"/>
</linearGradient>
<linearGradient id="paint2_linear_3327_23149" x1="89.7479" y1="102.191" x2="87.5614" y2="102.191" gradientUnits="userSpaceOnUse">
<stop stop-color="#311B61"/>
<stop offset="0.2031" stop-color="#290F52"/>
<stop offset="0.4949" stop-color="#200041"/>
<stop offset="1" stop-color="#0F001F"/>
</linearGradient>
</defs>
</svg>
