<svg width="123" height="140" viewBox="0 0 123 140" fill="none" xmlns="http://www.w3.org/2000/svg">
<path d="M54.4993 14.047C66.4106 7.21857 77.2535 6.18104 85.4008 10.0175L91.9453 13.7092L91.9453 13.7454C83.8223 9.99337 73.028 11.055 61.2017 17.8473C35.9341 32.3486 15.4505 67.4559 15.4505 96.2656C15.4505 110.248 20.283 120.177 28.1389 125.039L23.7434 122.493C14.5398 118.235 8.74807 107.787 8.74808 92.4773C8.7481 63.6435 29.2317 28.5363 54.4993 14.047Z" fill="white"/>
<path d="M61.2098 17.8352C86.4773 3.33386 106.961 14.9398 106.961 43.7495C106.961 72.5591 86.4773 107.666 61.2097 122.168C35.9421 136.669 15.4585 125.063 15.4586 96.2535C15.4464 67.4438 35.9301 32.3366 61.2098 17.8352Z" fill="url(#paint0_linear_3563_21237)"/>
<path d="M60.5281 17.4493C73.3379 10.1021 84.9214 9.46273 93.2266 14.3729C84.97 9.88498 73.6657 10.6812 61.1959 17.8354C35.9283 32.3367 15.4446 67.444 15.4446 96.2537C15.4445 110.453 20.4227 120.467 28.4972 125.244C20.0221 120.636 14.7646 110.465 14.7646 95.8676C14.7768 67.0579 35.2605 31.9507 60.5281 17.4493Z" fill="white"/>
<path d="M15.4429 96.2535C15.4429 125.063 35.9265 136.669 61.1941 122.168C86.4616 107.666 106.945 72.5591 106.945 43.7495C106.945 14.9398 86.4617 3.33386 61.1941 17.8352C35.9266 32.3366 15.4429 67.4438 15.4429 96.2535Z" fill="#D2E2FF"/>
<path d="M30.41 122.336C13.6157 112.581 13.788 81.2406 30.7948 52.3361C47.8017 23.4317 75.203 7.90832 91.9973 17.6638C108.792 27.4193 108.619 58.7593 91.6126 87.6638C74.6057 116.568 47.2044 132.092 30.41 122.336Z" fill="white"/>
<path d="M34.837 114.796C20.4625 106.446 20.6101 79.6219 35.1666 54.8819C49.7231 30.142 73.1763 16.8552 87.5508 25.205C101.925 33.5549 101.778 60.3794 87.2212 85.1193C72.6647 109.859 49.2115 123.146 34.837 114.796Z" fill="#D2E2FF"/>
<path d="M39.8332 106.309C28.1854 99.5435 28.3073 77.8033 40.1055 57.7514C51.9037 37.6994 70.9104 26.929 82.5582 33.695C94.206 40.4609 94.0841 62.2011 82.2859 82.253C70.4877 102.305 51.481 113.075 39.8332 106.309Z" fill="white"/>
<path d="M44.5496 98.2885C35.4721 93.0156 35.5652 76.0764 44.7573 60.4536C53.9495 44.8308 68.7599 36.4405 77.8373 41.7134C86.9147 46.9862 86.8217 63.9255 77.6295 79.5483C68.4374 95.1711 53.627 103.561 44.5496 98.2885Z" fill="#D2E2FF"/>
<path d="M48.9921 90.7491C42.3345 86.8819 42.4029 74.4581 49.1447 62.9999C55.8865 51.5416 66.7489 45.3879 73.4064 49.2551C80.0639 53.1223 79.9956 65.5461 73.2538 77.0043C66.512 88.4626 55.6496 94.6163 48.9921 90.7491Z" fill="white"/>
<path d="M51.6471 75.4786C51.6471 81.4866 55.9211 83.9116 61.1907 80.8834C66.4604 77.8553 70.7344 70.5322 70.7344 64.5241C70.7344 58.5161 66.4604 56.0912 61.1907 59.1193C55.9211 62.1475 51.6471 69.4705 51.6471 75.4786Z" fill="url(#paint1_linear_3563_21237)"/>
<path opacity="0.5" d="M60.1897 70.2198C60.1897 70.6903 60.5297 70.8833 60.9425 70.642C61.3553 70.4007 61.6953 69.8217 61.6953 69.3511C61.6953 68.8806 61.3553 68.6876 60.9425 68.9289C60.5175 69.1702 60.1897 69.7493 60.1897 70.2198Z" fill="url(#paint2_linear_3563_21237)"/>
<defs>
<linearGradient id="paint0_linear_3563_21237" x1="106.959" y1="43.7546" x2="15.4512" y2="43.7546" gradientUnits="userSpaceOnUse">
<stop stop-color="#311B61"/>
<stop offset="0.2031" stop-color="#290F52"/>
<stop offset="0.4949" stop-color="#200041"/>
<stop offset="1" stop-color="#0F001F"/>
</linearGradient>
<linearGradient id="paint1_linear_3563_21237" x1="81.2571" y1="94.4552" x2="56.6233" y2="64.0376" gradientUnits="userSpaceOnUse">
<stop offset="0.00505051" stop-color="#FFF5D6"/>
<stop offset="1" stop-color="#FEA903"/>
</linearGradient>
<linearGradient id="paint2_linear_3563_21237" x1="61.6885" y1="69.7886" x2="60.1857" y2="69.7886" gradientUnits="userSpaceOnUse">
<stop stop-color="#311B61"/>
<stop offset="0.2031" stop-color="#290F52"/>
<stop offset="0.4949" stop-color="#200041"/>
<stop offset="1" stop-color="#0F001F"/>
</linearGradient>
</defs>
</svg>
