<svg width="114" height="72" viewBox="0 0 114 72" fill="none" xmlns="http://www.w3.org/2000/svg">
<path d="M102.854 60.713L110.132 59.7237C114.107 59.1938 114.478 53.5761 110.609 52.5162L69.8012 41.3691L102.854 60.713Z" fill="#F2F6FE"/>
<path d="M102.571 60.0044L109.85 59.0151C112.376 58.6795 113.436 56.2946 112.906 54.3337C113.966 56.3829 112.976 59.3508 110.132 59.7394L102.854 60.7287L69.8015 41.3848L71.5504 41.8618L102.571 60.0044Z" fill="#98BCFF"/>
<path opacity="0.7" d="M109.953 59.2254L102.675 60.2147L71.0889 41.7188L71.5482 41.8424L102.551 60.0027L109.83 59.0134C112.356 58.6778 113.416 56.2929 112.886 54.3321C112.921 54.4204 112.956 54.5087 112.992 54.5793C113.522 56.5402 112.462 58.8898 109.953 59.2254Z" fill="#98BCFF"/>
<path d="M0.201124 1.26663C0.201124 1.40796 0.254079 1.51395 0.324742 1.56694C0.324742 1.56694 1.04907 4.90577 9.97021 10.0818C22.7248 17.4661 17.0365 13.5443 17.0365 13.5443C17.3721 13.7386 17.1601 13.3146 17.6724 13.0143C18.697 12.4137 19.545 10.9827 19.545 9.79915C19.545 9.21618 20.0926 9.21618 19.757 9.02186C19.757 9.02186 25.9929 12.0073 13.2384 4.6231C4.28188 -0.552942 0.97842 0.454 0.97842 0.454C0.890091 0.401003 0.784094 0.418676 0.642767 0.489339C0.413114 0.612998 0.201125 0.966316 0.201124 1.26663Z" fill="#ECECEC"/>
<path d="M16.0571 12.4667C16.0571 13.8093 17.0111 14.3569 18.177 13.668C19.3429 12.9967 20.2969 11.3538 20.2969 10.0112C20.2969 8.66861 19.3429 8.12099 18.177 8.80995C16.9934 9.48124 16.0571 11.1241 16.0571 12.4667Z" fill="#D6D6D6"/>
<path d="M104.57 63.6979C104.57 64.9875 105.471 65.4998 106.601 64.8461C107.714 64.1925 108.633 62.638 108.633 61.3484C108.633 60.0588 107.732 59.5464 106.601 60.2001C105.471 60.8537 104.57 62.4259 104.57 63.6979Z" fill="#98BCFF"/>
<path d="M16.4845 12.5028C16.4845 13.1211 16.6965 13.5804 17.0498 13.7924L105.095 64.9698C105.466 65.1818 106.04 64.943 106.606 64.625C107.719 63.9714 108.515 62.477 108.515 61.1874C108.515 60.5514 108.399 60.2531 108.045 60.0411L19.9293 8.86372C19.5583 8.6694 19.0637 8.70472 18.5161 9.0227C17.3855 9.65867 16.4845 11.2309 16.4845 12.5028Z" fill="#98BCFF"/>
<path d="M104.215 57.8181L70.2159 38.0616L96.648 36.4399C106.505 35.6273 112.653 46.9333 106.594 54.7592L104.215 57.8181Z" fill="#F2F6FE"/>
<path opacity="0.7" d="M105.56 54.8638C111.619 47.0379 105.489 35.7319 95.6143 36.5445L70.1909 38.0439L69.9259 37.8849L96.109 36.3325C105.966 35.5199 112.114 46.8259 106.055 54.6518L103.511 57.9376L103.281 57.7963L105.56 54.8638Z" fill="#98BCFF"/>
<path d="M101.93 62.0011L101.099 64.9866C98.8911 72.9361 88.3094 74.5083 83.8753 67.5481L68.1706 42.8691L101.93 62.0011Z" fill="#98BCFF"/>
<path d="M101.109 62.6436L100.584 64.5625C98.3758 72.5121 87.7941 74.0843 83.36 67.124L67.0884 42.8457L101.109 62.6436Z" fill="#F2F6FE"/>
<path opacity="0.7" d="M83.0693 66.6119C87.5033 73.5722 98.0674 72 100.293 64.0504L101.035 61.3652L101.406 61.5772L100.576 64.5627C98.3677 72.5122 87.786 74.0845 83.3519 67.1242L67.6472 42.4453L67.7002 42.4806L83.0693 66.6119Z" fill="#98BCFF"/>
</svg>
