<svg width="99" height="163" viewBox="0 0 99 163" fill="none" xmlns="http://www.w3.org/2000/svg">
<path d="M0.256088 85.942L98.4222 52.2676V119.089V119.198C98.7332 121.376 97.4893 123.488 94.595 125.027L28.2181 160.373C22.4774 163.431 12.4312 163.035 5.78159 159.515C2.2654 157.646 0.423576 155.27 0.303978 153.005L0.280037 153.027V85.942H0.256088Z" fill="url(#paint0_linear_3153_21831)"/>
<path d="M28.2228 93.1555L94.5997 57.8095C100.34 54.7522 99.6228 49.4294 92.9971 45.8882C86.3475 42.369 76.3012 41.9731 70.5605 45.0304L4.18358 80.3764C-1.55713 83.4337 -0.839508 88.7565 5.78622 92.2977C12.412 95.8169 22.4581 96.2128 28.2228 93.1555Z" fill="url(#paint1_linear_3153_21831)"/>
<path d="M5.466 91.7267C12.1156 95.2459 22.1619 95.6418 27.9026 92.5845L94.2795 57.2384C97.1977 55.6768 98.4654 53.5433 98.1066 51.3438C99.3265 53.9832 98.2263 56.7105 94.7101 58.6021L28.3331 93.9481C22.5924 97.0055 12.5462 96.6095 5.89653 93.0903C2.64346 91.3527 0.801682 89.1972 0.466805 87.0857C1.20831 88.7353 2.88268 90.363 5.466 91.7267Z" fill="#FEC303"/>
<g opacity="0.3">
<path d="M42.7925 4.05785C61.3302 -5.77394 84.4844 6.54327 84.4844 26.2068V60.0132C84.4844 60.0352 84.4844 60.0572 84.4844 60.0792C84.4844 62.7846 80.3942 64.9621 75.3471 64.9621C70.3001 64.9621 66.2098 62.7846 66.2098 60.0792C66.2098 60.0572 66.2098 60.0132 66.2098 59.9912H66.1141V29.814C66.1141 21.4779 56.3071 16.2651 48.4614 20.4221C39.3481 25.239 33.7031 34.1691 33.7031 43.8469V86.8912H33.6074C33.5117 89.5526 29.4693 91.6861 24.494 91.6861C19.4709 91.6861 15.4285 89.5306 15.3807 86.8472V47.674C15.3807 29.6601 25.8335 13.0318 42.7925 4.05785Z" fill="url(#paint2_linear_3153_21831)"/>
<path d="M78.8227 62.3244V30.2556C78.8227 17.0806 67.1739 6.36896 52.8461 6.36896C48.3253 6.36896 43.9719 7.44673 39.9534 9.58025C37.3461 10.9659 34.8824 12.5496 32.5862 14.2872C35.8631 11.2519 39.5946 8.59048 43.7088 6.39098C47.7512 4.25746 52.0807 3.17969 56.6015 3.17969C70.9293 3.17969 82.5781 13.8913 82.5781 27.0663V59.1351V60.8727C82.5781 60.9167 82.5781 60.9607 82.5781 60.9827C82.5303 61.9944 81.0473 63.0942 78.7989 63.6661V62.3244H78.8227Z" fill="url(#paint3_radial_3153_21831)"/>
<path d="M28.0349 89.7498H28.0588V48.4431C28.0588 39.4691 32.6514 31.067 40.2578 25.6562C34.9237 30.9131 31.8381 37.9075 31.8381 45.2538V86.5605H31.8142L31.7424 88.2542C31.6946 89.2659 30.2355 90.3657 27.987 90.9376L28.0349 89.7498Z" fill="url(#paint4_radial_3153_21831)"/>
<path d="M61.8522 12.4141C70.0806 12.4141 76.802 18.5727 76.802 26.161V61.1991L76.8977 64.2124C76.9695 64.4543 71.7789 64.0804 71.6593 63.6405L71.5636 60.6272V25.5891C71.5636 19.4085 67.1146 14.1737 60.9912 12.4581C61.3021 12.4141 61.5652 12.4141 61.8522 12.4141Z" fill="url(#paint5_linear_3153_21831)"/>
<path d="M45.9176 8.14719C49.7687 6.10165 53.8829 5.08984 58.1884 5.08984C59.9824 5.08984 61.7763 5.28782 63.5703 5.66174C63.5225 5.66174 63.4746 5.66174 63.4268 5.66174C59.1213 5.66174 54.9832 6.6955 51.156 8.71905C35.2256 17.1651 25.3229 32.9136 25.3229 49.8058V91.0245V91.2445C25.3229 91.4644 20.1084 91.0685 20.0845 90.6726V90.4526V49.2339C20.0845 32.3197 29.9872 16.5713 45.9176 8.14719Z" fill="url(#paint6_linear_3153_21831)"/>
<path opacity="0.5" d="M70.8594 31.1334V63.4881C68.8023 62.8942 67.4628 61.8605 67.391 60.9147V60.8927L67.2954 59.0231V30.5615C67.2954 24.9528 63.2768 20.1799 57.7514 18.5742C65.023 18.8602 70.8594 24.3809 70.8594 31.1334Z" fill="url(#paint7_linear_3153_21831)"/>
<g opacity="0.5">
<path d="M42.545 6.52042C44.4585 5.50865 46.42 4.73882 48.4531 4.21094C31.0875 13.7788 20.3237 31.1549 20.3237 49.8287V90.3875C17.8361 89.8377 16.1617 88.6719 16.1617 87.5942V87.3742V48.5309C16.1377 31.2208 26.2557 15.1425 42.545 6.52042Z" fill="url(#paint8_linear_3153_21831)"/>
</g>
</g>
<path d="M73.8719 59.6142C68.0065 59.6142 63.2516 57.0637 63.2516 53.9174C63.2516 50.7712 68.0065 48.2207 73.8719 48.2207C79.7374 48.2207 84.4922 50.7712 84.4922 53.9174C84.4922 57.0637 79.7374 59.6142 73.8719 59.6142Z" fill="#E6E7E8"/>
<path d="M13.0297 80.6205C13.0297 83.6778 17.6462 86.1413 23.3391 86.1413C29.032 86.1413 33.6484 83.6778 33.6484 80.6205C33.6484 77.5632 29.032 75.0998 23.3391 75.0998C17.6462 75.0778 13.0297 77.5632 13.0297 80.6205Z" fill="#E6E7E8"/>
<path d="M42.7925 3.94456C61.3302 -5.88722 84.4844 6.42999 84.4844 26.0936V53.8293C84.4844 53.8513 84.4844 53.8733 84.4844 53.8953C84.4844 56.6007 80.3942 58.7782 75.3471 58.7782C70.3001 58.7782 66.2098 56.5787 66.2098 53.8953C66.2098 53.8733 66.2098 53.8293 66.2098 53.8073H66.1141V29.6788C66.1141 21.3426 56.3071 16.1298 48.4614 20.2869C39.3481 25.1038 33.7031 34.0338 33.7031 43.7116V80.6853H33.6074C33.5117 83.3467 29.4693 85.4802 24.494 85.4802C19.4709 85.4802 15.4285 83.3247 15.3807 80.6413V47.5387C15.3807 29.5688 25.8335 12.9405 42.7925 3.94456Z" fill="url(#paint9_linear_3153_21831)"/>
<path d="M78.8227 56.16V30.1618C78.8227 16.9868 67.1739 6.27521 52.8461 6.27521C48.3253 6.27521 43.9719 7.35295 39.9534 9.48647C37.3461 10.8722 34.8824 12.4558 32.5862 14.1934C35.8631 11.1581 39.5946 8.4967 43.7088 6.2972C47.7512 4.16368 52.0807 3.08594 56.6015 3.08594C70.9293 3.08594 82.5781 13.7975 82.5781 26.9726V52.9707V54.7083C82.5781 54.7523 82.5781 54.7963 82.5781 54.8183C82.5303 55.83 81.0473 56.9298 78.7989 57.5017V56.16H78.8227Z" fill="url(#paint10_radial_3153_21831)"/>
<path d="M28.0349 83.5874H28.0588V48.3513C28.0588 39.3773 32.6514 30.9752 40.2578 25.5645C34.9237 30.8213 31.8381 37.8157 31.8381 45.162V80.3981H31.8142L31.7424 82.0917C31.6946 83.1035 30.2355 84.1812 27.987 84.7751L28.0349 83.5874Z" fill="url(#paint11_radial_3153_21831)"/>
<path d="M61.8522 12.3008C70.0806 12.3008 76.802 18.4594 76.802 26.0477V55.0152L76.8977 58.0285C76.9695 58.2704 71.7789 57.8965 71.6593 57.4566L71.5636 54.4433V25.4758C71.5636 19.2952 67.1146 14.0604 60.9912 12.3447C61.3021 12.3228 61.5652 12.3008 61.8522 12.3008Z" fill="url(#paint12_linear_3153_21831)"/>
<path d="M45.9176 8.03387C49.7687 5.98833 53.8829 4.97656 58.1884 4.97656C59.9824 4.97656 61.7763 5.17451 63.5703 5.54842C63.5225 5.54842 63.4746 5.54842 63.4268 5.54842C59.1213 5.54842 54.9832 6.58219 51.156 8.60573C35.2256 17.0518 25.3229 32.8003 25.3229 49.6925V84.8406V85.0605C25.3229 85.2804 20.1084 84.8846 20.0845 84.4886V84.2687V49.1206C20.0845 32.2284 29.9872 16.48 45.9176 8.03387Z" fill="url(#paint13_linear_3153_21831)"/>
<path opacity="0.5" d="M70.8594 31.0416V57.3256C68.8023 56.7318 67.4628 55.698 67.391 54.7522V54.7302L67.2954 52.8607V30.4697C67.2954 24.861 63.2768 20.0881 57.7514 18.4824C65.023 18.7464 70.8594 24.2891 70.8594 31.0416Z" fill="url(#paint14_linear_3153_21831)"/>
<g opacity="0.5">
<path d="M42.545 6.40714C44.4585 5.39537 46.42 4.62554 48.4531 4.09766C31.0875 13.6655 20.3237 31.0416 20.3237 49.7154V84.2036C17.8361 83.6537 16.1617 82.488 16.1617 81.4103V81.1903V48.4177C16.1377 31.1296 26.2557 15.0292 42.545 6.40714Z" fill="url(#paint15_linear_3153_21831)"/>
</g>
<path d="M52.8799 6.36633C48.1438 6.36633 43.5752 7.42209 39.3175 9.48962C40.9201 8.38987 42.5944 7.3781 44.3405 6.43231C48.1916 4.38677 52.3058 3.375 56.6113 3.375C68.4994 3.375 81.3203 12.063 81.3203 26.0959V26.1619C77.6606 13.7787 64.8636 6.36633 52.8799 6.36633Z" fill="url(#paint16_linear_3153_21831)"/>
<path d="M30.5906 44.4148C29.7534 37.7723 30.6624 28.3365 39.1778 20.0663C47.1191 12.3461 56.7108 10.3445 61.7578 17.7569C59.5811 16.6131 57.0457 15.9313 54.3428 15.9313C51.7595 15.9313 49.2001 16.5691 46.9277 17.7788C36.8575 23.1016 30.6145 33.0434 30.6145 43.711V44.4148H30.5906Z" fill="url(#paint17_linear_3153_21831)"/>
<path d="M56.077 113.856V127.163L62.5832 123.709V110.402C65.1665 107.741 66.9844 104.002 66.9844 100.791C66.9844 96.3475 63.5639 94.5439 59.354 96.7874C55.1442 99.0309 51.7237 104.464 51.7237 108.907C51.6997 112.14 53.4937 113.944 56.077 113.856Z" fill="#B78C00"/>
<defs>
<linearGradient id="paint0_linear_3153_21831" x1="-0.684903" y1="107.384" x2="99.0872" y2="107.384" gradientUnits="userSpaceOnUse">
<stop stop-color="#FEC303"/>
<stop offset="0.2273" stop-color="#FFEEB6"/>
<stop offset="0.4343" stop-color="#FEC303"/>
</linearGradient>
<linearGradient id="paint1_linear_3153_21831" x1="40.6163" y1="30.1782" x2="50.9227" y2="84.2861" gradientUnits="userSpaceOnUse">
<stop offset="0.0354" stop-color="#FEC303"/>
<stop offset="0.3279" stop-color="#FEC303"/>
<stop offset="0.8925" stop-color="#FFDD70"/>
<stop offset="1" stop-color="#FFEEB5"/>
</linearGradient>
<linearGradient id="paint2_linear_3153_21831" x1="-10.2709" y1="74.4367" x2="114.563" y2="-8.27636" gradientUnits="userSpaceOnUse">
<stop stop-color="#92C1CF"/>
<stop offset="0.6061" stop-color="#C9E3EC"/>
<stop offset="1" stop-color="#EAF4F8"/>
</linearGradient>
<radialGradient id="paint3_radial_3153_21831" cx="0" cy="0" r="1" gradientUnits="userSpaceOnUse" gradientTransform="translate(91.6032 67.2103) rotate(180) scale(56.3481 51.8144)">
<stop stop-color="#FF5F98"/>
<stop offset="0.0152" stop-color="#F75C93"/>
<stop offset="0.132" stop-color="#BE4771"/>
<stop offset="0.252" stop-color="#8B3453"/>
<stop offset="0.3727" stop-color="#602439"/>
<stop offset="0.4942" stop-color="#3E1725"/>
<stop offset="0.6167" stop-color="#230D15"/>
<stop offset="0.7407" stop-color="#0F0609"/>
<stop offset="0.8672" stop-color="#040102"/>
<stop offset="1"/>
</radialGradient>
<radialGradient id="paint4_radial_3153_21831" cx="0" cy="0" r="1" gradientUnits="userSpaceOnUse" gradientTransform="translate(47.0165 97.4839) rotate(180) scale(67.0573 61.6618)">
<stop stop-color="#FF5F98"/>
<stop offset="0.0152" stop-color="#F75C93"/>
<stop offset="0.132" stop-color="#BE4771"/>
<stop offset="0.252" stop-color="#8B3453"/>
<stop offset="0.3727" stop-color="#602439"/>
<stop offset="0.4942" stop-color="#3E1725"/>
<stop offset="0.6167" stop-color="#230D15"/>
<stop offset="0.7407" stop-color="#0F0609"/>
<stop offset="0.8672" stop-color="#040102"/>
<stop offset="1"/>
</radialGradient>
<linearGradient id="paint5_linear_3153_21831" x1="67.0309" y1="39.393" x2="102.452" y2="15.9235" gradientUnits="userSpaceOnUse">
<stop stop-color="#92C1CF"/>
<stop offset="0.6061" stop-color="#C9E3EC"/>
<stop offset="1" stop-color="#EAF4F8"/>
</linearGradient>
<linearGradient id="paint6_linear_3153_21831" x1="21.3556" y1="53.6195" x2="113.701" y2="21.4697" gradientUnits="userSpaceOnUse">
<stop stop-color="#92C1CF"/>
<stop offset="0.6061" stop-color="#C9E3EC"/>
<stop offset="1" stop-color="#EAF4F8"/>
</linearGradient>
<linearGradient id="paint7_linear_3153_21831" x1="54.0195" y1="46.7873" x2="82.055" y2="28.2114" gradientUnits="userSpaceOnUse">
<stop stop-color="#FFE4A7"/>
<stop offset="1"/>
</linearGradient>
<linearGradient id="paint8_linear_3153_21831" x1="-8.24951" y1="70.6626" x2="87.3853" y2="7.29638" gradientUnits="userSpaceOnUse">
<stop stop-color="#FFE4A7"/>
<stop offset="1"/>
</linearGradient>
<linearGradient id="paint9_linear_3153_21831" x1="-8.37365" y1="70.2429" x2="112.084" y2="-9.57038" gradientUnits="userSpaceOnUse">
<stop stop-color="#92C1CF"/>
<stop offset="0.6061" stop-color="#C9E3EC"/>
<stop offset="1" stop-color="#EAF4F8"/>
</linearGradient>
<radialGradient id="paint10_radial_3153_21831" cx="0" cy="0" r="1" gradientUnits="userSpaceOnUse" gradientTransform="translate(91.6032 60.6914) rotate(180) scale(56.3254 51.7935)">
<stop stop-color="#FF5F98"/>
<stop offset="0.0152" stop-color="#F75C93"/>
<stop offset="0.132" stop-color="#BE4771"/>
<stop offset="0.252" stop-color="#8B3453"/>
<stop offset="0.3727" stop-color="#602439"/>
<stop offset="0.4942" stop-color="#3E1725"/>
<stop offset="0.6167" stop-color="#230D15"/>
<stop offset="0.7407" stop-color="#0F0609"/>
<stop offset="0.8672" stop-color="#040102"/>
<stop offset="1"/>
</radialGradient>
<radialGradient id="paint11_radial_3153_21831" cx="0" cy="0" r="1" gradientUnits="userSpaceOnUse" gradientTransform="translate(47.0165 90.714) rotate(180) scale(66.3241 60.9876)">
<stop stop-color="#FF5F98"/>
<stop offset="0.0152" stop-color="#F75C93"/>
<stop offset="0.132" stop-color="#BE4771"/>
<stop offset="0.252" stop-color="#8B3453"/>
<stop offset="0.3727" stop-color="#602439"/>
<stop offset="0.4942" stop-color="#3E1725"/>
<stop offset="0.6167" stop-color="#230D15"/>
<stop offset="0.7407" stop-color="#0F0609"/>
<stop offset="0.8672" stop-color="#040102"/>
<stop offset="1"/>
</radialGradient>
<linearGradient id="paint12_linear_3153_21831" x1="67.4669" y1="36.018" x2="98.512" y2="15.4481" gradientUnits="userSpaceOnUse">
<stop stop-color="#92C1CF"/>
<stop offset="0.6061" stop-color="#C9E3EC"/>
<stop offset="1" stop-color="#EAF4F8"/>
</linearGradient>
<linearGradient id="paint13_linear_3153_21831" x1="21.9416" y1="50.3163" x2="111.619" y2="19.0952" gradientUnits="userSpaceOnUse">
<stop stop-color="#92C1CF"/>
<stop offset="0.6061" stop-color="#C9E3EC"/>
<stop offset="1" stop-color="#EAF4F8"/>
</linearGradient>
<linearGradient id="paint14_linear_3153_21831" x1="55.917" y1="42.5932" x2="79.5762" y2="26.9171" gradientUnits="userSpaceOnUse">
<stop stop-color="#FFE4A7"/>
<stop offset="1"/>
</linearGradient>
<linearGradient id="paint15_linear_3153_21831" x1="-6.3522" y1="66.4688" x2="84.9062" y2="6.00239" gradientUnits="userSpaceOnUse">
<stop stop-color="#FFE4A7"/>
<stop offset="1"/>
</linearGradient>
<linearGradient id="paint16_linear_3153_21831" x1="67.2647" y1="7.30903" x2="61.7257" y2="17.2479" gradientUnits="userSpaceOnUse">
<stop stop-color="#FFE4A7"/>
<stop offset="1"/>
</linearGradient>
<linearGradient id="paint17_linear_3153_21831" x1="29.0085" y1="24.4053" x2="94.6946" y2="49.1837" gradientUnits="userSpaceOnUse">
<stop stop-color="#FFE4A7"/>
<stop offset="1"/>
</linearGradient>
</defs>
</svg>
