<svg width="47" height="47" viewBox="0 0 47 47" fill="none" xmlns="http://www.w3.org/2000/svg">
<path d="M17.4952 33.351C21.3518 30.3508 25.1144 27.4279 28.8634 24.5013C29.3239 24.8589 29.7845 25.2166 30.245 25.5742C29.8373 26.768 29.6784 28.153 28.9708 29.1273C25.434 34.0214 21.8089 38.8626 18.0892 43.6198C15.9999 46.281 14.047 47.5586 11.4186 43.6259C8.26314 38.9006 4.39292 34.6572 0.836799 30.1978C1.24606 29.6266 1.66031 29.0641 2.0609 28.498C4.81949 29.896 7.58674 31.289 10.4696 32.7423C10.4859 20.2505 10.7257 7.52586 25.1292 1.77344C32.4146 -1.12796 42.2567 -0.320899 46.3461 3.84214C42.8166 4.5289 39.9634 5.28706 37.0698 5.59515C31.2825 6.21133 24.7133 5.5931 21.1521 11.1248C16.8666 17.8022 16.0289 25.4912 17.4952 33.351Z" fill="#ECECEC"/>
</svg>
