<svg width="105" height="90" viewBox="0 0 105 90" fill="none" xmlns="http://www.w3.org/2000/svg">
<rect x="0.242188" y="58.7148" width="17.3125" height="5.1875" rx="2.59375" fill="#FFC54D"/>
<rect x="5.19531" y="49.1387" width="15.9922" height="4.83203" rx="2.41602" fill="#FFC54D"/>
<rect x="12.8359" y="66.3066" width="10.7188" height="4.83203" rx="2.41602" fill="#FFC54D"/>
<path d="M87.4165 41.6407C86.7464 41.6407 86.0669 41.6779 85.3967 41.7617L83.3583 35.6463C85.0244 35.3485 86.7836 35.1344 88.3752 35.0134C89.9948 38.4573 97.1992 40.1048 97.497 34.9203V28.1907C97.1619 22.9038 89.79 24.7188 88.2635 28.2838C85.9924 28.4327 83.7213 28.7305 81.4781 29.1494L81.2081 29.2052L79.4582 23.9463C78.5647 21.2656 76.8613 18.9386 74.5716 17.2818C72.2818 15.6343 69.5266 14.75 66.7063 14.75H60.5259C59.6323 14.75 58.7853 15.1037 58.1523 15.7366C57.5194 16.3603 57.1657 17.2166 57.1657 18.1102C57.1657 19.0037 57.5194 19.8601 58.1523 20.4837C58.7853 21.1166 59.6323 21.4703 60.5259 21.4703H66.7063C68.1211 21.4703 69.4987 21.9171 70.6436 22.7362C71.7885 23.5646 72.6448 24.7281 73.0916 26.0685L74.9532 31.6439C73.436 32.5468 72.0491 33.6544 70.8204 34.9203H53.2191C52.521 32.9563 51.2365 31.253 49.5332 30.0523C47.8391 28.8422 45.8007 28.2 43.725 28.1907H33.6352C32.7509 28.1907 31.8946 28.5444 31.2617 29.1773C30.6287 29.8103 30.275 30.6666 30.275 31.5602C30.275 32.4444 30.6287 33.3007 31.2617 33.9337C31.8946 34.5666 32.7509 34.9203 33.6352 34.9203H43.725C44.3486 34.911 44.963 35.0786 45.4935 35.4136C46.0241 35.7394 46.4522 36.2141 46.7315 36.7726C46.9363 37.1915 47.0573 37.6382 47.0852 38.1036C47.02 38.8762 46.7873 39.6208 46.415 40.291L44.935 42.2643C42.4312 41.5755 39.8064 41.4731 37.2653 41.9571C34.7149 42.4505 32.3135 43.5116 30.2471 45.0846C28.1807 46.6483 26.5053 48.6682 25.3418 50.9858C24.1783 53.3035 23.5733 55.8539 23.5547 58.4415C23.9363 79.161 53.6938 81.1808 56.9888 60.8895C59.3251 59.9773 61.3729 58.4322 62.8808 56.431L74.4785 40.9705C75.3162 40.0211 76.2098 39.1182 77.1499 38.2805L79.0114 43.8932C75.8467 45.7641 73.3801 48.6216 71.9933 52.0283C70.6064 55.435 70.3644 59.2048 71.3231 62.7604C72.2725 66.316 74.3575 69.4528 77.2709 71.7146C80.1749 73.9672 83.7399 75.2144 87.4165 75.2517C109.625 74.5443 109.625 42.3388 87.4165 41.6407ZM46.1823 66.679C44.479 67.8798 42.4498 68.5313 40.3648 68.5313C37.6842 68.5313 35.1245 67.4702 33.235 65.5714C31.3361 63.6819 30.275 61.1222 30.275 58.4415C30.275 55.7701 31.3361 53.2104 33.235 51.3116C35.1245 49.4221 37.6842 48.361 40.3648 48.361L38.345 51.051C37.5911 52.0469 37.135 53.2384 37.0233 54.4763C36.9116 55.7236 37.1536 56.9708 37.7121 58.0878C38.2706 59.2048 39.1269 60.1449 40.188 60.8057C41.2491 61.4573 42.4777 61.811 43.725 61.811H49.8683C49.1702 63.775 47.8857 65.4783 46.1823 66.679ZM57.5008 52.3913C56.8771 53.2291 56.058 53.9085 55.1272 54.3739C54.1965 54.8393 53.1726 55.0813 52.1208 55.0813H43.725L51.7857 44.3307C52.4 43.5116 52.8933 42.5994 53.2377 41.6407H65.5708L57.5008 52.3913ZM94.5743 65.6365C92.6662 67.5168 90.0879 68.5499 87.4165 68.5313C85.3315 68.5034 83.3024 67.8332 81.6177 66.6046C79.9236 65.3852 78.6577 63.6633 77.9783 61.69C77.2988 59.7167 77.2429 57.5852 77.8293 55.584C78.4064 53.5734 79.5978 51.8049 81.2267 50.4925L84.2332 59.5119C84.3728 59.9308 84.5869 60.3124 84.8848 60.6475C85.1733 60.9826 85.5177 61.2525 85.9179 61.4573C86.3089 61.6527 86.7464 61.7737 87.1838 61.8017C87.6213 61.8296 88.0681 61.7738 88.4869 61.6434C88.9058 61.5038 89.2967 61.2804 89.6318 60.9919C89.9576 60.7033 90.2368 60.3496 90.4323 59.9494C90.6278 59.5585 90.7488 59.1303 90.7767 58.6835C90.8139 58.246 90.7581 57.7993 90.6185 57.3804L87.6027 48.361C90.2741 48.3889 92.8244 49.4686 94.7047 51.3768C96.5755 53.2849 97.618 55.8632 97.5901 58.5346C97.5715 61.2153 96.4825 63.7656 94.5743 65.6365Z" fill="#9E9E9E"/>
</svg>
