<svg width="10" height="16" viewBox="0 0 10 16" fill="none" xmlns="http://www.w3.org/2000/svg">
<path d="M8.39452 15.8743C8.03239 15.7203 7.86782 15.4274 7.83456 15.0579C7.78788 14.539 7.84782 14.019 7.83625 13.4992C7.82074 12.7987 7.8663 12.0978 7.83231 11.3976C7.77735 10.2652 7.23644 9.41152 6.28477 8.80146C6.07337 8.66593 5.82951 8.66012 5.5891 8.65988C4.5697 8.65869 3.5503 8.66132 2.53098 8.66219C2.48213 8.66227 2.43327 8.65909 2.38442 8.65734C2.37422 8.64931 2.36401 8.63443 2.35365 8.63435C2.1359 8.63213 1.91638 8.61399 1.7008 8.63507C1.4252 8.66203 1.25389 8.88553 1.29037 9.1364C1.35859 9.60559 1.37474 10.0787 1.3917 10.5509C1.40897 11.0334 1.37386 11.5146 1.31834 11.995C1.26739 12.4357 1.18447 12.8682 1.05728 13.2933C0.883081 13.8757 0.597837 14.4054 0.289855 14.9264C0.175598 15.1196 0.0711447 15.3261 0.213605 15.5564C0.223649 15.5726 0.215934 15.5995 0.216497 15.6214C0.0462351 15.4365 0.00774775 15.206 0.0058997 14.971C-0.000447952 14.1648 -4.60451e-05 13.3585 3.43049e-05 12.5522C0.000195005 10.8207 0.00124065 9.08915 0.00316905 7.35768C0.00365115 6.9176 0.275637 6.65544 0.723106 6.65823C0.874244 6.65918 1.02538 6.66125 1.1766 6.66276C1.17789 6.78509 1.22834 6.88228 1.3242 6.95959C1.47221 7.07898 1.65452 7.08105 1.82735 7.08996C2.09813 7.10396 2.37028 7.09592 2.64178 7.09155C3.10837 7.08399 3.57143 7.12289 4.02846 7.21086C4.70838 7.34178 5.34676 7.58612 5.94545 7.93195C6.59002 8.30427 7.16573 8.75923 7.64341 9.3288C8.07111 9.83872 8.40489 10.4057 8.66538 11.0161C8.98043 11.7543 9.1474 12.5258 9.1936 13.3231C9.21272 13.6524 9.19569 13.9823 9.14121 14.3089C9.06159 14.7864 8.92869 15.2433 8.61379 15.6296C8.58784 15.6614 8.54679 15.6916 8.55506 15.7433L8.55562 15.7428C8.53521 15.7432 8.50243 15.7335 8.52959 15.7735C8.49327 15.8184 8.41903 15.8137 8.39452 15.8743Z" fill="#333333"/>
<path d="M7.32008 6.99022C7.0902 6.88595 6.86458 6.773 6.62521 6.68917C6.50622 6.64749 6.49947 6.55467 6.60858 6.46885C6.76607 6.34493 6.90733 6.20502 7.04593 6.06193C7.73228 5.35372 7.86213 4.52764 7.522 3.63259C7.26456 2.95525 6.7733 2.46545 6.12512 2.13131C5.97229 2.05249 5.81031 2.012 5.63804 2.01192C4.56094 2.01152 3.48385 2.00969 2.40676 2.01152C2.1404 2.012 1.95881 2.19844 1.95021 2.46219C1.94097 2.74797 1.98107 3.03614 1.9302 3.31929C1.84077 3.8168 1.48297 4.12263 1.00473 4.12621C0.524801 4.12979 0.140327 3.82022 0.0353092 3.34156C0.0165073 3.25598 0.0027667 3.16737 0.0024453 3.08012C-0.000366952 2.27384 -0.000204447 1.46748 0.000277653 0.661203C0.000438353 0.456631 0.0719506 0.283635 0.242132 0.158203C0.483584 0.161226 0.725113 0.164169 0.966565 0.167191C0.906142 0.370173 0.972189 0.502126 1.177 0.561541C1.3504 0.611889 1.53159 0.603219 1.70522 0.572358C2.03675 0.513421 2.37052 0.472936 2.70558 0.458301C3.13545 0.439609 3.56557 0.46021 3.9944 0.505388C4.66267 0.575779 5.29896 0.743048 5.88616 1.07743C6.63293 1.50264 7.16461 2.11524 7.50601 2.89193C7.69974 3.33265 7.82171 3.79286 7.86212 4.27479C7.89884 4.71272 7.90037 5.14748 7.84051 5.58414C7.82275 5.71379 7.74256 5.84058 7.80017 5.97834C7.73959 6.18864 7.66141 6.39201 7.55374 6.58338C7.47717 6.71939 7.3981 6.85453 7.32008 6.99022Z" fill="#1528A3"/>
<path d="M0.966624 0.168573C0.725092 0.165631 0.483639 0.162608 0.242188 0.159586C0.353553 0.0528453 0.490792 0.0068726 0.641529 0.00695214C2.1906 0.00719076 3.74006 -0.0141257 5.28849 0.0167352C7.24895 0.055868 9.05506 1.32705 9.49377 3.40196C9.73257 4.53165 9.62409 5.63771 9.03585 6.66415C8.85201 6.98485 8.59425 7.24867 8.33399 7.50884C8.24328 7.59952 8.14542 7.60381 8.04964 7.52165C7.82088 7.32535 7.5738 7.15426 7.32006 6.99192C7.39808 6.85623 7.47714 6.7211 7.55388 6.58469C7.66155 6.39332 7.73965 6.18994 7.80031 5.97964C8.02143 5.19142 8.06964 4.39229 7.90693 3.59055C7.69939 2.56785 7.17808 1.71909 6.34268 1.08525C5.50624 0.450616 4.54541 0.140894 3.48688 0.141928C2.70331 0.142644 1.91974 0.14169 1.13624 0.140338C1.07718 0.140179 1.02118 0.147496 0.966624 0.168573ZM5.79124 0.24334C5.66565 0.235306 5.54208 0.245249 5.42018 0.272212C5.36852 0.283586 5.30777 0.293289 5.29797 0.356363C5.28817 0.419835 5.35004 0.4328 5.39214 0.451014C5.44863 0.475432 5.50833 0.494203 5.56827 0.508918C5.74536 0.552346 5.91964 0.605238 6.08114 0.68939C6.53865 0.927766 6.91445 1.26119 7.25891 1.6421C7.80931 2.25081 8.07752 2.95567 8.06964 3.76704C8.06691 4.04869 8.09511 4.32882 8.105 4.60967C8.11207 4.81186 8.12549 5.02049 8.19965 5.21711C8.27622 5.42017 8.39651 5.4659 8.57721 5.33705C8.85137 5.14163 9.03762 4.86618 9.24067 4.60538C9.39076 4.41258 9.44708 4.19345 9.427 3.96295C9.39341 3.57663 9.28839 3.20574 9.12287 2.85204C8.69854 1.94522 8.13754 1.15119 7.23232 0.654314C6.78694 0.409575 6.3099 0.247157 5.79124 0.24334Z" fill="#1A59E2"/>
<path d="M0.220346 15.6214C0.219784 15.5995 0.227418 15.5726 0.217455 15.5564C0.074994 15.3261 0.179447 15.1197 0.293705 14.9264C0.601686 14.4055 0.886931 13.8757 1.06113 13.2933C1.18832 12.8682 1.27124 12.4357 1.32218 11.995C1.37771 11.5146 1.4129 11.0334 1.39555 10.5509C1.37859 10.0787 1.36244 9.60562 1.29422 9.13642C1.25774 8.88556 1.42897 8.66205 1.70465 8.63509C1.92023 8.61401 2.13975 8.63215 2.3575 8.63437C2.36786 8.63445 2.37799 8.64941 2.38827 8.65736C2.04638 8.75312 1.95985 8.86933 1.95985 9.2329C1.95985 11.1526 1.95985 13.0724 1.95985 14.9922C1.95985 15.5442 1.62567 15.9359 1.07583 15.9937C0.805457 16.0221 0.549782 15.9516 0.355897 15.7391C0.344006 15.7321 0.332114 15.7251 0.320223 15.7181C0.313955 15.7134 0.307607 15.7088 0.301339 15.7041C0.303348 15.6578 0.28045 15.6364 0.234168 15.6385C0.229588 15.6329 0.224926 15.6271 0.220346 15.6214Z" fill="#4D4D4D"/>
<path d="M8.39463 15.8744C8.41914 15.8138 8.49338 15.8185 8.52978 15.7734C8.53846 15.7632 8.54713 15.753 8.55581 15.7427L8.55525 15.7433C8.7738 15.6407 8.86886 15.4402 8.95178 15.2364C9.22232 14.5711 9.33352 13.8834 9.28274 13.1631C9.25245 12.733 9.19468 12.3111 9.08934 11.8945C9.01301 11.5926 8.901 11.3021 8.79052 11.0113C8.8638 11.0022 8.86235 10.9374 8.87151 10.891C8.94639 10.5112 8.9709 10.1315 8.90638 9.74483C8.74954 8.8054 8.26969 8.07007 7.48595 7.53136C7.09183 7.26045 6.6528 7.09207 6.16918 7.03608C5.76156 6.98891 5.36608 7.01882 4.94866 7.13653C5.01447 7.16167 5.05472 7.17845 5.09594 7.19261C5.42015 7.3042 5.72813 7.45206 6.02455 7.62084C6.73597 8.02585 7.31055 8.58079 7.78759 9.23682C7.86585 9.34444 7.97689 9.43686 7.99288 9.58217C7.97296 9.56507 7.94853 9.55115 7.93366 9.53047C7.62632 9.10288 7.2576 8.73239 6.85914 8.38862C6.38371 7.97844 5.85822 7.6482 5.28878 7.37952C4.53108 7.022 3.73762 6.79484 2.90584 6.69454C2.87314 6.69056 2.84309 6.68945 2.83594 6.64968C3.71199 6.63934 4.59014 6.57666 5.46322 6.67823C7.19356 6.87947 8.36434 7.8523 9.13964 9.34714C9.38671 9.82357 9.51182 10.3361 9.57345 10.8685C9.67573 11.7515 9.65814 12.636 9.63001 13.5208C9.62005 13.8341 9.66055 14.1449 9.64825 14.4577C9.63821 14.7128 9.63001 14.9676 9.59731 15.2212C9.55279 15.5664 9.23799 15.8717 8.8699 15.9281C8.70526 15.9533 8.54553 15.9578 8.39463 15.8744Z" fill="#4D4D4D"/>
<path d="M4.71115 10.8189L4.71742 10.8161L4.7216 10.8216C4.76024 10.8172 4.79889 10.8129 4.83754 10.8086C5.45045 10.8249 5.87092 11.3657 5.72669 11.9511C5.70082 12.0562 5.6535 12.1512 5.57845 12.2277C5.43904 12.3698 5.40754 12.536 5.43125 12.7265C5.49802 13.2639 5.60119 13.7953 5.68443 14.33C5.7013 14.4385 5.71376 14.5476 5.72814 14.6565C5.67792 14.7352 5.59854 14.7385 5.51666 14.7383C5.18755 14.7378 4.85851 14.7383 4.5294 14.7382C4.21555 14.7381 4.12773 14.6252 4.21073 14.3286C4.21668 14.3075 4.22543 14.2871 4.23098 14.2659C4.35986 13.7696 4.50385 13.2763 4.5707 12.7666C4.59288 12.5974 4.56676 12.4491 4.40566 12.3257C3.95787 11.9825 3.91986 11.4502 4.29405 11.0359C4.31141 11.0167 4.33503 11.0003 4.32515 10.9687C4.32515 10.9687 4.32772 10.9673 4.3278 10.9674C4.37786 10.9865 4.40381 10.9681 4.40871 10.9167L4.4104 10.9248C4.42125 10.916 4.43201 10.9071 4.44278 10.8982L4.44013 10.9006C4.47163 10.8998 4.50714 10.9087 4.52144 10.867C4.52144 10.867 4.51839 10.8713 4.51847 10.8713C4.55134 10.8742 4.5854 10.8804 4.60236 10.8406C4.60236 10.8406 4.59938 10.8461 4.59946 10.8461C4.63827 10.8436 4.68191 10.8602 4.71115 10.8189Z" fill="#1A59E2"/>
<path d="M2.83875 6.64905C2.84591 6.68882 2.87595 6.69002 2.90866 6.69391C3.74044 6.79421 4.5339 7.02137 5.2916 7.3789C5.86104 7.64758 6.38645 7.97782 6.86196 8.388C7.26049 8.73184 7.62914 9.10225 7.93648 9.52985C7.95134 9.55053 7.97577 9.56445 7.9957 9.58147C8.08706 9.72551 8.17672 9.87067 8.27017 10.0134C8.47707 10.3292 8.62058 10.6774 8.79341 11.0107C8.90389 11.3015 9.0159 11.592 9.09223 11.8939C9.19757 12.3105 9.25527 12.7324 9.28564 13.1625C9.33642 13.8828 9.22521 14.5704 8.95467 15.2358C8.87175 15.4396 8.7767 15.64 8.55815 15.7427C8.54979 15.691 8.59093 15.6607 8.61688 15.6289C8.93177 15.2427 9.06467 14.7857 9.1443 14.3082C9.19878 13.9817 9.21573 13.6518 9.19669 13.3224C9.15049 12.5251 8.98344 11.7537 8.66847 11.0155C8.40797 10.405 8.0742 9.83814 7.6465 9.32814C7.16882 8.75857 6.59311 8.30361 5.94854 7.93129C5.34977 7.58546 4.71139 7.34104 4.03155 7.2102C3.57452 7.12223 3.11146 7.08333 2.64487 7.09089C2.37336 7.09526 2.10122 7.1033 1.83044 7.0893C1.65761 7.08039 1.47529 7.07824 1.32729 6.95894C1.23143 6.88162 1.18097 6.78443 1.17969 6.6621C1.3285 6.63211 1.47907 6.64985 1.6286 6.64874C2.03204 6.64579 2.4354 6.64858 2.83875 6.64905Z" fill="#010101"/>
<path d="M4.31766 10.9688C4.32762 11.0003 4.304 11.0167 4.28656 11.036C3.91229 11.4503 3.95038 11.9825 4.39817 12.3258C4.55927 12.4492 4.58538 12.5975 4.56321 12.7666C4.49636 13.2763 4.35237 13.7696 4.22349 14.2659C4.21795 14.2872 4.20919 14.3075 4.20324 14.3287C4.12024 14.6253 4.20798 14.7381 4.52191 14.7382C4.85102 14.7383 5.18005 14.7379 5.50917 14.7384C5.59104 14.7385 5.67043 14.7352 5.72065 14.6565C5.73559 14.8203 5.653 14.9204 5.48233 14.9246C5.22023 14.9309 4.95797 14.9274 4.69579 14.9279C4.53581 14.9282 4.37575 14.9302 4.21577 14.9273C3.99979 14.9235 3.90313 14.8263 3.92804 14.6117C3.95737 14.3591 4.0067 14.1088 4.04696 13.8574C4.10457 13.4977 4.1617 13.1379 4.21915 12.7782C4.25418 12.5584 4.20469 12.3732 4.05459 12.1935C3.75706 11.8378 3.90667 11.188 4.31766 10.9688Z" fill="#1528A3"/>
<path d="M4.40904 10.916C4.40413 10.9673 4.3781 10.9858 4.32812 10.9668C4.34235 10.9297 4.37513 10.922 4.40904 10.916Z" fill="#1528A3"/>
<path d="M4.8347 10.8079C4.79605 10.8122 4.7574 10.8165 4.71875 10.8208C4.75418 10.7885 4.79516 10.8041 4.8347 10.8079Z" fill="#1528A3"/>
<path d="M4.71325 10.8184C4.68392 10.8596 4.64037 10.843 4.60156 10.8454C4.63153 10.807 4.67589 10.8269 4.71325 10.8184Z" fill="#1528A3"/>
<path d="M0.234375 15.6388C0.280657 15.6367 0.303475 15.6581 0.301547 15.7044C0.279129 15.6826 0.256793 15.6607 0.234375 15.6388Z" fill="#333333"/>
<path d="M4.59951 10.8418C4.58256 10.8815 4.54849 10.8754 4.51562 10.8725C4.53523 10.8399 4.5697 10.847 4.59951 10.8418Z" fill="#1528A3"/>
<path d="M4.51882 10.8672C4.50451 10.9088 4.469 10.9 4.4375 10.9008C4.45686 10.8712 4.4886 10.8711 4.51882 10.8672Z" fill="#1528A3"/>
<path d="M0.3125 15.7188C0.324436 15.7257 0.336371 15.7327 0.348306 15.7397C0.329354 15.7443 0.319919 15.7332 0.3125 15.7188Z" fill="#333333"/>
<path d="M4.43917 10.8984C4.42836 10.9073 4.41754 10.9162 4.40664 10.925C4.40309 10.8991 4.42432 10.9025 4.43917 10.8984Z" fill="#1528A3"/>
<path d="M8.55993 15.7429C8.55122 15.7532 8.54251 15.7633 8.5338 15.7736C8.50654 15.7337 8.53936 15.7434 8.55993 15.7429Z" fill="#010101"/>
<path d="M0.974569 0.168863C1.02913 0.147785 1.08513 0.140468 1.14403 0.140628C1.9276 0.142059 2.71117 0.143013 3.49466 0.142218C4.5532 0.141263 5.51402 0.450906 6.35047 1.08554C7.18587 1.71938 7.70717 2.56813 7.91472 3.59084C8.07743 4.39258 8.02922 5.19171 7.80809 5.97993C7.75048 5.84217 7.83067 5.71546 7.84843 5.58574C7.90821 5.14907 7.90676 4.71432 7.87004 4.27638C7.82963 3.79446 7.70774 3.33433 7.51393 2.89353C7.17253 2.11683 6.64085 1.50423 5.89408 1.07902C5.30688 0.744641 4.67059 0.577372 4.00232 0.50698C3.57349 0.461803 3.14338 0.441123 2.7135 0.459894C2.37844 0.47445 2.04467 0.515014 1.71315 0.573952C1.53951 0.604813 1.35832 0.613482 1.18492 0.563135C0.980272 0.503799 0.914226 0.371845 0.974569 0.168863Z" fill="#0A1870"/>
<path d="M5.79102 0.244924C6.3096 0.248742 6.78672 0.411239 7.23226 0.655819C8.1374 1.15269 8.69848 1.9468 9.12281 2.85354C9.28833 3.20725 9.39335 3.57813 9.42694 3.96445C9.44702 4.19495 9.3907 4.41416 9.24061 4.60688C9.03756 4.86769 8.85131 5.14313 8.57715 5.33855C8.39645 5.46741 8.27616 5.42167 8.19959 5.21861C8.12543 5.02191 8.11201 4.81328 8.10494 4.61118C8.09505 4.33033 8.06677 4.05019 8.06958 3.76855C8.07754 2.95726 7.80925 2.25239 7.25885 1.6436C6.91447 1.2627 6.53859 0.929272 6.08108 0.690896C5.91958 0.606744 5.7453 0.55393 5.56821 0.510423C5.50827 0.495708 5.44857 0.477016 5.39208 0.452519C5.34998 0.434304 5.28811 0.42134 5.29791 0.357869C5.30763 0.294716 5.36838 0.285091 5.42012 0.273717C5.54193 0.246833 5.66543 0.236811 5.79102 0.244924Z" fill="#3774F9"/>
<path d="M8.78725 11.0123C8.61442 10.6791 8.47083 10.3309 8.26401 10.015C8.17056 9.87227 8.08089 9.72712 7.98953 9.58307C7.97354 9.43776 7.8625 9.34533 7.78424 9.23772C7.30728 8.58169 6.73262 8.02675 6.0212 7.62174C5.72479 7.45296 5.41681 7.3051 5.09259 7.19351C5.05146 7.17935 5.0112 7.16257 4.94531 7.13743C5.36273 7.01971 5.75822 6.98981 6.16583 7.03698C6.64946 7.09297 7.08849 7.26135 7.48261 7.53226C8.26634 8.07105 8.74619 8.8063 8.90303 9.74573C8.96755 10.1324 8.94305 10.5121 8.86816 10.8919C8.859 10.9384 8.86053 11.0031 8.78725 11.0123Z" fill="#656565"/>
</svg>
