<svg width="91" height="91" viewBox="0 0 91 91" fill="none" xmlns="http://www.w3.org/2000/svg">
<path d="M76.8617 36.2636L70.5273 18.8475C69.2602 15.3577 65.913 13.0117 62.2015 13.0117H29.1213C25.4084 13.0117 22.0612 15.3549 20.7941 18.8475L14.4597 36.2636C11.6415 44.0147 10.2109 52.1314 10.2109 60.3796V66.1933H16.1202V78.0117H33.8464V60.2855H16.1202C16.1257 56.2998 16.5218 52.3529 17.2488 48.467H22.028V54.3762H27.9372V48.467H36.6438C37.7157 46.3136 39.066 44.3318 40.6586 42.5592H18.6628C19.0741 41.1259 19.4992 39.6925 20.013 38.2841L26.3446 20.8681C26.767 19.7034 27.8846 18.9237 29.1185 18.9237H62.2057C63.4424 18.9237 64.5572 19.7062 64.9796 20.8681L70.3445 35.6252C73.2666 36.8009 75.9186 38.4849 78.2175 40.5622C77.7951 39.1233 77.3783 37.6817 76.8617 36.2636ZM22.028 66.1933H27.9372V72.1025H22.028V66.1933Z" fill="#9E9E9E"/>
<path d="M69.4049 52.1017C70.3599 53.0967 70.3299 54.68 69.3332 55.6367L61.6582 63.01C60.5449 64.1083 59.0716 64.6583 57.5949 64.6583C56.1182 64.6583 54.6382 64.1083 53.5099 63.0067L50.9316 60.6933C49.9049 59.77 49.8199 58.19 50.7432 57.1633C51.6666 56.1383 53.2432 56.05 54.2749 56.975L56.9282 59.3583C57.3232 59.7417 57.8532 59.745 58.1716 59.4283L65.8716 52.0317C66.8666 51.075 68.4449 51.1033 69.4049 52.1017ZM80.1016 58C80.1016 69.0283 71.1299 78 60.1016 78C49.0732 78 40.1016 69.0283 40.1016 58C40.1016 46.9717 49.0732 38 60.1016 38C71.1299 38 80.1016 46.9717 80.1016 58ZM75.1016 58C75.1016 49.73 68.3732 43 60.1016 43C51.8299 43 45.1016 49.73 45.1016 58C45.1016 66.27 51.8299 73 60.1016 73C68.3732 73 75.1016 66.27 75.1016 58Z" fill="#FFC54D"/>
</svg>
