<svg width="91" height="90" viewBox="0 0 91 90" fill="none" xmlns="http://www.w3.org/2000/svg">
<path d="M59.2421 12.5H32.1556C24.6922 12.5 18.625 18.5672 18.625 26.0433V63.9567C18.625 71.4201 24.7049 77.5 32.1683 77.5H59.2421C66.7055 77.5 72.7853 71.4328 72.7853 63.9567V26.0433C72.7726 18.5672 66.7055 12.5 59.2421 12.5ZM67.3655 63.9441C67.3655 68.4246 63.7226 72.0675 59.2421 72.0675H32.1556C27.675 72.0675 24.0321 68.4246 24.0321 63.9441V26.0433C24.0321 21.5627 27.675 17.9198 32.1556 17.9198H59.2294C63.7099 17.9198 67.3528 21.5627 67.3528 26.0433V63.9441H67.3655Z" fill="#9E9E9E"/>
<path d="M36.218 65.3031C38.4612 65.3031 40.2797 63.4846 40.2797 61.2414C40.2797 58.9982 38.4612 57.1797 36.218 57.1797C33.9747 57.1797 32.1562 58.9982 32.1562 61.2414C32.1562 63.4846 33.9747 65.3031 36.218 65.3031Z" fill="#9E9E9E"/>
<path d="M59.2415 61.2407C59.2415 62.7384 58.023 63.9443 56.5379 63.9443H48.4145C46.9168 63.9443 45.7109 62.7384 45.7109 61.2407C45.7109 59.7429 46.9294 58.5371 48.4145 58.5371H56.5379C58.023 58.5371 59.2415 59.7429 59.2415 61.2407Z" fill="#9E9E9E"/>
<path d="M59.2411 44.9946C59.2411 46.4923 58.0225 47.6982 56.5375 47.6982H51.1176C49.6199 47.6982 48.4141 46.4923 48.4141 44.9946C48.4141 43.4968 49.6326 42.291 51.1176 42.291H56.5375C58.0225 42.291 59.2411 43.4968 59.2411 44.9946Z" fill="#9E9E9E"/>
<path d="M59.2415 28.7465C59.2415 30.2443 58.023 31.4501 56.5379 31.4501H48.4145C46.9168 31.4501 45.7109 30.2443 45.7109 28.7465C45.7109 27.2488 46.9294 26.043 48.4145 26.043H56.5379C58.023 26.043 59.2415 27.2488 59.2415 28.7465Z" fill="#9E9E9E"/>
<path d="M36.218 32.809C38.4612 32.809 40.2797 30.9905 40.2797 28.7473C40.2797 26.504 38.4612 24.6855 36.218 24.6855C33.9747 24.6855 32.1562 26.504 32.1562 28.7473C32.1562 30.9905 33.9747 32.809 36.218 32.809Z" fill="#9E9E9E"/>
<path d="M44.872 44.2325L39.8329 49.1192C38.9698 49.9823 37.8275 50.4139 36.6851 50.4139C35.5301 50.4139 34.3623 49.9696 33.4865 49.0938L31.646 47.3168C30.5672 46.276 30.5291 44.5625 31.5699 43.4836C32.6107 42.4047 34.3242 42.3666 35.4031 43.4074L36.6851 44.6386L41.1276 40.3358C42.2065 39.295 43.92 39.3203 44.9608 40.3992C45.9763 41.4781 45.9509 43.1917 44.872 44.2325Z" fill="#FFC54D"/>
</svg>
