<svg width="91" height="91" viewBox="0 0 91 91" fill="none" xmlns="http://www.w3.org/2000/svg">
<path d="M66.9676 28.0004V28.0029L57.5283 18.5636C53.9481 14.9834 49.1871 13.0117 44.1215 13.0117H31.8929C24.4265 13.0092 18.3516 19.0841 18.3516 26.5518V64.4691C18.3516 71.9368 24.4265 78.0117 31.8929 78.0117H58.9781C66.4445 78.0117 72.5195 71.9368 72.5195 64.4691V41.4072C72.5195 36.3428 70.5478 31.5831 66.9676 28.0004ZM50.8528 20.2115C51.8787 20.8019 52.8372 21.5293 53.6967 22.3914L63.1348 31.8307L63.1373 31.8333C63.9993 32.694 64.7281 33.65 65.3184 34.6771H53.5608C52.0691 34.6771 50.8528 33.4609 50.8528 31.9678V20.2115ZM67.1035 64.4691C67.1035 68.9495 63.4572 72.5944 58.9781 72.5944H31.8929C27.4138 72.5944 23.7676 68.9495 23.7676 64.4691V26.5518C23.7676 22.0714 27.4138 18.4265 31.8929 18.4265H44.1215C44.5633 18.4265 45.0026 18.4481 45.4355 18.4887V31.9678C45.4355 36.4482 49.0805 40.0931 53.5608 40.0931H67.0413C67.0819 40.5273 67.1035 40.9654 67.1035 41.4072V64.4691Z" fill="#9E9E9E"/>
<path d="M40.0208 29.2608C40.0208 30.7563 38.8084 31.9688 37.3128 31.9688H31.8955C30.4012 31.9688 29.1875 30.7563 29.1875 29.2608C29.1875 27.7652 30.4012 26.5527 31.8955 26.5527H37.3128C38.8084 26.5527 40.0208 27.7652 40.0208 29.2608Z" fill="#9E9E9E"/>
<path d="M40.0208 40.0928C40.0208 41.5883 38.8084 42.8021 37.3128 42.8021H31.8955C30.4012 42.8021 29.1875 41.5883 29.1875 40.0928C29.1875 38.5985 30.4012 37.3848 31.8955 37.3848H37.3128C38.8084 37.3848 40.0208 38.5985 40.0208 40.0928Z" fill="#9E9E9E"/>
<path d="M42.0493 53.3808H33.4985L35.7328 47.4858C35.9863 46.8241 36.434 46.2547 37.0171 45.8521C37.6002 45.4496 38.2914 45.2329 38.9999 45.2305H42.0493V53.3808ZM44.378 53.3808H54.6533L50.0134 46.7266C49.6916 46.2649 49.2631 45.8876 48.7642 45.6271C48.2652 45.3666 47.7108 45.2306 47.148 45.2305H44.378V53.3808ZM59.5144 59.2025C59.5144 58.2761 59.1463 57.3876 58.4913 56.7326C57.8362 56.0775 56.9478 55.7095 56.0214 55.7095H35.0633C34.1369 55.7095 33.2485 56.0775 32.5934 56.7326C31.9383 57.3876 31.5703 58.2761 31.5703 59.2025V63.8598H59.5144V59.2025ZM40.8175 66.1885C41.5009 70.7923 34.4462 70.79 35.1309 66.1885H40.8175ZM50.2672 66.1885C49.5837 70.7923 56.6385 70.79 55.9538 66.1885H50.2672Z" fill="#FFC54D"/>
</svg>
