<svg width="231" height="287" viewBox="0 0 231 287" fill="none" xmlns="http://www.w3.org/2000/svg">
<path d="M105.542 248.709V268.833C105.542 271.813 104.69 273.371 103.96 273.784C103.23 274.21 101.466 274.174 98.8742 272.677C91.9513 268.687 85.8801 258.162 85.8801 250.169V237.333C85.8801 233.841 83.0452 231.006 79.5533 231.006C76.0614 231.006 73.2266 233.841 73.2266 237.333V250.169C73.2266 262.676 81.7068 277.374 92.5475 283.627C96.0272 285.635 99.5799 286.657 102.914 286.657C105.554 286.657 108.06 286.024 110.275 284.735C115.299 281.839 118.183 276.035 118.183 268.82V248.696H105.542V248.709Z" fill="#A9A9A9"/>
<path d="M104.915 74.1092L105.42 253.671C105.42 254.607 106.036 255.543 107.267 256.258C109.755 257.699 113.795 257.699 116.295 256.258C117.552 255.531 118.18 254.583 118.18 253.634L117.675 74.0723C117.675 75.0206 117.047 75.969 115.79 76.6957C113.29 78.1367 109.25 78.1367 106.762 76.6957C105.531 75.9813 104.915 75.0453 104.915 74.1092Z" fill="#D0D0DA"/>
<mask id="mask0_5865_20933" style="mask-type:luminance" maskUnits="userSpaceOnUse" x="104" y="74" width="15" height="184">
<path d="M104.915 74.1112L105.42 253.673C105.42 254.609 106.036 255.545 107.267 256.26C109.755 257.701 113.795 257.701 116.295 256.26C117.552 255.533 118.18 254.585 118.18 253.636L117.675 74.0742C117.675 75.0226 117.047 75.9709 115.79 76.6976C113.29 78.1386 109.25 78.1386 106.762 76.6976C105.531 75.9833 104.915 75.0472 104.915 74.1112Z" fill="white"/>
</mask>
<g mask="url(#mask0_5865_20933)">
<path d="M104.915 74.1112L105.42 253.673C105.42 254.609 106.036 255.545 107.267 256.26C109.755 257.701 113.795 257.701 116.295 256.26C117.552 255.533 118.18 254.585 118.18 253.636L117.675 74.0742C117.675 75.0226 117.047 75.9709 115.79 76.6976C113.29 78.1386 109.25 78.1386 106.762 76.6976C105.531 75.9833 104.915 75.0472 104.915 74.1112Z" fill="#D0D0DA"/>
</g>
<path d="M106.231 77.8301C103.411 79.4559 103.386 82.104 106.195 83.7297C109.003 85.3555 113.572 85.3555 116.393 83.7297C119.213 82.104 119.225 79.4559 116.417 77.8301C113.609 76.192 109.052 76.192 106.231 77.8301Z" fill="#D0D0DA"/>
<path d="M115.219 5.22266C178.427 5.22266 229.713 55.3754 230.156 117.438C230.169 117.697 216.596 124.779 216.596 149.547C210.401 82.8657 179.067 36.3957 115.219 5.22266Z" fill="#FEC303"/>
<path d="M115.217 5.22266C179.065 36.3957 210.386 82.8657 216.594 149.535C216.594 149.535 203.698 147.552 189.855 155.151C174.361 163.662 163.534 178.454 163.534 178.454C155.405 118.965 139.135 61.2503 115.217 5.22266Z" fill="#FFE4A7"/>
<path d="M115.219 5.22266C52.0106 5.22266 0.724754 55.3754 0.281364 117.438C0.269051 117.697 13.8418 124.779 13.8418 149.547C20.037 82.8657 51.3701 36.3957 115.219 5.22266Z" fill="#FEC303"/>
<path d="M115.219 5.22266C51.3701 36.3957 20.0493 82.8657 13.8418 149.535C13.8418 149.535 26.7372 147.552 40.5809 155.151C56.075 163.662 66.9012 178.454 66.9012 178.454C75.0301 118.965 91.3001 61.2503 115.219 5.22266Z" fill="#FFE4A7"/>
<path d="M115.214 5.22266C139.132 61.238 155.402 118.965 163.531 178.466C163.531 178.466 146.411 168.983 115.226 169.635C84.0284 170.288 66.9085 178.466 66.9085 178.466C75.025 118.965 91.2951 61.2503 115.214 5.22266Z" fill="#FEC303"/>
<path d="M107.401 4.19906L107.413 7.35209C107.413 8.41131 108.115 9.47051 109.507 10.2834C112.315 11.9092 116.885 11.9092 119.705 10.2834C121.122 9.4582 121.836 8.38666 121.836 7.31512L121.824 4.16211C121.824 5.23364 121.122 6.3175 119.693 7.13039C116.872 8.75616 112.303 8.75616 109.495 7.13039C108.103 6.3175 107.413 5.25827 107.401 4.19906Z" fill="#BEBECD"/>
<path d="M109.528 1.21933C106.708 2.84511 106.683 5.49316 109.491 7.11894C112.3 8.74471 116.869 8.74471 119.689 7.11894C122.51 5.49316 122.522 2.84511 119.714 1.21933C116.918 -0.406444 112.361 -0.406444 109.528 1.21933Z" fill="#D0D0DA"/>
</svg>
