<svg width="95" height="128" viewBox="0 0 95 128" fill="none" xmlns="http://www.w3.org/2000/svg">
<path d="M59.706 83.8792C60.1925 82.8644 60.6537 81.8915 61.2911 80.4406C61.2911 80.4406 61.3163 80.4322 61.375 80.4238L59.706 83.8792Z" fill="#FF2C00"/>
<path d="M61.4375 80.5412C60.8672 81.5644 60.3472 82.5205 59.6847 83.8875C60.1879 82.8476 60.8504 81.4638 61.3536 80.4238C61.404 80.4993 61.4375 80.5412 61.4375 80.5412Z" fill="#FF2C00"/>
<path d="M43.2422 93.4391C42.6383 92.8855 42.2441 92.5249 41.6738 92.0217C41.6738 92.0217 41.6487 91.9798 41.59 91.9043L43.2422 93.4391Z" fill="#FF2C00"/>
<path d="M41.6821 3.69531C42.2104 4.03917 42.7388 4.38302 43.2672 4.72688C43.7033 5.01203 44.131 5.28879 44.5671 5.57394C47.4522 7.44419 50.354 10.3292 52.9455 14.2459C56.8621 20.1669 59.4285 23.7565 61.5 26.6247L58.4053 23.7648C58.2711 23.5803 55.7718 20.0998 51.9307 14.2962C48.794 9.5325 45.2297 5.99329 41.6821 3.69531Z" fill="#D7D7D7"/>
<path d="M8.86393 26.5049C8.79684 25.3308 8.72976 24.1482 8.66266 22.9741C8.6375 22.4709 8.62071 21.9761 8.62071 21.4896C8.62071 21.3554 8.62071 21.2212 8.62071 21.0871C8.76329 8.77528 17.6365 5.47929 27.0045 10.8888C30.9128 13.1448 34.9049 16.9105 38.377 22.169C42.2181 27.9726 44.7174 31.4531 44.8516 31.6376L41.7317 38.1122C39.6602 35.2439 37.0938 31.6544 33.1772 25.7333C30.3089 21.4058 27.0632 18.3362 23.8846 16.5079C16.2024 12.0713 8.93941 14.7886 8.83038 24.8276C8.83038 24.945 8.83038 25.0792 8.83038 25.2133C8.83038 25.6243 8.83878 26.0604 8.86393 26.5049Z" fill="#E0E0E0"/>
<path d="M13.863 9.60634L27.416 1.73116C30.8713 -0.273273 35.6518 0.162842 40.5748 3.00596C44.4831 5.262 48.4752 9.02766 51.9473 14.2862C55.7884 20.0898 58.2877 23.5703 58.4219 23.7548L44.8689 31.63C44.7347 31.4455 42.2354 27.965 38.3943 22.1613C34.9138 16.9028 30.9217 13.1372 27.0218 10.8811C22.0988 8.03802 17.3183 7.6019 13.863 9.60634Z" fill="url(#paint0_linear_5865_20959)"/>
<path d="M77.4474 24.3438C78.4119 24.9728 79.3764 25.5934 80.3408 26.2224C87.369 30.7848 93.7764 40.7231 94.33 50.1498C94.3551 50.6027 94.3803 51.0556 94.4138 51.5169C94.4222 51.6175 94.4306 51.7517 94.4306 51.8607C94.4642 52.431 94.4977 53.0013 94.5312 53.5632C93.8603 42.0482 86.0187 29.921 77.4474 24.3438Z" fill="#F0F0F0"/>
<path d="M58.0845 85.2404C66.639 80.4515 74.64 73.1131 74.6148 63.1832C74.6148 63.049 74.598 62.9148 74.6148 62.8393C74.5645 52.6662 67.3435 41.5789 59.6612 37.1506C56.4826 35.3139 53.2285 34.6262 50.3435 35.6326C46.4017 37.0165 43.827 37.6371 41.7471 38.1067L44.8669 31.6321C45.0011 31.5986 47.5088 31.0115 51.3751 29.6529C54.8723 28.42 58.8728 29.2671 62.7811 31.5231C72.1491 36.9326 80.972 50.452 81.0391 62.8812C81.0391 63.0154 81.0391 63.1496 81.0391 63.2838C81.0055 74.7737 72.3755 82.5315 63.5191 87.4796C54.6627 92.4278 45.5966 94.5497 44.6908 94.7677L43.2483 93.4342C42.6528 92.8891 42.1832 92.4781 41.5122 91.9246C41.4955 91.9246 49.8906 89.8112 58.0845 85.2404Z" fill="#E0E0E0"/>
<path d="M59.6557 37.1415C67.338 41.5697 74.559 52.657 74.6093 62.8302C74.5925 62.9057 74.6093 63.0398 74.6093 63.174C74.6345 73.104 66.6335 80.4424 58.079 85.2312C49.4238 90.0704 40.5423 92.1503 41.5906 91.9071C42.6306 93.3496 33.7909 81.0379 25.1945 66.2436C16.6987 51.6087 8.76479 35.0784 8.84866 25.2071C8.84866 25.0729 8.84866 24.9387 8.84866 24.8213C8.95769 14.774 16.2206 12.0651 23.9029 16.5017C27.0815 18.3384 30.3272 21.3995 33.1954 25.7271C37.1121 31.6482 39.6784 35.2377 41.75 38.106C43.8299 37.6279 46.4046 37.0157 50.3464 35.6319C53.223 34.6171 56.4771 35.3132 59.6557 37.1415Z" fill="#D7D7D7"/>
<path d="M58.4138 23.7552C58.548 23.7216 61.0556 23.1346 64.9219 21.7759C68.4192 20.5431 72.4197 21.3901 76.3279 23.6462C85.696 29.0556 94.5188 42.5751 94.5859 55.0043C94.5859 55.1385 94.5859 55.2727 94.5859 55.4068C94.5524 66.5193 86.4759 74.1513 77.9298 79.1079L64.3768 86.983C72.9145 82.0181 80.9994 74.3945 81.0329 63.282C81.0329 63.1478 81.0329 63.0136 81.0329 62.8795C80.9658 50.4503 72.143 36.9308 62.7749 31.5213C58.8667 29.2653 54.8746 28.4182 51.3689 29.6511C47.511 31.0097 44.995 31.5968 44.8608 31.6304L58.4138 23.7552Z" fill="url(#paint1_linear_5865_20959)"/>
<path d="M32.1293 107.907L32.1377 104.754H33.0183C33.8318 103.303 35.2073 101.944 37.153 100.77C44.0553 96.6184 55.4865 96.501 62.6739 100.51C64.8881 101.743 66.448 103.236 67.337 104.812H68.2344L68.226 108.024C68.2428 110.641 66.5738 113.258 63.2023 115.287C63.0849 115.354 62.9675 115.43 62.8501 115.497C62.7159 115.573 62.5901 115.648 62.4559 115.724C62.4978 115.698 62.5481 115.673 62.5901 115.648L62.5565 115.665L62.2378 115.841L61.9862 115.975L61.4662 116.227C61.4662 116.227 60.745 116.554 60.2921 116.738C59.8392 116.923 59.0592 117.158 57.8599 117.552C56.6606 117.946 54.4549 118.265 53.113 118.407C51.7711 118.55 49.1964 118.55 48.1481 118.474C47.0997 118.399 45.0114 118.122 45.0114 118.122C45.0114 118.122 42.0257 117.384 41.078 117.099C40.1303 116.814 38.1678 115.824 38.1678 115.824L37.673 115.547L37.6143 115.514C37.6898 115.556 37.7652 115.606 37.8407 115.648C37.7065 115.573 37.5807 115.497 37.4465 115.422C33.8738 113.358 32.0874 110.633 32.1293 107.907ZM66.4648 104.821C65.5674 103.496 64.1752 102.263 62.2881 101.206C55.3187 97.3229 44.2398 97.4319 37.5556 101.458C35.9202 102.439 34.7041 103.563 33.8906 104.762L66.4648 104.821Z" fill="#CDCDCD"/>
<path d="M65.5468 104.893V104.398C65.5552 102.059 63.9701 99.7102 60.8167 97.9574C54.6944 94.544 44.9741 94.6446 39.095 98.1754V98.6702C44.9657 95.1394 54.6944 95.0388 60.8167 98.4522C63.9701 100.205 65.5468 102.553 65.5468 104.893Z" fill="#F0F0F0"/>
<path d="M50.1481 113.753C41.6671 113.729 34.8032 109.726 34.8171 104.811C34.8311 99.8969 41.7175 95.9325 50.1985 95.9565C58.6795 95.9805 65.5434 99.9839 65.5295 104.898C65.5156 109.813 58.6291 113.777 50.1481 113.753Z" fill="#CDCDCD"/>
<path d="M34.8165 104.317V104.812C34.8249 102.598 36.2422 100.392 39.0938 98.6726V98.1777C36.2422 99.897 34.8249 102.103 34.8165 104.317Z" fill="#F0F0F0"/>
<path d="M62.4496 115.732C62.5838 115.657 62.7096 115.581 62.8438 115.506C55.9079 119.456 44.7451 119.506 37.675 115.556C37.5996 115.514 37.5241 115.472 37.4486 115.422C37.5828 115.497 37.7086 115.573 37.8428 115.648C37.9183 115.69 37.9937 115.732 38.0692 115.774C44.9128 119.607 55.7318 119.557 62.4496 115.732Z" fill="#F0F0F0"/>
<path d="M37.5518 97.3216C30.8676 101.347 31.094 107.763 38.0634 111.646C45.0328 115.529 56.1034 115.42 62.796 111.395C69.4803 107.369 69.2538 100.953 62.2844 97.07C55.315 93.1869 44.2445 93.296 37.5518 97.3216ZM39.095 98.1771C44.9657 94.6462 54.6944 94.5456 60.8167 97.959C66.9391 101.372 67.1403 107.008 61.2696 110.539C55.3989 114.07 45.6702 114.171 39.5479 110.757C33.4255 107.344 33.2243 101.708 39.095 98.1771Z" fill="#C1C1C1"/>
<path d="M62.9162 97.4217C62.782 97.3463 62.6562 97.2708 62.522 97.1953C69.2734 101.095 69.4243 107.41 62.8156 111.394C56.1313 115.42 45.0524 115.529 38.083 111.646C31.1136 107.763 30.8787 101.347 37.5714 97.3211L37.1688 97.5559C30.2665 101.707 30.5013 108.333 37.6972 112.342C44.893 116.351 56.3158 116.242 63.2181 112.082C70.0449 107.964 69.8856 101.447 62.9162 97.4217Z" fill="#F0F0F0"/>
<path d="M68.1332 109.063C68.2002 108.702 68.2338 108.342 68.2338 107.973L68.2422 104.979C68.2422 105.339 68.2086 105.708 68.1416 106.069L68.1332 109.063Z" fill="#BCBCBC"/>
<path d="M67.2115 108.444C67.438 108.075 67.6225 107.706 67.7734 107.328L67.7651 110.322C67.6141 110.7 67.4296 111.069 67.2031 111.438L67.2115 108.444Z" fill="#BCBCBC"/>
<path d="M65.3049 110.664C65.6823 110.328 66.0178 109.984 66.3281 109.641L66.3197 112.635C66.0178 112.987 65.674 113.331 65.2966 113.658L65.3049 110.664Z" fill="#BCBCBC"/>
<path d="M62.462 112.619C62.722 112.485 62.9736 112.334 63.2168 112.191C63.46 112.04 63.7032 111.889 63.9297 111.738L63.9213 114.732C63.6948 114.883 63.4516 115.043 63.2084 115.185C62.9652 115.336 62.7052 115.479 62.4536 115.613L62.462 112.619Z" fill="#BCBCBC"/>
<path d="M58.928 114.096C59.5235 113.903 60.1021 113.693 60.6641 113.467L60.6557 116.461C60.0938 116.687 59.5151 116.905 58.9196 117.09L58.928 114.096Z" fill="#BCBCBC"/>
<path d="M54.9952 115.019C55.6326 114.919 56.27 114.793 56.8906 114.65L56.8822 117.644C56.2616 117.787 55.6242 117.913 54.9868 118.013L54.9952 115.019Z" fill="#BCBCBC"/>
<path d="M50.8645 115.38C51.527 115.363 52.1812 115.33 52.8438 115.279L52.8354 118.273C52.1812 118.332 51.5186 118.366 50.8561 118.374L50.8645 115.38Z" fill="#BCBCBC"/>
<path d="M46.6854 115.184C47.3395 115.259 47.9937 115.309 48.6562 115.343L48.6479 118.337C47.9853 118.303 47.3312 118.253 46.677 118.178L46.6854 115.184Z" fill="#BCBCBC"/>
<path d="M42.6761 114.424C43.2883 114.592 43.9173 114.734 44.5547 114.852L44.5463 117.846C43.9089 117.72 43.2883 117.577 42.6677 117.418L42.6761 114.424Z" fill="#BCBCBC"/>
<path d="M38.9699 113.107C39.5151 113.359 40.0854 113.594 40.6641 113.804L40.6557 116.798C40.077 116.588 39.5067 116.353 38.9615 116.101L38.9699 113.107Z" fill="#BCBCBC"/>
<path d="M35.8511 111.262C36.2705 111.58 36.7317 111.891 37.2266 112.184L37.2182 115.178C36.7234 114.885 36.2705 114.574 35.8428 114.256L35.8511 111.262Z" fill="#BCBCBC"/>
<path d="M33.6634 109.113C33.9318 109.474 34.2421 109.818 34.5859 110.162L34.5776 113.156C34.2337 112.812 33.9318 112.468 33.655 112.107L33.6634 109.113Z" fill="#BCBCBC"/>
<path d="M32.4293 106.773C32.5468 107.151 32.7061 107.528 32.8906 107.897L32.8822 110.891C32.6893 110.522 32.5384 110.145 32.421 109.768L32.4293 106.773Z" fill="#BCBCBC"/>
<path d="M32.13 107.873C32.13 108.083 32.1383 108.292 32.1635 108.502L32.1719 105.508C32.1467 105.298 32.1383 105.089 32.1383 104.879L32.13 107.873Z" fill="#BCBCBC"/>
<path d="M58.4742 101.153V101.548L61.1328 100.021V99.627L58.4742 101.153Z" fill="#BCBCBC"/>
<path d="M56.4844 103.713V103.318C56.4844 102.924 56.0567 102.471 55.2851 102.018C54.2283 101.406 52.1904 100.744 49.8421 100.408V100.802C52.1904 101.146 54.2283 101.8 55.2851 102.413C56.0567 102.866 56.4844 103.318 56.4844 103.713Z" fill="#BCBCBC"/>
<path d="M40.919 105.42V105.814C40.919 106.678 41.5397 107.592 42.6719 108.439V108.045C41.5397 107.19 40.919 106.284 40.919 105.42Z" fill="#BCBCBC"/>
<path d="M44.6228 105.775V106.169C44.6228 105.893 44.7989 105.641 45.1679 105.423C48.0446 103.762 53.756 108.979 58.6623 106.153C59.6771 105.566 60.1719 104.853 60.1719 104.089V103.695C60.1719 104.459 59.6771 105.171 58.6623 105.758C53.7644 108.585 48.0446 103.368 45.1679 105.029C44.7989 105.247 44.6228 105.498 44.6228 105.775Z" fill="#BCBCBC"/>
<path d="M41.7848 110.79V111.184L44.5859 109.574L44.5776 109.18L41.7848 110.79Z" fill="#BCBCBC"/>
<path d="M39.8439 109.666L39.8523 110.06L41.7812 111.184V110.79L39.8439 109.666Z" fill="#BCBCBC"/>
<path d="M51.6496 110.772V111.166L52.7734 109.246V108.852L51.6496 110.772Z" fill="#BCBCBC"/>
<path d="M44.5796 109.18V109.574C46.6511 110.53 49.2174 111.083 51.6328 111.167V110.773C49.2258 110.689 46.6595 110.136 44.5796 109.18Z" fill="#BCBCBC"/>
<path d="M42.4974 103.269C40.2162 104.585 40.5181 106.431 42.6652 108.041L39.8472 109.668L41.7845 110.792L44.5773 109.181C46.6489 110.138 49.2152 110.691 51.6306 110.775L52.7628 108.854C50.0958 108.762 47.4708 108.125 46.0031 107.278C44.5354 106.422 44.2083 105.592 45.1728 105.038C48.0495 103.378 53.7692 108.594 58.6671 105.768C60.7722 104.552 60.6464 102.791 58.4742 101.164L61.1328 99.6289L59.2206 98.4967L56.562 100.031C54.9014 99.2515 52.897 98.698 51.0771 98.4883L49.8526 100.417C52.2009 100.761 54.2389 101.415 55.2956 102.027C56.5285 102.74 56.8723 103.47 56.0337 103.956C53.2409 105.567 47.4121 100.434 42.4974 103.269Z" fill="#8E8E8E"/>
<path d="M32.1293 103.534L32.1377 100.381H33.0183C33.8318 98.9296 35.2073 97.571 37.153 96.3968C44.0553 92.2454 55.4865 92.128 62.6739 96.1368C64.8881 97.3697 66.448 98.8625 67.337 100.439H68.2344L68.226 103.651C68.2428 106.268 66.5738 108.885 63.2023 110.914C63.0849 110.981 62.9675 111.057 62.8501 111.124C62.7159 111.199 62.5901 111.275 62.4559 111.35C62.4978 111.325 62.5481 111.3 62.5901 111.275L62.5565 111.292L62.2378 111.468L61.9862 111.602L61.4662 111.854C61.4662 111.854 60.745 112.181 60.2921 112.365C59.8392 112.55 59.0592 112.785 57.8599 113.179C56.6606 113.573 54.4549 113.892 53.113 114.034C51.7711 114.177 49.1964 114.177 48.1481 114.101C47.0997 114.026 45.0114 113.749 45.0114 113.749C45.0114 113.749 42.0257 113.011 41.078 112.726C40.1303 112.441 38.1678 111.451 38.1678 111.451L37.673 111.174L37.6143 111.141C37.6898 111.183 37.7652 111.233 37.8407 111.275C37.7065 111.199 37.5807 111.124 37.4465 111.049C33.8738 108.994 32.0874 106.268 32.1293 103.534ZM66.4648 100.448C65.5674 99.1225 64.1752 97.8897 62.2881 96.833C55.3187 92.9499 44.2398 93.0589 37.5556 97.0846C35.9202 98.0658 34.7041 99.1896 33.8906 100.389L66.4648 100.448Z" fill="#CDCDCD"/>
<path d="M65.5468 100.532V100.037C65.5552 97.6972 63.9701 95.3489 60.8167 93.596C54.6944 90.1826 44.9741 90.2833 39.095 93.8141V94.3089C44.9657 90.7781 54.6944 90.6774 60.8167 94.0909C63.9701 95.8437 65.5468 98.1836 65.5468 100.532Z" fill="#F0F0F0"/>
<path d="M50.1481 109.386C41.6671 109.362 34.8032 105.359 34.8171 100.444C34.8311 95.5297 41.7175 91.5653 50.1985 91.5893C58.6795 91.6133 65.5434 95.6167 65.5295 100.531C65.5156 105.446 58.6291 109.41 50.1481 109.386Z" fill="#CDCDCD"/>
<path d="M34.8165 99.9438V100.439C34.8249 98.2245 36.2422 96.0188 39.0938 94.2995V93.8047C36.2422 95.524 34.8249 97.7381 34.8165 99.9438Z" fill="#F0F0F0"/>
<path d="M62.4496 111.365C62.5838 111.29 62.7096 111.214 62.8438 111.139C55.9079 115.089 44.7451 115.131 37.675 111.189C37.5996 111.147 37.5241 111.105 37.4486 111.055C37.5828 111.13 37.7086 111.206 37.8428 111.281C37.9183 111.323 37.9937 111.365 38.0692 111.407C44.9128 115.231 55.7318 115.189 62.4496 111.365Z" fill="#F0F0F0"/>
<path d="M37.5518 92.9486C30.8676 96.9742 31.094 103.39 38.0634 107.273C45.0328 111.156 56.1034 111.047 62.796 107.022C69.4803 102.996 69.2538 96.58 62.2844 92.697C55.315 88.8139 44.2445 88.9229 37.5518 92.9486ZM39.095 93.8124C44.9657 90.2816 54.6944 90.1809 60.8167 93.5944C66.9391 97.0078 67.1403 102.644 61.2696 106.175C55.3989 109.705 45.6702 109.806 39.5479 106.393C33.4255 102.979 33.2243 97.3433 39.095 93.8124Z" fill="#C1C1C1"/>
<path d="M62.9162 93.0604C62.782 92.985 62.6562 92.9095 62.522 92.834C69.2734 96.7338 69.4243 103.049 62.8156 107.033C56.1313 111.058 45.0524 111.167 38.083 107.284C31.1136 103.401 30.8787 96.9855 37.5714 92.9598L37.1688 93.1946C30.2665 97.3461 30.5013 103.972 37.6972 107.98C44.893 111.989 56.3158 111.88 63.2181 107.72C70.0449 103.603 69.8856 97.0861 62.9162 93.0604Z" fill="#F0F0F0"/>
<path d="M68.1332 104.686C68.2002 104.325 68.2338 103.965 68.2338 103.596L68.2422 100.602C68.2422 100.962 68.2086 101.331 68.1416 101.692L68.1332 104.686Z" fill="#BCBCBC"/>
<path d="M67.2115 104.074C67.438 103.705 67.6225 103.336 67.7734 102.959L67.7651 105.953C67.6141 106.33 67.4296 106.699 67.2031 107.068L67.2115 104.074Z" fill="#BCBCBC"/>
<path d="M65.3049 106.297C65.6823 105.961 66.0178 105.617 66.3281 105.273L66.3197 108.268C66.0178 108.62 65.674 108.964 65.2966 109.291L65.3049 106.297Z" fill="#BCBCBC"/>
<path d="M62.462 108.254C62.722 108.119 62.9736 107.969 63.2168 107.826C63.46 107.675 63.7032 107.524 63.9297 107.373L63.9213 110.367C63.6948 110.518 63.4516 110.677 63.2084 110.82C62.9652 110.963 62.7052 111.114 62.4536 111.248L62.462 108.254Z" fill="#BCBCBC"/>
<path d="M58.928 109.727C59.5235 109.534 60.1021 109.324 60.6641 109.098L60.6557 112.092C60.0938 112.318 59.5151 112.528 58.9196 112.721L58.928 109.727Z" fill="#BCBCBC"/>
<path d="M54.9952 110.648C55.6326 110.548 56.27 110.422 56.8906 110.279L56.8822 113.273C56.2616 113.416 55.6242 113.542 54.9868 113.642L54.9952 110.648Z" fill="#BCBCBC"/>
<path d="M50.8645 111.011C51.527 110.994 52.1812 110.96 52.8438 110.91L52.8354 113.904C52.1812 113.963 51.5186 113.996 50.8561 114.005L50.8645 111.011Z" fill="#BCBCBC"/>
<path d="M46.6854 110.807C47.3395 110.882 47.9937 110.932 48.6562 110.966L48.6479 113.96C47.9853 113.927 47.3312 113.876 46.677 113.801L46.6854 110.807Z" fill="#BCBCBC"/>
<path d="M42.6761 110.057C43.2883 110.224 43.9173 110.367 44.5547 110.484L44.5463 113.478C43.9089 113.353 43.2883 113.21 42.6677 113.051L42.6761 110.057Z" fill="#BCBCBC"/>
<path d="M38.9699 108.73C39.5151 108.982 40.0854 109.217 40.6641 109.427L40.6557 112.421C40.077 112.211 39.5067 111.976 38.9615 111.725L38.9699 108.73Z" fill="#BCBCBC"/>
<path d="M35.8511 106.893C36.2705 107.211 36.7317 107.522 37.2266 107.815L37.2182 110.809C36.7234 110.516 36.2705 110.205 35.8428 109.887L35.8511 106.893Z" fill="#BCBCBC"/>
<path d="M33.6634 104.748C33.9318 105.109 34.2421 105.453 34.5859 105.796L34.5776 108.79C34.2337 108.447 33.9318 108.103 33.655 107.742L33.6634 104.748Z" fill="#BCBCBC"/>
<path d="M32.4293 102.404C32.5468 102.782 32.7061 103.159 32.8906 103.528L32.8822 106.522C32.6893 106.153 32.5384 105.776 32.421 105.398L32.4293 102.404Z" fill="#BCBCBC"/>
<path d="M32.13 103.496C32.13 103.706 32.1383 103.915 32.1635 104.125L32.1719 101.131C32.1467 100.921 32.1383 100.712 32.1383 100.502L32.13 103.496Z" fill="#BCBCBC"/>
<path d="M58.4742 96.7828V97.177L61.1328 95.6422V95.248L58.4742 96.7828Z" fill="#BCBCBC"/>
<path d="M56.4844 99.3395V98.9454C56.4844 98.5512 56.0567 98.0983 55.2851 97.6454C54.2283 97.0332 52.1904 96.3706 49.8421 96.0352V96.4293C52.1904 96.7732 54.2283 97.4274 55.2851 98.0396C56.0567 98.4925 56.4844 98.9454 56.4844 99.3395Z" fill="#BCBCBC"/>
<path d="M40.919 101.043V101.437C40.919 102.301 41.5397 103.215 42.6719 104.062V103.668C41.5397 102.821 40.919 101.915 40.919 101.043Z" fill="#BCBCBC"/>
<path d="M44.6228 101.404V101.798C44.6228 101.522 44.7989 101.27 45.1679 101.052C48.0446 99.3913 53.756 104.608 58.6623 101.782C59.6771 101.194 60.1719 100.482 60.1719 99.7184V99.3242C60.1719 100.087 59.6771 100.8 58.6623 101.387C53.7644 104.214 48.0446 98.9971 45.1679 100.658C44.7989 100.876 44.6228 101.127 44.6228 101.404Z" fill="#BCBCBC"/>
<path d="M41.7848 106.419V106.813L44.5859 105.203L44.5776 104.809L41.7848 106.419Z" fill="#BCBCBC"/>
<path d="M39.8439 105.295L39.8523 105.689L41.7812 106.813V106.419L39.8439 105.295Z" fill="#BCBCBC"/>
<path d="M51.6496 106.393V106.787L52.7734 104.867V104.473L51.6496 106.393Z" fill="#BCBCBC"/>
<path d="M44.5796 104.809V105.203C46.6511 106.159 49.2174 106.712 51.6328 106.796V106.402C49.2258 106.318 46.6595 105.765 44.5796 104.809Z" fill="#BCBCBC"/>
<path d="M42.4974 98.8977C40.2162 100.214 40.5181 102.059 42.6652 103.67L39.8472 105.297L41.7845 106.421L44.5773 104.81C46.6489 105.766 49.2152 106.32 51.6306 106.404L52.7628 104.483C50.0958 104.391 47.4708 103.754 46.0031 102.907C44.5354 102.051 44.2083 101.221 45.1728 100.667C48.0495 99.0067 53.7692 104.223 58.6671 101.397C60.7722 100.181 60.6464 98.4196 58.4742 96.7926L61.1328 95.2578L59.2206 94.1256L56.562 95.6604C54.9014 94.8804 52.897 94.3269 51.0771 94.1172L49.8526 96.0462C52.2009 96.39 54.2389 97.0442 55.2956 97.6564C56.5285 98.3693 56.8723 99.0989 56.0337 99.5854C53.2409 101.196 47.4121 96.0629 42.4974 98.8977Z" fill="#8E8E8E"/>
<path d="M32.1293 99.1629L32.1377 96.0095H33.0183C33.8318 94.5585 35.2073 93.1999 37.153 92.0257C44.0553 87.8743 55.4865 87.7569 62.6739 91.7657C64.8881 93.007 66.448 94.4915 67.337 96.0682H68.2344L68.226 99.2803C68.2428 101.897 66.5738 104.514 63.2023 106.543C63.0849 106.61 62.9675 106.686 62.8501 106.753C62.7159 106.828 62.5901 106.904 62.4559 106.979C62.4978 106.954 62.5481 106.929 62.5901 106.904L62.5565 106.921L62.2378 107.097L61.9862 107.231L61.4662 107.483C61.4662 107.483 60.745 107.81 60.2921 107.994C59.8392 108.179 59.0592 108.413 57.8599 108.816C56.6606 109.21 54.4549 109.529 53.113 109.672C51.7711 109.814 49.1964 109.814 48.1481 109.739C47.0997 109.663 45.0114 109.386 45.0114 109.386C45.0114 109.386 42.0257 108.648 41.078 108.363C40.1303 108.078 38.1678 107.088 38.1678 107.088L37.673 106.812L37.6143 106.778C37.6898 106.82 37.7652 106.87 37.8407 106.912C37.7065 106.837 37.5807 106.761 37.4465 106.686C33.8738 104.623 32.0874 101.889 32.1293 99.1629ZM66.4648 96.0766C65.5674 94.7515 64.1752 93.5186 62.2881 92.4618C55.3187 88.5788 44.2398 88.6878 37.5556 92.7135C35.9202 93.6947 34.7041 94.8185 33.8906 96.0178L66.4648 96.0766Z" fill="#CDCDCD"/>
<path d="M65.5468 96.1608V95.666C65.5552 93.3261 63.9701 90.9778 60.8167 89.2249C54.6944 85.8115 44.9741 85.9122 39.095 89.443V89.9378C44.9657 86.407 54.6944 86.3063 60.8167 89.7198C63.9701 91.4726 65.5468 93.8125 65.5468 96.1608Z" fill="#F0F0F0"/>
<path d="M39.098 89.9274C33.2272 93.4582 33.4285 99.0941 39.5508 102.508C45.6732 105.921 55.3934 105.82 61.2726 102.289C67.1433 98.7586 66.942 93.1227 60.8197 89.7093C54.689 86.2959 44.9687 86.3966 39.098 89.9274Z" fill="#F1F1F1"/>
<path d="M34.8165 95.5727V96.0675C34.8249 93.8534 36.2422 91.6477 39.0938 89.9284V89.4336C36.2422 91.1529 34.8249 93.367 34.8165 95.5727Z" fill="#C2C2C2"/>
<path d="M62.4496 106.988C62.5838 106.913 62.7096 106.837 62.8438 106.762C55.9079 110.712 44.7451 110.754 37.675 106.812C37.5996 106.77 37.5241 106.728 37.4486 106.678C37.5828 106.753 37.7086 106.829 37.8428 106.904C37.9183 106.946 37.9937 106.988 38.0692 107.03C44.9128 110.863 55.7318 110.821 62.4496 106.988Z" fill="#F0F0F0"/>
<path d="M37.5518 88.5775C30.8676 92.6031 31.094 99.019 38.0634 102.902C45.0328 106.785 56.1034 106.676 62.796 102.65C69.4803 98.6248 69.2538 92.209 62.2844 88.3259C55.315 84.4428 44.2445 84.5518 37.5518 88.5775ZM39.095 89.4329C44.9657 85.9021 54.6944 85.8015 60.8167 89.2149C66.9391 92.6283 67.1403 98.2642 61.2696 101.795C55.3989 105.326 45.6702 105.427 39.5479 102.013C33.4255 98.6081 33.2243 92.9722 39.095 89.4329Z" fill="#F1F1F1"/>
<path d="M62.9162 88.6893C62.782 88.6138 62.6562 88.5384 62.522 88.4629C69.2734 92.3627 69.4243 98.678 62.8156 102.662C56.1313 106.687 45.0524 106.796 38.083 102.913C31.1136 99.0302 30.8787 92.6143 37.5714 88.5887L37.1688 88.8235C30.2665 92.975 30.5013 99.6005 37.6972 103.609C44.893 107.618 56.3158 107.509 63.2181 103.349C70.0449 99.2315 69.8856 92.7066 62.9162 88.6893Z" fill="#F0F0F0"/>
<path d="M68.1332 100.319C68.2002 99.9581 68.2338 99.5975 68.2338 99.2285L68.2422 96.2344C68.2422 96.595 68.2086 96.964 68.1416 97.3247L68.1332 100.319Z" fill="#BCBCBC"/>
<path d="M67.2115 99.7072C67.438 99.3382 67.6225 98.9692 67.7734 98.5918L67.7651 101.586C67.6141 101.963 67.4296 102.332 67.2031 102.701L67.2115 99.7072Z" fill="#BCBCBC"/>
<path d="M65.3049 101.92C65.6823 101.584 66.0178 101.24 66.3281 100.896L66.3197 103.891C66.0178 104.243 65.674 104.587 65.2966 104.914L65.3049 101.92Z" fill="#BCBCBC"/>
<path d="M62.462 103.886C62.722 103.752 62.9736 103.601 63.2168 103.459C63.46 103.308 63.7032 103.157 63.9297 103.006L63.9213 106C63.6948 106.151 63.4516 106.31 63.2084 106.453C62.9652 106.595 62.7052 106.746 62.4536 106.881L62.462 103.886Z" fill="#BCBCBC"/>
<path d="M58.928 105.359C59.5235 105.167 60.1021 104.957 60.6641 104.73L60.6557 107.725C60.0938 107.951 59.5151 108.169 58.9196 108.354L58.928 105.359Z" fill="#BCBCBC"/>
<path d="M54.9952 106.275C55.6326 106.175 56.27 106.049 56.8906 105.906L56.8822 108.9C56.2616 109.043 55.6242 109.169 54.9868 109.269L54.9952 106.275Z" fill="#BCBCBC"/>
<path d="M50.8645 106.644C51.527 106.627 52.1812 106.593 52.8438 106.543L52.8354 109.537C52.1812 109.596 51.5186 109.629 50.8561 109.638L50.8645 106.644Z" fill="#BCBCBC"/>
<path d="M46.6854 106.439C47.3395 106.515 47.9937 106.565 48.6562 106.599L48.6479 109.593C47.9853 109.559 47.3312 109.509 46.677 109.434L46.6854 106.439Z" fill="#BCBCBC"/>
<path d="M42.6761 105.689C43.2883 105.857 43.9173 106 44.5547 106.117L44.5463 109.111C43.9089 108.985 43.2883 108.843 42.6677 108.684L42.6761 105.689Z" fill="#BCBCBC"/>
<path d="M38.9699 104.363C39.5151 104.615 40.0854 104.85 40.6641 105.059L40.6557 108.053C40.077 107.844 39.5067 107.609 38.9615 107.357L38.9699 104.363Z" fill="#BCBCBC"/>
<path d="M35.8511 102.525C36.2705 102.844 36.7317 103.154 37.2266 103.448L37.2182 106.442C36.7234 106.148 36.2705 105.838 35.8428 105.519L35.8511 102.525Z" fill="#BCBCBC"/>
<path d="M33.6634 100.369C33.9318 100.73 34.2421 101.074 34.5859 101.417L34.5776 104.412C34.2337 104.068 33.9318 103.724 33.655 103.363L33.6634 100.369Z" fill="#BCBCBC"/>
<path d="M32.4293 98.0371C32.5468 98.4145 32.7061 98.7919 32.8906 99.1609L32.8822 102.155C32.6893 101.786 32.5384 101.409 32.421 101.031L32.4293 98.0371Z" fill="#BCBCBC"/>
<path d="M32.13 99.1288C32.13 99.3385 32.1383 99.5482 32.1635 99.7579L32.1719 96.7638C32.1467 96.5541 32.1383 96.3444 32.1383 96.1348L32.13 99.1288Z" fill="#BCBCBC"/>
<path d="M58.4742 92.4078V92.802L61.1328 91.2672V90.873L58.4742 92.4078Z" fill="#BCBCBC"/>
<path d="M56.4844 94.9665V94.5723C56.4844 94.1781 56.0567 93.7252 55.2851 93.2724C54.2283 92.6601 52.1904 91.9976 49.8421 91.6621V92.0563C52.1904 92.4001 54.2283 93.0543 55.2851 93.6665C56.0567 94.111 56.4844 94.5639 56.4844 94.9665Z" fill="#BCBCBC"/>
<path d="M40.919 96.6738V97.068C40.919 97.9318 41.5397 98.846 42.6719 99.6931V99.2989C41.5397 98.4518 40.919 97.5377 40.919 96.6738Z" fill="#BCBCBC"/>
<path d="M44.6228 97.0311V97.4253C44.6228 97.1485 44.7989 96.8969 45.1679 96.6788C48.0446 95.0183 53.756 100.235 58.6623 97.4085C59.6771 96.8214 60.1719 96.1085 60.1719 95.3454V94.9512C60.1719 95.7144 59.6771 96.4273 58.6623 97.0143C53.7644 99.8407 48.0446 94.6241 45.1679 96.2847C44.7989 96.4944 44.6228 96.7459 44.6228 97.0311Z" fill="#BCBCBC"/>
<path d="M41.7848 102.044V102.439L44.5859 100.82L44.5776 100.426L41.7848 102.044Z" fill="#BCBCBC"/>
<path d="M39.8439 100.922L39.8523 101.316L41.7812 102.44V102.046L39.8439 100.922Z" fill="#BCBCBC"/>
<path d="M51.6496 102.018V102.412L52.7734 100.492V100.098L51.6496 102.018Z" fill="#BCBCBC"/>
<path d="M44.5796 100.426V100.82C46.6511 101.776 49.2174 102.33 51.6328 102.413V102.019C49.2258 101.944 46.6595 101.382 44.5796 100.426Z" fill="#BCBCBC"/>
<path d="M42.4974 94.5227C40.2162 95.8394 40.5181 97.6845 42.6652 99.2947L39.8472 100.922L41.7845 102.046L44.5773 100.435C46.6489 101.391 49.2152 101.945 51.6306 102.029L52.7628 100.108C50.0958 100.016 47.4708 99.3786 46.0031 98.5315C44.5354 97.6761 44.2083 96.8458 45.1728 96.2923C48.0495 94.6317 53.7692 99.8482 58.6671 97.0219C60.7722 95.8058 60.6464 94.0446 58.4742 92.4176L61.1328 90.8828L59.2206 89.7506L56.562 91.2853C54.9014 90.5054 52.897 89.9519 51.0771 89.7422L49.8526 91.6712C52.2009 92.015 54.2389 92.6692 55.2956 93.2814C56.5285 93.9943 56.8723 94.7239 56.0337 95.2104C53.2409 96.8122 47.4121 91.6795 42.4974 94.5227Z" fill="#D7D7D7"/>
<path d="M0.0124512 95.0102L0.0208206 92.5277H0.716938C1.36272 91.3871 2.4446 90.3136 3.97938 89.3911C9.414 86.1203 18.4214 86.028 24.0909 89.1898C25.8353 90.1627 27.0682 91.3368 27.7643 92.5781H28.4688L28.4604 95.1109C28.4771 97.174 27.1604 99.2372 24.5018 100.839C24.4095 100.898 24.3173 100.948 24.225 100.998C24.1244 101.057 24.0154 101.116 23.9147 101.175C23.9483 101.158 23.9902 101.133 24.0237 101.116L23.9986 101.133L23.747 101.267L23.5457 101.376L23.1348 101.577C23.1348 101.577 22.5729 101.837 22.2122 101.98C21.8516 102.122 21.2394 102.307 20.2917 102.625C19.3523 102.936 17.6079 103.187 16.5512 103.296C15.4944 103.405 13.4648 103.414 12.6429 103.347C11.821 103.288 10.1772 103.07 10.1772 103.07C10.1772 103.07 7.82053 102.491 7.08249 102.265C6.33607 102.038 4.78452 101.267 4.78452 101.267L4.39035 101.049L4.34 101.024C4.39871 101.057 4.45744 101.091 4.51614 101.133C4.4155 101.074 4.30648 101.015 4.20584 100.956C1.38788 99.3126 -0.0210953 97.1572 0.0124512 95.0102ZM27.0598 92.5781C26.3553 91.5381 25.2566 90.5568 23.7722 89.7349C18.2788 86.6738 9.55657 86.7576 4.28968 89.9278C3.00651 90.6994 2.04203 91.5884 1.40463 92.5277L27.0598 92.5781Z" fill="#CDCDCD"/>
<path d="M26.3515 92.6453V92.2595C26.3599 90.4145 25.1103 88.5694 22.6278 87.1856C17.8054 84.4934 10.1483 84.5773 5.51879 87.3617V87.7475C10.1483 84.9631 17.8054 84.8876 22.6278 87.5713C25.1019 88.9468 26.3515 90.8002 26.3515 92.6453Z" fill="#F0F0F0"/>
<path d="M5.51156 87.7393C0.882069 90.5237 1.04143 94.9603 5.86382 97.6525C10.6862 100.345 18.3433 100.261 22.9728 97.4764C27.6023 94.6919 27.443 90.2553 22.6206 87.5632C17.8066 84.8794 10.1411 84.9549 5.51156 87.7393Z" fill="#CDCDCD"/>
<path d="M2.14413 92.1843V92.5701C2.15251 90.8256 3.26797 89.0896 5.51562 87.7393V87.3535C3.26797 88.7038 2.14413 90.4399 2.14413 92.1843Z" fill="#F0F0F0"/>
<path d="M23.9006 101.174C24.0013 101.116 24.1103 101.057 24.2109 100.998C18.7512 104.11 9.95343 104.143 4.37623 101.04C4.31753 101.007 4.25882 100.973 4.19172 100.939C4.29236 100.998 4.40139 101.057 4.50203 101.116C4.56074 101.149 4.61944 101.183 4.67814 101.216C10.0876 104.227 18.6086 104.194 23.9006 101.174Z" fill="#F0F0F0"/>
<path d="M4.29388 86.6739C-0.973015 89.8441 -0.796883 94.9013 4.69645 97.9625C10.1898 101.024 18.912 100.94 24.1789 97.7696C29.4458 94.5994 29.2697 89.5422 23.7763 86.481C18.283 83.4115 9.56077 83.5037 4.29388 86.6739ZM5.50997 87.3532C10.1395 84.5688 17.7966 84.4933 22.619 87.1771C27.4414 89.8693 27.6007 94.3059 22.9712 97.0903C18.3417 99.8747 10.6846 99.9502 5.8622 97.2664C1.03981 94.5742 0.880472 90.1376 5.50997 87.3532Z" fill="#C1C1C1"/>
<path d="M24.27 86.7581C24.1694 86.6994 24.0603 86.6407 23.9597 86.582C29.2769 89.6516 29.4027 94.6333 24.1861 97.77C18.9192 100.94 10.197 101.032 4.70367 97.9629C-0.78966 94.9017 -0.965792 89.8445 4.3011 86.6743L3.9824 86.8588C-1.45223 90.1296 -1.26772 95.3462 4.40174 98.508C10.0712 101.67 19.0702 101.578 24.5132 98.3067C29.8891 95.061 29.7633 89.9283 24.27 86.7581Z" fill="#F0F0F0"/>
<path d="M28.3693 95.9211C28.4196 95.636 28.4447 95.3508 28.4447 95.0657L28.4531 92.709C28.4531 92.9941 28.428 93.2793 28.3776 93.5644L28.3693 95.9211Z" fill="#BCBCBC"/>
<path d="M27.6493 95.4328C27.8254 95.1476 27.9679 94.8541 28.0938 94.5605L28.0854 96.9172C27.9679 97.2108 27.817 97.5043 27.6409 97.7895L27.6493 95.4328Z" fill="#BCBCBC"/>
<path d="M26.1558 97.1899C26.4494 96.9299 26.7177 96.6531 26.9609 96.3848L26.9525 98.7414C26.7093 99.0182 26.4493 99.2866 26.1474 99.5466L26.1558 97.1899Z" fill="#BCBCBC"/>
<path d="M23.8973 98.7293C24.0986 98.6203 24.2999 98.5112 24.4928 98.3938C24.6857 98.2764 24.8786 98.159 25.0547 98.0332L25.0463 100.39C24.8618 100.516 24.6773 100.633 24.4844 100.751C24.2915 100.868 24.0902 100.977 23.8889 101.086L23.8973 98.7293Z" fill="#BCBCBC"/>
<path d="M21.1251 99.8874C21.5948 99.7364 22.0477 99.5771 22.4922 99.3926L22.4838 101.749C22.0393 101.934 21.5864 102.093 21.1167 102.244L21.1251 99.8874Z" fill="#BCBCBC"/>
<path d="M18.0306 100.609C18.5338 100.534 19.037 100.433 19.5234 100.324L19.515 102.681C19.0286 102.79 18.5254 102.891 18.0222 102.966L18.0306 100.609Z" fill="#BCBCBC"/>
<path d="M14.7682 100.894C15.2882 100.886 15.8081 100.861 16.3281 100.811L16.3197 103.167C15.7998 103.209 15.2798 103.234 14.7598 103.251L14.7682 100.894Z" fill="#BCBCBC"/>
<path d="M11.4797 100.742C11.9913 100.801 12.5113 100.843 13.0312 100.868L13.0229 103.225C12.5029 103.2 11.9829 103.158 11.4713 103.099L11.4797 100.742Z" fill="#BCBCBC"/>
<path d="M8.31301 100.15C8.79944 100.276 9.29424 100.394 9.78906 100.486L9.78069 102.843C9.27749 102.75 8.78266 102.633 8.30461 102.507L8.31301 100.15Z" fill="#BCBCBC"/>
<path d="M5.40869 99.1074C5.83642 99.3087 6.2893 99.4932 6.74219 99.6526L6.73379 102.009C6.27252 101.842 5.82802 101.657 5.4003 101.464L5.40869 99.1074Z" fill="#BCBCBC"/>
<path d="M2.93375 97.6562C3.26922 97.9079 3.62983 98.1511 4.01562 98.3859L4.00726 100.743C3.62146 100.508 3.26083 100.265 2.92536 100.013L2.93375 97.6562Z" fill="#BCBCBC"/>
<path d="M1.20844 95.9629C1.41811 96.248 1.66131 96.5164 1.92969 96.7848L1.92129 99.1415C1.65292 98.8731 1.40971 98.5963 1.20004 98.3196L1.20844 95.9629Z" fill="#BCBCBC"/>
<path d="M0.240355 94.1172C0.33261 94.4191 0.458413 94.7126 0.609375 95.0062L0.60098 97.3629C0.450018 97.0693 0.332601 96.7758 0.23196 96.4823L0.240355 94.1172Z" fill="#BCBCBC"/>
<path d="M0.00553385 94.9817C0.00553385 95.1494 0.0139196 95.3171 0.0306931 95.4765L0.0390625 93.1198C0.022289 92.9521 0.0139032 92.7843 0.0139032 92.625L0.00553385 94.9817Z" fill="#BCBCBC"/>
<path d="M20.7861 89.6921V90.0024L22.8828 88.7947L22.8744 88.4844L20.7861 89.6921Z" fill="#BCBCBC"/>
<path d="M19.2266 91.7059V91.3956C19.2266 91.0853 18.8911 90.7247 18.2789 90.3724C17.4486 89.886 15.8467 89.366 13.9932 89.0977V89.408C15.8467 89.6763 17.4486 90.1963 18.2789 90.6827C18.8911 91.035 19.2182 91.3956 19.2266 91.7059Z" fill="#BCBCBC"/>
<path d="M6.95213 93.0469V93.3572C6.95213 94.0365 7.43855 94.7578 8.33594 95.4203V95.11C7.43855 94.4475 6.95213 93.7262 6.95213 93.0469Z" fill="#BCBCBC"/>
<path d="M9.88757 93.3274V93.6377C9.88757 93.4196 10.0301 93.2184 10.3153 93.0506C12.5797 91.7423 17.0834 95.8518 20.9497 93.6209C21.7465 93.1597 22.1406 92.5977 22.1406 91.9939V91.6836C22.1406 92.2874 21.7548 92.8494 20.9497 93.3106C17.0918 95.5415 12.5797 91.432 10.3153 92.7403C10.0301 92.9081 9.88757 93.1093 9.88757 93.3274Z" fill="#BCBCBC"/>
<path d="M7.64584 97.2826V97.5929L9.85156 96.3181V96.0078L7.64584 97.2826Z" fill="#BCBCBC"/>
<path d="M6.10641 96.3906V96.701L7.63281 97.59V97.2796L6.10641 96.3906Z" fill="#BCBCBC"/>
<path d="M15.4001 97.2641V97.5744L16.2891 96.0564V95.7461L15.4001 97.2641Z" fill="#BCBCBC"/>
<path d="M9.85363 96.0078V96.3181C11.4891 97.0729 13.5103 97.5091 15.4141 97.5678V97.2574C13.5103 97.1987 11.4807 96.7626 9.85363 96.0078Z" fill="#BCBCBC"/>
<path d="M8.20425 91.3522C6.40948 92.3921 6.64429 93.843 8.33841 95.1094L6.12432 96.3926L7.65072 97.2816L9.85644 96.0068C11.4919 96.7616 13.5131 97.1977 15.4168 97.2564L16.3058 95.7468C14.2008 95.6713 12.1376 95.1765 10.9803 94.5056C9.82289 93.8346 9.5629 93.1805 10.3261 92.7444C12.5905 91.436 17.0942 95.5456 20.9605 93.3147C22.6211 92.3586 22.5205 90.9664 20.8096 89.6916L22.9062 88.4839L21.3966 87.5865L19.2999 88.7942C17.9916 88.1736 16.4149 87.7459 14.9807 87.5781L14.0163 89.0961C15.8697 89.3645 17.4716 89.8845 18.3019 90.3709C19.2748 90.9328 19.5515 91.5115 18.8806 91.8889C16.6665 93.1637 12.0705 89.1213 8.20425 91.3522Z" fill="#8E8E8E"/>
<path d="M0.0124512 91.561L0.0208206 89.0785H0.716938C1.36272 87.9379 2.4446 86.8644 3.97938 85.9419C9.414 82.671 18.4214 82.5788 24.0909 85.7406C25.8353 86.7135 27.0682 87.8876 27.7643 89.1288H28.4688L28.4604 91.6617C28.4771 93.7248 27.1604 95.7879 24.5018 97.3898C24.4095 97.4485 24.3173 97.4988 24.225 97.5492C24.1244 97.6079 24.0154 97.6666 23.9147 97.7253C23.9483 97.7085 23.9902 97.6834 24.0237 97.6666L23.9986 97.6833L23.747 97.8175L23.5457 97.9182L23.1348 98.1195C23.1348 98.1195 22.5729 98.3794 22.2122 98.522C21.8516 98.6646 21.2394 98.8491 20.2917 99.1678C19.3523 99.4781 17.6079 99.7297 16.5512 99.8388C15.4944 99.9478 13.4648 99.9562 12.6429 99.8891C11.821 99.8304 10.1772 99.6123 10.1772 99.6123C10.1772 99.6123 7.82053 99.0336 7.08249 98.8072C6.33607 98.5807 4.78452 97.8091 4.78452 97.8091L4.39035 97.5911L4.34 97.5659C4.39871 97.5995 4.45744 97.633 4.51614 97.675C4.4155 97.6162 4.30648 97.5575 4.20584 97.4988C1.38788 95.8634 -0.0210953 93.7164 0.0124512 91.561ZM27.0598 89.1372C26.3553 88.0973 25.2566 87.116 23.7722 86.2941C18.2788 83.233 9.55657 83.3168 4.28968 86.4954C3.00651 87.267 2.04203 88.156 1.40463 89.0953L27.0598 89.1372Z" fill="#CDCDCD"/>
<path d="M26.3515 89.1961V88.8103C26.3599 86.9652 25.1103 85.1201 22.6278 83.7363C17.8054 81.0442 10.1483 81.1281 5.51879 83.9125V84.2983C10.1483 81.5138 17.8054 81.4384 22.6278 84.1221C25.1019 85.506 26.3515 87.351 26.3515 89.1961Z" fill="#F0F0F0"/>
<path d="M5.51156 84.2901C0.882069 87.0745 1.04143 91.5111 5.86382 94.2033C10.6862 96.8954 18.3433 96.8116 22.9728 94.0271C27.6023 91.2427 27.443 86.8061 22.6206 84.114C17.8066 81.4302 10.1411 81.5057 5.51156 84.2901Z" fill="#CDCDCD"/>
<path d="M2.14413 88.7351V89.1209C2.15251 87.3764 3.26797 85.6404 5.51562 84.2901V83.9043C3.26797 85.2546 2.14413 86.999 2.14413 88.7351Z" fill="#F0F0F0"/>
<path d="M23.9006 97.7348C24.0013 97.6761 24.1103 97.6174 24.2109 97.5587C18.7512 100.67 9.95343 100.704 4.37623 97.6006C4.31753 97.5671 4.25882 97.5335 4.19172 97.5C4.29236 97.5587 4.40139 97.6174 4.50203 97.6761C4.56074 97.7097 4.61944 97.7432 4.67814 97.7768C10.0876 100.779 18.6086 100.746 23.9006 97.7348Z" fill="#F0F0F0"/>
<path d="M4.29388 83.2246C-0.973015 86.3948 -0.796883 91.452 4.69645 94.5131C10.1898 97.5743 18.912 97.4905 24.1789 94.3119C29.4458 91.1417 29.2697 86.0844 23.7763 83.0233C18.283 79.9705 9.56077 80.0544 4.29388 83.2246ZM5.50997 83.9039C10.1395 81.1195 17.7966 81.044 22.619 83.7278C27.4414 86.4199 27.6007 90.8565 22.9712 93.6409C18.3417 96.4253 10.6846 96.5008 5.8622 93.817C1.03981 91.1249 0.880472 86.6883 5.50997 83.9039Z" fill="#C1C1C1"/>
<path d="M24.27 83.307C24.1694 83.2483 24.0603 83.1896 23.9597 83.1309C29.2769 86.2004 29.4027 91.1822 24.1861 94.3188C18.9192 97.489 10.197 97.5813 4.70367 94.5201C-0.78966 91.4589 -0.965792 86.4017 4.3011 83.2315L3.9824 83.416C-1.45223 86.6868 -1.26772 91.9034 4.40174 95.0652C10.0712 98.2271 19.0702 98.1348 24.5132 94.864C29.8891 91.6183 29.7633 86.4772 24.27 83.307Z" fill="#F0F0F0"/>
<path d="M28.3693 92.4758C28.4196 92.1907 28.4447 91.9055 28.4447 91.6204L28.4531 89.2637C28.4531 89.5488 28.428 89.834 28.3776 90.1191L28.3693 92.4758Z" fill="#BCBCBC"/>
<path d="M27.6493 91.9874C27.8254 91.7023 27.9679 91.4088 28.0938 91.1152L28.0854 93.4719C27.9679 93.7655 27.817 94.059 27.6409 94.3441L27.6493 91.9874Z" fill="#BCBCBC"/>
<path d="M26.1558 93.7446C26.4494 93.4846 26.7177 93.2078 26.9609 92.9395L26.9525 95.2961C26.7093 95.5729 26.4493 95.8413 26.1474 96.1013L26.1558 93.7446Z" fill="#BCBCBC"/>
<path d="M23.8973 95.284C24.0986 95.175 24.2999 95.0659 24.4928 94.9485C24.6857 94.8311 24.8786 94.7137 25.0547 94.5879L25.0463 96.9446C24.8618 97.0704 24.6773 97.1878 24.4844 97.3052C24.2915 97.4226 24.0902 97.5317 23.8889 97.6407L23.8973 95.284Z" fill="#BCBCBC"/>
<path d="M21.1251 96.4421C21.5948 96.2911 22.0477 96.1318 22.4922 95.9473L22.4838 98.3039C22.0393 98.4885 21.5864 98.6478 21.1167 98.7988L21.1251 96.4421Z" fill="#BCBCBC"/>
<path d="M18.0306 97.1699C18.5338 97.0861 19.037 96.9938 19.5234 96.8848L19.515 99.2415C19.0286 99.3505 18.5254 99.4511 18.0222 99.5266L18.0306 97.1699Z" fill="#BCBCBC"/>
<path d="M14.7682 97.4569C15.2882 97.4485 15.8081 97.4234 16.3281 97.373L16.3197 99.7297C15.7998 99.7717 15.2798 99.7968 14.7598 99.8136L14.7682 97.4569Z" fill="#BCBCBC"/>
<path d="M11.4797 97.2969C11.9913 97.3556 12.5113 97.3975 13.0312 97.4227L13.0229 99.7794C12.5029 99.7542 11.9829 99.7123 11.4713 99.6536L11.4797 97.2969Z" fill="#BCBCBC"/>
<path d="M8.31301 96.7051C8.79944 96.8309 9.29424 96.9483 9.78906 97.0405L9.78069 99.3972C9.27749 99.305 8.78266 99.1876 8.30461 99.0618L8.31301 96.7051Z" fill="#BCBCBC"/>
<path d="M5.40869 95.6621C5.83642 95.8634 6.2893 96.0479 6.74219 96.2072L6.73379 98.5639C6.27252 98.3962 5.82802 98.2117 5.4003 98.0188L5.40869 95.6621Z" fill="#BCBCBC"/>
<path d="M2.93375 94.2109C3.26922 94.4625 3.62983 94.7058 4.01562 94.9406L4.00726 97.2973C3.62146 97.0624 3.26083 96.8192 2.92536 96.5676L2.93375 94.2109Z" fill="#BCBCBC"/>
<path d="M1.20844 92.5176C1.41811 92.8027 1.66131 93.0711 1.92969 93.3395L1.92129 95.6962C1.65292 95.4278 1.40971 95.151 1.20004 94.8743L1.20844 92.5176Z" fill="#BCBCBC"/>
<path d="M0.240355 90.6816C0.33261 90.9836 0.458413 91.2771 0.609375 91.5623L0.60098 93.9189C0.450018 93.6254 0.332601 93.3319 0.23196 93.0383L0.240355 90.6816Z" fill="#BCBCBC"/>
<path d="M0.00553385 91.5364C0.00553385 91.7041 0.0139196 91.8718 0.0306931 92.0312L0.0390625 89.6745C0.022289 89.5068 0.0139032 89.339 0.0139032 89.1797L0.00553385 91.5364Z" fill="#BCBCBC"/>
<path d="M20.7861 86.2487V86.559L22.8828 85.3513L22.8744 85.041L20.7861 86.2487Z" fill="#BCBCBC"/>
<path d="M19.2266 88.2567V87.9464C19.2266 87.6361 18.8911 87.2755 18.2789 86.9232C17.4486 86.4368 15.8467 85.9168 13.9932 85.6484V85.9587C15.8467 86.2271 17.4486 86.7471 18.2789 87.2335C18.8911 87.5858 19.2182 87.9464 19.2266 88.2567Z" fill="#BCBCBC"/>
<path d="M6.95213 89.6133V89.9236C6.95213 90.6029 7.43855 91.3242 8.33594 91.9868V91.6764C7.43855 91.0055 6.95213 90.2926 6.95213 89.6133Z" fill="#BCBCBC"/>
<path d="M9.88757 89.888V90.1983C9.88757 89.9802 10.0301 89.7789 10.3153 89.6112C12.5797 88.3029 17.0834 92.4124 20.9497 90.1815C21.7465 89.7202 22.1406 89.1583 22.1406 88.5545V88.2441C22.1406 88.848 21.7548 89.4099 20.9497 89.8712C17.0918 92.1021 12.5797 87.9925 10.3153 89.3009C10.0301 89.4686 9.88757 89.6699 9.88757 89.888Z" fill="#BCBCBC"/>
<path d="M7.64584 93.8367V94.147L9.85156 92.8806V92.5703L7.64584 93.8367Z" fill="#BCBCBC"/>
<path d="M6.10641 92.957V93.2673L7.63281 94.1479V93.8376L6.10641 92.957Z" fill="#BCBCBC"/>
<path d="M15.4001 93.8221V94.1324L16.2891 92.6228V92.3125L15.4001 93.8221Z" fill="#BCBCBC"/>
<path d="M9.85363 92.5703V92.8806C11.4891 93.6354 13.5103 94.0716 15.4141 94.1303V93.82C13.5103 93.7613 11.4807 93.3167 9.85363 92.5703Z" fill="#BCBCBC"/>
<path d="M8.20425 87.9186C6.40948 88.9585 6.64429 90.4095 8.33841 91.6759L6.12432 92.959L7.65072 93.848L9.85644 92.5732C11.4919 93.328 13.5131 93.7642 15.4168 93.8229L16.3058 92.3132C14.2008 92.2378 12.1376 91.743 10.9803 91.072C9.82289 90.4011 9.5629 89.7469 10.3261 89.3108C12.5905 88.0024 17.0942 92.112 20.9605 89.8811C22.6211 88.925 22.5205 87.5328 20.8096 86.258L22.9062 85.0503L21.3966 84.1529L19.2999 85.3606C17.9916 84.74 16.4149 84.3123 14.9807 84.1445L14.0163 85.6625C15.8697 85.9309 17.4716 86.4509 18.3019 86.9373C19.2748 87.4992 19.5515 88.0779 18.8806 88.4553C16.6665 89.7217 12.0705 85.6793 8.20425 87.9186Z" fill="#8E8E8E"/>
<path d="M0.0124512 88.1196L0.0208206 85.6371H0.716938C1.36272 84.4965 2.4446 83.423 3.97938 82.5005C9.414 79.2296 18.4214 79.1374 24.0909 82.2992C25.8353 83.2721 27.0682 84.4462 27.7643 85.6958H28.4688L28.4604 88.2286C28.4771 90.2918 27.1604 92.3549 24.5018 93.9568C24.4095 94.0155 24.3173 94.0658 24.225 94.1161C24.1244 94.1749 24.0154 94.2336 23.9147 94.2923C23.9483 94.2755 23.9902 94.2503 24.0237 94.2336L23.9986 94.2503L23.747 94.3845L23.5457 94.4936L23.1348 94.6948C23.1348 94.6948 22.5729 94.9548 22.2122 95.0974C21.8516 95.24 21.2394 95.4245 20.2917 95.7432C19.3523 96.0535 17.6079 96.3051 16.5512 96.4141C15.4944 96.5231 13.4648 96.5315 12.6429 96.4644C11.821 96.4057 10.1772 96.1877 10.1772 96.1877C10.1772 96.1877 7.82053 95.609 7.08249 95.3826C6.33607 95.1561 4.78452 94.3845 4.78452 94.3845L4.39035 94.1665L4.34 94.1413C4.39871 94.1749 4.45744 94.2084 4.51614 94.2503C4.4155 94.1916 4.30648 94.1329 4.20584 94.0742C1.38788 92.4136 -0.0210953 90.2666 0.0124512 88.1196ZM27.0598 85.6875C26.3553 84.6475 25.2566 83.6662 23.7722 82.8443C18.2788 79.7832 9.55657 79.867 4.28968 83.0372C3.00651 83.8088 2.04203 84.6978 1.40463 85.6371L27.0598 85.6875Z" fill="#CDCDCD"/>
<path d="M26.3515 85.7469V85.3611C26.3599 83.516 25.1103 81.6709 22.6278 80.2871C17.8054 77.595 10.1483 77.6788 5.51879 80.4632V80.849C10.1483 78.0646 17.8054 77.9891 22.6278 80.6729C25.1019 82.0567 26.3515 83.9018 26.3515 85.7469Z" fill="#F0F0F0"/>
<path d="M5.51156 80.85C0.882069 83.6344 1.04143 88.071 5.86382 90.7631C10.6862 93.4553 18.3433 93.3714 22.9728 90.587C27.6023 87.8026 27.443 83.366 22.6206 80.6738C17.8066 77.9817 10.1411 78.0655 5.51156 80.85Z" fill="#CDCDCD"/>
<path d="M2.14413 85.2956V85.6814C2.15251 83.937 3.26797 82.2009 5.51562 80.8506V80.4648C3.26797 81.8067 2.14413 83.5512 2.14413 85.2956Z" fill="#F0F0F0"/>
<path d="M23.9006 94.2837C24.0013 94.2249 24.1103 94.1662 24.2109 94.1075C18.7512 97.219 9.95343 97.2526 4.37623 94.1495C4.31753 94.1159 4.25882 94.0824 4.19172 94.0488C4.29236 94.1075 4.40139 94.1662 4.50203 94.2249C4.56074 94.2585 4.61944 94.292 4.67814 94.3256C10.0876 97.3364 18.6086 97.3029 23.9006 94.2837Z" fill="#F0F0F0"/>
<path d="M4.29388 79.7844C-0.973015 82.9546 -0.796883 88.0118 4.69645 91.073C10.1898 94.1342 18.912 94.0503 24.1789 90.8801C29.4458 87.7099 29.2697 82.6527 23.7763 79.5915C18.283 76.5219 9.56077 76.6058 4.29388 79.7844ZM5.50997 80.4553C10.1395 77.6709 17.7966 77.5955 22.619 80.2792C27.4414 82.9714 27.6007 87.408 22.9712 90.1924C18.3417 92.9768 10.6846 93.0523 5.8622 90.3685C1.03981 87.6764 0.880472 83.2397 5.50997 80.4553Z" fill="#C1C1C1"/>
<path d="M24.27 79.8597C24.1694 79.801 24.0603 79.7423 23.9597 79.6836C29.2769 82.7532 29.4027 87.7349 24.1861 90.8715C18.9192 94.0417 10.197 94.134 4.70367 91.0644C-0.78966 88.0033 -0.965792 82.946 4.3011 79.7758L3.9824 79.9603C-1.45223 83.2312 -1.26772 88.4478 4.40174 91.6096C10.0712 94.7714 19.0702 94.6791 24.5132 91.4083C29.8891 88.171 29.7633 83.0299 24.27 79.8597Z" fill="#F0F0F0"/>
<path d="M28.3693 89.0344C28.4196 88.7492 28.4447 88.4641 28.4447 88.1789L28.4531 85.8223C28.4531 86.1074 28.428 86.3926 28.3776 86.6777L28.3693 89.0344Z" fill="#BCBCBC"/>
<path d="M27.6493 88.5461C27.8254 88.2609 27.9679 87.9674 28.0938 87.6738L28.0854 90.0305C27.9679 90.324 27.817 90.6176 27.6409 90.9027L27.6493 88.5461Z" fill="#BCBCBC"/>
<path d="M26.1558 90.2934C26.4494 90.0334 26.7177 89.7567 26.9609 89.4883L26.9525 91.845C26.7093 92.1217 26.4493 92.3901 26.1474 92.6501L26.1558 90.2934Z" fill="#BCBCBC"/>
<path d="M23.8973 91.8348C24.0986 91.7257 24.2999 91.6167 24.4928 91.4993C24.6857 91.3819 24.8786 91.2645 25.0547 91.1387L25.0463 93.4954C24.8618 93.6212 24.6773 93.7386 24.4844 93.856C24.2915 93.9734 24.0902 94.0824 23.8889 94.1914L23.8973 91.8348Z" fill="#BCBCBC"/>
<path d="M21.1251 93.0007C21.5948 92.8497 22.0477 92.6904 22.4922 92.5059L22.4838 94.8625C22.0393 95.047 21.5864 95.2064 21.1167 95.3574L21.1251 93.0007Z" fill="#BCBCBC"/>
<path d="M18.0306 93.7226C18.5338 93.6472 19.037 93.5465 19.5234 93.4375L19.515 95.7942C19.0286 95.9032 18.5254 96.0038 18.0222 96.0793L18.0306 93.7226Z" fill="#BCBCBC"/>
<path d="M14.7682 94.0077C15.2882 93.9993 15.8081 93.9741 16.3281 93.9238L16.3197 96.2805C15.7998 96.3225 15.2798 96.3476 14.7598 96.3644L14.7682 94.0077Z" fill="#BCBCBC"/>
<path d="M11.4797 93.8555C11.9913 93.9142 12.5113 93.9561 13.0312 93.9813L13.0229 96.3379C12.5029 96.3128 11.9829 96.2709 11.4713 96.2121L11.4797 93.8555Z" fill="#BCBCBC"/>
<path d="M8.31301 93.2539C8.79944 93.3797 9.29424 93.4971 9.78906 93.5894L9.78069 95.9461C9.27749 95.8538 8.78266 95.7364 8.30461 95.6106L8.31301 93.2539Z" fill="#BCBCBC"/>
<path d="M5.40869 92.2129C5.83642 92.4142 6.2893 92.5987 6.74219 92.758L6.73379 95.1147C6.27252 94.947 5.82802 94.7625 5.4003 94.5696L5.40869 92.2129Z" fill="#BCBCBC"/>
<path d="M2.93375 90.7637C3.26922 91.0153 3.62983 91.2585 4.01562 91.4933L4.00726 93.85C3.62146 93.6152 3.26083 93.372 2.92536 93.1204L2.93375 90.7637Z" fill="#BCBCBC"/>
<path d="M1.20844 89.0664C1.41811 89.3516 1.66131 89.6199 1.92969 89.8883L1.92129 92.245C1.65292 91.9766 1.40971 91.6998 1.20004 91.4231L1.20844 89.0664Z" fill="#BCBCBC"/>
<path d="M0.240355 87.2305C0.33261 87.5324 0.458413 87.8259 0.609375 88.1195L0.60098 90.4761C0.450018 90.1826 0.332601 89.8891 0.23196 89.5955L0.240355 87.2305Z" fill="#BCBCBC"/>
<path d="M0.00553385 88.095C0.00553385 88.2627 0.0139196 88.4304 0.0306931 88.5898L0.0390625 86.2331C0.022289 86.0654 0.0139032 85.8976 0.0139032 85.7383L0.00553385 88.095Z" fill="#BCBCBC"/>
<path d="M20.7861 82.7956V83.1059L22.8828 81.8982L22.8744 81.5879L20.7861 82.7956Z" fill="#BCBCBC"/>
<path d="M19.2266 84.8173V84.507C19.2266 84.1967 18.8911 83.836 18.2789 83.4838C17.4486 82.9974 15.8467 82.4774 13.9932 82.209V82.5193C15.8467 82.7877 17.4486 83.3077 18.2789 83.7941C18.8911 84.1463 19.2182 84.4986 19.2266 84.8173Z" fill="#BCBCBC"/>
<path d="M6.95213 86.1602V86.4705C6.95213 87.1498 7.43855 87.871 8.33594 88.5336V88.2233C7.43855 87.5607 6.95213 86.8395 6.95213 86.1602Z" fill="#BCBCBC"/>
<path d="M9.88757 86.4348V86.7451C9.88757 86.5271 10.0301 86.3258 10.3153 86.1581C12.5797 84.8497 17.0834 88.9592 20.9497 86.7284C21.7465 86.2671 22.1406 85.7052 22.1406 85.1013V84.791C22.1406 85.3949 21.7548 85.9568 20.9497 86.4181C17.0918 88.6489 12.5797 84.5394 10.3153 85.8478C10.0301 86.0155 9.88757 86.2168 9.88757 86.4348Z" fill="#BCBCBC"/>
<path d="M7.64584 90.392V90.7023L9.85156 89.4275V89.1172L7.64584 90.392Z" fill="#BCBCBC"/>
<path d="M6.10641 89.5039V89.8142L7.63281 90.7032V90.3929L6.10641 89.5039Z" fill="#BCBCBC"/>
<path d="M15.4001 90.367V90.6857L16.2891 89.1677V88.8574L15.4001 90.367Z" fill="#BCBCBC"/>
<path d="M9.85363 89.1172V89.4275C11.4891 90.1823 13.5103 90.6184 15.4141 90.6771V90.3668C13.5103 90.3081 11.4807 89.872 9.85363 89.1172Z" fill="#BCBCBC"/>
<path d="M8.20425 84.4635C6.40948 85.5035 6.64429 86.9544 8.33841 88.2208L6.12432 89.504L7.65072 90.393L9.85644 89.1182C11.4919 89.873 13.5131 90.3091 15.4168 90.3678L16.3058 88.8582C14.2008 88.7827 12.1376 88.2879 10.9803 87.6169C9.82289 86.946 9.5629 86.2918 10.3261 85.8557C12.5905 84.5474 17.0942 88.6569 20.9605 86.426C22.6211 85.4699 22.5205 84.0777 20.8096 82.8029L22.9062 81.5952L21.3966 80.6978L19.2999 81.9055C17.9916 81.2849 16.4149 80.8572 14.9807 80.6895L14.0163 82.2075C15.8697 82.4758 17.4716 82.9958 18.3019 83.4823C19.2748 84.0442 19.5515 84.6229 18.8806 85.0003C16.6665 86.2667 12.0705 82.2242 8.20425 84.4635Z" fill="#8E8E8E"/>
<path d="M0.0124512 84.6782L0.0208206 82.1957H0.716938C1.36272 81.0551 2.4446 79.9816 3.97938 79.0591C9.414 75.7882 18.4214 75.696 24.0909 78.8578C25.8353 79.8306 27.0682 81.0048 27.7643 82.246H28.4688L28.4604 84.7789C28.4771 86.842 27.1604 88.9051 24.5018 90.507C24.4095 90.5657 24.3173 90.616 24.225 90.6664C24.1244 90.7251 24.0154 90.7838 23.9147 90.8425C23.9483 90.8257 23.9902 90.8005 24.0237 90.7838L23.9986 90.8005L23.747 90.9347L23.5457 91.0354L23.1348 91.2367C23.1348 91.2367 22.5729 91.4967 22.2122 91.6392C21.8516 91.7818 21.2394 91.9663 20.2917 92.285C19.3523 92.5953 17.6079 92.8469 16.5512 92.956C15.4944 93.065 13.4648 93.0734 12.6429 93.0063C11.821 92.9476 10.1772 92.7295 10.1772 92.7295C10.1772 92.7295 7.82053 92.1508 7.08249 91.9244C6.33607 91.6979 4.78452 90.9263 4.78452 90.9263L4.39035 90.7083L4.34 90.6831C4.39871 90.7167 4.45744 90.7502 4.51614 90.7922C4.4155 90.7334 4.30648 90.6747 4.20584 90.616C1.38788 88.9806 -0.0210953 86.8252 0.0124512 84.6782ZM27.0598 82.246C26.3553 81.2061 25.2566 80.2248 23.7722 79.4029C18.2788 76.3418 9.55657 76.4256 4.28968 79.5958C3.00651 80.3674 2.04203 81.2564 1.40463 82.1957L27.0598 82.246Z" fill="#CDCDCD"/>
<path d="M26.3515 82.3133V81.9275C26.3599 80.0824 25.1103 78.2373 22.6278 76.8535C17.8054 74.1614 10.1483 74.2452 5.51879 77.0296V77.4154C10.1483 74.631 17.8054 74.5555 22.6278 77.2393C25.1019 78.6147 26.3515 80.4682 26.3515 82.3133Z" fill="#F0F0F0"/>
<path d="M5.51156 77.4073C0.882069 80.1917 1.04143 84.6283 5.86382 87.3205C10.6862 90.0126 18.3433 89.9287 22.9728 87.1443C27.6023 84.3599 27.443 79.9233 22.6206 77.2312C17.8066 74.5474 10.1411 74.6229 5.51156 77.4073Z" fill="#CDCDCD"/>
<path d="M2.14413 81.8523V82.2381C2.15251 80.4936 3.26797 78.7576 5.51562 77.4073V77.0215C3.26797 78.3718 2.14413 80.1078 2.14413 81.8523Z" fill="#F0F0F0"/>
<path d="M23.9006 90.8423C24.0013 90.7835 24.1103 90.7248 24.2109 90.6661C18.7512 93.7776 9.95343 93.8112 4.37623 90.7081C4.31753 90.6745 4.25882 90.641 4.19172 90.6074C4.29236 90.6661 4.40139 90.7248 4.50203 90.7835C4.56074 90.8171 4.61944 90.8507 4.67814 90.8842C10.0876 93.895 18.6086 93.8615 23.9006 90.8423Z" fill="#F0F0F0"/>
<path d="M4.29388 76.3419C-0.973015 79.5121 -0.796883 84.5693 4.69645 87.6305C10.1898 90.6916 18.912 90.6078 24.1789 87.4376C29.4458 84.2674 29.2697 79.2102 23.7763 76.149C18.283 73.0794 9.56077 73.1717 4.29388 76.3419ZM5.50997 77.0212C10.1395 74.2368 17.7966 74.1613 22.619 76.8451C27.4414 79.5372 27.6007 83.9738 22.9712 86.7582C18.3417 89.5426 10.6846 89.6181 5.8622 86.9344C1.03981 84.2422 0.880472 79.8056 5.50997 77.0212Z" fill="#C1C1C1"/>
<path d="M24.27 76.4261C24.1694 76.3674 24.0603 76.3087 23.9597 76.25C29.2769 79.3196 29.4027 84.3013 24.1861 87.4379C18.9192 90.6081 10.197 90.7004 4.70367 87.6309C-0.78966 84.5697 -0.965792 79.5125 4.3011 76.3423L3.9824 76.5268C-1.45223 79.7976 -1.26772 85.0142 4.40174 88.176C10.0712 91.3378 19.0702 91.2456 24.5132 87.9747C29.8891 84.729 29.7633 79.5963 24.27 76.4261Z" fill="#F0F0F0"/>
<path d="M28.3693 85.593C28.4196 85.3079 28.4447 85.0227 28.4447 84.7375L28.4531 82.3809C28.4531 82.666 28.428 82.9512 28.3776 83.2363L28.3693 85.593Z" fill="#BCBCBC"/>
<path d="M27.6493 85.1047C27.8254 84.8195 27.9679 84.526 28.0938 84.2324L28.0854 86.5891C27.9679 86.8826 27.817 87.1762 27.6409 87.4613L27.6493 85.1047Z" fill="#BCBCBC"/>
<path d="M26.1558 86.8618C26.4494 86.6018 26.7177 86.325 26.9609 86.0566L26.9525 88.4133C26.7093 88.6901 26.4493 88.9585 26.1474 89.2184L26.1558 86.8618Z" fill="#BCBCBC"/>
<path d="M23.8973 88.3934C24.0986 88.2844 24.2999 88.1753 24.4928 88.0579C24.6857 87.9405 24.8786 87.8231 25.0547 87.6973L25.0463 90.0539C24.8618 90.1797 24.6773 90.2972 24.4844 90.4146C24.2915 90.532 24.0902 90.641 23.8889 90.7501L23.8973 88.3934Z" fill="#BCBCBC"/>
<path d="M21.1251 89.5593C21.5948 89.4083 22.0477 89.249 22.4922 89.0645L22.4838 91.4211C22.0393 91.6056 21.5864 91.765 21.1167 91.9159L21.1251 89.5593Z" fill="#BCBCBC"/>
<path d="M18.0306 90.2812C18.5338 90.1974 19.037 90.1051 19.5234 89.9961L19.515 92.3528C19.0286 92.4618 18.5254 92.5624 18.0222 92.6379L18.0306 90.2812Z" fill="#BCBCBC"/>
<path d="M14.7682 90.5663C15.2882 90.5579 15.8081 90.5327 16.3281 90.4824L16.3197 92.8391C15.7998 92.881 15.2798 92.9062 14.7598 92.923L14.7682 90.5663Z" fill="#BCBCBC"/>
<path d="M11.4797 90.4141C11.9913 90.4728 12.5113 90.5147 13.0312 90.5399L13.0229 92.8965C12.5029 92.8714 11.9829 92.8294 11.4713 92.7707L11.4797 90.4141Z" fill="#BCBCBC"/>
<path d="M8.31301 89.8223C8.79944 89.9481 9.29424 90.0655 9.78906 90.1577L9.78069 92.5144C9.27749 92.4222 8.78266 92.3047 8.30461 92.1789L8.31301 89.8223Z" fill="#BCBCBC"/>
<path d="M5.40869 88.7793C5.83642 88.9806 6.2893 89.1651 6.74219 89.3244L6.73379 91.6811C6.27252 91.5134 5.82802 91.3289 5.4003 91.136L5.40869 88.7793Z" fill="#BCBCBC"/>
<path d="M2.93375 87.3281C3.26922 87.5797 3.62983 87.8229 4.01562 88.0578L4.00726 90.4145C3.62146 90.1796 3.26083 89.9364 2.92536 89.6848L2.93375 87.3281Z" fill="#BCBCBC"/>
<path d="M1.20844 85.6348C1.41811 85.9199 1.66131 86.1883 1.92969 86.4567L1.92129 88.8134C1.65292 88.545 1.40971 88.2682 1.20004 87.9914L1.20844 85.6348Z" fill="#BCBCBC"/>
<path d="M0.240355 83.7891C0.33261 84.091 0.458413 84.3845 0.609375 84.6697L0.60098 87.0264C0.450018 86.7328 0.332601 86.4393 0.23196 86.1457L0.240355 83.7891Z" fill="#BCBCBC"/>
<path d="M0.00553385 84.6536C0.00553385 84.8213 0.0139196 84.989 0.0306931 85.1484L0.0390625 82.7917C0.022289 82.624 0.0139032 82.4562 0.0139032 82.2969L0.00553385 84.6536Z" fill="#BCBCBC"/>
<path d="M20.7861 79.36V79.6703L22.8828 78.4627L22.8744 78.1523L20.7861 79.36Z" fill="#BCBCBC"/>
<path d="M19.2266 81.3739V81.0636C19.2266 80.7533 18.8911 80.3926 18.2789 80.0404C17.4486 79.554 15.8467 79.034 13.9932 78.7656V79.0759C15.8467 79.3443 17.4486 79.8643 18.2789 80.3507C18.8911 80.703 19.2182 81.0636 19.2266 81.3739Z" fill="#BCBCBC"/>
<path d="M6.95213 82.7148V83.0252C6.95213 83.7045 7.43855 84.4258 8.33594 85.0883V84.778C7.43855 84.1155 6.95213 83.3942 6.95213 82.7148Z" fill="#BCBCBC"/>
<path d="M9.88757 82.9973V83.3076C9.88757 83.0896 10.0301 82.8883 10.3153 82.7206C12.5797 81.4122 17.0834 85.5217 20.9497 83.2909C21.7465 82.8296 22.1406 82.2677 22.1406 81.6638V81.3535C22.1406 81.9574 21.7548 82.5193 20.9497 82.9806C17.0918 85.2114 12.5797 81.1019 10.3153 82.4103C10.0301 82.578 9.88757 82.7709 9.88757 82.9973Z" fill="#BCBCBC"/>
<path d="M7.64584 86.9525V87.2628L9.85156 85.988V85.6777L7.64584 86.9525Z" fill="#BCBCBC"/>
<path d="M6.10641 86.0625V86.3728L7.63281 87.2618V86.9515L6.10641 86.0625Z" fill="#BCBCBC"/>
<path d="M15.4001 86.9321V87.2424L16.2891 85.7244V85.4141L15.4001 86.9321Z" fill="#BCBCBC"/>
<path d="M9.85363 85.6777V85.988C11.4891 86.7428 13.5103 87.179 15.4141 87.2377V86.9274C13.5103 86.8687 11.4807 86.4325 9.85363 85.6777Z" fill="#BCBCBC"/>
<path d="M8.20425 81.0221C6.40948 82.0621 6.64429 83.513 8.33841 84.7794L6.12432 86.0625L7.65072 86.9515L9.85644 85.6767C11.4919 86.4315 13.5131 86.8677 15.4168 86.9264L16.3058 85.4168C14.2008 85.3413 12.1376 84.8465 10.9803 84.1755C9.82289 83.5046 9.5629 82.8504 10.3261 82.4143C12.5905 81.106 17.0942 85.2155 20.9605 82.9846C22.6211 82.0285 22.5205 80.6363 20.8096 79.3615L22.9062 78.1538L21.3966 77.2564L19.2999 78.4641C17.9916 77.8435 16.4149 77.4158 14.9807 77.248L14.0163 78.766C15.8697 79.0344 17.4716 79.5544 18.3019 80.0408C19.2748 80.6027 19.5515 81.1814 18.8806 81.5588C16.6665 82.8336 12.0705 78.7912 8.20425 81.0221Z" fill="#8E8E8E"/>
<path d="M0.0124512 81.229L0.0208206 78.7465H0.716938C1.36272 77.6059 2.4446 76.5324 3.97938 75.6098C9.414 72.339 18.4214 72.2467 24.0909 75.4086C25.8353 76.3814 27.0682 77.5556 27.7643 78.8052H28.4688L28.4604 81.338C28.4771 83.4012 27.1604 85.4643 24.5018 87.0662C24.4095 87.1249 24.3173 87.1752 24.225 87.2255C24.1244 87.2842 24.0154 87.3429 23.9147 87.4016C23.9483 87.3849 23.9902 87.3597 24.0237 87.3429L23.9986 87.3597L23.747 87.4939L23.5457 87.6029L23.1348 87.8042C23.1348 87.8042 22.5729 88.0642 22.2122 88.2068C21.8516 88.3494 21.2394 88.5339 20.2917 88.8525C19.3523 89.1629 17.6079 89.4145 16.5512 89.5235C15.4944 89.6325 13.4648 89.6409 12.6429 89.5738C11.821 89.5151 10.1772 89.297 10.1772 89.297C10.1772 89.297 7.82053 88.7184 7.08249 88.4919C6.34446 88.2655 4.78452 87.4939 4.78452 87.4939L4.39035 87.2758L4.34 87.2507C4.39871 87.2842 4.45744 87.3178 4.51614 87.3597C4.4155 87.301 4.30648 87.2423 4.20584 87.1836C1.38788 85.5314 -0.0210953 83.3844 0.0124512 81.229ZM27.0598 78.8052C26.3553 77.7652 25.2566 76.784 23.7722 75.9621C18.2788 72.9009 9.55657 72.9848 4.28968 76.1634C3.00651 76.9349 2.04203 77.8239 1.40463 78.7633L27.0598 78.8052Z" fill="#C2C2C2"/>
<path d="M26.3515 78.8641V78.4783C26.3599 76.6332 25.1103 74.7881 22.6278 73.4043C17.8054 70.7122 10.1483 70.796 5.51879 73.5804V73.9662C10.1483 71.1818 17.8054 71.1063 22.6278 73.7901C25.1019 75.1739 26.3515 77.019 26.3515 78.8641Z" fill="#C2C2C2"/>
<path d="M5.51156 73.9581C0.882069 76.7425 1.04143 81.1791 5.86382 83.8712C10.6862 86.5634 18.3433 86.4795 22.9728 83.6951C27.6023 80.9107 27.443 76.4741 22.6206 73.7819C17.8066 71.0982 10.1411 71.1737 5.51156 73.9581Z" fill="#F1F1F1"/>
<path d="M2.14413 78.4031V78.7888C2.15251 77.0444 3.26797 75.3083 5.51562 73.9581V73.5723C3.26797 74.9225 2.14413 76.667 2.14413 78.4031Z" fill="#C2C2C2"/>
<path d="M23.9006 87.4028C24.0013 87.3441 24.1103 87.2854 24.2109 87.2267C18.7512 90.3382 9.95343 90.3717 4.37623 87.2686C4.31753 87.2351 4.25882 87.2015 4.19172 87.168C4.29236 87.2267 4.40139 87.2854 4.50203 87.3441C4.56074 87.3777 4.61944 87.4112 4.67814 87.4447C10.0876 90.4472 18.6086 90.4136 23.9006 87.4028Z" fill="#C2C2C2"/>
<path d="M4.29388 72.8925C-0.973015 76.0627 -0.796883 81.1199 4.69645 84.1811C10.1898 87.2423 18.912 87.1584 24.1789 83.9798C29.4458 80.8096 29.2697 75.7524 23.7763 72.6912C18.283 69.6384 9.56077 69.7223 4.29388 72.8925ZM5.50997 73.5718C10.1395 70.7874 17.7966 70.712 22.619 73.3957C27.4414 76.0879 27.6007 80.5245 22.9712 83.3089C18.3417 86.0933 10.6846 86.1688 5.8622 83.485C1.03981 80.7929 0.880472 76.3563 5.50997 73.5718Z" fill="#F1F1F1"/>
<path d="M24.27 72.9769C24.1694 72.9182 24.0603 72.8595 23.9597 72.8008C29.2769 75.8703 29.4027 80.8521 24.1861 83.9887C18.9192 87.1589 10.197 87.2512 4.70367 84.19C-0.78966 81.1288 -0.965792 76.0716 4.3011 72.9014L3.9824 73.0859C-1.45223 76.3568 -1.26772 81.5733 4.40174 84.7351C10.0712 87.897 19.0702 87.8047 24.5132 84.5339C29.8891 81.2882 29.7633 76.1471 24.27 72.9769Z" fill="#C2C2C2"/>
<path d="M28.3693 82.1418C28.4196 81.8567 28.4447 81.5715 28.4447 81.2864L28.4531 78.9297C28.4531 79.2148 28.428 79.5 28.3776 79.7851L28.3693 82.1418Z" fill="#BCBCBC"/>
<path d="M27.6493 81.6535C27.8254 81.3683 27.9679 81.0748 28.0938 80.7812L28.0854 83.1379C27.9679 83.4315 27.817 83.725 27.6409 84.0102L27.6493 81.6535Z" fill="#BCBCBC"/>
<path d="M26.1558 83.4106C26.4494 83.1506 26.7177 82.8738 26.9609 82.6055L26.9525 84.9622C26.7093 85.2389 26.4493 85.5073 26.1474 85.7673L26.1558 83.4106Z" fill="#BCBCBC"/>
<path d="M23.8973 84.95C24.0986 84.841 24.2999 84.732 24.4928 84.6146C24.6857 84.4971 24.8786 84.3797 25.0547 84.2539L25.0463 86.6106C24.8618 86.7364 24.6773 86.8538 24.4844 86.9712C24.2915 87.0887 24.0902 87.1977 23.8889 87.3067L23.8973 84.95Z" fill="#BCBCBC"/>
<path d="M21.1251 86.1081C21.5948 85.9571 22.0477 85.7978 22.4922 85.6133L22.4838 87.97C22.0393 88.1545 21.5864 88.3138 21.1167 88.4648L21.1251 86.1081Z" fill="#BCBCBC"/>
<path d="M18.0306 86.8359C18.5338 86.7521 19.037 86.6598 19.5234 86.5508L19.515 88.9075C19.0286 89.0165 18.5254 89.1171 18.0222 89.1926L18.0306 86.8359Z" fill="#BCBCBC"/>
<path d="M14.7682 87.1229C15.2882 87.1145 15.8081 87.0894 16.3281 87.0391L16.3197 89.3957C15.7998 89.4377 15.2798 89.4628 14.7598 89.4796L14.7682 87.1229Z" fill="#BCBCBC"/>
<path d="M11.4797 86.9629C11.9913 87.0216 12.5113 87.0635 13.0312 87.0887L13.0229 89.4454C12.5029 89.4202 11.9829 89.3783 11.4713 89.3196L11.4797 86.9629Z" fill="#BCBCBC"/>
<path d="M8.31301 86.3711C8.79944 86.4969 9.29424 86.6143 9.78906 86.7066L9.78069 89.0632C9.27749 88.971 8.78266 88.8536 8.30461 88.7278L8.31301 86.3711Z" fill="#BCBCBC"/>
<path d="M5.40869 85.3281C5.83642 85.5294 6.2893 85.7139 6.74219 85.8733L6.73379 88.23C6.27252 88.0622 5.82802 87.8777 5.4003 87.6848L5.40869 85.3281Z" fill="#BCBCBC"/>
<path d="M2.93375 83.877C3.26922 84.1286 3.62983 84.3718 4.01562 84.6066L4.00726 86.9633C3.62146 86.7284 3.26083 86.4852 2.92536 86.2336L2.93375 83.877Z" fill="#BCBCBC"/>
<path d="M1.20844 82.1836C1.41811 82.4687 1.66131 82.7371 1.92969 83.0055L1.92129 85.3622C1.65292 85.0938 1.40971 84.8171 1.20004 84.5403L1.20844 82.1836Z" fill="#BCBCBC"/>
<path d="M0.240355 80.3477C0.33261 80.6496 0.458413 80.9431 0.609375 81.2283L0.60098 83.5849C0.450018 83.2914 0.332601 82.9979 0.23196 82.7043L0.240355 80.3477Z" fill="#BCBCBC"/>
<path d="M0.00553385 81.2024C0.00553385 81.3701 0.0139196 81.5379 0.0306931 81.6972L0.0390625 79.3405C0.022289 79.1728 0.0139032 79.0051 0.0139032 78.8457L0.00553385 81.2024Z" fill="#BCBCBC"/>
<path d="M20.7861 75.9108V76.2211L22.8828 75.0134L22.8744 74.7031L20.7861 75.9108Z" fill="#BCBCBC"/>
<path d="M19.2266 77.9227V77.6124C19.2266 77.3021 18.8911 76.9415 18.2789 76.5892C17.4486 76.1028 15.8467 75.5828 13.9932 75.3145V75.6248C15.8467 75.8931 17.4486 76.4131 18.2789 76.8996C18.8911 77.2518 19.2182 77.6124 19.2266 77.9227Z" fill="#BCBCBC"/>
<path d="M6.95213 79.2617V79.572C6.95213 80.2514 7.43855 80.9726 8.33594 81.6352V81.3249C7.43855 80.6623 6.95213 79.9494 6.95213 79.2617Z" fill="#BCBCBC"/>
<path d="M9.88757 79.5501V79.8604C9.88757 79.6423 10.0301 79.441 10.3153 79.2733C12.5797 77.9649 17.0834 82.0745 20.9497 79.8436C21.7465 79.3823 22.1406 78.8204 22.1406 78.2166V77.9062C22.1406 78.5101 21.7548 79.072 20.9497 79.5333C17.0918 81.7642 12.5797 77.6546 10.3153 78.963C10.0301 79.1307 9.88757 79.332 9.88757 79.5501Z" fill="#BCBCBC"/>
<path d="M7.64584 83.4988V83.8091L9.85156 82.5427V82.2324L7.64584 83.4988Z" fill="#BCBCBC"/>
<path d="M6.10641 82.6191V82.9294L7.63281 83.81V83.4997L6.10641 82.6191Z" fill="#BCBCBC"/>
<path d="M15.4001 83.4823V83.7926L16.2891 82.283V81.9727L15.4001 83.4823Z" fill="#BCBCBC"/>
<path d="M9.85363 82.2324V82.5427C11.4891 83.2975 13.5103 83.7336 15.4141 83.7923V83.482C13.5103 83.4233 11.4807 82.9788 9.85363 82.2324Z" fill="#BCBCBC"/>
<path d="M8.20425 77.5768C6.40948 78.6167 6.64429 80.0677 8.33841 81.3341L6.12432 82.6172L7.65072 83.5062L9.85644 82.2315C11.4919 82.9863 13.5131 83.4224 15.4168 83.4811L16.3058 81.9714C14.2008 81.896 12.1376 81.4012 10.9803 80.7302C9.82289 80.0593 9.5629 79.4051 10.3261 78.969C12.5905 77.6607 17.0942 81.7702 20.9605 79.5393C22.6211 78.5832 22.5205 77.191 20.8096 75.9162L22.9062 74.7085L21.3966 73.8111L19.2999 75.0188C17.9916 74.3982 16.4149 73.9705 14.9807 73.8027L14.0163 75.3207C15.8697 75.5891 17.4716 76.1091 18.3019 76.5955C19.2748 77.1574 19.5515 77.7361 18.8806 78.1135C16.6665 79.3799 12.0705 75.3375 8.20425 77.5768Z" fill="#D7D7D7"/>
<path d="M42.975 116.159C40.9873 124.848 33.8586 128.84 27.0401 125.074C20.2217 121.309 16.3051 111.219 18.2928 102.531C20.2804 93.8418 27.4092 89.8498 34.2276 93.6154C41.0461 97.3811 44.9627 107.47 42.975 116.159ZM24.2473 121.988C24.1635 121.904 24.0796 121.812 23.9957 121.719C24.0712 121.812 24.1551 121.904 24.2473 121.988ZM25.0357 122.751C24.9015 122.634 24.7673 122.508 24.6331 122.382C24.7673 122.508 24.9015 122.625 25.0357 122.751Z" fill="#C2C2C2"/>
<path d="M38.609 115.653C36.9233 123.041 30.8512 126.438 25.0476 123.234C19.244 120.031 15.9144 111.443 17.6001 104.054C19.2859 96.6651 25.3579 93.2684 31.1616 96.4722C36.9652 99.6759 40.2948 108.264 38.609 115.653Z" fill="#F1F1F1"/>
<path d="M30.8109 124.325C30.7689 124.334 30.7186 124.35 30.6767 124.359C28.7729 124.753 26.7014 124.443 24.6634 123.31C18.8681 120.107 15.5302 111.519 17.2159 104.13C18.3146 99.3326 21.25 96.2212 24.764 95.4999L25.1498 95.416C21.6358 96.1373 18.7004 99.2488 17.6017 104.046C15.916 111.435 19.2455 120.023 25.0492 123.227C27.0033 124.317 28.9742 124.644 30.8109 124.325ZM30.6767 124.359C30.7941 124.334 30.9451 124.3 31.0625 124.275L30.6767 124.359Z" fill="#C2C2C2"/>
<path d="M31.2022 94.6944C24.6018 91.0462 17.6827 94.9125 15.7622 103.333C13.8416 111.753 17.6324 121.532 24.2412 125.172C30.85 128.82 37.7607 124.954 39.6812 116.534C41.6018 108.122 37.8026 98.3427 31.2022 94.6944ZM38.2219 115.737C36.5362 123.126 30.4642 126.522 24.6605 123.318C18.8569 120.115 15.5273 111.527 17.2131 104.138C18.8988 96.7492 24.9708 93.3525 30.7745 96.5563C36.5697 99.7516 39.9077 108.34 38.2219 115.737Z" fill="#F1F1F1"/>
<path d="M39.6739 116.535L40.4203 116.669C38.4327 125.358 31.3039 129.35 24.4855 125.584C17.667 121.818 13.7504 111.729 15.7381 103.04C17.7257 94.3516 24.8545 90.3595 31.6729 94.1252C38.4914 97.8908 42.408 107.98 40.4203 116.669L39.6739 116.535C41.5945 108.114 37.8036 98.3353 31.1949 94.6955C24.5945 91.0472 17.6754 94.9135 15.7549 103.334C13.8343 111.754 17.6251 121.533 24.2339 125.173C30.8426 128.821 37.7533 124.955 39.6739 116.535Z" fill="#F0F0F0"/>
<path d="M40.8517 121.239C41.1368 120.778 41.4052 120.291 41.6484 119.771L39.2918 120.258C39.0485 120.769 38.7802 121.264 38.495 121.726L40.8517 121.239Z" fill="#BCBCBC"/>
<path d="M38.7882 123.781C39.1488 123.437 39.501 123.068 39.8281 122.674L37.4714 123.16C37.1444 123.563 36.7921 123.932 36.4315 124.267L38.7882 123.781Z" fill="#BCBCBC"/>
<path d="M36.299 125.526C36.7183 125.316 37.1293 125.073 37.5234 124.805L35.1668 125.291C34.7726 125.559 34.3616 125.803 33.9423 126.012L36.299 125.526Z" fill="#BCBCBC"/>
<path d="M31.664 126.798C31.9492 126.739 32.2259 126.672 32.5027 126.588L34.8594 126.102L34.0207 126.311L31.664 126.798Z" fill="#BCBCBC"/>
<path d="M29.8828 92.2641C29.4048 92.2138 28.9267 92.2054 28.4571 92.2305L26.1004 92.717C26.5701 92.6918 27.0481 92.7002 27.5261 92.7505L29.8828 92.2641Z" fill="#BCBCBC"/>
<path d="M32.9531 93.0599C32.4667 92.8502 31.9719 92.6824 31.4854 92.5566L29.1288 93.0431C29.6152 93.1689 30.1016 93.3366 30.5964 93.5463L32.9531 93.0599Z" fill="#BCBCBC"/>
<path d="M35.9688 94.8467C35.5243 94.4945 35.0546 94.1758 34.5765 93.8906L32.2199 94.377C32.6979 94.6622 33.1592 94.9893 33.6121 95.3332L35.9688 94.8467Z" fill="#BCBCBC"/>
<path d="M38.5703 97.4132C38.1929 96.952 37.8071 96.5242 37.3962 96.1133L35.0395 96.5997C35.4504 97.0107 35.8446 97.4468 36.2136 97.8997L38.5703 97.4132Z" fill="#BCBCBC"/>
<path d="M40.6719 100.592C40.3783 100.047 40.068 99.5266 39.741 99.0234L37.3843 99.5099C37.7114 100.013 38.03 100.541 38.3152 101.078L40.6719 100.592Z" fill="#BCBCBC"/>
<path d="M42.2266 104.216C42.0337 103.621 41.8072 103.025 41.564 102.455L39.2073 102.942C39.4506 103.52 39.6686 104.107 39.8699 104.703L42.2266 104.216Z" fill="#BCBCBC"/>
<path d="M43.1484 108.131C43.0562 107.502 42.9388 106.873 42.7878 106.252L40.4311 106.738C40.5737 107.359 40.6911 107.988 40.7918 108.617L43.1484 108.131Z" fill="#BCBCBC"/>
<path d="M43.3901 112.167C43.4068 111.529 43.3984 110.883 43.3649 110.246L41.0082 110.733C41.0418 111.37 41.0501 112.016 41.0334 112.653L43.3901 112.167Z" fill="#BCBCBC"/>
<path d="M43.0469 115.371C42.9966 115.639 42.9462 115.908 42.8791 116.168C42.7953 116.545 42.6946 116.914 42.594 117.275L40.2373 117.761C40.2541 117.694 40.2709 117.636 40.296 117.568C40.3799 117.266 40.4554 116.965 40.5308 116.654C40.5896 116.386 40.6483 116.117 40.6986 115.849L43.0469 115.371Z" fill="#BCBCBC"/>
<path d="M43.0469 115.371C42.9966 115.639 42.9462 115.908 42.8791 116.168C42.7953 116.545 42.6946 116.914 42.594 117.275L40.2373 117.761C40.2541 117.694 40.2709 117.636 40.296 117.568C40.3799 117.266 40.4554 116.965 40.5308 116.654C40.5896 116.386 40.6483 116.117 40.6986 115.849L43.0469 115.371Z" fill="#BCBCBC"/>
<path d="M26.885 122.298L27.2037 122.189L27.7656 118.859L27.4469 118.968L26.885 122.298Z" fill="#BCBCBC"/>
<path d="M31.5172 116.022L31.8359 115.913C30.3263 116.417 28.6154 116.249 27.3322 115.511C25.9149 114.697 25.1769 113.548 25.3697 112.399C25.4704 111.804 25.7555 111.502 26.1581 111.359L25.8394 111.468C25.4285 111.603 25.1433 111.913 25.051 112.508C24.8581 113.657 25.5962 114.806 27.0135 115.62C28.2883 116.366 30.0076 116.534 31.5172 116.022Z" fill="#BCBCBC"/>
<path d="M32.1497 119.287L32.4684 119.178C32.6277 119.128 32.7787 119.069 32.9297 119.002L32.611 119.111C32.46 119.178 32.3007 119.237 32.1497 119.287Z" fill="#BCBCBC"/>
<path d="M32.6026 119.11L32.9297 119.001L32.3174 115.738L31.9987 115.847L32.6026 119.11Z" fill="#BCBCBC"/>
<path d="M29.8922 108.406L30.2109 108.297C28.8942 108.741 26.2775 107.408 24.466 108.011L24.1473 108.12C25.9589 107.517 28.5755 108.842 29.8922 108.406Z" fill="#BCBCBC"/>
<path d="M28.3766 101.288L28.6953 101.179C27.2109 100.525 25.6928 100.348 24.4851 100.6L24.1665 100.709C25.3742 100.457 26.8922 100.642 28.3766 101.288Z" fill="#BCBCBC"/>
<path d="M30.775 99.2253L31.0938 99.1162L29.2319 98.0176L28.9132 98.1266L30.775 99.2253Z" fill="#BCBCBC"/>
<path d="M30.2383 102.398L30.557 102.289L31.0938 99.1191L30.775 99.2282L30.2383 102.398Z" fill="#BCBCBC"/>
<path d="M28.9254 98.127L28.3887 101.297C26.9042 100.643 25.3862 100.467 24.1785 100.718L24.7404 104.031C26.3339 103.788 27.9526 104.132 28.9758 104.719C30.1667 105.407 30.846 106.388 30.6783 107.403C30.1164 110.732 23.323 104.836 22.3502 110.732C21.8973 113.433 23.2895 116.117 25.5959 117.861L25.034 121.216L26.9042 122.298L27.4661 118.968C29.3028 119.748 31.1647 119.765 32.6156 119.111L32.0034 115.848C30.3931 116.569 28.4474 116.444 27.03 115.63C25.6127 114.817 24.8746 113.668 25.0675 112.519C25.6462 109.088 32.4143 115.135 33.3956 109.29C33.8149 106.782 32.5821 104.157 30.2505 102.404L30.7873 99.234L28.9254 98.127Z" fill="#D7D7D7"/>
<path d="M31.6444 111.813L31.9631 111.703C32.8017 111.418 33.4643 110.705 33.7159 109.171C34.1352 106.663 32.9024 104.038 30.5708 102.285L30.2521 102.394C32.5837 104.155 33.8165 106.772 33.3972 109.28C33.1372 110.814 32.483 111.536 31.6444 111.813Z" fill="#BCBCBC"/>
<defs>
<linearGradient id="paint0_linear_5865_20959" x1="44.7986" y1="31.6752" x2="27.4876" y2="1.69183" gradientUnits="userSpaceOnUse">
<stop offset="0.1772" stop-color="#E8E8E8"/>
<stop offset="0.664" stop-color="#D7D7D7"/>
</linearGradient>
<linearGradient id="paint1_linear_5865_20959" x1="84.4829" y1="75.3837" x2="55.6114" y2="25.3769" gradientUnits="userSpaceOnUse">
<stop offset="0.1772" stop-color="#E5E5E5"/>
<stop offset="0.9392" stop-color="#D7D7D7"/>
</linearGradient>
</defs>
</svg>
