<svg width="12" height="16" viewBox="0 0 12 16" fill="none" xmlns="http://www.w3.org/2000/svg">
<path d="M3.33287 13.4332V16H8.66507V13.5439C8.65201 12.9757 8.76009 12.4113 8.98213 11.8881C9.20416 11.365 9.53506 10.8951 9.9528 10.5098C10.8645 9.71068 11.5127 8.65402 11.8119 7.47912C12.1111 6.30422 12.0473 5.06624 11.6288 3.92834C11.2104 2.79045 10.457 1.80605 9.4679 1.1049C8.47881 0.403746 7.30048 0.0187554 6.08822 0.000667894C4.87596 -0.0174196 3.68667 0.332245 2.67711 1.00358C1.66754 1.67491 0.88509 2.63639 0.432885 3.76129C-0.01932 4.8862 -0.120053 6.12173 0.143962 7.30503C0.407978 8.48833 1.02435 9.56386 1.91184 10.3899C2.34654 10.7711 2.69732 11.2384 2.94194 11.7623C3.18656 12.2862 3.31968 12.8552 3.33287 13.4332ZM7.33202 14.6669H4.66592V13.4332C4.66592 13.3999 4.66125 13.3666 4.66059 13.3339H7.34268C7.34268 13.4039 7.33202 13.4732 7.33202 13.5439V14.6669ZM1.37328 5.38559C1.47237 4.63786 1.75126 3.92531 2.18605 3.30898C2.62084 2.69265 3.19858 2.19092 3.86975 1.84678C4.54093 1.50264 5.28553 1.32635 6.03976 1.33302C6.79399 1.33968 7.53536 1.52911 8.20034 1.88505C8.86533 2.241 9.43411 2.75287 9.85794 3.37678C10.2818 4.0007 10.548 4.71807 10.6339 5.46743C10.7197 6.21679 10.6226 6.97579 10.3509 7.6794C10.0792 8.38301 9.6409 9.01025 9.07365 9.50738C8.33181 10.1716 7.80053 11.0384 7.54531 12.0008H6.66549V7.21253C7.05402 7.07517 7.39061 6.82113 7.62923 6.48515C7.86785 6.14918 7.99684 5.74768 7.99854 5.3356H6.66549C6.66549 5.51237 6.59527 5.6819 6.47027 5.8069C6.34527 5.9319 6.17574 6.00212 5.99897 6.00212C5.8222 6.00212 5.65266 5.9319 5.52766 5.8069C5.40267 5.6819 5.33244 5.51237 5.33244 5.3356H3.99939C4.0011 5.74768 4.13009 6.14918 4.36871 6.48515C4.60732 6.82113 4.94392 7.07517 5.33244 7.21253V12.0008H4.4513C4.15069 11.0072 3.58689 10.1134 2.81964 9.41407C2.27279 8.90808 1.85584 8.27782 1.60408 7.57661C1.35232 6.8754 1.27316 6.12386 1.37328 5.38559Z" fill="#212121"/>
</svg>
