<svg width="44" height="50" viewBox="0 0 44 50" fill="none" xmlns="http://www.w3.org/2000/svg">
<path d="M13.0448 33.122C15.4876 28.8903 17.8667 24.7623 20.2513 20.6473C19.8339 20.2402 19.4164 19.8331 18.999 19.426C17.8724 19.9936 16.5223 20.3409 15.6543 21.1755C11.2916 25.3502 6.99355 29.6052 2.79159 33.9423C0.442174 36.377 -0.55545 38.4866 3.70059 40.5507C8.81414 43.0281 13.5483 46.2796 18.4534 49.1904C18.963 48.7066 19.4634 48.2191 19.9692 47.7447C18.206 45.204 16.4465 42.654 14.6115 39.9977C26.9829 38.2679 39.5544 36.2848 43.2765 21.2284C45.1511 13.6139 43.0015 3.9755 38.3168 0.49586C38.1208 4.08619 37.7612 7.01639 37.8529 9.92493C38.0365 15.742 39.55 22.1643 34.5591 26.4507C28.5328 31.6117 21.0314 33.4963 13.0448 33.122Z" fill="#ECECEC"/>
</svg>
