<svg width="22" height="23" viewBox="0 0 22 23" fill="none" xmlns="http://www.w3.org/2000/svg">
<path d="M7.9436 16.2527C9.77692 14.8264 11.5656 13.437 13.3478 12.0457C13.5667 12.2158 13.7856 12.3858 14.0045 12.5558C13.8107 13.1233 13.7352 13.7817 13.3988 14.2449C11.7175 16.5714 9.99423 18.8727 8.22596 21.1342C7.23275 22.3993 6.30442 23.0066 5.05491 21.1371C3.55489 18.8908 1.71509 16.8736 0.0245928 14.7537C0.219143 14.4822 0.416068 14.2148 0.606502 13.9457C1.91786 14.6102 3.23335 15.2725 4.60379 15.9633C4.61155 10.025 4.72554 3.97604 11.5726 1.24148C15.0359 -0.13777 19.7146 0.245886 21.6586 2.2249C19.9808 2.55136 18.6244 2.91177 17.2489 3.05823C14.4977 3.35115 11.3749 3.05725 9.68197 5.68691C7.64476 8.86115 7.24653 12.5163 7.9436 16.2527Z" fill="#ECECEC" fill-opacity="0.5"/>
</svg>
