<svg width="24" height="24" viewBox="0 0 24 24" fill="none" xmlns="http://www.w3.org/2000/svg">
<path d="M18.284 24C14.0968 24 9.91025 24 5.72308 24C5.44651 23.9596 5.16816 23.9294 4.89336 23.8783C2.07422 23.3513 0.020704 20.8883 0.0088339 17.9736C-0.00719068 13.9977 0.00289892 10.0212 0.00586643 6.04534C0.00645994 4.99484 0.243861 3.99479 0.779794 3.09029C1.99173 1.04567 3.80725 0.0159444 6.1783 0.00763538C10.0521 -0.00660869 13.9259 0.00288743 17.7997 0.00585495C18.0881 0.00585495 18.3784 0.0183184 18.6644 0.0521481C21.1316 0.347119 23.1626 2.11635 23.7941 4.52598C23.8884 4.88504 23.9329 5.25776 24.0006 5.62396C24.0006 9.90549 24.0006 14.187 24.0006 18.4686C23.7264 19.925 23.2694 21.201 22.1886 22.2646C21.0776 23.359 19.7766 23.7341 18.284 24ZM19.4271 19.4081C19.4312 19.3262 19.4366 19.2727 19.4366 19.2187C19.4372 17.6649 19.4538 16.1117 19.4348 14.558C19.4199 13.3526 19.4894 11.8059 18.7896 10.7601C18.0751 9.69183 16.6335 9.42772 15.4346 9.5203C14.882 9.56304 14.314 9.65859 13.8185 9.92033C13.349 10.1684 13.1336 10.5631 12.7513 10.8925C12.7513 10.404 12.7513 9.9678 12.7513 9.5393C11.8433 9.5393 10.9732 9.5393 10.099 9.5393C10.099 12.835 10.099 16.1123 10.099 19.4004C11.0498 19.4004 11.9881 19.4004 12.9425 19.4004C12.9425 17.8187 12.9122 16.2346 12.949 14.6529C12.9769 13.4463 13.168 12.0973 14.6203 11.9952C16.2566 11.8801 16.5278 13.3306 16.5462 14.6678C16.5682 16.2477 16.5569 17.8282 16.5569 19.4081C17.5332 19.4081 18.4686 19.4081 19.4271 19.4081ZM4.58237 19.4075C5.72486 19.4075 6.84658 19.4075 7.97721 19.4075C7.97721 16.1088 7.97721 12.8214 7.97721 9.53692C6.83531 9.53692 5.71537 9.53692 4.58237 9.53692C4.58237 12.8279 4.58237 16.104 4.58237 19.4075ZM6.27148 4.50105C5.3195 4.4963 4.53311 5.2732 4.51412 6.23704C4.48444 7.77778 6.42164 8.55052 7.49113 7.47925C8.56596 6.40204 7.80212 4.50876 6.27148 4.50105Z" fill="#FFC54D"/>
</svg>
