<svg width="39" height="64" viewBox="0 0 39 64" fill="none" xmlns="http://www.w3.org/2000/svg">
<path d="M-0.0017128 33.756L38.513 20.543V46.7618V46.805C38.635 47.6594 38.147 48.4879 37.0114 49.092L10.969 62.9609C8.71665 64.1605 4.77511 64.0052 2.16617 62.6243C0.786625 61.8908 0.0639992 60.9587 0.0170746 60.0698L0.00767899 60.0784V33.756H-0.0017128Z" fill="url(#paint0_linear_3327_22895)"/>
<path d="M10.9677 36.5878L37.0102 22.7188C39.2625 21.5192 38.981 19.4307 36.3814 18.0412C33.7725 16.6604 29.8309 16.505 27.5786 17.7046L1.53614 31.5736C-0.716183 32.7732 -0.434631 34.8617 2.16492 36.2512C4.76448 37.632 8.70601 37.7874 10.9677 36.5878Z" fill="url(#paint1_linear_3327_22895)"/>
<path d="M2.04324 36.0269C4.65218 37.4077 8.59375 37.5631 10.8461 36.3635L36.8885 22.4946C38.0335 21.8818 38.5308 21.0447 38.3901 20.1816C38.8687 21.2173 38.437 22.2874 37.0575 23.0296L11.015 36.8985C8.76267 38.0982 4.8211 37.9428 2.21216 36.562C0.935844 35.8802 0.213238 35.0344 0.081852 34.2059C0.372776 34.8532 1.0297 35.4918 2.04324 36.0269Z" fill="#FEC303"/>
<g opacity="0.3">
<path d="M16.6894 1.62569C23.9625 -2.23206 33.0469 2.60091 33.0469 10.3164V23.5812C33.0469 23.5898 33.0469 23.5984 33.0469 23.6071C33.0469 24.6686 31.4421 25.523 29.462 25.523C27.4818 25.523 25.877 24.6686 25.877 23.6071C25.877 23.5984 25.877 23.5812 25.877 23.5726H25.8395V11.7318C25.8395 8.46089 21.9917 6.4155 18.9136 8.04663C15.338 9.93666 13.1232 13.4406 13.1232 17.2379V34.1274H13.0857C13.0482 35.1717 11.4621 36.0088 9.51013 36.0088C7.53935 36.0088 5.95334 35.1631 5.93457 34.1102V18.7396C5.93457 11.6714 10.0357 5.14686 16.6894 1.62569Z" fill="url(#paint2_linear_3327_22895)"/>
<path d="M30.8235 24.4881V11.9052C30.8235 6.7356 26.2532 2.53264 20.6317 2.53264C18.858 2.53264 17.15 2.95553 15.5734 3.79267C14.5505 4.33638 13.5838 4.95776 12.6829 5.63956C13.9686 4.44857 15.4326 3.40431 17.0468 2.54128C18.6328 1.70414 20.3314 1.28125 22.1051 1.28125C27.7266 1.28125 32.2969 5.48421 32.2969 10.6538V23.2367V23.9185C32.2969 23.9358 32.2969 23.9531 32.2969 23.9617C32.2781 24.3587 31.6963 24.7902 30.8141 25.0146V24.4881H30.8235Z" fill="url(#paint3_radial_3327_22895)"/>
<path d="M10.8998 35.2483H10.9091V19.0406C10.9091 15.5194 12.711 12.2227 15.6953 10.0996C13.6025 12.1623 12.3919 14.9067 12.3919 17.7892V33.9969H12.3825L12.3544 34.6615C12.3356 35.0585 11.7631 35.49 10.881 35.7144L10.8998 35.2483Z" fill="url(#paint4_radial_3327_22895)"/>
<path d="M24.1671 4.9043C27.3954 4.9043 30.0325 7.32078 30.0325 10.2982V24.0463L30.07 25.2287C30.0982 25.3236 28.0617 25.1769 28.0148 25.0043L27.9772 23.8219V10.0739C27.9772 7.64874 26.2317 5.59472 23.8292 4.92156C23.9512 4.9043 24.0544 4.9043 24.1671 4.9043Z" fill="url(#paint5_linear_3327_22895)"/>
<path d="M17.9179 3.23088C19.4288 2.42826 21.043 2.03125 22.7322 2.03125C23.436 2.03125 24.1399 2.10893 24.8438 2.25565C24.825 2.25565 24.8062 2.25565 24.7874 2.25565C23.0982 2.25565 21.4747 2.66127 19.9731 3.45526C13.7229 6.7693 9.83767 12.9486 9.83767 19.5767V35.7499V35.8362C9.83767 35.9225 7.79181 35.7671 7.78242 35.6118V35.5255V19.3523C7.78242 12.7156 11.6677 6.53628 17.9179 3.23088Z" fill="url(#paint6_linear_3327_22895)"/>
<path opacity="0.5" d="M27.7031 12.2502V24.9453C26.896 24.7123 26.3705 24.3067 26.3423 23.9356V23.927L26.3048 23.1934V12.0258C26.3048 9.82505 24.7282 7.95228 22.5603 7.32227C25.4133 7.43446 27.7031 9.60067 27.7031 12.2502Z" fill="url(#paint7_linear_3327_22895)"/>
<g opacity="0.5">
<path d="M16.596 2.59173C17.3468 2.19474 18.1164 1.89267 18.9141 1.68555C12.1008 5.43973 7.87771 12.2577 7.87771 19.5848V35.4991C6.9017 35.2833 6.24476 34.8259 6.24476 34.403V34.3167V19.0756C6.23537 12.2836 10.2051 5.97481 16.596 2.59173Z" fill="url(#paint8_linear_3327_22895)"/>
</g>
</g>
<path d="M28.8801 23.4256C26.5788 23.4256 24.7133 22.4248 24.7133 21.1903C24.7133 19.9558 26.5788 18.9551 28.8801 18.9551C31.1814 18.9551 33.0469 19.9558 33.0469 21.1903C33.0469 22.4248 31.1814 23.4256 28.8801 23.4256Z" fill="#E6E7E8"/>
<path d="M5.01198 31.6682C5.01198 32.8678 6.82322 33.8344 9.05677 33.8344C11.2903 33.8344 13.1016 32.8678 13.1016 31.6682C13.1016 30.4686 11.2903 29.502 9.05677 29.502C6.82322 29.4934 5.01198 30.4686 5.01198 31.6682Z" fill="#E6E7E8"/>
<path d="M16.6894 1.58272C23.9625 -2.27502 33.0469 2.55794 33.0469 10.2734V21.1562C33.0469 21.1649 33.0469 21.1735 33.0469 21.1821C33.0469 22.2437 31.4421 23.0981 29.462 23.0981C27.4818 23.0981 25.877 22.235 25.877 21.1821C25.877 21.1735 25.877 21.1563 25.877 21.1476H25.8395V11.6802C25.8395 8.40929 21.9917 6.3639 18.9136 7.99503C15.338 9.88507 13.1232 13.389 13.1232 17.1863V31.6939H13.0857C13.0482 32.7381 11.4621 33.5753 9.51013 33.5753C7.53935 33.5753 5.95334 32.7295 5.93457 31.6766V18.688C5.93457 11.637 10.0357 5.11252 16.6894 1.58272Z" fill="url(#paint9_linear_3327_22895)"/>
<path d="M30.8235 22.071V11.87C30.8235 6.70044 26.2532 2.49749 20.6317 2.49749C18.858 2.49749 17.15 2.92036 15.5734 3.7575C14.5505 4.30121 13.5838 4.92261 12.6829 5.6044C13.9686 4.41342 15.4326 3.36914 17.0468 2.50611C18.6328 1.66897 20.3314 1.24609 22.1051 1.24609C27.7266 1.24609 32.2969 5.44905 32.2969 10.6186V20.8196V21.5014C32.2969 21.5187 32.2969 21.5359 32.2969 21.5446C32.2781 21.9416 31.6963 22.3731 30.8141 22.5975V22.071H30.8235Z" fill="url(#paint10_radial_3327_22895)"/>
<path d="M10.8998 32.8331H10.9091V19.0074C10.9091 15.4862 12.711 12.1895 15.6953 10.0664C13.6025 12.129 12.3919 14.8735 12.3919 17.756V31.5818H12.3825L12.3544 32.2463C12.3356 32.6433 11.7631 33.0662 10.881 33.2992L10.8998 32.8331Z" fill="url(#paint11_radial_3327_22895)"/>
<path d="M24.1671 4.86133C27.3954 4.86133 30.0325 7.27781 30.0325 10.2553V21.6214L30.07 22.8037C30.0982 22.8987 28.0617 22.752 28.0148 22.5793L27.9772 21.397V10.0309C27.9772 7.60576 26.2317 5.55174 23.8292 4.87858C23.9512 4.86995 24.0544 4.86133 24.1671 4.86133Z" fill="url(#paint12_linear_3327_22895)"/>
<path d="M17.9179 3.18789C19.4288 2.38527 21.043 1.98828 22.7322 1.98828C23.436 1.98828 24.1399 2.06595 24.8438 2.21266C24.825 2.21266 24.8062 2.21266 24.7874 2.21266C23.0982 2.21266 21.4747 2.61829 19.9731 3.41228C13.7229 6.72631 9.83767 12.9056 9.83767 19.5337V33.3249V33.4112C9.83767 33.4975 7.79181 33.3422 7.78242 33.1868V33.1005V19.3093C7.78242 12.6812 11.6677 6.50193 17.9179 3.18789Z" fill="url(#paint13_linear_3327_22895)"/>
<path opacity="0.5" d="M27.7031 12.215V22.5282C26.896 22.2952 26.3705 21.8896 26.3423 21.5185V21.5098L26.3048 20.7763V11.9906C26.3048 9.7899 24.7282 7.91712 22.5603 7.28711C25.4133 7.39067 27.7031 9.5655 27.7031 12.215Z" fill="url(#paint14_linear_3327_22895)"/>
<g opacity="0.5">
<path d="M16.596 2.54876C17.3468 2.15177 18.1164 1.84971 18.9141 1.64258C12.1008 5.39676 7.87771 12.2147 7.87771 19.5418V33.0742C6.9017 32.8584 6.24476 32.401 6.24476 31.9781V31.8918V19.0327C6.23537 12.2492 10.2051 5.93184 16.596 2.54876Z" fill="url(#paint15_linear_3327_22895)"/>
</g>
<path d="M20.6463 2.5331C18.7881 2.5331 16.9957 2.94735 15.3252 3.7586C15.954 3.32708 16.6109 2.93009 17.296 2.55899C18.8069 1.75637 20.4211 1.35938 22.1103 1.35938C26.7745 1.35938 31.8047 4.76835 31.8047 10.2745V10.3004C30.3688 5.44151 25.348 2.5331 20.6463 2.5331Z" fill="url(#paint16_linear_3327_22895)"/>
<path d="M11.9046 17.4617C11.5761 14.8554 11.9328 11.153 15.2737 7.90797C18.3894 4.87873 22.1526 4.09337 24.1328 7.00179C23.2788 6.55301 22.2841 6.28547 21.2236 6.28547C20.21 6.28547 19.2059 6.53575 18.3143 7.01041C14.3634 9.09895 11.914 12.9999 11.914 17.1856V17.4617H11.9046Z" fill="url(#paint17_linear_3327_22895)"/>
<path d="M21.9003 44.7086V49.93L24.4529 48.575V43.3537C25.4665 42.3094 26.1797 40.8423 26.1797 39.5822C26.1797 37.8389 24.8377 37.1312 23.186 38.0115C21.5343 38.8918 20.1923 41.0235 20.1923 42.7668C20.1829 44.0355 20.8867 44.7432 21.9003 44.7086Z" fill="#B78C00"/>
<defs>
<linearGradient id="paint0_linear_3327_22895" x1="-0.370906" y1="42.1694" x2="38.7739" y2="42.1694" gradientUnits="userSpaceOnUse">
<stop stop-color="#FEC303"/>
<stop offset="0.2273" stop-color="#FFEEB6"/>
<stop offset="0.4343" stop-color="#FEC303"/>
</linearGradient>
<linearGradient id="paint1_linear_3327_22895" x1="15.8302" y1="11.877" x2="19.8745" y2="33.1075" gradientUnits="userSpaceOnUse">
<stop offset="0.0354" stop-color="#FEC303"/>
<stop offset="0.3279" stop-color="#FEC303"/>
<stop offset="0.8925" stop-color="#FFDD70"/>
<stop offset="1" stop-color="#FFEEB5"/>
</linearGradient>
<linearGradient id="paint2_linear_3327_22895" x1="-4.12963" y1="29.2406" x2="44.8505" y2="-3.21017" gradientUnits="userSpaceOnUse">
<stop stop-color="#92C1CF"/>
<stop offset="0.6061" stop-color="#C9E3EC"/>
<stop offset="1" stop-color="#EAF4F8"/>
</linearGradient>
<radialGradient id="paint3_radial_3327_22895" cx="0" cy="0" r="1" gradientUnits="userSpaceOnUse" gradientTransform="translate(35.8378 26.4053) rotate(180) scale(22.1077 20.3307)">
<stop stop-color="#FF5F98"/>
<stop offset="0.0152" stop-color="#F75C93"/>
<stop offset="0.132" stop-color="#BE4771"/>
<stop offset="0.252" stop-color="#8B3453"/>
<stop offset="0.3727" stop-color="#602439"/>
<stop offset="0.4942" stop-color="#3E1725"/>
<stop offset="0.6167" stop-color="#230D15"/>
<stop offset="0.7407" stop-color="#0F0609"/>
<stop offset="0.8672" stop-color="#040102"/>
<stop offset="1"/>
</radialGradient>
<radialGradient id="paint4_radial_3327_22895" cx="0" cy="0" r="1" gradientUnits="userSpaceOnUse" gradientTransform="translate(18.347 38.283) rotate(180) scale(26.3094 24.1945)">
<stop stop-color="#FF5F98"/>
<stop offset="0.0152" stop-color="#F75C93"/>
<stop offset="0.132" stop-color="#BE4771"/>
<stop offset="0.252" stop-color="#8B3453"/>
<stop offset="0.3727" stop-color="#602439"/>
<stop offset="0.4942" stop-color="#3E1725"/>
<stop offset="0.6167" stop-color="#230D15"/>
<stop offset="0.7407" stop-color="#0F0609"/>
<stop offset="0.8672" stop-color="#040102"/>
<stop offset="1"/>
</radialGradient>
<linearGradient id="paint5_linear_3327_22895" x1="26.1988" y1="15.4901" x2="40.0968" y2="6.28239" gradientUnits="userSpaceOnUse">
<stop stop-color="#92C1CF"/>
<stop offset="0.6061" stop-color="#C9E3EC"/>
<stop offset="1" stop-color="#EAF4F8"/>
</linearGradient>
<linearGradient id="paint6_linear_3327_22895" x1="8.28112" y1="21.0731" x2="44.5127" y2="8.46018" gradientUnits="userSpaceOnUse">
<stop stop-color="#92C1CF"/>
<stop offset="0.6061" stop-color="#C9E3EC"/>
<stop offset="1" stop-color="#EAF4F8"/>
</linearGradient>
<linearGradient id="paint7_linear_3327_22895" x1="21.0961" y1="18.3924" x2="32.0962" y2="11.1045" gradientUnits="userSpaceOnUse">
<stop stop-color="#FFE4A7"/>
<stop offset="1"/>
</linearGradient>
<linearGradient id="paint8_linear_3327_22895" x1="-3.33277" y1="27.7595" x2="34.1907" y2="2.89909" gradientUnits="userSpaceOnUse">
<stop stop-color="#FFE4A7"/>
<stop offset="1"/>
</linearGradient>
<linearGradient id="paint9_linear_3327_22895" x1="-3.38524" y1="27.5965" x2="43.8779" y2="-3.71657" gradientUnits="userSpaceOnUse">
<stop stop-color="#92C1CF"/>
<stop offset="0.6061" stop-color="#C9E3EC"/>
<stop offset="1" stop-color="#EAF4F8"/>
</linearGradient>
<radialGradient id="paint10_radial_3327_22895" cx="0" cy="0" r="1" gradientUnits="userSpaceOnUse" gradientTransform="translate(35.8378 23.849) rotate(180) scale(22.0988 20.3225)">
<stop stop-color="#FF5F98"/>
<stop offset="0.0152" stop-color="#F75C93"/>
<stop offset="0.132" stop-color="#BE4771"/>
<stop offset="0.252" stop-color="#8B3453"/>
<stop offset="0.3727" stop-color="#602439"/>
<stop offset="0.4942" stop-color="#3E1725"/>
<stop offset="0.6167" stop-color="#230D15"/>
<stop offset="0.7407" stop-color="#0F0609"/>
<stop offset="0.8672" stop-color="#040102"/>
<stop offset="1"/>
</radialGradient>
<radialGradient id="paint11_radial_3327_22895" cx="0" cy="0" r="1" gradientUnits="userSpaceOnUse" gradientTransform="translate(18.347 35.6295) rotate(180) scale(26.0218 23.93)">
<stop stop-color="#FF5F98"/>
<stop offset="0.0152" stop-color="#F75C93"/>
<stop offset="0.132" stop-color="#BE4771"/>
<stop offset="0.252" stop-color="#8B3453"/>
<stop offset="0.3727" stop-color="#602439"/>
<stop offset="0.4942" stop-color="#3E1725"/>
<stop offset="0.6167" stop-color="#230D15"/>
<stop offset="0.7407" stop-color="#0F0609"/>
<stop offset="0.8672" stop-color="#040102"/>
<stop offset="1"/>
</radialGradient>
<linearGradient id="paint12_linear_3327_22895" x1="26.3699" y1="14.1674" x2="38.5508" y2="6.09721" gradientUnits="userSpaceOnUse">
<stop stop-color="#92C1CF"/>
<stop offset="0.6061" stop-color="#C9E3EC"/>
<stop offset="1" stop-color="#EAF4F8"/>
</linearGradient>
<linearGradient id="paint13_linear_3327_22895" x1="8.51105" y1="19.7784" x2="43.696" y2="7.5299" gradientUnits="userSpaceOnUse">
<stop stop-color="#92C1CF"/>
<stop offset="0.6061" stop-color="#C9E3EC"/>
<stop offset="1" stop-color="#EAF4F8"/>
</linearGradient>
<linearGradient id="paint14_linear_3327_22895" x1="21.8406" y1="16.7476" x2="31.1236" y2="10.5974" gradientUnits="userSpaceOnUse">
<stop stop-color="#FFE4A7"/>
<stop offset="1"/>
</linearGradient>
<linearGradient id="paint15_linear_3327_22895" x1="-2.58838" y1="26.1155" x2="33.218" y2="2.39271" gradientUnits="userSpaceOnUse">
<stop stop-color="#FFE4A7"/>
<stop offset="1"/>
</linearGradient>
<linearGradient id="paint16_linear_3327_22895" x1="26.2901" y1="2.90299" x2="24.1166" y2="6.8026" gradientUnits="userSpaceOnUse">
<stop stop-color="#FFE4A7"/>
<stop offset="1"/>
</linearGradient>
<linearGradient id="paint17_linear_3327_22895" x1="11.2839" y1="9.61047" x2="37.0558" y2="19.3315" gradientUnits="userSpaceOnUse">
<stop stop-color="#FFE4A7"/>
<stop offset="1"/>
</linearGradient>
</defs>
</svg>
