<svg width="157" height="105" viewBox="0 0 157 105" fill="none" xmlns="http://www.w3.org/2000/svg">
<path opacity="0.1" d="M0.0656891 67.8459C-0.161377 65.5415 1.201 63.1994 4.26636 61.4617L90.9665 11.4835C96.6052 8.23468 105.801 8.23468 111.402 11.4835L152.198 34.9804C154.998 36.6048 156.398 38.7203 156.398 40.8735V46.6911C156.398 48.8443 154.998 50.9598 152.198 52.5842L65.4598 102.562C59.821 105.811 50.625 105.811 45.0241 102.562L4.2285 79.0655C1.65512 77.5922 0.254898 75.6656 0.0278473 73.7012C-0.0100098 73.3612 -0.0100098 73.0212 0.0278473 72.6813V67.8459H0.0656891ZM3.73654 72.9457C3.88791 73.059 4.07713 73.1346 4.2285 73.2479C4.07713 73.1346 3.88791 73.0212 3.73654 72.9457ZM2.10925 71.6613C2.18494 71.6991 2.22278 71.7746 2.29846 71.8124C2.22278 71.7746 2.14709 71.6991 2.10925 71.6613ZM2.44984 72.0013C2.52553 72.0768 2.60121 72.1146 2.63905 72.1902C2.60121 72.1146 2.52553 72.0391 2.44984 72.0013ZM3.28241 72.6435C3.39594 72.719 3.47162 72.7568 3.58516 72.8324C3.47162 72.7568 3.39594 72.6813 3.28241 72.6435ZM1.92003 71.4724C1.88219 71.4346 1.8065 71.3591 1.76866 71.3213C1.8065 71.3591 1.84435 71.4346 1.92003 71.4724ZM0.746872 69.9614C0.746872 69.9991 0.784714 69.9991 0.784714 70.0369C0.784714 70.0369 0.784714 69.9991 0.746872 69.9614ZM0.936096 70.3013C0.973938 70.3391 0.973938 70.3769 1.01178 70.4147C1.01178 70.3769 0.973938 70.3391 0.936096 70.3013ZM1.201 70.6413C1.23885 70.6791 1.27669 70.7169 1.31453 70.7547C1.23885 70.7169 1.23885 70.6791 1.201 70.6413Z" fill="#0F0F0F"/>
<path d="M4.23137 71.246C-1.40736 67.9972 -1.40736 62.7085 4.23137 59.4597L90.9694 9.4815C96.6081 6.23273 105.804 6.23273 111.405 9.4815L152.201 32.9784C157.839 36.2272 157.839 41.5159 152.201 44.7647L65.4626 94.7429C59.8239 97.9917 50.6279 97.9917 45.027 94.7429L4.23137 71.246Z" fill="#E7E7E7"/>
<path d="M156.398 38.8711C156.398 41.0243 154.998 43.1398 152.198 44.7642L65.4598 94.7424C59.821 97.9912 50.625 97.9912 45.0241 94.7424L4.2285 71.2455C1.65512 69.7722 0.254898 67.8456 0.0278473 65.8812V70.6788C-0.0100098 71.0188 -0.0100098 71.3588 0.0278473 71.6988C0.217056 73.6632 1.61728 75.5898 4.2285 77.063L45.0241 100.56C50.6628 103.809 59.8589 103.809 65.4598 100.56L152.198 50.5818C154.998 48.9574 156.398 46.8419 156.398 44.6887V38.8711Z" fill="#BFBFBF"/>
<path d="M18.3876 54.6626L92.2965 11.9375L145.656 43.4053L71.4446 86.0926L18.3876 54.6626Z" fill="#BFBFBF"/>
<path d="M28.0756 79.3297C24.4426 77.252 24.4426 73.8144 28.0756 71.6989C31.7086 69.6212 37.6501 69.6212 41.2831 71.6989C44.9161 73.7766 44.9161 77.2143 41.2831 79.3297C37.6501 81.4074 31.7086 81.4074 28.0756 79.3297Z" fill="#E0E0E0"/>
<path d="M29.2482 78.6503C26.2585 76.9126 26.2585 74.1172 29.2482 72.3795C32.2378 70.6417 37.1197 70.6417 40.1093 72.3795C43.099 74.1172 43.099 76.9126 40.1093 78.6503C37.1197 80.3503 32.2378 80.3503 29.2482 78.6503Z" fill="#FAFAFA"/>
<path d="M20.5446 82.2013C19.8255 81.7858 19.22 81.9746 19.22 82.6168C19.22 83.259 19.8255 84.1657 20.5446 84.5812L26.1833 87.83C26.9023 88.2455 27.5078 88.0567 27.5078 87.4145C27.5078 86.7723 26.9023 85.8656 26.1833 85.4501L20.5446 82.2013Z" fill="#A1A1A1"/>
<path d="M117.161 69.3201C124.541 65.0513 131.882 60.8204 139.262 56.5516C140.397 55.9094 139.375 54.1717 138.278 54.8139C130.898 59.0827 123.557 63.3136 116.177 67.5824C115.042 68.2246 116.026 69.9623 117.161 69.3201Z" fill="#A1A1A1"/>
<path d="M116.853 17.301C115.831 16.6966 114.128 16.6966 113.107 17.301L112.69 17.5654C111.669 18.1698 111.631 19.152 112.69 19.7564L122.908 25.7629C123.93 26.3673 125.633 26.3673 126.655 25.7629L127.071 25.4985C128.093 24.894 128.131 23.9118 127.071 23.3074L116.853 17.301Z" fill="#BFBFBF"/>
<path d="M129.345 29.4274C128.399 28.8986 128.399 27.9919 129.345 27.4631C130.292 26.9342 131.843 26.9342 132.751 27.4631C133.697 27.9919 133.697 28.8986 132.751 29.4274C131.843 29.9941 130.292 29.9941 129.345 29.4274Z" fill="#BFBFBF"/>
<path d="M61.4844 20.9277V43.4425L89.7159 59.7241V37.1716L61.4844 20.9277Z" fill="#FFDC6E"/>
<path d="M61.4844 20.9282L73.1781 13.7129L89.7159 37.172L61.4844 20.9282Z" fill="#FFDE99"/>
<path d="M63.7969 32.8655V0L87.26 12.6929V45.5961L63.7969 32.8655Z" fill="white"/>
<path d="M65.4609 8.27297V6.30859L84.7991 17.2638V19.2281L65.4609 8.27297Z" fill="#FFEFCC"/>
<path d="M65.4609 15.4885V13.4863L84.7991 24.4415V26.4059L65.4609 15.4885Z" fill="#FFEFCC"/>
<path d="M65.4609 22.6655V20.7012L84.7991 31.6563V33.6207L65.4609 22.6655Z" fill="#FFEFCC"/>
<path d="M65.4609 29.8811V27.8789L84.7991 38.8341V40.8362L65.4609 29.8811Z" fill="#FFEFCC"/>
<path d="M61.4844 43.4425L70.9453 36.605L61.4844 20.9277V43.4425Z" fill="#FFDC6E"/>
<path d="M89.7165 37.1719V59.7244L77.7578 40.3073L89.7165 37.1719Z" fill="#FFDC6E"/>
<path d="M88.4673 30.2218C85.8939 28.7486 83.8125 29.9574 83.8125 32.904C83.8125 35.8505 85.8939 39.4771 88.4673 40.9881C91.0407 42.4614 93.1221 41.2526 93.1221 38.306C93.1599 35.3217 91.0407 31.6951 88.4673 30.2218Z" fill="#FFC100"/>
<path d="M88.9187 33.2054V37.9274C88.9187 38.1919 88.6916 38.2296 88.4646 38.0785C88.1997 37.9274 88.0104 37.6252 88.0104 37.3986V33.5454L87.7077 33.5831C87.632 33.5831 87.5563 33.5831 87.4806 33.5454C87.3293 33.4698 87.1779 33.3187 87.1022 33.1298C86.9508 32.8654 87.0265 32.6387 87.2536 32.6387L88.2375 32.5254H88.2753H88.3132H88.351H88.3889H88.4267C88.4267 32.5254 88.4267 32.5254 88.4646 32.5254C88.5024 32.5254 88.5024 32.5254 88.5024 32.5632C88.5024 32.5632 88.5403 32.5632 88.5403 32.6009C88.5781 32.6009 88.5781 32.6387 88.5781 32.6387C88.5781 32.6387 88.6159 32.6387 88.6159 32.6765C88.6538 32.7143 88.6538 32.7143 88.6538 32.7143C88.6538 32.7143 88.6538 32.7521 88.6916 32.7521L88.7295 32.7898L88.7673 32.8276C88.7673 32.8276 88.7673 32.8654 88.8052 32.8654L88.843 32.9032V32.9409V32.9787C88.843 33.0165 88.843 33.0165 88.843 33.0165C88.843 33.0543 88.843 33.0543 88.843 33.0543V33.092C88.9187 33.1676 88.9187 33.1676 88.9187 33.2054Z" fill="white"/>
</svg>
