<svg width="366" height="246" viewBox="0 0 366 246" fill="none" xmlns="http://www.w3.org/2000/svg">
<path opacity="0.1" d="M365.846 158.955C366.377 153.556 363.19 148.069 356.018 143.998L153.163 26.9058C139.97 19.2944 118.454 19.2944 105.349 26.9058L9.89871 81.9558C3.34644 85.7615 0.0703125 90.7178 0.0703125 95.7625V109.392C0.0703125 114.437 3.34644 119.393 9.89871 123.199L212.842 240.291C226.035 247.902 247.551 247.902 260.656 240.291L356.106 185.241C362.127 181.789 365.403 177.275 365.935 172.673C366.023 171.877 366.023 171.08 365.935 170.284V158.955H365.846ZM357.257 170.903C356.903 171.169 356.461 171.346 356.106 171.611C356.461 171.346 356.903 171.08 357.257 170.903ZM361.065 167.894C360.888 167.982 360.799 168.159 360.622 168.248C360.799 168.159 360.976 167.982 361.065 167.894ZM360.268 168.69C360.091 168.867 359.914 168.956 359.825 169.133C359.914 168.956 360.091 168.779 360.268 168.69ZM358.32 170.195C358.054 170.372 357.877 170.461 357.612 170.638C357.877 170.461 358.054 170.284 358.32 170.195ZM361.508 167.451C361.596 167.363 361.773 167.186 361.862 167.097C361.773 167.186 361.685 167.363 361.508 167.451ZM364.252 163.911C364.252 164 364.164 164 364.164 164.088C364.164 164.088 364.164 164 364.252 163.911ZM363.81 164.708C363.721 164.796 363.721 164.885 363.633 164.973C363.633 164.885 363.721 164.796 363.81 164.708ZM363.19 165.504C363.101 165.593 363.013 165.681 362.924 165.77C363.101 165.681 363.101 165.593 363.19 165.504Z" fill="#0F0F0F"/>
<path d="M356.102 166.92C369.295 159.308 369.295 146.918 356.102 139.306L153.159 22.2144C139.966 14.603 118.45 14.603 105.345 22.2144L9.89481 77.2644C-3.29827 84.8758 -3.29827 97.2664 9.89481 104.878L212.838 221.97C226.031 229.581 247.547 229.581 260.652 221.97L356.102 166.92Z" fill="#E7E7E7"/>
<path d="M0.0703125 91.0703C0.0703125 96.1151 3.34644 101.071 9.89871 104.877L212.842 221.969C226.035 229.58 247.551 229.58 260.656 221.969L356.106 166.919C362.127 163.467 365.403 158.953 365.935 154.351V165.591C366.023 166.388 366.023 167.184 365.935 167.981C365.492 172.583 362.216 177.097 356.106 180.549L260.656 235.599C247.463 243.21 225.946 243.21 212.842 235.599L9.89871 118.507C3.34644 114.701 0.0703125 109.745 0.0703125 104.7V91.0703Z" fill="#BFBFBF"/>
<path d="M322.985 128.066L150.058 27.9668L25.2109 101.691L198.846 201.702L322.985 128.066Z" fill="#BFBFBF"/>
<path d="M300.316 185.859C308.816 180.991 308.816 172.937 300.316 167.981C291.816 163.113 277.914 163.113 269.414 167.981C260.914 172.849 260.914 180.903 269.414 185.859C277.914 190.727 291.816 190.727 300.316 185.859Z" fill="#E0E0E0"/>
<path d="M297.572 184.265C304.567 180.194 304.567 173.644 297.572 169.573C290.577 165.502 279.155 165.502 272.16 169.573C265.165 173.644 265.165 180.194 272.16 184.265C279.155 188.247 290.577 188.247 297.572 184.265Z" fill="#FAFAFA"/>
<path d="M317.941 192.586C319.623 191.612 321.04 192.055 321.04 193.559C321.04 195.064 319.623 197.188 317.941 198.162L304.747 205.773C303.065 206.746 301.648 206.304 301.648 204.799C301.648 203.295 303.065 201.171 304.747 200.197L317.941 192.586Z" fill="#A1A1A1"/>
<path d="M91.8858 162.406C74.6197 152.405 57.4421 142.492 40.176 132.491C37.5197 130.987 39.9104 126.915 42.4782 128.42C59.7443 138.421 76.9219 148.334 94.188 158.335C96.8443 159.839 94.5421 163.91 91.8858 162.406Z" fill="#A1A1A1"/>
<path d="M92.6005 40.5347C94.9912 39.1186 98.9757 39.1186 101.366 40.5347L102.34 41.1542C104.731 42.5703 104.82 44.8714 102.34 46.2875L78.4334 60.3598C76.0427 61.7759 72.0582 61.7759 69.6675 60.3598L68.6936 59.7402C66.3029 58.3242 66.2143 56.023 68.6936 54.607L92.6005 40.5347Z" fill="#BFBFBF"/>
<path d="M63.3792 68.9456C65.5928 67.7065 65.5928 65.5824 63.3792 64.3434C61.1656 63.1043 57.5353 63.1043 55.4102 64.3434C53.1966 65.5824 53.1966 67.7065 55.4102 68.9456C57.5353 70.2732 61.1656 70.2732 63.3792 68.9456Z" fill="#BFBFBF"/>
<path d="M206.906 56.7871V109.536L140.852 147.681V94.8442L206.906 56.7871Z" fill="#FFDC6E"/>
<path d="M206.906 56.7872L179.546 39.8828L140.852 94.8443L206.906 56.7872Z" fill="#FFDE99"/>
<path d="M201.508 84.755V7.75586L146.61 37.4935V114.581L201.508 84.755Z" fill="white"/>
<path d="M197.609 27.1374V22.5352L152.363 48.2015V52.8038L197.609 27.1374Z" fill="#FFEFCC"/>
<path d="M197.609 44.0423V39.3516L152.363 65.0179V69.6202L197.609 44.0423Z" fill="#FFEFCC"/>
<path d="M197.609 60.8581V56.2559L152.363 81.9222V86.5245L197.609 60.8581Z" fill="#FFEFCC"/>
<path d="M197.609 77.7611V73.0703L152.363 98.7367V103.427L197.609 77.7611Z" fill="#FFEFCC"/>
<path d="M206.914 109.536L184.778 93.5166L206.914 56.7871V109.536Z" fill="#FFDC6E"/>
<path d="M140.864 94.8438V147.681L168.844 102.19L140.864 94.8438Z" fill="#FFDC6E"/>
<path d="M204.172 51.3348C210.193 47.8831 215.062 50.7153 215.062 57.6186C215.062 64.522 210.193 73.0185 204.172 76.5587C198.151 80.0103 193.281 77.1782 193.281 70.2748C193.192 63.2829 198.151 54.7865 204.172 51.3348Z" fill="#FFC100"/>
<path d="M207.544 58.3255V69.3886C207.544 70.0081 207.012 70.0967 206.481 69.7426C205.861 69.3886 205.419 68.6806 205.419 68.1495V59.1221L204.71 59.2106C204.533 59.2106 204.356 59.2106 204.179 59.1221C203.825 58.9451 203.471 58.591 203.294 58.1485C202.939 57.529 203.117 56.9979 203.648 56.9979L205.95 56.7324H206.039H206.127H206.216H206.304H206.393C206.393 56.7324 206.393 56.7324 206.481 56.7324C206.57 56.7324 206.57 56.7324 206.57 56.8209C206.57 56.8209 206.658 56.8209 206.658 56.9094C206.747 56.9094 206.747 56.9979 206.747 56.9979C206.747 56.9979 206.835 56.9979 206.835 57.0864C206.924 57.175 206.924 57.1749 206.924 57.1749C206.924 57.1749 206.924 57.2635 207.012 57.2635L207.101 57.352L207.19 57.4405C207.19 57.4405 207.19 57.529 207.278 57.529L207.367 57.6175V57.706V57.7945C207.367 57.883 207.367 57.883 207.367 57.883C207.367 57.9715 207.367 57.9715 207.367 57.9715V58.06C207.544 58.237 207.544 58.237 207.544 58.3255Z" fill="white"/>
</svg>
