<svg width="292" height="183" viewBox="0 0 292 183" fill="none" xmlns="http://www.w3.org/2000/svg">
<path opacity="0.1" d="M0.123108 113.615C-0.299896 109.315 2.23807 104.944 7.94843 101.701L169.46 8.43191C179.964 2.36905 197.095 2.36905 207.529 8.43191L283.526 52.2818C288.743 55.3133 291.352 59.2612 291.352 63.2796V74.1363C291.352 78.1547 288.743 82.1026 283.526 85.134L121.944 178.403C111.44 184.466 94.3088 184.466 83.8751 178.403L7.87793 134.553C3.08405 131.804 0.475586 128.208 0.0526123 124.543C-0.0178833 123.908 -0.0178833 123.274 0.0526123 122.639V113.615H0.123108ZM6.96146 123.133C7.24344 123.344 7.59592 123.485 7.87793 123.697C7.59592 123.485 7.24344 123.274 6.96146 123.133ZM3.93002 120.736C4.07101 120.806 4.14151 120.947 4.2825 121.018C4.14151 120.947 4.00052 120.806 3.93002 120.736ZM4.56448 121.37C4.70547 121.511 4.8465 121.582 4.91699 121.723C4.8465 121.582 4.70547 121.441 4.56448 121.37ZM6.11545 122.569C6.32697 122.71 6.46796 122.78 6.67944 122.921C6.46796 122.78 6.32697 122.639 6.11545 122.569ZM3.57751 120.383C3.50702 120.313 3.36603 120.172 3.29553 120.101C3.36603 120.172 3.43652 120.313 3.57751 120.383ZM1.39206 117.563C1.39206 117.634 1.46259 117.634 1.46259 117.704C1.46259 117.704 1.46255 117.634 1.39206 117.563ZM1.74457 118.198C1.81506 118.268 1.81506 118.339 1.88556 118.409C1.88556 118.339 1.81506 118.268 1.74457 118.198ZM2.23807 118.832C2.30856 118.903 2.37906 118.973 2.44955 119.044C2.30853 118.973 2.30856 118.903 2.23807 118.832Z" fill="#0F0F0F"/>
<path d="M7.87976 119.96C-2.62451 113.897 -2.62451 104.028 7.87976 97.9648L169.462 4.69558C179.966 -1.36728 197.097 -1.36728 207.531 4.69558L283.528 48.5455C294.032 54.6084 294.032 64.4781 283.528 70.541L121.946 163.81C111.442 169.873 94.3106 169.873 83.8769 163.81L7.87976 119.96Z" fill="#E7E7E7"/>
<path d="M291.352 59.543C291.352 63.5614 288.743 67.5093 283.526 70.5407L121.944 163.81C111.44 169.873 94.3088 169.873 83.8751 163.81L7.87793 119.96C3.08405 117.211 0.475586 113.615 0.0526123 109.949V118.903C-0.0178833 119.537 -0.0178833 120.172 0.0526123 120.806C0.40509 124.472 3.01355 128.067 7.87793 130.817L83.8751 174.667C94.3793 180.73 111.51 180.73 121.944 174.667L283.526 81.3974C288.743 78.366 291.352 74.4181 291.352 70.3997V59.543Z" fill="#BFBFBF"/>
<path d="M34.2424 89.0109L171.926 9.27734L271.328 68.0024L133.081 147.665L34.2424 89.0109Z" fill="#BFBFBF"/>
<path d="M52.2968 135.047C45.5289 131.17 45.5289 124.754 52.2968 120.806C59.0646 116.929 70.1328 116.929 76.9007 120.806C83.6685 124.684 83.6685 131.099 76.9007 135.047C70.1328 138.925 59.0646 138.925 52.2968 135.047Z" fill="#E0E0E0"/>
<path d="M54.4806 133.777C48.9112 130.535 48.9112 125.318 54.4806 122.075C60.05 118.832 69.1442 118.832 74.7136 122.075C80.283 125.318 80.283 130.535 74.7136 133.777C69.1442 136.95 60.05 136.95 54.4806 133.777Z" fill="#FAFAFA"/>
<path d="M38.2705 140.404C36.931 139.629 35.8031 139.981 35.8031 141.18C35.8031 142.378 36.931 144.07 38.2705 144.846L48.7747 150.909C50.1142 151.684 51.2422 151.332 51.2422 150.133C51.2422 148.935 50.1142 147.243 48.7747 146.467L38.2705 140.404Z" fill="#A1A1A1"/>
<path d="M218.249 116.364C231.996 108.398 245.673 100.502 259.42 92.5356C261.535 91.3371 259.631 88.0942 257.587 89.2927C243.84 97.259 230.163 105.155 216.416 113.121C214.301 114.32 216.134 117.562 218.249 116.364Z" fill="#A1A1A1"/>
<path d="M217.683 19.2893C215.78 18.1614 212.607 18.1614 210.704 19.2893L209.928 19.7828C208.025 20.9108 207.954 22.7438 209.928 23.8717L228.963 35.081C230.866 36.2089 234.039 36.2089 235.942 35.081L236.718 34.5875C238.621 33.4595 238.692 31.6265 236.718 30.4986L217.683 19.2893Z" fill="#BFBFBF"/>
<path d="M240.95 41.9198C239.188 40.9328 239.188 39.2409 240.95 38.2539C242.713 37.2669 245.603 37.2669 247.295 38.2539C249.058 39.2409 249.058 40.9328 247.295 41.9198C245.603 42.9773 242.713 42.9773 240.95 41.9198Z" fill="#BFBFBF"/>
</svg>
