<svg width="174" height="250" viewBox="0 0 174 250" fill="none" xmlns="http://www.w3.org/2000/svg">
<path d="M9.68074 92.2613C35.6203 77.5388 61.1391 52.4406 82.4516 20.4719L82.732 20.3317C104.044 27.763 129.423 23.4164 155.503 8.13311L156.484 7.57227L155.082 56.2264C150.175 131.521 124.516 164.331 83.1527 234.298L82.1712 234.859C40.8081 212.565 15.1491 209.48 10.2416 139.794L8.83945 92.8221L9.68074 92.2613Z" fill="#E7E7E7"/>
<path d="M0.978836 84.689C26.9184 69.9666 52.4372 44.8684 73.7497 12.8997L74.0301 12.7594C95.3426 20.1908 120.721 15.8442 146.801 0.560867L147.782 0L156.195 7.71175L155.494 8.13239C129.555 23.4157 104.036 27.7623 82.7234 20.331L82.443 20.4712C61.1305 52.4399 35.7518 77.5381 9.6721 92.2606L8.69058 92.8214L10.0927 139.793C13.3176 185.222 25.376 202.328 44.8657 214.947C20.4685 200.505 4.9048 183.259 1.39946 132.221L-0.00267029 85.2499L0.978836 84.689Z" fill="#D5D5D5"/>
<path d="M0.00050354 85.2482L0.982018 84.6874C26.9215 69.965 52.4404 44.8667 73.7529 12.898L74.0333 12.7578L82.7266 20.3293L82.4461 20.4696C61.1337 52.4383 35.755 77.5365 9.67528 92.2589L8.69376 92.8198L0.00050354 85.2482Z" fill="#D4D4D4"/>
<path d="M8.70771 92.8215L10.1098 139.793C13.3348 185.222 25.3931 202.328 44.8828 214.948C20.4856 200.506 4.92193 183.259 1.41659 132.222L0.0144501 85.25L8.70771 92.8215Z" fill="#D4D4D4"/>
<path d="M12.3592 94.2217C37.7378 79.7797 62.6959 55.2423 83.4475 23.9747L83.7279 23.8345C104.62 30.9854 129.438 26.9192 154.816 11.9163L155.798 11.3555L164.07 18.927L163.369 19.3476C137.991 34.3505 113.033 38.4167 92.2809 31.2658L92.0005 31.406C71.1087 62.6737 46.2909 87.211 20.9122 101.653L19.9307 102.214L21.3328 148.064C24.4175 192.511 36.3357 209.197 55.2646 221.536C31.4282 207.514 16.2851 190.548 12.7798 140.632L11.3777 94.7826L12.3592 94.2217Z" fill="#A9A9A9"/>
<path d="M11.5186 94.7821L12.5001 94.2212C37.8788 79.7792 62.8368 55.2418 83.5884 23.9742L83.8689 23.834L92.4219 31.2653L92.1415 31.4055C71.2496 62.6732 46.4318 87.2105 21.0531 101.653L20.0717 102.213L11.5186 94.7821Z" fill="#A9A9A9"/>
<path d="M19.924 102.074L21.3261 147.924C24.4108 192.371 36.329 209.057 55.2578 221.396C31.4215 207.374 16.2784 190.409 12.7731 140.492L11.3709 94.6426L19.924 102.074Z" fill="#A9A9A9"/>
<path d="M26.3682 107.402C52.3077 92.6795 77.8266 67.5812 99.1391 35.6125L99.4195 35.4723C120.732 42.9036 146.111 38.557 172.19 23.2737L173.172 22.7129L171.77 71.367C166.862 146.662 141.203 179.472 99.8401 249.438L98.8587 249.999C57.4956 227.705 31.8365 224.62 26.9291 154.934L25.5269 107.963L26.3682 107.402Z" fill="#FAFCFC"/>
<path d="M17.5491 99.8316C43.4886 85.1092 69.0075 60.0109 90.32 28.0422L90.6004 27.902C111.913 35.3333 137.292 30.9867 163.371 15.7034L164.353 15.1426L172.766 22.8543L172.065 23.275C146.125 38.5583 120.606 42.9049 99.2937 35.4736L99.0133 35.6138C77.7008 67.5825 52.3221 92.6807 26.2424 107.403L25.2609 107.964L26.663 154.936C29.8879 200.365 41.9463 217.471 61.436 230.09C37.0388 215.648 21.4751 198.402 17.9698 147.364L16.5677 100.392L17.5491 99.8316Z" fill="#D5D5D5"/>
<path d="M16.5474 100.393L17.5289 99.8319C43.4684 85.1095 68.9873 60.0112 90.2998 28.0425L90.5802 27.9023L99.2734 35.4739L98.993 35.6141C77.6805 67.5828 52.3019 92.681 26.2221 107.403L25.2406 107.964L16.5474 100.393Z" fill="#D5D5D5"/>
<path d="M25.3717 107.964L26.7739 154.936C29.9988 200.365 42.0572 217.471 61.5469 230.09C37.1497 215.648 21.586 198.402 18.0807 147.364L16.6785 100.393L25.3717 107.964Z" fill="#D4D4D4"/>
<path d="M104.327 217.473C136.436 164.191 152.561 137.411 156.487 79.0818L157.328 48.375C136.717 57.6291 116.947 60.7138 99.1395 57.0683C81.3323 81.185 61.5622 100.955 40.9508 115.537L41.7921 145.122C45.7181 199.105 61.8427 207.237 93.9516 223.362C95.6341 224.203 97.3167 225.044 99.1395 226.026C100.962 223.081 102.645 220.277 104.327 217.473Z" fill="#A9A9A9"/>
<path d="M102.505 216.631C134.614 163.35 150.738 136.569 154.664 78.2405L155.505 49.2163C156.066 48.9359 156.767 48.6554 157.328 48.375L156.487 79.0818C152.561 137.551 136.436 164.332 104.327 217.473C102.645 220.277 100.962 223.081 99.1395 226.026C98.5786 225.745 98.0178 225.465 97.3167 225.184C99.1395 222.24 100.822 219.295 102.505 216.631Z" fill="#A9A9A9"/>
</svg>
