<svg width="94" height="135" viewBox="0 0 94 135" fill="none" xmlns="http://www.w3.org/2000/svg">
<path d="M88.7417 49.8219C74.6614 41.8718 60.8094 28.3188 49.2407 11.0557L49.0885 10.9799C37.5198 14.9928 23.7439 12.6457 9.58745 4.3927L9.05469 4.08984L9.81579 30.3631C12.4796 71.0222 26.4077 88.7396 48.8601 126.522L49.3929 126.824C71.8453 114.786 85.7734 113.12 88.4373 75.4894L89.1984 50.1248L88.7417 49.8219Z" fill="#E7E7E7"/>
<path d="M93.4646 45.7321C79.3842 37.782 65.5322 24.2289 53.9635 6.96582L53.8113 6.8901C42.2426 10.903 28.4667 8.55584 14.3103 0.302868L13.7775 0L9.21094 4.16434L9.59149 4.39149C23.6718 12.6445 37.5238 14.9916 49.0925 10.9787L49.2447 11.0544C60.8134 28.3175 74.5893 41.8706 88.7457 49.8207L89.2785 50.1236L88.5174 75.4882C86.7669 100.02 80.2215 109.257 69.6422 116.072C82.8853 108.273 91.3335 98.96 93.2362 71.3996L93.9973 46.0349L93.4646 45.7321Z" fill="#D5D5D5"/>
<path d="M93.9986 46.0335L93.4658 45.7307C79.3855 37.7805 65.5335 24.2275 53.9648 6.96439L53.8126 6.88867L49.0938 10.9773L49.246 11.053C60.8147 28.3161 74.5905 41.8692 88.747 49.8193L89.2798 50.1221L93.9986 46.0335Z" fill="#D4D4D4"/>
<path d="M89.2691 50.1238L88.508 75.4884C86.7575 100.02 80.2121 109.257 69.6328 116.072C82.8759 108.273 91.3241 98.9602 93.2269 71.3998L93.988 46.0352L89.2691 50.1238Z" fill="#D4D4D4"/>
<path d="M87.2884 50.8806C73.5125 43.0819 59.9649 29.8317 48.7007 12.9472L48.5485 12.8715C37.2081 16.733 23.7366 14.5372 9.96076 6.43567L9.42799 6.13281L4.9375 10.2214L5.31805 10.4486C19.0939 18.5501 32.6415 20.7459 43.9058 16.8844L44.058 16.9601C55.3983 33.8446 68.8698 47.0948 82.6457 54.8935L83.1784 55.1964L82.4174 79.9553C80.7429 103.957 74.2736 112.967 63.9988 119.63C76.9374 112.059 85.1573 102.897 87.0601 75.9424L87.8212 51.1834L87.2884 50.8806Z" fill="#A9A9A9"/>
<path d="M87.7435 51.1831L87.2107 50.8802C73.4349 43.0815 59.8873 29.8313 48.623 12.9468L48.4708 12.8711L43.8281 16.884L43.9803 16.9597C55.3207 33.8443 68.7922 47.0944 82.5681 54.8931L83.1008 55.196L87.7435 51.1831Z" fill="#A9A9A9"/>
<path d="M83.1797 55.1203L82.4186 79.8793C80.7442 103.881 74.2748 112.891 64 119.554C76.9387 111.983 85.1586 102.821 87.0613 75.8664L87.8224 51.1074L83.1797 55.1203Z" fill="#A9A9A9"/>
<path d="M79.687 57.9977C65.6067 50.0476 51.7547 36.4945 40.186 19.2314L40.0338 19.1557C28.4651 23.1686 14.6892 20.8215 0.532767 12.5685L0 12.2656L0.761099 38.5389C3.42494 79.198 17.3531 96.9154 39.8055 134.697L40.3382 135C62.7906 122.961 76.7188 121.296 79.3826 83.6652L80.1437 58.3006L79.687 57.9977Z" fill="#FAFCFC"/>
<path d="M84.4724 53.9079C70.3921 45.9577 56.5401 32.4047 44.9714 15.1416L44.8191 15.0659C33.2504 19.0788 19.4745 16.7316 5.31811 8.47865L4.78534 8.17578L0.21875 12.3401L0.599299 12.5673C14.6796 20.8202 28.5316 23.1674 40.1003 19.1545L40.2525 19.2302C51.8212 36.4933 65.5971 50.0464 79.7536 57.9965L80.2863 58.2993L79.5252 83.664C77.7747 108.196 71.2292 117.433 60.65 124.247C73.8931 116.449 82.3413 107.136 84.244 79.5754L85.0051 54.2107L84.4724 53.9079Z" fill="#D5D5D5"/>
<path d="M85.022 54.2132L84.4893 53.9103C70.4089 45.9602 56.5569 32.4072 44.9882 15.1441L44.836 15.0684L40.1172 19.157L40.2694 19.2327C51.8381 36.4958 65.614 50.0489 79.7704 57.999L80.3032 58.3018L85.022 54.2132Z" fill="#D5D5D5"/>
<path d="M80.2223 58.2996L79.4612 83.6642C77.7107 108.196 71.1652 117.433 60.5859 124.248C73.8291 116.449 82.2772 107.136 84.18 79.5756L84.9411 54.2109L80.2223 58.2996Z" fill="#D4D4D4"/>
<path d="M37.3711 117.436C19.9419 88.6639 11.1893 74.2023 9.05823 42.7047L8.60156 26.123C19.7897 31.1203 30.5212 32.786 40.1872 30.8174C49.8531 43.8405 60.5846 54.5163 71.7728 62.3907L71.3161 78.3666C69.185 107.517 60.4324 111.909 43.0032 120.616C42.0899 121.07 41.1766 121.524 40.1872 122.054C39.1977 120.464 38.2844 118.95 37.3711 117.436Z" fill="#A9A9A9"/>
<path d="M38.3605 116.981C20.9314 88.2096 12.1787 73.748 10.0476 42.2504L9.59099 26.5773C9.28655 26.4259 8.906 26.2745 8.60156 26.123L9.05823 42.7047C11.1893 74.278 19.9419 88.7397 37.3711 117.436C38.2844 118.95 39.1977 120.464 40.1872 122.054C40.4916 121.903 40.796 121.752 41.1766 121.6C40.1872 120.01 39.2738 118.42 38.3605 116.981Z" fill="#A9A9A9"/>
<path d="M24.8125 60.6477L37.599 88.2081L60.0514 64.7364L49.7004 55.3477L37.599 75.6394L31.8907 62.0106L24.8125 60.6477Z" fill="#FFC54D"/>
</svg>
