<svg width="195" height="282" viewBox="0 0 195 282" fill="none" xmlns="http://www.w3.org/2000/svg">
<path d="M10.9028 104.07C40.1119 87.4633 68.8475 59.1525 92.8464 23.0918L93.1621 22.9336C117.161 31.3162 145.739 26.4132 175.106 9.17365L176.211 8.54102L174.632 63.4229C169.106 148.355 140.213 185.365 93.6358 264.287L92.5306 264.92C45.9538 239.772 17.0604 236.293 11.5343 157.687L9.95543 104.703L10.9028 104.07Z" fill="#E7E7E7"/>
<path d="M1.10138 95.5292C30.3106 78.9223 59.0461 50.6115 83.045 14.5508L83.3608 14.3927C107.36 22.7752 135.937 17.8722 165.304 0.632658L166.41 0L175.883 8.69885L175.093 9.17334C145.884 26.4129 117.149 31.3159 93.1498 22.9333L92.834 23.0915C68.8351 59.1522 40.2575 87.463 10.8904 104.07L9.78519 104.703L11.3641 157.686C14.9955 208.931 28.5738 228.226 50.5201 242.461C23.0477 226.17 5.5222 206.716 1.57501 149.146L-0.00386047 96.1619L1.10138 95.5292Z" fill="#D5D5D5"/>
<path d="M0.00260925 96.1618L1.10784 95.5292C30.317 78.9223 59.0525 50.6114 83.0514 14.5507L83.3672 14.3926L93.1562 22.9333L92.8405 23.0914C68.8416 59.1521 40.264 87.4629 10.8969 104.07L9.79166 104.702L0.00260925 96.1618Z" fill="#D4D4D4"/>
<path d="M9.80412 104.703L11.383 157.687C15.0144 208.931 28.5927 228.227 50.5391 242.461C23.0666 226.17 5.54114 206.717 1.59395 149.146L0.0150757 96.1621L9.80412 104.703Z" fill="#D4D4D4"/>
<path d="M13.9158 106.282C42.4934 89.9912 70.5974 62.313 93.9647 27.0431L94.2805 26.8849C117.806 34.9511 145.752 30.3645 174.329 13.4412L175.435 12.8086L184.75 21.3493L183.961 21.8238C155.383 38.747 127.279 43.3337 103.912 35.2674L103.596 35.4256C80.0706 70.6955 52.1245 98.3737 23.5469 114.664L22.4417 115.297L24.0205 167.016C27.4941 217.153 40.9145 235.974 62.2293 249.892C35.3885 234.076 18.3366 214.938 14.3894 158.633L12.8105 106.914L13.9158 106.282Z" fill="#A9A9A9"/>
<path d="M12.9692 106.914L14.0745 106.282C42.6521 89.991 70.7561 62.3128 94.1234 27.0429L94.4392 26.8848L104.07 35.2673L103.755 35.4255C80.2293 70.6954 52.2832 98.3735 23.7056 114.664L22.6004 115.297L12.9692 106.914Z" fill="#A9A9A9"/>
<path d="M22.4311 115.14L24.01 166.859C27.4835 216.996 40.9039 235.817 62.2188 249.735C35.3779 233.919 18.326 214.782 14.3788 158.476L12.7999 106.758L22.4311 115.14Z" fill="#A9A9A9"/>
<path d="M29.6918 121.15C58.901 104.543 87.6365 76.2326 111.635 40.1719L111.951 40.0137C135.95 48.3963 164.528 43.4933 193.895 26.2537L195 25.6211L193.421 80.5029C187.895 165.435 159.002 202.445 112.425 281.367L111.32 282C64.7428 256.852 35.8494 253.373 30.3233 174.767L28.7445 121.783L29.6918 121.15Z" fill="#FAFCFC"/>
<path d="M19.7576 112.609C48.9668 96.0024 77.7023 67.6916 101.701 31.6309L102.017 31.4727C126.016 39.8553 154.594 34.9523 183.961 17.7127L185.066 17.0801L194.539 25.7789L193.75 26.2534C164.54 43.493 135.805 48.3959 111.806 40.0134L111.49 40.1716C87.4913 76.2323 58.9137 104.543 29.5466 121.15L28.4414 121.783L30.0203 174.767C33.6517 226.011 47.23 245.306 69.1764 259.541C41.704 243.25 24.1785 223.796 20.2313 166.226L18.6524 113.242L19.7576 112.609Z" fill="#D5D5D5"/>
<path d="M18.6276 113.244L19.7328 112.611C48.942 96.0043 77.6775 67.6935 101.676 31.6328L101.992 31.4746L111.781 40.0153L111.465 40.1735C87.4666 76.2342 58.8889 104.545 29.5219 121.152L28.4166 121.785L18.6276 113.244Z" fill="#D5D5D5"/>
<path d="M28.5775 121.783L30.1564 174.767C33.7878 226.011 47.3661 245.307 69.3125 259.541C41.8401 243.251 24.3146 223.797 20.3674 166.226L18.7885 113.242L28.5775 121.783Z" fill="#D4D4D4"/>
<path d="M117.475 245.309C153.631 185.207 171.788 154.999 176.209 89.2037L177.156 54.5664C153.947 65.005 131.685 68.4846 111.633 64.3724C91.5812 91.5761 69.3191 113.877 46.1096 130.326L47.057 163.697C51.4778 224.589 69.6349 233.763 105.791 251.951C107.686 252.9 109.58 253.849 111.633 254.956C113.685 251.635 115.58 248.472 117.475 245.309Z" fill="#A9A9A9"/>
<path d="M115.422 244.36C151.578 184.258 169.736 154.05 174.156 88.2547L175.104 55.5154C175.735 55.1991 176.525 54.8827 177.156 54.5664L176.209 89.2037C171.788 155.157 153.631 185.366 117.475 245.309C115.58 248.472 113.685 251.635 111.633 254.956C111.001 254.64 110.37 254.324 109.58 254.007C111.633 250.686 113.528 247.365 115.422 244.36Z" fill="#A9A9A9"/>
<path d="M143.523 126.687L116.998 184.257L70.4215 135.227L91.8942 115.615L116.998 158.002L128.84 129.533L143.523 126.687Z" fill="#FFC54D"/>
</svg>
