<svg width="16" height="16" viewBox="0 0 16 16" fill="none" xmlns="http://www.w3.org/2000/svg">
<path d="M16 12.7466C15.95 12.9419 15.9133 13.1413 15.8485 13.3312C15.4315 14.5565 14.3903 15.3046 13.0961 15.3066C11.0409 15.3095 8.98539 15.3075 6.93026 15.3075C5.60338 15.3075 4.27651 15.3095 2.94963 15.3071C1.71894 15.3046 0.811517 14.7588 0.281014 13.6474C-0.145865 12.7532 -0.0748564 11.8565 0.415601 11.004C2.11527 8.0497 3.81825 5.09787 5.52907 2.15018C6.15535 1.07142 7.23783 0.547934 8.43342 0.725869C9.35943 0.863759 10.0381 1.36825 10.5022 2.17206C12.199 5.10985 13.8957 8.04722 15.5913 10.9858C15.7795 11.312 15.9137 11.6592 15.9682 12.0349C15.974 12.0749 15.9889 12.1137 15.9996 12.1534C16 12.3511 16 12.5489 16 12.7466ZM7.99457 14.0132C9.6703 14.0132 11.3464 14.0116 13.0222 14.0145C13.4296 14.0149 13.8045 13.9261 14.1249 13.6606C14.6946 13.1884 14.8923 12.3478 14.4584 11.6039C13.1576 9.37286 11.8728 7.13195 10.581 4.89599C10.1496 4.14916 9.72768 3.39614 9.27686 2.66128C8.95071 2.12995 8.29305 1.8872 7.68617 2.01931C7.2015 2.12499 6.86586 2.41398 6.62228 2.83673C5.22109 5.26797 3.81577 7.69672 2.41252 10.1271C2.09298 10.6807 1.76023 11.2274 1.46422 11.7934C1.1422 12.4085 1.31725 13.1797 1.84239 13.6371C2.16605 13.9195 2.54752 14.0153 2.96738 14.0149C4.6427 14.0116 6.31884 14.0132 7.99457 14.0132Z" fill="#EE3A01"/>
<path d="M8.82173 6.20111C8.75939 7.22868 8.69623 8.25624 8.63554 9.28381C8.62646 9.43945 8.63017 9.59592 8.62604 9.75197C8.61614 10.1272 8.35728 10.3997 8.00884 10.4026C7.65256 10.4055 7.40444 10.1466 7.38215 9.76477C7.31362 8.58115 7.24096 7.39836 7.16912 6.21474C7.14477 5.81056 7.26036 5.47038 7.63151 5.26478C8.12816 4.98942 8.76848 5.33868 8.81513 5.9051C8.82338 6.00295 8.81636 6.10244 8.81636 6.20111C8.81802 6.20111 8.82008 6.20111 8.82173 6.20111Z" fill="#EE3A01"/>
<path d="M7.18604 11.7828C7.1881 11.076 8.0881 10.6937 8.5831 11.2089C9.0653 11.7105 8.71438 12.6047 8.00718 12.6093C7.56296 12.6126 7.1848 12.2319 7.18604 11.7828Z" fill="#EE3A01"/>
</svg>
