<svg width="169" height="200" viewBox="0 0 169 200" fill="none" xmlns="http://www.w3.org/2000/svg">
<path d="M129.441 186.785H98.5547C98.5547 186.785 98.5547 190.978 98.5547 191.013C98.5547 195.984 105.471 199.999 113.998 199.999C122.524 199.999 129.441 195.966 129.441 191.013C129.441 190.978 129.441 186.785 129.441 186.785Z" fill="url(#paint0_linear_1984_15827)"/>
<path d="M113.998 195.844C122.527 195.844 129.441 191.821 129.441 186.858C129.441 181.894 122.527 177.871 113.998 177.871C105.469 177.871 98.5547 181.894 98.5547 186.858C98.5547 191.821 105.469 195.844 113.998 195.844Z" fill="url(#paint1_linear_1984_15827)"/>
<path d="M114.004 195.808C105.566 195.808 98.7196 191.863 98.5781 186.98C98.5781 187.034 98.5781 187.087 98.5781 187.14C98.5781 192.11 105.495 196.126 114.021 196.126C122.548 196.126 129.464 192.093 129.464 187.14C129.464 187.087 129.464 187.034 129.464 186.98C129.288 191.863 122.442 195.808 114.004 195.808Z" fill="url(#paint2_radial_1984_15827)"/>
<path d="M120.231 116.311H108.008C108.008 116.311 108.008 186.45 108.008 186.468C108.008 188.432 110.75 190.024 114.111 190.024C117.489 190.024 120.214 188.432 120.214 186.468C120.231 186.433 120.231 116.311 120.231 116.311Z" fill="url(#paint3_linear_1984_15827)"/>
<path d="M120.231 116.311H108.008C108.008 116.311 108.008 186.45 108.008 186.468C108.008 188.432 110.75 190.024 114.111 190.024C117.489 190.024 120.214 188.432 120.214 186.468C120.231 186.433 120.231 116.311 120.231 116.311Z" fill="url(#paint4_radial_1984_15827)"/>
<path d="M91.4516 133.999L36.9141 102.511V68.1756C36.9141 48.0978 49.12 38.8637 64.1916 47.5494C79.2456 56.2527 91.4692 79.5678 91.4692 99.6634V133.999H91.4516Z" fill="url(#paint5_linear_1984_15827)"/>
<path d="M36.8828 102.513L118.963 54.3438L91.438 134.001L36.8828 102.513Z" fill="url(#paint6_linear_1984_15827)"/>
<path d="M64.1604 47.5497C49.1065 38.8463 36.8828 48.0804 36.8828 68.176V102.512L91.4203 134V99.6637C91.438 79.5858 79.2144 56.2531 64.1604 47.5497ZM89.6867 130.975L38.6341 101.503V68.176C38.6341 54.7317 44.401 46.0284 53.3343 46.0284C56.4477 46.0284 59.7911 47.0544 63.2936 49.071C77.8523 57.4737 89.6867 80.1696 89.6867 99.6637V130.975Z" fill="#F3F3F3"/>
<path d="M9.43541 149.479C-4.53949 141.412 -2.78822 127.331 13.3448 118.009L39.3841 102.973L89.7999 130.516L89.9591 132.178L63.9198 147.215C47.8044 156.537 23.4103 157.546 9.43541 149.479Z" fill="url(#paint7_linear_1984_15827)"/>
<path d="M9.43541 147.797C-4.53949 139.731 -2.78822 125.65 13.3448 116.327L39.3841 101.291L89.9591 130.497L63.9198 145.533C47.8044 154.838 23.4103 155.846 9.43541 147.797Z" fill="url(#paint8_linear_1984_15827)"/>
<path opacity="0.5" d="M63.9315 147.212L69.433 144.046L91.2798 119.369C92.925 117.511 91.6513 115.229 88.4141 114.274L57.404 105.04C54.1844 104.085 50.2396 104.81 48.5945 106.667L21.8122 136.899C20.1671 138.757 21.4407 141.039 24.6779 141.994L55.3343 151.122C58.3592 150.043 61.2603 148.751 63.9315 147.212Z" fill="#C6C6C6"/>
<path d="M47.5164 105.216L20.7341 135.448C19.0889 137.305 20.3626 139.587 23.5998 140.543L54.6099 149.777C57.8295 150.732 61.7743 150.007 63.4194 148.149L90.2017 117.917C91.8469 116.06 90.5732 113.778 87.336 112.823L56.3259 103.589C53.1063 102.634 49.1438 103.359 47.5164 105.216Z" fill="url(#paint9_linear_1984_15827)"/>
<path opacity="0.5" d="M90.187 116.838L63.4047 147.069C61.7596 148.927 57.8148 149.652 54.5953 148.697L23.5851 139.463C21.6216 138.879 20.3833 137.8 20.0825 136.615C19.6934 138.171 21.0201 139.781 23.5851 140.542L54.5953 149.776C57.8148 150.731 61.7596 150.006 63.4047 148.148L90.187 117.917C90.8238 117.191 91.0184 116.413 90.8238 115.652C90.7354 116.077 90.5231 116.466 90.187 116.838Z" fill="url(#paint10_linear_1984_15827)"/>
<path opacity="0.5" d="M89.1984 115.405L61.3547 122.18L65.2642 129.627C65.2642 129.627 59.7096 130.706 52.5452 132.104L59.285 149.192C59.2496 149.21 50.4224 134.209 49.5203 132.688C36.8898 135.147 21.2344 138.189 21.2344 138.172L61.85 128.619C61.85 128.619 51.6784 103.889 51.7138 103.871L60.4172 120.429C63.3536 119.88 89.1807 115.369 89.1984 115.405Z" fill="#C6C6C6"/>
<path d="M21.2344 138.154L61.85 128.584L51.7138 103.836L60.1518 128.195L21.2344 138.154Z" fill="white"/>
<path d="M21.2344 138.154L61.85 128.584L51.7138 103.836L63.5129 129.008L21.2344 138.154Z" fill="#C6C6C6"/>
<path opacity="0.5" d="M73.2907 86.2189L31.7198 110.224C29.1725 111.692 29.1902 114.098 31.7552 115.566L56.4501 129.824C59.0151 131.31 63.1722 131.31 65.7195 129.842L107.29 105.837C109.838 104.369 109.82 101.963 107.255 100.495L82.5601 86.2366C79.9774 84.7507 75.838 84.733 73.2907 86.2189Z" fill="#C2C2C2"/>
<path d="M72.3376 84.3959L30.7667 108.401C28.2193 109.869 28.237 112.275 30.8021 113.743L55.4969 128.001C58.0619 129.487 62.219 129.487 64.7664 128.019L106.337 104.014C108.885 102.546 108.867 100.14 106.302 98.6715L81.607 84.4135C79.042 82.9276 74.9026 82.9276 72.3376 84.3959Z" fill="url(#paint11_linear_1984_15827)"/>
<path opacity="0.5" d="M106.317 102.794L64.7458 126.799C62.1984 128.267 58.0414 128.267 55.4763 126.781L30.7815 112.524C29.7554 111.94 29.1717 111.197 28.9417 110.436C28.6056 111.604 29.2071 112.842 30.7815 113.744L55.4763 128.002C58.0414 129.488 62.1984 129.488 64.7458 128.02L106.317 104.015C107.856 103.13 108.439 101.91 108.121 100.742C107.909 101.503 107.325 102.21 106.317 102.794Z" fill="url(#paint12_linear_1984_15827)"/>
<path opacity="0.5" d="M106.716 101.431L76.5722 102.952L76.36 110.718C76.36 110.718 70.487 110.771 62.9158 110.824L60.2977 128.249C60.2623 128.249 59.7847 112.452 59.7316 110.86C46.3758 110.966 29.8359 111.09 29.8359 111.072L73.6534 109.162C73.6534 109.162 77.0499 83.8652 77.0852 83.8652L76.6253 101.13C79.6856 101.148 106.733 101.413 106.716 101.431Z" fill="#C2C2C2"/>
<path d="M29.8359 111.054L73.6534 109.144L77.0852 83.8477L72.2383 108.454L29.8359 111.054Z" fill="white"/>
<path d="M29.8359 111.054L73.6534 109.144L77.0852 83.8477L75.0155 109.834L29.8359 111.054Z" fill="#C2C2C2"/>
<path d="M141.489 3.2719C134.944 -0.496012 128.947 -0.902876 124.26 1.50293L124.206 1.41448L47.5391 45.2497L47.6452 45.4443C52.2268 43.4276 57.9583 43.9583 64.1674 47.5493C79.2214 56.2527 91.445 79.5678 91.445 99.6633V133.999L168.785 89.7217V55.3859C168.767 35.308 156.561 11.9753 141.489 3.2719Z" fill="url(#paint13_linear_1984_15827)"/>
<path d="M100.719 90.0754C100.719 94.4271 103.797 96.1784 107.582 93.9849C111.386 91.7913 114.446 86.4844 114.446 82.1327C114.446 77.7811 111.368 76.0298 107.582 78.2233C103.797 80.4168 100.719 85.7238 100.719 90.0754Z" fill="url(#paint14_radial_1984_15827)"/>
<path d="M101.992 87.9694C101.992 89.8091 102.629 91.1182 103.673 91.755C103.708 91.7727 105.035 92.6572 105.052 92.6749C106.132 93.2763 105.442 91.9142 107.087 90.959C110.377 89.0485 113.048 84.4491 113.048 80.6635C113.048 78.7884 114.782 78.7707 113.72 78.1516C113.685 78.1339 112.164 77.214 112.128 77.1963C111.049 76.6126 109.581 76.7187 107.954 77.6563C104.663 79.5667 101.992 84.1838 101.992 87.9694Z" fill="#D1D1D1"/>
<path d="M103.539 88.9249C103.539 92.7106 106.21 94.2319 109.5 92.3214C112.791 90.4109 115.462 85.8116 115.462 82.026C115.462 78.2403 112.791 76.719 109.5 78.6295C106.21 80.54 103.539 85.157 103.539 88.9249Z" fill="url(#paint15_linear_1984_15827)"/>
<path d="M109.141 78.3992C110.857 77.4086 112.396 77.3555 113.475 78.0631C112.502 77.8155 111.299 78.0101 110.008 78.7707C106.718 80.6812 104.047 85.2805 104.047 89.0661C104.047 90.8882 104.666 92.1618 105.674 92.7987C104.17 92.4272 103.18 90.9766 103.18 88.6947C103.162 84.9091 105.833 80.292 109.141 78.3992Z" fill="url(#paint16_radial_1984_15827)"/>
<path d="M134.054 89.6937L134.094 84.0508L107.33 83.8605C106.428 83.8541 105.676 85.1047 105.665 86.6791C105.653 88.2534 106.387 89.5147 107.29 89.5211C107.29 89.5034 134.054 89.6937 134.054 89.6937Z" fill="#FEA903"/>
<path d="M136.241 100.905L135.074 100.915L126.632 83.9959L137.281 84.0716L146.872 100.981L145.829 100.938L138.543 95.6323L136.241 100.905Z" fill="#FFEBAA"/>
<path d="M135.108 100.897L125.517 83.9882L136.148 84.0638L145.74 100.973L137.41 95.6245L135.108 100.897Z" fill="#FEA903"/>
<path d="M64.1604 47.5491C59.6849 44.9664 55.4747 43.9758 51.7422 44.3649L52.5205 46.0632C52.7859 46.0455 53.0512 46.0101 53.3166 46.0101C56.43 46.0101 59.7733 47.0361 63.2759 49.0527C77.8346 57.4554 89.669 80.1513 89.669 99.6454V130.956L91.4203 133.981V99.6454C91.438 79.5852 79.2144 56.2525 64.1604 47.5491Z" fill="#F3F3F3"/>
<defs>
<linearGradient id="paint0_linear_1984_15827" x1="98.7111" y1="193.403" x2="129.101" y2="193.403" gradientUnits="userSpaceOnUse">
<stop stop-color="#868686"/>
</linearGradient>
<linearGradient id="paint1_linear_1984_15827" x1="132.134" y1="167.413" x2="107.673" y2="193.641" gradientUnits="userSpaceOnUse">
<stop stop-color="#C8C8C8"/>
<stop offset="1" stop-color="#F7F6FB"/>
</linearGradient>
<radialGradient id="paint2_radial_1984_15827" cx="0" cy="0" r="1" gradientUnits="userSpaceOnUse" gradientTransform="translate(109.054 194.603) scale(11.3865 11.3866)">
<stop stop-color="white"/>
<stop offset="1" stop-color="#606060"/>
</radialGradient>
<linearGradient id="paint3_linear_1984_15827" x1="108.078" y1="153.158" x2="120.101" y2="153.158" gradientUnits="userSpaceOnUse">
<stop stop-color="#B9BFEA"/>
<stop offset="0.2475" stop-color="#E5E9FF"/>
<stop offset="0.702" stop-color="#AFB6E5"/>
<stop offset="0.9464" stop-color="#BAC0EA"/>
<stop offset="1" stop-color="#BDC3EC"/>
</linearGradient>
<radialGradient id="paint4_radial_1984_15827" cx="0" cy="0" r="1" gradientUnits="userSpaceOnUse" gradientTransform="translate(112.54 113.778) scale(28.6731 28.6731)">
<stop offset="0.1818" stop-color="#929292"/>
<stop offset="0.9343" stop-color="white"/>
</radialGradient>
<linearGradient id="paint5_linear_1984_15827" x1="60.0951" y1="81.8839" x2="175.003" y2="165.624" gradientUnits="userSpaceOnUse">
<stop stop-color="#B3B3B3"/>
</linearGradient>
<linearGradient id="paint6_linear_1984_15827" x1="145.097" y1="62.1736" x2="10.6545" y2="155.34" gradientUnits="userSpaceOnUse">
<stop stop-color="#B3B3B3"/>
<stop offset="1" stop-color="#F4F4F4"/>
</linearGradient>
<linearGradient id="paint7_linear_1984_15827" x1="66.4902" y1="149.744" x2="56.8439" y2="99.6246" gradientUnits="userSpaceOnUse">
<stop stop-color="#F3F3F3"/>
</linearGradient>
<linearGradient id="paint8_linear_1984_15827" x1="140.259" y1="62.5823" x2="10.7864" y2="151.355" gradientUnits="userSpaceOnUse">
<stop stop-color="#5C5C5C"/>
<stop offset="1" stop-color="#E1E1E1"/>
</linearGradient>
<linearGradient id="paint9_linear_1984_15827" x1="91.6446" y1="136.274" x2="50.2474" y2="95.7787" gradientUnits="userSpaceOnUse">
<stop offset="1" stop-color="white"/>
</linearGradient>
<linearGradient id="paint10_linear_1984_15827" x1="49.9858" y1="96.2421" x2="59.681" y2="150.145" gradientUnits="userSpaceOnUse">
<stop offset="1" stop-color="white"/>
</linearGradient>
<linearGradient id="paint11_linear_1984_15827" x1="95.2859" y1="121.643" x2="71.5196" y2="80.4823" gradientUnits="userSpaceOnUse">
<stop offset="1" stop-color="white"/>
</linearGradient>
<linearGradient id="paint12_linear_1984_15827" x1="69.3561" y1="91.6482" x2="67.4026" y2="126.884" gradientUnits="userSpaceOnUse">
<stop stop-color="#AFB6E5"/>
<stop offset="0.1449" stop-color="#B6BCE8"/>
<stop offset="0.3485" stop-color="#C8CDF1"/>
<stop offset="0.5808" stop-color="#E5E9FF"/>
<stop offset="0.8551" stop-color="#F5F6FF"/>
<stop offset="1" stop-color="white"/>
</linearGradient>
<linearGradient id="paint13_linear_1984_15827" x1="94.2285" y1="21.9365" x2="169.949" y2="158.686" gradientUnits="userSpaceOnUse">
<stop stop-color="#DFDFDF"/>
<stop offset="1" stop-color="#474747"/>
</linearGradient>
<radialGradient id="paint14_radial_1984_15827" cx="0" cy="0" r="1" gradientUnits="userSpaceOnUse" gradientTransform="translate(107.591 87.5143) rotate(180) scale(7.91136 7.91139)">
<stop stop-color="#B7B7B7"/>
<stop offset="1" stop-color="white"/>
</radialGradient>
<linearGradient id="paint15_linear_1984_15827" x1="118.008" y1="79.6716" x2="99.3365" y2="92.4477" gradientUnits="userSpaceOnUse">
<stop stop-color="#D9D9D9"/>
<stop offset="1" stop-color="white"/>
</linearGradient>
<radialGradient id="paint16_radial_1984_15827" cx="0" cy="0" r="1" gradientUnits="userSpaceOnUse" gradientTransform="translate(107.952 83.8363) rotate(180) scale(6.49621 6.49621)">
<stop stop-color="white"/>
<stop offset="1" stop-color="#434343"/>
</radialGradient>
</defs>
</svg>
