<svg width="90" height="90" viewBox="0 0 90 90" fill="none" xmlns="http://www.w3.org/2000/svg">
<path d="M74.0039 72.8779L67.4912 66.3525C68.1133 65.3877 68.583 64.3467 68.9004 63.2549C69.2178 62.1631 69.3828 61.0332 69.3828 59.8906C69.3828 53.1621 63.9238 47.7031 57.1953 47.7031C50.4668 47.7031 45.0078 53.1621 45.0078 59.8906C45.0078 66.6191 50.4668 72.0781 57.1953 72.0781C59.4805 72.0781 61.7275 71.418 63.6572 70.1865L70.1826 76.6992C71.2363 77.7529 72.9502 77.7529 74.0166 76.6992C75.0576 75.6455 75.0576 73.9316 74.0039 72.8779ZM57.1826 66.6699C53.4375 66.6699 50.416 63.6357 50.416 59.9033C50.416 56.1582 53.4502 53.1367 57.1826 53.1367C60.9277 53.1367 63.9492 56.1709 63.9492 59.9033C63.9619 63.6357 60.9277 66.6699 57.1826 66.6699Z" fill="#FFC54D"/>
<path d="M69.3691 20.625V42.2959C69.3691 43.7939 68.1631 45 66.665 45C65.167 45 63.9609 43.7939 63.9609 42.2959V20.625C63.9609 19.127 62.7549 17.9209 61.2568 17.9209H28.7568C24.2754 17.9209 20.6318 21.5645 20.6318 26.0459V63.9668C20.6318 68.4482 24.2754 72.0918 28.7568 72.0918H45.0068C46.5049 72.0918 47.7109 73.2979 47.7109 74.7959C47.7109 76.2939 46.5049 77.5 45.0068 77.5H28.7568C21.2793 77.4873 15.2236 71.4316 15.2109 63.9541V26.0459C15.2109 18.5684 21.2793 12.5127 28.7441 12.5H61.2441C65.7383 12.5 69.3691 16.1436 69.3691 20.625Z" fill="#9E9E9E"/>
<path d="M53.8957 36.8086C53.3497 40.0437 51.5156 42.8342 48.9459 44.6579C48.1165 45.2466 46.9677 44.547 47.1724 43.5499C47.6796 41.093 47.8815 38.5489 47.9611 36.8086H53.8957Z" fill="#9E9E9E"/>
<path d="M43.9273 36.8086C43.7112 41.9935 43.0477 46.5736 41.9519 46.5736C40.8562 46.5736 40.1927 41.9935 39.9766 36.8086H43.9273Z" fill="#9E9E9E"/>
<path d="M34.9498 44.6599C32.3801 42.8362 30.546 40.0456 30 36.8105H35.9346C36.0143 38.5508 36.2181 41.0949 36.7233 43.5518C36.9299 44.549 35.7811 45.2485 34.9498 44.6599Z" fill="#9E9E9E"/>
<path d="M36.7233 26.0222C36.2162 28.4791 36.0143 31.0232 35.9346 32.7644H30C30.546 29.5293 32.3801 26.7388 34.9498 24.9141C35.7792 24.3264 36.928 25.026 36.7233 26.0222Z" fill="#9E9E9E"/>
<path d="M43.9273 32.765H39.9766C40.1927 27.5801 40.8173 23 41.9519 23C43.0865 23 43.7112 27.5801 43.9273 32.765Z" fill="#9E9E9E"/>
<path d="M53.9039 32.7644H47.9693C47.8906 31.0232 47.6859 28.4791 47.1807 26.0222C46.974 25.026 48.1229 24.3264 48.9541 24.9141C51.5238 26.7388 53.358 29.5293 53.9039 32.7644Z" fill="#9E9E9E"/>
</svg>
