<svg width="91" height="91" viewBox="0 0 91 91" fill="none" xmlns="http://www.w3.org/2000/svg">
<path d="M82.3718 39.2157C84.2294 39.2157 85.7325 37.7142 85.7325 35.855V32.4943C85.7325 23.2267 78.1933 15.6875 68.9257 15.6875H21.8693C12.6017 15.6875 5.0625 23.2267 5.0625 32.4943V59.3832C5.0625 68.6508 12.6017 76.19 21.8693 76.19H68.9257C78.1933 76.19 85.7325 68.6508 85.7325 59.3832V56.0225C85.7325 54.1633 84.2294 52.6618 82.3718 52.6618C78.6644 52.6618 75.6488 49.6461 75.6488 45.9388C75.6488 42.2314 78.6644 39.2157 82.3718 39.2157ZM79.0095 58.9562V59.3832C79.0095 64.9435 74.486 69.467 68.9257 69.467H25.23C25.23 67.6094 23.7269 66.1063 21.8693 66.1063C20.2023 66.1063 18.8237 67.3163 18.5542 68.9061C14.6184 67.5322 11.7855 63.7838 11.7855 59.3832V32.4943C11.7855 28.0937 14.6184 24.3453 18.5542 22.9714C18.8205 24.5612 20.2023 25.7713 21.8693 25.7713C23.7269 25.7713 25.23 24.2681 25.23 22.4105H68.9257C74.486 22.4105 79.0095 26.934 79.0095 32.4943V32.9213C73.2145 34.4133 68.9257 39.6868 68.9257 45.9388C68.9257 52.1907 73.2145 57.4642 79.0095 58.9562Z" fill="#9E9E9E"/>
<path d="M25.2465 52.665V56.0258C25.2465 57.885 23.7434 59.3865 21.8857 59.3865C20.0265 59.3865 18.5234 57.885 18.5234 56.0258V52.665C18.5234 50.8058 20.0265 49.3027 21.8857 49.3027C23.7434 49.3027 25.2465 50.8058 25.2465 52.665Z" fill="#9E9E9E"/>
<path d="M25.2465 35.8529V39.2136C25.2465 41.0728 23.7434 42.5759 21.8857 42.5759C20.0265 42.5759 18.5234 41.0728 18.5234 39.2136V35.8529C18.5234 33.9937 20.0265 32.4922 21.8857 32.4922C23.7434 32.4922 25.2465 33.9937 25.2465 35.8529Z" fill="#9E9E9E"/>
<path d="M62.1886 45.9367C62.1886 47.7927 60.6823 49.2974 58.8263 49.2974H53.7844L47.3623 57.4353C46.7069 58.6359 45.4496 59.3811 44.0851 59.3811H43.009C41.7249 59.3811 40.8441 58.0907 41.3074 56.8949L44.2632 49.2974H39.8263C38.3405 49.2974 36.9288 48.6419 35.9708 47.5059L32.2871 43.1368C31.2882 41.3895 32.5487 39.2136 34.5623 39.2136C35.2571 39.2136 35.9236 39.4894 36.4136 39.9809L40.1446 42.5759H44.3167L41.3215 34.9863C40.8473 33.7889 41.7312 32.4922 43.0184 32.4922H44.0205C45.3881 32.4922 46.6454 33.2374 47.2977 34.438L53.7813 42.5759H58.8231C60.6792 42.5759 62.1854 44.0806 62.1854 45.9367H62.1886Z" fill="#FFC54D"/>
</svg>
