<svg width="24" height="24" viewBox="0 0 24 24" fill="none" xmlns="http://www.w3.org/2000/svg">
<path d="M11.9679 20L11.7319 19.8953C11.4693 19.78 5.33594 17.01 5.33594 11.994V7.64467C5.33617 7.22611 5.46846 6.81831 5.71396 6.47932C5.95947 6.14033 6.30567 5.88744 6.70327 5.75667L12.0026 4L17.3019 5.75667C17.6995 5.88744 18.0457 6.14033 18.2912 6.47932C18.5367 6.81831 18.669 7.22611 18.6693 7.64467V11.994C18.6693 17.712 12.4773 19.8307 12.2133 19.9187L11.9679 20ZM12.0026 5.398L7.12527 7.01533C6.99257 7.05868 6.87698 7.1429 6.79507 7.25595C6.71316 7.369 6.66913 7.50506 6.66927 7.64467V11.994C6.66927 15.6567 10.9626 18.0327 12.0339 18.568C13.1033 18.138 17.3359 16.1693 17.3359 11.994V7.64467C17.3361 7.50506 17.292 7.369 17.2101 7.25595C17.1282 7.1429 17.0126 7.05868 16.8799 7.01533L12.0026 5.398Z" fill="#212121"/>
<path d="M11.4091 13.6884H11.3871C11.2184 13.6858 11.0519 13.649 10.8978 13.5803C10.7437 13.5115 10.6051 13.4122 10.4905 13.2884L8.95312 11.6884L9.91379 10.767L11.4098 12.327L14.8638 8.87305L15.8065 9.81571L12.2991 13.323C12.1823 13.4398 12.0435 13.5322 11.8907 13.5949C11.738 13.6576 11.5743 13.6894 11.4091 13.6884Z" fill="#212121"/>
</svg>
