<svg width="91" height="91" viewBox="0 0 91 91" fill="none" xmlns="http://www.w3.org/2000/svg">
<path d="M84.1557 49.1882C84.1557 43.8029 79.791 39.4382 74.4057 39.4382H72.8518L57.6359 17.6152C55.8123 14.9994 52.8264 13.4395 49.6379 13.4395H26.8886C22.8423 13.4562 19.2227 15.9562 17.7754 19.7342L9.32499 41.99C7.3034 43.8364 6.15169 46.4506 6.15626 49.1882V65.4385H12.6567V67.064C12.6567 73.3466 17.7495 78.4395 24.0321 78.4395C30.3147 78.4395 35.406 73.3451 35.406 67.064V65.4385H54.9059V67.064C54.9059 73.3466 59.9987 78.4395 66.2813 78.4395C72.5639 78.4395 77.6567 73.3466 77.6567 67.064V65.4385H84.1557V49.1882ZM52.3054 21.3293L64.9285 39.4382H41.9065V19.9384H49.6379C50.7012 19.9384 51.6976 20.4579 52.3054 21.3293ZM23.8585 22.0346C24.3368 20.7732 25.5449 19.9399 26.8947 19.9384H35.406V39.4382H17.2575L23.8585 22.0346ZM28.9056 67.064C28.9056 69.7559 26.7225 71.939 24.0306 71.939C21.3387 71.939 19.1557 69.7559 19.1557 67.064V65.4385H28.9056V67.064ZM71.1563 67.064C71.1563 69.7559 68.9732 71.939 66.2813 71.939C63.5894 71.939 61.4063 69.7559 61.4063 67.064V65.4385H71.1563V67.064ZM77.6552 58.9381H12.6567V49.1882C12.6567 47.3936 14.1116 45.9387 15.9062 45.9387H74.4057C76.2003 45.9387 77.6552 47.3936 77.6552 49.1882V58.9381Z" fill="#9E9E9E"/>
<path d="M35.4356 65.4102C35.5688 70.6744 34.0919 73.1075 31.9704 75.229C29.8489 77.3505 26.9302 78.4328 23.93 78.4328C20.9297 78.4328 18.0523 77.2409 15.9308 75.1194C13.8093 72.9979 12.5859 70.3454 12.5859 65.4082L19.1597 65.4102C19.1597 66.681 19.643 69.61 20.5416 70.5086C21.4403 71.4073 22.6591 71.9121 23.93 71.9121C25.2008 71.9121 26.4582 71.4073 27.3569 70.5086C28.2555 69.61 28.8524 66.681 28.8524 65.4102H35.4356Z" fill="#FFC54D"/>
<path d="M77.6856 65.4102C77.8188 70.6744 76.3419 73.1075 74.2204 75.229C72.0989 77.3505 69.1802 78.4328 66.18 78.4328C63.1797 78.4328 60.3023 77.2409 58.1808 75.1194C56.0593 72.9979 54.8359 70.3454 54.8359 65.4082L61.4097 65.4102C61.4097 66.681 61.893 69.61 62.7916 70.5086C63.6903 71.4073 64.9091 71.9121 66.18 71.9121C67.4508 71.9121 68.7082 71.4073 69.6069 70.5086C70.5055 69.61 71.1024 66.681 71.1024 65.4102H77.6856Z" fill="#FFC54D"/>
</svg>
