<svg width="90" height="90" viewBox="0 0 90 90" fill="none" xmlns="http://www.w3.org/2000/svg">
<path d="M66.5227 27.4902L57.092 18.0468C53.4999 14.4674 48.7401 12.5 43.6883 12.5H31.4651C23.989 12.5 17.9219 18.5672 17.9219 26.0433V63.9567C17.9219 71.4201 24.0017 77.5 31.4651 77.5H58.5389C66.0023 77.5 72.0822 71.4328 72.0822 63.9567V40.8939C72.0695 35.8294 70.1021 31.0696 66.5227 27.4902ZM50.4155 19.6968C51.4436 20.2934 52.3956 21.0169 53.2587 21.88L62.6895 31.3235C63.5526 32.1866 64.2761 33.1385 64.8727 34.1667H53.1191C51.6213 34.1667 50.4155 32.9482 50.4155 31.4631V19.6968ZM66.6624 63.9441C66.6624 68.4246 63.0195 72.0675 58.5389 72.0675H31.4524C26.9719 72.0675 23.329 68.4246 23.329 63.9441V26.0433C23.329 21.5627 26.9719 17.9198 31.4524 17.9198H43.6756C44.1199 17.9198 44.5514 17.9452 44.983 17.9833V31.4631C44.983 35.9437 48.6258 39.5865 53.1064 39.5865H66.5862C66.6243 40.0181 66.6497 40.4623 66.6497 40.8939V63.9441H66.6624Z" fill="#9E9E9E"/>
<path d="M55.8258 53.1176C55.8258 54.6154 54.62 55.8212 53.1223 55.8212H36.8754C35.3777 55.8212 34.1719 54.6154 34.1719 53.1176C34.1719 51.6199 35.3777 50.4141 36.8754 50.4141H53.1223C54.62 50.4141 55.8258 51.6199 55.8258 53.1176Z" fill="#FFC54D"/>
</svg>
