<svg width="44" height="74" viewBox="0 0 44 74" fill="none" xmlns="http://www.w3.org/2000/svg">
<path d="M37.6277 72.4352C36.0045 71.7376 35.2669 70.4114 35.1177 68.7385C34.9085 66.3888 35.1772 64.0341 35.1253 61.68C35.0558 58.5084 35.26 55.3343 35.1077 52.1638C34.8613 47.0362 32.4367 43.1706 28.1709 40.4081C27.2234 39.7944 26.1303 39.7681 25.0527 39.7671C20.4833 39.7617 15.9139 39.7735 11.3449 39.7775C11.1259 39.7779 10.9069 39.7635 10.688 39.7555C10.6422 39.7192 10.5965 39.6518 10.55 39.6514C9.57398 39.6414 8.59002 39.5592 7.6237 39.6547C6.38835 39.7768 5.62048 40.7888 5.78399 41.9248C6.08977 44.0494 6.16217 46.1916 6.23817 48.3299C6.3156 50.5147 6.1582 52.6936 5.90933 54.869C5.68098 56.8647 5.30931 58.8229 4.73917 60.7479C3.95834 63.385 2.67975 65.7837 1.29925 68.1428C0.787101 69.0176 0.3189 69.9526 0.957467 70.9956C1.00249 71.0691 0.967907 71.1908 0.970428 71.2899C0.207245 70.4525 0.0347286 69.4091 0.0264449 68.3448C-0.00200791 64.6942 -0.000206393 61.0433 0.000153769 57.3923C0.000874093 49.5516 0.00556112 41.7109 0.014205 33.8705C0.016366 31.8777 1.23552 30.6906 3.24126 30.7032C3.91873 30.7075 4.59619 30.7169 5.27401 30.7237C5.27978 31.2777 5.50594 31.7178 5.93562 32.0679C6.59904 32.6085 7.41625 32.6178 8.19096 32.6582C9.4047 32.7216 10.6246 32.6852 11.8416 32.6654C13.933 32.6312 16.0086 32.8073 18.0572 33.2056C21.1049 33.7985 23.9664 34.9049 26.65 36.4709C29.5392 38.1568 32.1198 40.2169 34.2609 42.796C36.1781 45.105 37.6742 47.6723 38.8418 50.4365C40.254 53.7792 41.0024 57.2724 41.2095 60.8826C41.2952 62.3741 41.2189 63.868 40.9747 65.3465C40.6178 67.5089 40.0221 69.578 38.6106 71.327C38.4943 71.471 38.3102 71.6079 38.3473 71.842L38.3498 71.8395C38.2584 71.8417 38.1114 71.7977 38.2331 71.9785C38.0704 72.182 37.7376 72.1608 37.6277 72.4352Z" fill="#333333"/>
<path d="M32.8195 32.2119C31.789 31.7397 30.7777 31.2283 29.7048 30.8487C29.1714 30.6599 29.1411 30.2396 29.6302 29.851C30.3361 29.2899 30.9693 28.6564 31.5906 28.0084C34.6671 24.8015 35.2491 21.0609 33.7245 17.008C32.5706 13.9408 30.3686 11.723 27.4631 10.2099C26.7781 9.85301 26.052 9.66969 25.2798 9.66933C20.4519 9.66753 15.6239 9.65924 10.7959 9.66753C9.60197 9.66969 8.788 10.5139 8.74946 11.7082C8.70804 13.0023 8.88777 14.3071 8.65979 15.5893C8.25893 17.8421 6.65512 19.2269 4.51143 19.2432C2.36019 19.2594 0.636815 17.8576 0.166083 15.6902C0.0818049 15.3026 0.020214 14.9014 0.0187733 14.5063C0.00616767 10.8553 0.00689608 7.20402 0.00905705 3.55306C0.00977738 2.62672 0.330325 1.84337 1.09315 1.27539C2.17544 1.28908 3.25807 1.3024 4.34036 1.31609C4.06952 2.23522 4.36557 2.83273 5.28362 3.10177C6.06085 3.32975 6.87302 3.2905 7.65133 3.15075C9.13736 2.88387 10.6335 2.70055 12.1354 2.63428C14.0622 2.54964 15.9902 2.64293 17.9123 2.8475C20.9078 3.16624 23.7599 3.92366 26.392 5.43778C29.7393 7.36321 32.1225 10.1372 33.6529 13.6542C34.5212 15.6498 35.0679 17.7337 35.2491 19.9159C35.4137 21.899 35.4205 23.8676 35.1522 25.8449C35.0726 26.432 34.7132 27.0061 34.9714 27.6299C34.6999 28.5822 34.3494 29.5031 33.8668 30.3696C33.5236 30.9855 33.1692 31.5974 32.8195 32.2119Z" fill="#1528A3"/>
<path d="M4.34098 1.31606C3.25833 1.30274 2.17604 1.28905 1.09375 1.27536C1.59293 0.792026 2.2081 0.583855 2.88376 0.584215C9.82733 0.585295 16.7727 0.488771 23.7134 0.628514C32.501 0.805714 40.5967 6.56182 42.5632 15.9574C43.6336 21.0728 43.1473 26.0812 40.5106 30.7291C39.6866 32.1812 38.5311 33.3759 37.3646 34.554C36.958 34.9646 36.5193 34.984 36.09 34.612C35.0646 33.7231 33.9571 32.9484 32.8197 32.2133C33.1694 31.5989 33.5238 30.9869 33.8678 30.3693C34.3504 29.5027 34.7005 28.5818 34.9724 27.6295C35.9636 24.0603 36.1797 20.4417 35.4503 16.8113C34.52 12.1803 32.1833 8.33706 28.4387 5.46693C24.6894 2.5932 20.3826 1.19073 15.6378 1.19541C12.1255 1.19865 8.61321 1.19433 5.10127 1.18821C4.83655 1.18749 4.58553 1.22062 4.34098 1.31606ZM25.9669 1.65462C25.404 1.61824 24.85 1.66326 24.3037 1.78535C24.0721 1.83686 23.7998 1.8808 23.7559 2.1664C23.7119 2.45381 23.9892 2.51252 24.178 2.595C24.4312 2.70557 24.6988 2.79057 24.9674 2.8572C25.7612 3.05385 26.5424 3.29335 27.2664 3.6744C29.3171 4.75381 31.0016 6.26361 32.5456 7.98842C35.0127 10.7447 36.2149 13.9365 36.1797 17.6105C36.1674 18.8858 36.2938 20.1543 36.3381 21.4261C36.3698 22.3416 36.43 23.2863 36.7624 24.1766C37.1056 25.0961 37.6448 25.3032 38.4548 24.7198C39.6837 23.8348 40.5185 22.5876 41.4287 21.4066C42.1014 20.5336 42.3539 19.5413 42.2639 18.4976C42.1133 16.7483 41.6426 15.0688 40.9007 13.4672C38.9986 9.361 36.484 5.76551 32.4264 3.51557C30.43 2.40736 28.2917 1.6719 25.9669 1.65462Z" fill="#1A59E2"/>
<path d="M0.970761 71.2903C0.96824 71.1908 1.00246 71.0691 0.9578 70.996C0.319233 69.953 0.787435 69.0183 1.29959 68.1432C2.68009 65.7845 3.95867 63.3854 4.7395 60.7483C5.30964 58.8232 5.68132 56.865 5.90966 54.8694C6.15853 52.694 6.3163 50.515 6.2385 48.3303C6.16251 46.192 6.0901 44.0498 5.78432 41.9252C5.62081 40.7892 6.38832 39.7772 7.62403 39.6551C8.59035 39.5596 9.57431 39.6417 10.5504 39.6518C10.5968 39.6522 10.6422 39.7199 10.6883 39.7559C9.15581 40.1895 8.76792 40.7157 8.76792 42.362C8.76792 51.0549 8.76792 59.7481 8.76792 68.441C8.76792 70.9405 7.27 72.7143 4.80541 72.9762C3.59347 73.1048 2.44743 72.7853 1.57836 71.8233C1.52505 71.7916 1.47175 71.7599 1.41845 71.7282C1.39036 71.707 1.3619 71.6861 1.33381 71.6648C1.34281 71.4552 1.24017 71.358 1.03272 71.3677C1.01219 71.3421 0.991291 71.3162 0.970761 71.2903Z" fill="#4D4D4D"/>
<path d="M37.6273 72.4355C37.7372 72.161 38.0699 72.1823 38.2331 71.9784C38.272 71.932 38.3109 71.8859 38.3498 71.8394L38.3473 71.8419C39.3269 71.3773 39.753 70.4697 40.1247 69.5466C41.3373 66.5339 41.8358 63.4202 41.6082 60.1586C41.4724 58.2109 41.2134 56.3006 40.7413 54.414C40.3991 53.0469 39.8971 51.7315 39.4018 50.4148C39.7303 50.3734 39.7238 50.0802 39.7649 49.8699C40.1005 48.1501 40.2104 46.4307 39.9212 44.6799C39.2181 40.4261 37.0672 37.0964 33.5542 34.657C31.7876 33.4303 29.8197 32.6678 27.6519 32.4143C25.8248 32.2007 24.0521 32.3361 22.181 32.8691C22.476 32.983 22.6565 33.059 22.8412 33.1231C24.2945 33.6284 25.675 34.2979 27.0036 35.0622C30.1925 36.8961 32.768 39.409 34.9063 42.3796C35.2571 42.8669 35.7548 43.2854 35.8265 43.9434C35.7372 43.866 35.6277 43.8029 35.5611 43.7093C34.1834 41.7731 32.5307 40.0954 30.7446 38.5388C28.6135 36.6815 26.2581 35.1861 23.7056 33.9694C20.3093 32.3505 16.7527 31.3219 13.0243 30.8677C12.8777 30.8497 12.743 30.8447 12.7109 30.6646C16.6378 30.6178 20.574 30.334 24.4875 30.7939C32.2436 31.7051 37.4915 36.1102 40.9667 42.8791C42.0742 45.0365 42.635 47.3574 42.9112 49.7679C43.3697 53.7665 43.2909 57.7718 43.1648 61.7783C43.1201 63.1966 43.3017 64.6041 43.2466 66.0206C43.2015 67.1757 43.1648 68.3293 43.0182 69.4778C42.8187 71.0409 41.4076 72.4232 39.7577 72.6786C39.0197 72.7927 38.3037 72.8133 37.6273 72.4355Z" fill="#4D4D4D"/>
<path d="M21.1063 49.5449L21.1344 49.5319L21.1532 49.5567C21.3264 49.5369 21.4996 49.5175 21.6729 49.498C24.4202 49.5719 26.3049 52.0206 25.6584 54.6714C25.5424 55.1472 25.3303 55.5776 24.9939 55.9241C24.369 56.5673 24.2278 57.32 24.3341 58.1826C24.6334 60.6159 25.0958 63.0225 25.469 65.4435C25.5446 65.9348 25.6004 66.4289 25.6649 66.922C25.4398 67.2782 25.084 67.2933 24.717 67.2926C23.2417 67.2901 21.7669 67.2922 20.2916 67.2919C18.8849 67.2915 18.4912 66.7804 18.8632 65.4374C18.8899 65.3416 18.9291 65.2494 18.954 65.1532C19.5317 62.9058 20.1771 60.6721 20.4768 58.3642C20.5762 57.5981 20.4591 56.9267 19.737 56.3678C17.7298 54.8137 17.5595 52.4035 19.2367 50.5274C19.3145 50.4402 19.4204 50.366 19.3761 50.223C19.3761 50.223 19.3876 50.2166 19.388 50.2173C19.6124 50.3037 19.7287 50.2202 19.7507 49.9875L19.7582 50.0242C19.8069 49.9843 19.8551 49.9439 19.9034 49.904L19.8915 49.9148C20.0327 49.9112 20.1919 49.9511 20.256 49.7624C20.256 49.7624 20.2423 49.7819 20.2427 49.7822C20.39 49.7952 20.5427 49.8233 20.6187 49.6432C20.6187 49.6432 20.6053 49.6677 20.6057 49.6677C20.7797 49.6565 20.9752 49.7318 21.1063 49.5449Z" fill="#1A59E2"/>
<path d="M12.7101 30.6631C12.7421 30.8431 12.8768 30.8485 13.0234 30.8662C16.7518 31.3204 20.3084 32.349 23.7047 33.9679C26.2572 35.1845 28.6123 36.6799 30.7437 38.5373C32.5301 40.0943 34.1826 41.7715 35.5602 43.7078C35.6268 43.8014 35.7363 43.8644 35.8256 43.9415C36.2351 44.5938 36.6371 45.2511 37.0559 45.8972C37.9833 47.3274 38.6266 48.9042 39.4013 50.4133C39.8965 51.73 40.3986 53.0453 40.7407 54.4125C41.2129 56.299 41.4715 58.2093 41.6077 60.1571C41.8353 63.4187 41.3368 66.5323 40.1241 69.5451C39.7525 70.4682 39.3264 71.3754 38.3468 71.8404C38.3093 71.6063 38.4937 71.4694 38.61 71.3254C40.0215 69.5764 40.6172 67.5073 40.9741 65.3449C41.2183 63.8664 41.2943 62.3724 41.209 60.881C41.0019 57.2708 40.2531 53.7775 38.8413 50.4349C37.6736 47.6706 36.1775 45.1038 34.2604 42.7944C32.1192 40.2153 29.5386 38.1552 26.6494 36.4692C23.9655 34.9032 21.104 33.7965 18.0567 33.204C16.0081 32.8057 13.9324 32.6295 11.841 32.6638C10.624 32.6836 9.40413 32.7199 8.19038 32.6566C7.41567 32.6162 6.59846 32.6065 5.93504 32.0663C5.50537 31.7162 5.2792 31.2761 5.27344 30.7221C5.94046 30.5863 6.61539 30.6667 7.28565 30.6616C9.09402 30.6483 10.902 30.6609 12.7101 30.6631Z" fill="#010101"/>
<path d="M19.3713 50.2227C19.416 50.3656 19.3101 50.4398 19.2319 50.527C17.5543 52.4031 17.725 54.8133 19.7322 56.3674C20.4543 56.9263 20.5714 57.5977 20.472 58.3638C20.1723 60.6717 19.5269 62.9054 18.9492 65.1528C18.9244 65.249 18.8851 65.3412 18.8584 65.437C18.4864 66.78 18.8797 67.2911 20.2868 67.2915C21.7621 67.2918 23.2369 67.29 24.7121 67.2922C25.0792 67.2929 25.435 67.2778 25.6601 66.9216C25.7271 67.6631 25.3568 68.1166 24.5919 68.1353C23.417 68.1641 22.2414 68.1483 21.0662 68.1504C20.3491 68.1515 19.6317 68.1605 18.9146 68.1476C17.9465 68.1303 17.5132 67.6901 17.6249 66.7184C17.7563 65.5746 17.9775 64.4411 18.1579 63.303C18.4162 61.674 18.6722 60.045 18.9298 58.416C19.0868 57.4209 18.8649 56.582 18.1921 55.7684C16.8585 54.1578 17.5291 51.2153 19.3713 50.2227Z" fill="#1528A3"/>
<path d="M19.7533 49.9883C19.7313 50.2206 19.6146 50.3045 19.3906 50.2181C19.4544 50.0502 19.6013 50.0153 19.7533 49.9883Z" fill="#1528A3"/>
<path d="M21.6838 49.4969C21.5105 49.5163 21.3373 49.5362 21.1641 49.5556C21.3229 49.409 21.5066 49.48 21.6838 49.4969Z" fill="#1528A3"/>
<path d="M21.11 49.543C20.9786 49.7295 20.7833 49.6546 20.6094 49.6654C20.7437 49.4915 20.9425 49.5819 21.11 49.543Z" fill="#1528A3"/>
<path d="M1.03125 71.3659C1.2387 71.3565 1.34098 71.4534 1.33234 71.663C1.23186 71.5639 1.13174 71.4649 1.03125 71.3659Z" fill="#333333"/>
<path d="M20.6182 49.6426C20.5422 49.8223 20.3895 49.7946 20.2422 49.7816C20.3301 49.6339 20.4846 49.6663 20.6182 49.6426Z" fill="#1528A3"/>
<path d="M20.2629 49.7637C20.1988 49.952 20.0396 49.9121 19.8984 49.916C19.9852 49.782 20.1275 49.7813 20.2629 49.7637Z" fill="#1528A3"/>
<path d="M1.41406 71.7285C1.46737 71.7602 1.52067 71.7919 1.57397 71.8236C1.48933 71.8441 1.4472 71.7941 1.41406 71.7285Z" fill="#333333"/>
<path d="M19.8969 49.9043C19.8487 49.9443 19.8004 49.9846 19.7518 50.0246C19.7359 49.9072 19.8306 49.9227 19.8969 49.9043Z" fill="#1528A3"/>
<path d="M38.3505 71.8372C38.3116 71.8837 38.2727 71.9298 38.2338 71.9762C38.112 71.7954 38.2586 71.8394 38.3505 71.8372Z" fill="#010101"/>
<path d="M4.35393 1.31732C4.59848 1.22188 4.84951 1.18874 5.11351 1.18946C8.62581 1.19595 12.1381 1.20027 15.65 1.19667C20.3948 1.19234 24.7017 2.59445 28.4509 5.46819C32.1955 8.33832 34.5323 12.1816 35.4626 16.8126C36.1919 20.443 35.9758 24.0616 34.9846 27.6308C34.7264 27.007 35.0858 26.4332 35.1654 25.8458C35.4334 23.8685 35.4269 21.8999 35.2623 19.9168C35.0811 17.7346 34.5348 15.651 33.6661 13.655C32.1357 10.138 29.7526 7.36408 26.4052 5.43866C23.7731 3.92453 20.921 3.16711 17.9256 2.84837C16.0034 2.6438 14.0754 2.55016 12.1486 2.63516C10.6467 2.70106 9.15057 2.88475 7.66454 3.15163C6.88623 3.29137 6.07406 3.33063 5.29683 3.10264C4.37949 2.83396 4.08345 2.23645 4.35393 1.31732Z" fill="#0A1870"/>
<path d="M25.9649 1.65692C28.2894 1.67421 30.4281 2.41002 32.4252 3.51752C36.4824 5.76745 38.9974 9.36331 40.8994 13.4692C41.6414 15.0708 42.1121 16.7502 42.2626 18.4995C42.3527 19.5433 42.1002 20.5359 41.4274 21.4086C40.5173 22.5895 39.6824 23.8368 38.4536 24.7217C37.6436 25.3052 37.1044 25.0981 36.7612 24.1786C36.4287 23.2879 36.3686 22.3432 36.3369 21.428C36.2926 20.1563 36.1658 18.8878 36.1784 17.6125C36.2141 13.9388 35.0115 10.7471 32.5444 7.99037C31.0007 6.26556 29.3159 4.75576 27.2651 3.67635C26.5412 3.2953 25.76 3.05615 24.9662 2.85914C24.6975 2.79251 24.4299 2.70787 24.1767 2.59694C23.988 2.51447 23.7107 2.45576 23.7546 2.16836C23.7982 1.88239 24.0705 1.8388 24.3025 1.7873C24.8485 1.66557 25.402 1.62019 25.9649 1.65692Z" fill="#3774F9"/>
<path d="M39.4008 50.412C38.6261 48.9033 37.9825 47.3265 37.0555 45.896C36.6366 45.2498 36.2347 44.5925 35.8252 43.9403C35.7535 43.2823 35.2557 42.8637 34.9049 42.3765C32.767 39.4058 30.1911 36.893 27.0023 35.059C25.6736 34.2948 24.2931 33.6252 22.8399 33.1199C22.6555 33.0558 22.475 32.9798 22.1797 32.866C24.0507 32.333 25.8235 32.1976 27.6506 32.4111C29.8184 32.6647 31.7863 33.4271 33.5529 34.6539C37.0659 37.0936 39.2168 40.4229 39.9198 44.6768C40.209 46.4275 40.0992 48.147 39.7635 49.8667C39.7225 50.0774 39.7293 50.3706 39.4008 50.412Z" fill="#656565"/>
</svg>
