<svg width="44" height="50" viewBox="0 0 44 50" fill="none" xmlns="http://www.w3.org/2000/svg">
<path d="M31.0256 33.2997C28.5827 29.0681 26.2036 24.94 23.819 20.825C24.2364 20.4179 24.6539 20.0108 25.0713 19.6037C26.1979 20.1713 27.548 20.5186 28.4161 21.3532C32.7787 25.528 37.0768 29.7829 41.2787 34.1201C43.6281 36.5547 44.6258 38.6643 40.3697 40.7285C35.2562 43.2058 30.522 46.4574 25.6169 49.3681C25.1073 48.8844 24.6069 48.3969 24.1011 47.9224C25.8643 45.3817 27.6238 42.8317 29.4588 40.1754C17.0874 38.4456 4.51591 36.4625 0.793763 21.4061C-1.08078 13.7916 1.0688 4.15324 5.75348 0.673594C5.94955 4.26392 6.30915 7.19413 6.21738 10.1027C6.03383 15.9197 4.52026 22.342 9.51116 26.6285C15.5375 31.7894 23.0389 33.674 31.0256 33.2997Z" fill="#ECECEC"/>
</svg>
