<svg width="48" height="48" viewBox="0 0 48 48" fill="none" xmlns="http://www.w3.org/2000/svg">
<path d="M38.6049 10.229C31.1996 8.08356 22.8946 6.97622 17.4964 13.4818C10.6447 21.7868 13.4823 31.8912 21.5796 37.9123C13.1362 40.2654 3.44706 33.2062 3.93152 24.0707C4.27756 17.2191 17.7732 3.93106 24.8324 4.00027C30.023 4.06948 34.5908 5.79968 38.6049 10.229Z" fill="#0050E5"/>
<path d="M9.59375 37.5633C29.3873 46.4911 41.8448 24.3445 26.7574 10.0876C35.2008 7.31924 44.5439 15.0014 44.0595 23.7908C43.7134 29.7427 30.5639 43.9304 24.4043 43.9996C18.9369 43.9996 13.8847 42.7539 9.59375 37.5633Z" fill="#0050E5"/>
</svg>
