<svg width="164" height="200" viewBox="0 0 164 200" fill="none" xmlns="http://www.w3.org/2000/svg">
<path d="M3.39114 5.83082C2.5983 6.91198 3.24699 6.98406 4.83269 6.04706C6.41839 5.11005 8.29241 3.52435 9.01318 2.51527C9.80603 1.43412 9.15733 1.36204 7.57164 2.29904C6.05801 3.16397 4.11192 4.82174 3.39114 5.83082Z" fill="#F8A52C"/>
<path d="M1.80618 7.2713C2.23864 6.69468 2.74317 6.26222 3.39186 5.82976C4.18471 4.7486 6.05873 3.1629 7.57236 2.29797C9.15805 1.36097 9.80675 1.50512 9.0139 2.51421C8.22105 3.59536 6.34703 5.18106 4.83341 6.04599C3.24771 6.98299 2.59902 6.83884 3.39186 5.82976C2.74317 6.19014 2.23864 6.69468 1.80618 7.2713C1.51787 7.70376 0.94124 8.49661 0.508776 9.64985C0.00423622 10.9472 0.00424957 12.1005 0.00424957 12.1726C0.00424957 12.8933 0.00425529 12.9654 0.0763321 13.4699C0.148409 14.1907 0.364635 14.6953 0.364635 14.6953C0.652945 15.416 0.652931 15.5602 0.869162 15.9206C1.30163 16.7134 1.30164 16.7134 1.87826 17.5063C2.31072 18.0829 4.11264 17.5783 6.99572 15.9206C11.6087 13.2537 17.1586 8.56869 19.393 5.46937C20.2579 4.31613 20.4742 3.52329 20.2579 3.1629C19.3209 1.93759 18.0956 1.00058 16.6541 0.496042C14.5638 -0.296807 12.5457 0.0635774 12.1853 0.207732C11.5366 0.351886 10.8879 0.496045 9.73467 1.00059C8.86975 1.43305 7.93273 1.93759 6.99572 2.58628C6.20288 3.1629 5.69835 3.59536 5.33796 3.88367C5.26588 3.95575 4.76135 4.38821 4.04058 4.96483C2.74319 5.97391 2.16656 6.76676 1.80618 7.2713Z" fill="#FDD043"/>
<path d="M65.082 64.7988C65.2982 65.0871 64.5652 66.3885 63.9165 67.2535C62.2587 69.5599 58.5285 72.5005 55.0688 74.5187C52.9786 75.744 51.7011 76.1084 51.3407 75.6759L63.2135 90.8802C63.5739 91.3126 64.9434 90.9523 67.0336 89.6549C70.4933 87.6367 75.3174 85.4991 76.9752 83.1926C77.6239 82.3277 77.8655 80.9407 77.6493 80.6524C74.0454 76.1836 68.6859 69.4118 65.082 64.7988Z" fill="#FDD043"/>
<path d="M73.2272 92.6103L89.3725 83.2402C82.2369 87.4207 77.7681 96.2141 77.7681 108.828C77.696 134.127 95.4991 164.976 117.555 177.661C128.655 184.076 138.673 184.653 145.953 180.472L129.808 189.842C122.528 194.023 112.509 193.446 101.409 187.031C79.3538 174.346 61.5507 143.497 61.6228 118.198C61.6949 105.584 66.0916 96.7907 73.2272 92.6103Z" fill="url(#paint0_linear_3327_21697)"/>
<path opacity="0.64" d="M106.239 184.221C84.1835 171.535 66.4525 140.686 66.4525 115.387C66.5246 90.0882 84.4718 79.8533 106.455 92.6109C128.511 105.297 146.314 136.146 146.242 161.445C146.17 186.744 128.223 196.979 106.239 184.221Z" fill="#F1F1F1"/>
<path opacity="0.64" d="M81.3771 88.3574C75.8992 93.0424 72.5836 101.115 72.5116 111.927C72.4395 137.226 90.2425 168.075 112.298 180.76C121.812 186.238 130.534 187.464 137.453 185.013C130.101 191.284 118.857 191.5 106.244 184.22C84.1881 171.535 66.4571 140.685 66.4571 115.386C66.5291 101.043 72.2953 91.5288 81.3771 88.3574Z" fill="#FEFEFE"/>
<path d="M101.626 88.6468C76.3991 74.0872 55.8571 85.7637 55.785 114.811C55.713 143.858 76.1108 179.176 101.338 193.735C126.565 208.295 147.107 196.618 147.179 167.571C147.323 138.596 126.925 103.278 101.626 88.6468ZM101.41 187.032C79.3543 174.347 61.5512 143.498 61.6233 118.198C61.6954 92.8993 79.6426 82.6644 101.626 95.422C123.682 108.108 141.485 138.957 141.413 164.256C141.341 189.555 123.393 199.718 101.41 187.032Z" fill="#D8E3E3"/>
<path d="M85.2683 76.1049C93.5572 71.2757 105.09 71.9244 117.775 79.2763C143.002 93.8359 163.4 129.226 163.328 158.201C163.256 172.616 158.21 182.779 149.994 187.536L133.848 196.906C142.065 192.149 147.111 181.986 147.183 167.571C147.255 138.524 126.857 103.206 101.63 88.6463C88.9443 81.2944 77.4119 80.6457 69.123 85.4749L85.2683 76.1049Z" fill="url(#paint1_linear_3327_21697)"/>
<path d="M51.6877 76.1022L2.10938 17.5659L20.5407 3.54883L65.3692 65.2051C63.3964 70.6044 55.2796 74.8043 51.6877 76.1022Z" fill="#FDD043"/>
<defs>
<linearGradient id="paint0_linear_3327_21697" x1="123.675" y1="193.319" x2="67.4331" y2="95.9055" gradientUnits="userSpaceOnUse">
<stop stop-color="#CDE3E3"/>
<stop offset="0.000446474" stop-color="#CFE4E4"/>
<stop offset="0.00508511" stop-color="#DAE8E8"/>
<stop offset="0.0116052" stop-color="#E1EAEA"/>
<stop offset="0.02973" stop-color="#E3EBEB"/>
<stop offset="0.1362" stop-color="#E3EBEB"/>
<stop offset="0.2308" stop-color="#FEFFFF"/>
<stop offset="0.3243" stop-color="#FCFEFE"/>
<stop offset="0.3579" stop-color="#F5F9F9"/>
<stop offset="0.3818" stop-color="#EAF0F0"/>
<stop offset="0.3905" stop-color="#E3EBEB"/>
<stop offset="0.9346" stop-color="#E3EBEB"/>
<stop offset="0.9919" stop-color="#CAE3E3"/>
</linearGradient>
<linearGradient id="paint1_linear_3327_21697" x1="157.913" y1="183.067" x2="93.4341" y2="71.3857" gradientUnits="userSpaceOnUse">
<stop offset="0.00810811" stop-color="#CAE3E3"/>
<stop offset="0.0653658" stop-color="#E3EBEB"/>
<stop offset="0.6095" stop-color="#E3EBEB"/>
<stop offset="0.6182" stop-color="#EAF0F0"/>
<stop offset="0.6421" stop-color="#F5F9F9"/>
<stop offset="0.6757" stop-color="#FCFEFE"/>
<stop offset="0.7692" stop-color="#FEFFFF"/>
<stop offset="0.8638" stop-color="#E3EBEB"/>
<stop offset="0.9703" stop-color="#E3EBEB"/>
<stop offset="0.9884" stop-color="#E1EAEA"/>
<stop offset="0.9949" stop-color="#DAE8E8"/>
<stop offset="0.9996" stop-color="#CFE4E4"/>
<stop offset="1" stop-color="#CDE3E3"/>
</linearGradient>
</defs>
</svg>
