<svg width="90" height="90" viewBox="0 0 90 90" fill="none" xmlns="http://www.w3.org/2000/svg">
<path d="M55.81 28.35C55.26 27.81 54.52 27.5 53.75 27.5H30.41C29.64 27.5 28.9 27.81 28.35 28.35C27.8 28.9 27.5 29.64 27.5 30.42C27.5 31.19 27.8 31.93 28.35 32.48C28.9 33.03 29.64 33.33 30.41 33.33H53.75C54.52 33.33 55.26 33.03 55.81 32.48C56.36 31.93 56.66 31.19 56.66 30.42C56.66 29.64 56.36 28.9 55.81 28.35Z" fill="#9E9E9E"/>
<path d="M71.2463 18.75V42.08C71.2463 42.86 70.9362 43.6 70.3862 44.15C69.8462 44.69 69.0963 45 68.3263 45C67.5563 45 66.8162 44.69 66.2662 44.15C65.7162 43.6 65.4063 42.86 65.4063 42.08V18.75C65.4063 17.98 65.1062 17.23 64.5562 16.69C64.0062 16.14 63.2663 15.83 62.4963 15.83H27.4963C25.1763 15.83 22.9462 16.76 21.3062 18.4C19.6662 20.04 18.7463 22.26 18.7463 24.58V65.42C18.7463 67.74 19.6662 69.96 21.3062 71.6C22.9462 73.24 25.1763 74.17 27.4963 74.17H44.9963C45.7663 74.17 46.5063 74.47 47.0563 75.02C47.6063 75.57 47.9062 76.31 47.9062 77.08C47.9062 77.86 47.6063 78.6 47.0563 79.15C46.5063 79.69 45.7663 80 44.9963 80H27.4963C23.6263 80 19.9163 78.46 17.1863 75.72C14.4563 72.99 12.9162 69.28 12.9062 65.42V24.58C12.9162 20.72 14.4563 17.01 17.1863 14.28C19.9163 11.54 23.6263 10 27.4963 10H62.4963C64.8162 10 67.0363 10.92 68.6763 12.56C70.3263 14.2 71.2463 16.43 71.2463 18.75Z" fill="#9E9E9E"/>
<path d="M76.2266 75.0205L69.2066 68.0005C70.5266 65.9205 71.2366 63.5105 71.2466 61.0405C71.2466 58.4505 70.4766 55.9105 69.0366 53.7505C67.5866 51.5905 65.5366 49.9105 63.1466 48.9205C60.7466 47.9205 58.1066 47.6605 55.5566 48.1705C53.0166 48.6805 50.6766 49.9305 48.8366 51.7605C47.0066 53.6005 45.7566 55.9405 45.2466 58.4805C44.7366 61.0305 44.9966 63.6705 45.9966 66.0605C46.9866 68.4605 48.6666 70.5105 50.8266 71.9505C52.9866 73.4005 55.5266 74.1705 58.1166 74.1705C60.5866 74.1605 62.9966 73.4505 65.0766 72.1205L72.0966 79.1505C72.6466 79.6905 73.3866 80.0005 74.1566 80.0005C74.9366 80.0005 75.6766 79.6905 76.2266 79.1505C76.7666 78.6005 77.0766 77.8605 77.0766 77.0805C77.0766 76.3105 76.7666 75.5705 76.2266 75.0205ZM64.8566 63.8305C64.3066 65.1605 63.3666 66.3005 62.1666 67.1005C60.9666 67.9105 59.5566 68.3305 58.1166 68.3305C56.1866 68.3305 54.3266 67.5705 52.9666 66.2005C51.5966 64.8305 50.8266 62.9805 50.8266 61.0405C50.8266 59.6005 51.2566 58.1905 52.0566 56.9905C52.8566 55.7905 53.9966 54.8605 55.3266 54.3105C56.6566 53.7505 58.1266 53.6105 59.5366 53.8905C60.9566 54.1705 62.2566 54.8705 63.2766 55.8905C64.2966 56.9105 64.9866 58.2005 65.2666 59.6205C65.5566 61.0305 65.4066 62.5005 64.8566 63.8305Z" fill="#FFC54D"/>
</svg>
