<svg width="90" height="90" viewBox="0 0 90 90" fill="none" xmlns="http://www.w3.org/2000/svg">
<path d="M77.5 44.9991V63.9591C77.5 67.5491 76.07 70.9891 73.53 73.5291C70.99 76.0691 67.55 77.4991 63.96 77.4991H26.04C22.45 77.4991 19.01 76.0691 16.47 73.5291C13.93 70.9891 12.5 67.5491 12.5 63.9591V34.1691C12.5 30.5791 13.93 27.1291 16.47 24.5991C19.01 22.0591 22.45 20.6291 26.04 20.6191H45C45.72 20.6191 46.41 20.9091 46.92 21.4191C47.42 21.9291 47.71 22.6091 47.71 23.3291C47.71 24.0491 47.42 24.7391 46.92 25.2491C46.41 25.7591 45.72 26.0391 45 26.0391H26.04C24.57 26.0491 23.13 26.4491 21.87 27.2091C20.61 27.9791 19.58 29.0691 18.89 30.3791L39.26 50.7491C40.8 52.2191 42.86 53.0491 45 53.0491C47.14 53.0491 49.2 52.2191 50.74 50.7491L55.87 45.7691C56.12 45.5091 56.42 45.3191 56.76 45.1791C57.09 45.0491 57.44 44.9791 57.8 44.9791C58.16 44.9791 58.51 45.0591 58.84 45.1991C59.17 45.3391 59.47 45.5391 59.72 45.7991C59.97 46.0591 60.16 46.3591 60.29 46.6891C60.43 47.0291 60.49 47.3791 60.48 47.7391C60.48 48.0991 60.4 48.4491 60.25 48.7791C60.11 49.1091 59.9 49.3991 59.64 49.6491L54.55 54.5991C52 57.1091 48.56 58.5191 44.98 58.5091C41.4 58.5091 37.97 57.0891 35.43 54.5791L17.92 37.0691V63.9591C17.92 66.1091 18.77 68.1791 20.3 69.6991C21.82 71.2291 23.89 72.0791 26.04 72.0791H63.96C66.11 72.0791 68.18 71.2291 69.7 69.6991C71.23 68.1791 72.08 66.1091 72.08 63.9591V44.9991C72.08 44.2791 72.37 43.5891 72.88 43.0791C73.38 42.5791 74.07 42.2891 74.79 42.2891C75.51 42.2891 76.2 42.5791 76.71 43.0791C77.21 43.5891 77.5 44.2791 77.5 44.9991Z" fill="#9E9E9E"/>
<path d="M76.2972 31.43C76.2972 32.15 76.0272 32.84 75.5172 33.35L68.7072 40.31C67.4572 41.57 65.7572 42.28 63.9872 42.29C63.9672 42.3 63.9572 42.3 63.9372 42.29C63.0572 42.29 62.1972 42.12 61.3872 41.78C60.5772 41.45 59.8472 40.96 59.2272 40.34L52.3872 33.35C52.1372 33.1 51.9472 32.8 51.8172 32.47C51.6772 32.14 51.6172 31.79 51.6172 31.43C51.6172 31.07 51.6972 30.72 51.8372 30.39C51.9772 30.07 52.1772 29.77 52.4272 29.52C52.6872 29.27 52.9872 29.08 53.3172 28.94C53.6472 28.81 53.9972 28.74 54.3572 28.75C54.7072 28.75 55.0672 28.83 55.3872 28.97C55.7172 29.11 56.0172 29.31 56.2672 29.56L61.2472 34.66V15.21C61.2472 14.49 61.5372 13.8 62.0372 13.29C62.5472 12.79 63.2372 12.5 63.9572 12.5C64.6772 12.5 65.3672 12.79 65.8672 13.29C66.3772 13.8 66.6672 14.49 66.6672 15.21V34.66L71.6472 29.56C72.1472 29.05 72.8372 28.76 73.5572 28.75C74.2772 28.74 74.9672 29.02 75.4772 29.52C75.9972 30.02 76.2872 30.71 76.2972 31.43Z" fill="#FFC54D"/>
</svg>
