<svg width="18" height="16" viewBox="0 0 18 16" fill="none" xmlns="http://www.w3.org/2000/svg">
<path d="M17.3446 8C17.343 7.53099 17.2354 7.06841 17.0299 6.64681C16.8244 6.22521 16.5263 5.85548 16.1579 5.56523C16.6676 5.16343 17.0391 4.61256 17.2207 3.98947C17.4023 3.36637 17.3849 2.70213 17.1709 2.0894C16.957 1.47667 16.557 0.946022 16.027 0.571471C15.497 0.196919 14.8632 -0.00285003 14.2142 3.07234e-05H3.77948C3.13046 -0.00285003 2.49674 0.196919 1.9667 0.571471C1.43666 0.946022 1.03675 1.47667 0.822755 2.0894C0.60876 2.70213 0.591353 3.36637 0.772963 3.98947C0.954573 4.61256 1.32614 5.16343 1.83583 5.56523C1.46613 5.85432 1.16711 6.22381 0.961464 6.64567C0.755816 7.06753 0.648939 7.53068 0.648939 8C0.648939 8.46932 0.755816 8.93247 0.961464 9.35433C1.16711 9.77619 1.46613 10.1457 1.83583 10.4348C1.32614 10.8366 0.954573 11.3874 0.772963 12.0105C0.591353 12.6336 0.60876 13.2979 0.822755 13.9106C1.03675 14.5233 1.43666 15.054 1.9667 15.4285C2.49674 15.8031 3.13046 16.0028 3.77948 16H14.2142C14.8632 16.0028 15.497 15.8031 16.027 15.4285C16.557 15.054 16.957 14.5233 17.1709 13.9106C17.3849 13.2979 17.4023 12.6336 17.2207 12.0105C17.0391 11.3874 16.6676 10.8366 16.1579 10.4348C16.5263 10.1445 16.8244 9.77479 17.0299 9.35319C17.2354 8.93159 17.343 8.46901 17.3446 8ZM2.04036 3.13045C2.04036 2.66921 2.22358 2.22686 2.54973 1.90071C2.87588 1.57456 3.31824 1.39133 3.77948 1.39133H4.1273V2.08698C4.1273 2.27148 4.2006 2.44842 4.33106 2.57888C4.46151 2.70934 4.63846 2.78263 4.82295 2.78263C5.00745 2.78263 5.18439 2.70934 5.31485 2.57888C5.44531 2.44842 5.5186 2.27148 5.5186 2.08698V1.39133H6.9099V2.08698C6.9099 2.27148 6.98319 2.44842 7.11365 2.57888C7.24411 2.70934 7.42105 2.78263 7.60555 2.78263C7.79005 2.78263 7.96699 2.70934 8.09745 2.57888C8.22791 2.44842 8.3012 2.27148 8.3012 2.08698V1.39133H14.2142C14.6755 1.39133 15.1178 1.57456 15.444 1.90071C15.7701 2.22686 15.9533 2.66921 15.9533 3.13045C15.9533 3.5917 15.7701 4.03405 15.444 4.3602C15.1178 4.68635 14.6755 4.86958 14.2142 4.86958H3.77948C3.31824 4.86958 2.87588 4.68635 2.54973 4.3602C2.22358 4.03405 2.04036 3.5917 2.04036 3.13045ZM15.9533 12.8695C15.9533 13.3308 15.7701 13.7731 15.444 14.0993C15.1178 14.4254 14.6755 14.6087 14.2142 14.6087H3.77948C3.31824 14.6087 2.87588 14.4254 2.54973 14.0993C2.22358 13.7731 2.04036 13.3308 2.04036 12.8695C2.04036 12.4083 2.22358 11.9659 2.54973 11.6398C2.87588 11.3137 3.31824 11.1304 3.77948 11.1304H4.1273V11.8261C4.1273 12.0106 4.2006 12.1875 4.33106 12.318C4.46151 12.4484 4.63846 12.5217 4.82295 12.5217C5.00745 12.5217 5.18439 12.4484 5.31485 12.318C5.44531 12.1875 5.5186 12.0106 5.5186 11.8261V11.1304H6.9099V11.8261C6.9099 12.0106 6.98319 12.1875 7.11365 12.318C7.24411 12.4484 7.42105 12.5217 7.60555 12.5217C7.79005 12.5217 7.96699 12.4484 8.09745 12.318C8.22791 12.1875 8.3012 12.0106 8.3012 11.8261V11.1304H14.2142C14.6755 11.1304 15.1178 11.3137 15.444 11.6398C15.7701 11.9659 15.9533 12.4083 15.9533 12.8695ZM3.77948 9.73912C3.31824 9.73912 2.87588 9.55589 2.54973 9.22975C2.22358 8.9036 2.04036 8.46124 2.04036 8C2.04036 7.53876 2.22358 7.0964 2.54973 6.77025C2.87588 6.4441 3.31824 6.26088 3.77948 6.26088H4.1273V6.95653C4.1273 7.14102 4.2006 7.31796 4.33106 7.44842C4.46151 7.57888 4.63846 7.65217 4.82295 7.65217C5.00745 7.65217 5.18439 7.57888 5.31485 7.44842C5.44531 7.31796 5.5186 7.14102 5.5186 6.95653V6.26088H6.9099V6.95653C6.9099 7.14102 6.98319 7.31796 7.11365 7.44842C7.24411 7.57888 7.42105 7.65217 7.60555 7.65217C7.79005 7.65217 7.96699 7.57888 8.09745 7.44842C8.22791 7.31796 8.3012 7.14102 8.3012 6.95653V6.26088H14.2142C14.6755 6.26088 15.1178 6.4441 15.444 6.77025C15.7701 7.0964 15.9533 7.53876 15.9533 8C15.9533 8.46124 15.7701 8.9036 15.444 9.22975C15.1178 9.55589 14.6755 9.73912 14.2142 9.73912H3.77948Z" fill="#0050E5"/>
</svg>
