<svg width="91" height="91" viewBox="0 0 91 91" fill="none" xmlns="http://www.w3.org/2000/svg">
<path d="M85.0008 70.2703L77.3074 62.5769M68.8624 63.7834C71.4221 63.7834 73.877 62.7665 75.687 60.9565C77.497 59.1465 78.5138 56.6916 78.5138 54.1319C78.5138 51.5722 77.497 49.1173 75.687 47.3073C73.877 45.4973 71.4221 44.4805 68.8624 44.4805C66.3027 44.4805 63.8478 45.4973 62.0378 47.3073C60.2278 49.1173 59.2109 51.5722 59.2109 54.1319C59.2109 56.6916 60.2278 59.1465 62.0378 60.9565C63.8478 62.7665 66.3027 63.7834 68.8624 63.7834Z" stroke="#FFC54D" stroke-width="5" stroke-linecap="round" stroke-linejoin="round"/>
<path d="M51.9526 54.4728C51.9526 55.3534 51.6028 56.1979 50.9802 56.8205C50.3575 57.4432 49.5131 57.793 48.6325 57.793H35.3519C34.4713 57.793 33.6268 57.4432 33.0042 56.8205C32.3815 56.1979 32.0317 55.3534 32.0317 54.4728C32.0317 53.5923 32.3815 52.7478 33.0042 52.1251C33.6268 51.5025 34.4713 51.1527 35.3519 51.1527H48.6325C49.5131 51.1527 50.3575 51.5025 50.9802 52.1251C51.6028 52.7478 51.9526 53.5923 51.9526 54.4728ZM50.9798 22.2441C50.3572 21.6216 49.5129 21.272 48.6325 21.272C47.7521 21.272 46.9078 21.6216 46.2851 22.2441L41.9922 26.537L37.6992 22.2441C37.3929 21.927 37.0266 21.674 36.6215 21.5C36.2164 21.326 35.7808 21.2344 35.3399 21.2306C34.8991 21.2268 34.4619 21.3108 34.0538 21.4777C33.6458 21.6446 33.2751 21.8912 32.9634 22.2029C32.6516 22.5147 32.4051 22.8854 32.2382 23.2934C32.0712 23.7014 31.9872 24.1386 31.991 24.5795C31.9949 25.0203 32.0865 25.456 32.2605 25.8611C32.4345 26.2661 32.6874 26.6325 33.0045 26.9388L37.2975 31.2317L33.0045 35.5247C32.6874 35.831 32.4345 36.1973 32.2605 36.6024C32.0865 37.0075 31.9949 37.4431 31.991 37.884C31.9872 38.3248 32.0712 38.762 32.2382 39.1701C32.4051 39.5781 32.6516 39.9488 32.9634 40.2605C33.2751 40.5723 33.6458 40.8188 34.0538 40.9858C34.4619 41.1527 34.8991 41.2367 35.3399 41.2329C35.7808 41.229 36.2164 41.1374 36.6215 40.9634C37.0266 40.7894 37.3929 40.5365 37.6992 40.2194L41.9922 35.9264L46.2851 40.2194C46.9113 40.8242 47.75 41.1588 48.6205 41.1513C49.4911 41.1437 50.3238 40.7945 50.9394 40.1789C51.555 39.5634 51.9042 38.7306 51.9117 37.8601C51.9193 36.9896 51.5846 36.1509 50.9798 35.5247L46.6869 31.2317L50.9798 26.9388C51.6023 26.3161 51.9519 25.4718 51.9519 24.5914C51.9519 23.711 51.6023 22.8667 50.9798 22.2441ZM73.2481 31.2317L77.5411 26.9388C77.8582 26.6325 78.1111 26.2661 78.2851 25.8611C78.4591 25.456 78.5507 25.0203 78.5546 24.5795C78.5584 24.1386 78.4744 23.7014 78.3074 23.2934C78.1405 22.8854 77.894 22.5147 77.5822 22.2029C77.2705 21.8912 76.8998 21.6446 76.4918 21.4777C76.0837 21.3108 75.6465 21.2268 75.2057 21.2306C74.7648 21.2344 74.3292 21.326 73.9241 21.5C73.519 21.674 73.1526 21.927 72.8464 22.2441L68.5534 26.537L64.2605 22.2441C63.9542 21.927 63.5878 21.674 63.1828 21.5C62.7777 21.326 62.342 21.2344 61.9012 21.2306C61.4603 21.2268 61.0231 21.3108 60.6151 21.4777C60.2071 21.6446 59.8363 21.8912 59.5246 22.2029C59.2129 22.5147 58.9663 22.8854 58.7994 23.2934C58.6325 23.7014 58.5485 24.1386 58.5523 24.5795C58.5561 25.0203 58.6477 25.456 58.8217 25.8611C58.9957 26.2661 59.2486 26.6325 59.5658 26.9388L63.8587 31.2317L59.5658 35.5247C59.2486 35.831 58.9957 36.1973 58.8217 36.6024C58.6477 37.0075 58.5561 37.4431 58.5523 37.884C58.5485 38.3248 58.6325 38.762 58.7994 39.1701C58.9663 39.5781 59.2129 39.9488 59.5246 40.2605C59.8363 40.5723 60.2071 40.8188 60.6151 40.9858C61.0231 41.1527 61.4603 41.2367 61.9012 41.2329C62.342 41.229 62.7777 41.1374 63.1828 40.9634C63.5878 40.7894 63.9542 40.5365 64.2605 40.2194L68.5534 35.9264L72.8464 40.2194C73.4726 40.8242 74.3112 41.1588 75.1818 41.1513C76.0523 41.1437 76.8851 40.7945 77.5006 40.1789C78.1162 39.5634 78.4654 38.7306 78.473 37.8601C78.4805 36.9896 78.1459 36.1509 77.5411 35.5247L73.2481 31.2317ZM22.0713 51.1527H8.79064C7.91008 51.1527 7.06559 51.5025 6.44294 52.1251C5.82029 52.7478 5.47049 53.5923 5.47049 54.4728C5.47049 55.3534 5.82029 56.1979 6.44294 56.8205C7.06559 57.4432 7.91008 57.793 8.79064 57.793H22.0713C22.9518 57.793 23.7963 57.4432 24.419 56.8205C25.0416 56.1979 25.3914 55.3534 25.3914 54.4728C25.3914 53.5923 25.0416 52.7478 24.419 52.1251C23.7963 51.5025 22.9518 51.1527 22.0713 51.1527ZM24.4186 22.2441C23.796 21.6216 22.9516 21.272 22.0713 21.272C21.1909 21.272 20.3465 21.6216 19.7239 22.2441L15.4309 26.537L11.138 22.2441C10.8317 21.927 10.4654 21.674 10.0603 21.5C9.65521 21.326 9.21954 21.2344 8.77869 21.2306C8.33784 21.2268 7.90065 21.3108 7.49261 21.4777C7.08458 21.6446 6.71388 21.8912 6.40214 22.2029C6.0904 22.5147 5.84387 22.8854 5.67693 23.2934C5.50999 23.7014 5.42598 24.1386 5.42981 24.5795C5.43364 25.0203 5.52523 25.456 5.69924 25.8611C5.87325 26.2661 6.12618 26.6325 6.44329 26.9388L10.7363 31.2317L6.44329 35.5247C6.12618 35.831 5.87325 36.1973 5.69924 36.6024C5.52523 37.0075 5.43364 37.4431 5.42981 37.884C5.42598 38.3248 5.50999 38.762 5.67693 39.1701C5.84387 39.5781 6.0904 39.9488 6.40214 40.2605C6.71388 40.5723 7.08458 40.8188 7.49261 40.9858C7.90065 41.1527 8.33784 41.2367 8.77869 41.2329C9.21954 41.229 9.65521 41.1374 10.0603 40.9634C10.4654 40.7894 10.8317 40.5365 11.138 40.2194L15.4309 35.9264L19.7239 40.2194C20.0302 40.5365 20.3965 40.7894 20.8016 40.9634C21.2067 41.1374 21.6424 41.229 22.0832 41.2329C22.5241 41.2367 22.9613 41.1527 23.3693 40.9858C23.7773 40.8188 24.148 40.5723 24.4598 40.2605C24.7715 39.9488 25.018 39.5781 25.185 39.1701C25.3519 38.762 25.4359 38.3248 25.4321 37.884C25.4283 37.4431 25.3367 37.0075 25.1627 36.6024C24.9887 36.1973 24.7357 35.831 24.4186 35.5247L20.1256 31.2317L24.4186 26.9388C25.041 26.3161 25.3907 25.4718 25.3907 24.5914C25.3907 23.711 25.041 22.8667 24.4186 22.2441Z" fill="#9E9E9E"/>
</svg>
