<svg width="16" height="16" viewBox="0 0 16 16" fill="none" xmlns="http://www.w3.org/2000/svg">
<path d="M5.6 -9.09197e-07C5.38783 -9.27746e-07 5.18434 0.0842829 5.03432 0.234312C4.88429 0.384341 4.8 0.587825 4.8 0.799998C4.8 1.01217 4.88429 1.21566 5.03432 1.36568C5.18434 1.51571 5.38783 1.6 5.6 1.6L12.2667 1.6C12.8325 1.6 13.3751 1.82476 13.7752 2.22484C14.1752 2.62492 14.4 3.16754 14.4 3.73333L14.4 12.2667C14.4 12.8325 14.1752 13.3751 13.7752 13.7752C13.3751 14.1752 12.8325 14.4 12.2667 14.4L5.6 14.4C5.38783 14.4 5.18434 14.4843 5.03431 14.6343C4.88429 14.7843 4.8 14.9878 4.8 15.2C4.8 15.4122 4.88429 15.6157 5.03431 15.7657C5.18434 15.9157 5.38783 16 5.6 16L12.2667 16C13.2568 16 14.2064 15.6067 14.9065 14.9065C15.6067 14.2064 16 13.2568 16 12.2667L16 3.73333C16 2.74319 15.6067 1.7936 14.9065 1.09347C14.2064 0.39333 13.2568 -2.39817e-07 12.2667 -3.26378e-07L5.6 -9.09197e-07ZM4.54293 12.0544C4.46576 12.1257 4.37529 12.1811 4.2767 12.2175C4.1781 12.2538 4.07332 12.2704 3.96832 12.2662C3.86332 12.2621 3.76017 12.2373 3.66476 12.1932C3.56936 12.1492 3.48356 12.0868 3.41227 12.0096L0.212266 8.54293C0.0756795 8.39512 -0.000176702 8.20126 -0.000176684 8C-0.000176666 7.79874 0.0756796 7.60488 0.212266 7.45707L3.41227 3.9904C3.5564 3.83466 3.7565 3.74257 3.96854 3.73436C4.18058 3.72616 4.3872 3.80253 4.54293 3.94666C4.69867 4.0908 4.79077 4.2909 4.79897 4.50294C4.80717 4.71498 4.7308 4.9216 4.58667 5.07733L2.62613 7.20107L10.9333 7.20107C11.1455 7.20107 11.349 7.28535 11.499 7.43538C11.649 7.58541 11.7333 7.78889 11.7333 8.00107C11.7333 8.21324 11.649 8.41672 11.499 8.56675C11.349 8.71678 11.1455 8.80107 10.9333 8.80107L2.6272 8.80107L4.58773 10.9248C4.65905 11.002 4.71446 11.0924 4.75081 11.191C4.78715 11.2896 4.80372 11.3944 4.79956 11.4994C4.7954 11.6044 4.77059 11.7076 4.72656 11.803C4.68253 11.8984 4.62013 11.9842 4.54293 12.0555L4.54293 12.0544Z" fill="#212121"/>
</svg>
