<svg width="60" height="112" viewBox="0 0 60 112" fill="none" xmlns="http://www.w3.org/2000/svg">
<path d="M0.53125 39.0566V81.0736L53.123 111.458V69.3709L0.53125 39.0566Z" fill="#FFDC6E"/>
<path d="M0.53125 39.057L22.3152 25.5918L53.123 69.3712L0.53125 39.057Z" fill="#FFDE99"/>
<path d="M4.83594 61.3335V0L48.5449 23.6874V85.0914L4.83594 61.3335Z" fill="white"/>
<path d="M7.9375 15.4374V11.7715L43.9621 32.216V35.8819L7.9375 15.4374Z" fill="#FFEFCC"/>
<path d="M7.9375 28.9024V25.166L43.9621 45.6105V49.2764L7.9375 28.9024Z" fill="#FFEFCC"/>
<path d="M7.9375 42.2968V38.6309L43.9621 59.0754V62.7413L7.9375 42.2968Z" fill="#FFEFCC"/>
<path d="M7.9375 55.7618V52.0254L43.9621 72.4699V76.2063L7.9375 55.7618Z" fill="#FFEFCC"/>
<path d="M0.53125 81.0736L18.1558 68.3134L0.53125 39.0566V81.0736Z" fill="#FFDC6E"/>
<path d="M53.1212 69.3711V111.459L30.8438 75.2225L53.1212 69.3711Z" fill="#FFDC6E"/>
<path d="M50.7963 56.3987C46.0024 53.6493 42.125 55.9052 42.125 61.4041C42.125 66.9029 46.0024 73.6708 50.7963 76.4907C55.5902 79.2401 59.4676 76.9842 59.4676 71.4853C59.5381 65.916 55.5902 59.1481 50.7963 56.3987Z" fill="#FFC100"/>
<path d="M51.64 61.9662V70.7785C51.64 71.272 51.217 71.3425 50.794 71.0605C50.3005 70.7785 49.9481 70.2145 49.9481 69.7916V62.6007L49.3841 62.6712C49.2431 62.6712 49.1021 62.6712 48.9611 62.6007C48.6791 62.4597 48.3971 62.1777 48.2561 61.8252C47.9741 61.3318 48.1151 60.9088 48.5381 60.9088L50.371 60.6973H50.4415H50.512H50.5825H50.653H50.7235C50.7235 60.6973 50.7235 60.6973 50.794 60.6973C50.8645 60.6973 50.8645 60.6973 50.8645 60.7678C50.8645 60.7678 50.935 60.7678 50.935 60.8383C51.0055 60.8383 51.0055 60.9088 51.0055 60.9088C51.0055 60.9088 51.076 60.9088 51.076 60.9793C51.1465 61.0498 51.1465 61.0498 51.1465 61.0498C51.1465 61.0498 51.1465 61.1203 51.217 61.1203L51.2875 61.1908L51.358 61.2613C51.358 61.2613 51.358 61.3318 51.4285 61.3318L51.499 61.4022V61.4728V61.5433C51.499 61.6138 51.499 61.6137 51.499 61.6137C51.499 61.6842 51.499 61.6842 51.499 61.6842V61.7547C51.64 61.8957 51.64 61.8957 51.64 61.9662Z" fill="white"/>
</svg>
