<svg width="91" height="91" viewBox="0 0 91 91" fill="none" xmlns="http://www.w3.org/2000/svg">
<path d="M56.6111 61.5879H34.9453C33.4473 61.5879 32.2361 62.8016 32.2361 64.2958C32.2361 65.7913 33.4473 67.005 34.9453 67.005H56.6111C58.1092 67.005 59.3203 65.7913 59.3203 64.2958C59.3203 62.8016 58.1092 61.5879 56.6111 61.5879ZM56.6111 61.5879H34.9453C33.4473 61.5879 32.2361 62.8016 32.2361 64.2958C32.2361 65.7913 33.4473 67.005 34.9453 67.005H56.6111C58.1092 67.005 59.3203 65.7913 59.3203 64.2958C59.3203 62.8016 58.1092 61.5879 56.6111 61.5879ZM56.6111 61.5879H34.9453C33.4473 61.5879 32.2361 62.8016 32.2361 64.2958C32.2361 65.7913 33.4473 67.005 34.9453 67.005H56.6111C58.1092 67.005 59.3203 65.7913 59.3203 64.2958C59.3203 62.8016 58.1092 61.5879 56.6111 61.5879ZM56.6111 61.5879H34.9453C33.4473 61.5879 32.2361 62.8016 32.2361 64.2958C32.2361 65.7913 33.4473 67.005 34.9453 67.005H56.6111C58.1092 67.005 59.3203 65.7913 59.3203 64.2958C59.3203 62.8016 58.1092 61.5879 56.6111 61.5879ZM56.6111 61.5879H34.9453C33.4473 61.5879 32.2361 62.8016 32.2361 64.2958C32.2361 65.7913 33.4473 67.005 34.9453 67.005H56.6111C58.1092 67.005 59.3203 65.7913 59.3203 64.2958C59.3203 62.8016 58.1092 61.5879 56.6111 61.5879ZM56.6111 61.5879H34.9453C33.4473 61.5879 32.2361 62.8016 32.2361 64.2958C32.2361 65.7913 33.4473 67.005 34.9453 67.005H56.6111C58.1092 67.005 59.3203 65.7913 59.3203 64.2958C59.3203 62.8016 58.1092 61.5879 56.6111 61.5879ZM56.6111 61.5879H34.9453C33.4473 61.5879 32.2361 62.8016 32.2361 64.2958C32.2361 65.7913 33.4473 67.005 34.9453 67.005H56.6111C58.1092 67.005 59.3203 65.7913 59.3203 64.2958C59.3203 62.8016 58.1092 61.5879 56.6111 61.5879ZM59.3203 12.8379H32.2361C24.77 12.8379 18.6953 18.9126 18.6953 26.38V64.2958C18.6953 71.7632 24.77 77.8379 32.2361 77.8379H59.3203C66.7864 77.8379 72.8611 71.7632 72.8611 64.2958V26.38C72.8611 18.9126 66.7864 12.8379 59.3203 12.8379ZM67.4453 64.2958C67.4453 68.776 63.7992 72.4208 59.3203 72.4208H32.2361C27.7572 72.4208 24.1111 68.776 24.1111 64.2958V26.38C24.1111 21.8998 27.7572 18.255 32.2361 18.255H59.3203C63.7992 18.255 67.4453 21.8998 67.4453 26.38V64.2958ZM56.6111 61.5879H34.9453C33.4473 61.5879 32.2361 62.8016 32.2361 64.2958C32.2361 65.7913 33.4473 67.005 34.9453 67.005H56.6111C58.1092 67.005 59.3203 65.7913 59.3203 64.2958C59.3203 62.8016 58.1092 61.5879 56.6111 61.5879ZM56.6111 61.5879H34.9453C33.4473 61.5879 32.2361 62.8016 32.2361 64.2958C32.2361 65.7913 33.4473 67.005 34.9453 67.005H56.6111C58.1092 67.005 59.3203 65.7913 59.3203 64.2958C59.3203 62.8016 58.1092 61.5879 56.6111 61.5879ZM56.6111 61.5879H34.9453C33.4473 61.5879 32.2361 62.8016 32.2361 64.2958C32.2361 65.7913 33.4473 67.005 34.9453 67.005H56.6111C58.1092 67.005 59.3203 65.7913 59.3203 64.2958C59.3203 62.8016 58.1092 61.5879 56.6111 61.5879ZM56.6111 61.5879H34.9453C33.4473 61.5879 32.2361 62.8016 32.2361 64.2958C32.2361 65.7913 33.4473 67.005 34.9453 67.005H56.6111C58.1092 67.005 59.3203 65.7913 59.3203 64.2958C59.3203 62.8016 58.1092 61.5879 56.6111 61.5879ZM56.6111 61.5879H34.9453C33.4473 61.5879 32.2361 62.8016 32.2361 64.2958C32.2361 65.7913 33.4473 67.005 34.9453 67.005H56.6111C58.1092 67.005 59.3203 65.7913 59.3203 64.2958C59.3203 62.8016 58.1092 61.5879 56.6111 61.5879ZM56.6111 61.5879H34.9453C33.4473 61.5879 32.2361 62.8016 32.2361 64.2958C32.2361 65.7913 33.4473 67.005 34.9453 67.005H56.6111C58.1092 67.005 59.3203 65.7913 59.3203 64.2958C59.3203 62.8016 58.1092 61.5879 56.6111 61.5879Z" fill="#9E9E9E"/>
<path d="M61.8416 42.6309C61.1104 46.9638 58.6538 50.7013 55.2121 53.1438C54.1013 53.9322 52.5626 52.9953 52.8368 51.6598C53.516 48.3691 53.7865 44.9617 53.8931 42.6309H61.8416Z" fill="#FFC54D"/>
<path d="M48.4867 42.6309C48.1973 49.5752 47.3086 55.7096 45.841 55.7096C44.3734 55.7096 43.4848 49.5752 43.1953 42.6309H48.4867Z" fill="#FFC54D"/>
<path d="M36.4654 53.1438C33.0237 50.7013 30.5672 46.9638 29.8359 42.6309H37.7845C37.8911 44.9617 38.1641 48.3691 38.8407 51.6598C39.1175 52.9953 37.5788 53.9322 36.4654 53.1438Z" fill="#FFC54D"/>
<path d="M38.8407 28.1821C38.1615 31.4727 37.8911 34.8801 37.7845 37.2123H29.8359C30.5672 32.8793 33.0237 29.1418 36.4654 26.698C37.5763 25.9109 39.1149 26.8478 38.8407 28.1821Z" fill="#FFC54D"/>
<path d="M48.4867 37.2135H43.1953C43.4848 30.2691 44.3214 24.1348 45.841 24.1348C47.3606 24.1348 48.1973 30.2691 48.4867 37.2135Z" fill="#FFC54D"/>
<path d="M61.85 37.2123H53.9015C53.7961 34.8801 53.5219 31.4727 52.8452 28.1821C52.5685 26.8478 54.1071 25.9109 55.2205 26.698C58.6622 29.1418 61.1187 32.8793 61.85 37.2123Z" fill="#FFC54D"/>
</svg>
