<svg width="94" height="132" viewBox="0 0 94 132" fill="none" xmlns="http://www.w3.org/2000/svg">
<path d="M70.5871 25.5678L25.9163 0L7.29945 15.3602L7.00781 57.8923L30.1938 102.417L74.9133 127.888L93.6275 112.917L93.8705 70.3845L70.5871 25.5678Z" fill="#EEEEEE"/>
<path d="M68.7285 26.8298L24.1061 1.31055L1.26039 19.1497L0.96875 61.7304L24.1548 106.207L68.8743 131.677L91.8173 114.178L92.0116 71.6951L68.7285 26.8298Z" fill="#F1F1F1"/>
<path d="M26.5749 103.78L4.3125 60.8106L4.55548 21.0977L24.0959 5.1543L66.2878 29.3125L88.6474 72.5737L88.4531 112.238L68.8641 127.841L26.5749 103.78Z" fill="#A1A1A1"/>
<path d="M29.0752 101.295L7.6875 59.9298L7.93063 23.0362L24.1171 9.03711L63.8786 31.7857L85.3146 73.4428L85.1203 110.288L68.8852 123.947L29.0752 101.295Z" fill="#FEC303"/>
<path d="M93.8461 70.3867L91.999 71.6992L91.8047 114.183L93.6032 112.919L93.8461 70.3867Z" fill="#C4C4C4"/>
<path d="M70.5657 25.5664L68.7188 26.8303L92.0019 71.6955L93.8491 70.3831L70.5657 25.5664Z" fill="#DEDEDE"/>
<path d="M25.7517 63.3813C25.7517 65.6658 25.1685 67.0755 23.9047 67.5616C22.6409 68.0476 20.891 67.6588 18.5578 66.3463C16.2732 65.0825 14.3289 63.5271 12.7734 61.7772V57.2567C14.7178 59.5412 16.5162 61.1939 18.1689 62.1175C19.0924 62.6522 19.773 62.798 20.2591 62.5549C20.7452 62.3605 20.9882 61.8744 20.9882 60.9995C20.9882 60.2218 20.6965 59.2982 20.1618 58.326C19.5785 57.3539 18.6549 56.09 17.3911 54.486C16.2731 53.1249 15.3982 51.9584 14.8149 50.9376C14.2316 49.9654 13.7941 48.9447 13.4539 47.9725C13.1136 46.9517 12.9679 45.8823 12.9679 44.7643C12.9679 42.6742 13.5997 41.3618 14.8149 40.8271C16.0787 40.341 17.7314 40.6327 19.8215 41.8479C21.8145 43.0145 23.7589 44.6185 25.5574 46.7573L23.9532 49.528C23.3699 48.8961 22.8353 48.2642 22.1548 47.6323C21.5715 47.049 20.8909 46.5142 20.1618 46.1254C19.3355 45.6879 18.8008 45.5907 18.3147 45.8337C17.9258 46.0768 17.7314 46.6115 17.7314 47.4378C17.7314 48.2641 17.9744 49.1391 18.4605 50.0627C18.9466 50.9376 19.8216 52.1528 21.0854 53.6596C22.7867 55.7012 24.0019 57.4997 24.6338 59.0065C25.4116 60.4162 25.7517 61.923 25.7517 63.3813Z" fill="#A9A9A9"/>
<path d="M36.9439 76.5529L32.1318 73.7822V53.2209L27.125 50.3531V46.3672L41.9506 54.825V58.8595L36.9439 55.9916V76.5529Z" fill="#A9A9A9"/>
<path d="M62.1456 78.6925C62.1456 82.7756 61.3679 85.4004 59.7152 86.6642C58.0625 87.928 55.778 87.6849 52.7643 85.935C49.7506 84.2338 47.4173 81.8034 45.8132 78.6925C44.2092 75.6302 43.3828 71.9846 43.3828 67.9015C43.3828 63.8184 44.2092 61.145 45.8132 59.9298C47.4173 58.6659 49.7505 58.909 52.8128 60.6588C55.8265 62.3601 58.1111 64.7906 59.7152 67.9015C61.3679 70.9638 62.1456 74.6094 62.1456 78.6925ZM48.3894 70.7693C48.3894 73.5886 48.7298 75.9218 49.5075 77.8175C50.2852 79.7618 51.3546 81.0742 52.8128 81.9006C55.7293 83.5532 57.1875 81.5603 57.1875 75.8246C57.1875 70.0888 55.7293 66.3946 52.8615 64.6933C51.4032 63.867 50.2852 63.9642 49.5075 64.985C48.7784 66.0057 48.3894 67.9501 48.3894 70.7693Z" fill="#A9A9A9"/>
<path d="M80.1796 84.2807C80.1796 86.9056 79.4992 88.461 78.0895 89.093C76.6799 89.6762 74.687 89.2387 72.0135 87.6833L70.7983 87.0514V95.9466L65.9375 93.176V68.6289L72.5481 72.4203C77.6034 75.2396 80.1796 79.2255 80.1796 84.2807ZM70.7983 83.0655L71.7219 83.6002C72.8885 84.3293 73.7633 84.4752 74.3466 84.2321C74.9299 83.9405 75.2217 83.1141 75.2217 81.7045C75.2217 80.4407 74.9786 79.3227 74.4439 78.3992C73.9092 77.427 73.0828 76.6979 71.9649 76.0174L70.7983 75.3854V83.0655Z" fill="#A9A9A9"/>
</svg>
