<svg width="80" height="131" viewBox="0 0 80 131" fill="none" xmlns="http://www.w3.org/2000/svg">
<path d="M0.124725 69.359L78.9001 42.334V95.9603V96.0486C79.1497 97.7961 78.1515 99.4907 75.829 100.726L22.5634 129.093C17.9567 131.546 9.89493 131.229 4.55878 128.404C1.73714 126.904 0.259125 124.998 0.163155 123.179L0.143936 123.197V69.359H0.124725Z" fill="url(#paint0_linear_3327_23900)"/>
<path d="M22.5609 75.1492L75.8264 46.7827C80.4332 44.3291 79.8574 40.0573 74.5404 37.2154C69.2043 34.3911 61.1424 34.0734 56.5357 36.527L3.27017 64.8935C-1.33658 67.3471 -0.760712 71.6189 4.55624 74.4608C9.8732 77.2851 17.935 77.6028 22.5609 75.1492Z" fill="url(#paint1_linear_3327_23900)"/>
<path d="M4.30525 74.0025C9.6414 76.8268 17.7032 77.1446 22.31 74.691L75.5755 46.3244C77.9173 45.0712 78.9345 43.3589 78.6466 41.5938C79.6255 43.712 78.7426 45.9008 75.921 47.4188L22.6555 75.7854C18.0487 78.239 9.98689 77.9213 4.65074 75.097C2.04025 73.7025 0.562271 71.9726 0.293549 70.278C0.888588 71.6019 2.23222 72.9081 4.30525 74.0025Z" fill="#FEC303"/>
<g opacity="0.3">
<path d="M34.2623 3.64294C49.1382 -4.24744 67.7188 5.63759 67.7188 21.4183V48.5492C67.7188 48.5669 67.7188 48.5845 67.7188 48.6022C67.7188 50.7734 64.4365 52.5209 60.3864 52.5209C56.3363 52.5209 53.054 50.7734 53.054 48.6022C53.054 48.5845 53.054 48.5492 53.054 48.5316H52.9772V24.3132C52.9772 17.6232 45.1073 13.4397 38.8114 16.7759C31.4982 20.6417 26.9683 27.8083 26.9683 35.5751V70.1198H26.8915C26.8147 72.2557 23.5708 73.9679 19.5783 73.9679C15.5474 73.9679 12.3035 72.238 12.2651 70.0845V38.6465C12.2651 24.1897 20.6532 10.8449 34.2623 3.64294Z" fill="url(#paint2_linear_3327_23900)"/>
<path d="M63.1739 50.4023V24.6659C63.1739 14.0925 53.8261 5.49604 42.3284 5.49604C38.7006 5.49604 35.2071 6.36099 31.9824 8.07322C29.8902 9.18528 27.9131 10.4562 26.0704 11.8507C28.7001 9.41476 31.6945 7.27889 34.996 5.51371C38.2399 3.80148 41.7142 2.93652 45.342 2.93652C56.8397 2.93652 66.1875 11.533 66.1875 22.1064V47.8428V49.2373C66.1875 49.2726 66.1875 49.3079 66.1875 49.3256C66.1491 50.1376 64.9591 51.0202 63.1548 51.4791V50.4023H63.1739Z" fill="url(#paint3_radial_3327_23900)"/>
<path d="M22.418 72.4141H22.4372V39.2639C22.4372 32.0619 26.1226 25.3189 32.2266 20.9766C27.9461 25.1954 25.47 30.8087 25.47 36.7044V69.8545H25.4508L25.3932 71.2137C25.3548 72.0257 24.1839 72.9083 22.3796 73.3673L22.418 72.4141Z" fill="url(#paint4_radial_3327_23900)"/>
<path d="M49.5587 10.3477C56.1617 10.3477 61.5554 15.2902 61.5554 21.3801V49.4995L61.6322 51.9178C61.6898 52.1119 57.5245 51.8119 57.4286 51.4588L57.3518 49.0405V20.9211C57.3518 15.961 53.7816 11.7598 48.8677 10.383C49.1172 10.3477 49.3284 10.3477 49.5587 10.3477Z" fill="url(#paint5_linear_3327_23900)"/>
<path d="M36.7717 6.92434C39.8621 5.28271 43.1636 4.4707 46.6187 4.4707C48.0583 4.4707 49.4979 4.62959 50.9375 4.92967C50.8991 4.92967 50.8607 4.92967 50.8223 4.92967C47.3673 4.92967 44.0466 5.7593 40.9754 7.38328C28.1917 14.1616 20.2451 26.8003 20.2451 40.3569V73.4365V73.613C20.2451 73.7896 16.0606 73.4718 16.0414 73.1541V72.9776V39.898C16.0414 26.3237 23.988 13.685 36.7717 6.92434Z" fill="url(#paint6_linear_3327_23900)"/>
<path opacity="0.5" d="M56.7812 25.3722V51.338C55.1305 50.8614 54.0556 50.0318 53.998 49.2728V49.2551L53.9213 47.7547V24.9132C53.9213 20.412 50.6965 16.5816 46.2625 15.293C52.0977 15.5224 56.7812 19.9531 56.7812 25.3722Z" fill="url(#paint7_linear_3327_23900)"/>
<g opacity="0.5">
<path d="M34.0636 5.61907C35.5992 4.80709 37.1731 4.18927 38.8047 3.76562C24.8693 11.4442 16.2317 25.3891 16.2317 40.3756V72.9256C14.2354 72.4843 12.8918 71.5487 12.8918 70.6838V70.5073V39.3341C12.8726 25.4421 20.9919 12.5386 34.0636 5.61907Z" fill="url(#paint8_linear_3327_23900)"/>
</g>
</g>
<path d="M59.2041 48.2296C54.4973 48.2296 50.6816 46.1827 50.6816 43.6578C50.6816 41.1328 54.4973 39.0859 59.2041 39.0859C63.911 39.0859 67.7266 41.1328 67.7266 43.6578C67.7266 46.1827 63.911 48.2296 59.2041 48.2296Z" fill="#E6E7E8"/>
<path d="M10.376 65.088C10.376 67.5416 14.0806 69.5186 18.6489 69.5186C23.2173 69.5186 26.9219 67.5416 26.9219 65.088C26.9219 62.6344 23.2173 60.6573 18.6489 60.6573C14.0806 60.6397 10.376 62.6344 10.376 65.088Z" fill="#E6E7E8"/>
<path d="M34.2623 3.55309C49.1382 -4.33728 67.7188 5.54774 67.7188 21.3285V43.5875C67.7188 43.6051 67.7188 43.6228 67.7188 43.6404C67.7188 45.8116 64.4365 47.5591 60.3864 47.5591C56.3363 47.5591 53.054 45.794 53.054 43.6404C53.054 43.6228 53.054 43.5875 53.054 43.5698H52.9772V24.2058C52.9772 17.5157 45.1073 13.3322 38.8114 16.6684C31.4982 20.5342 26.9683 27.7008 26.9683 35.4676V65.1404H26.8915C26.8147 67.2763 23.5708 68.9885 19.5783 68.9885C15.5474 68.9885 12.3035 67.2586 12.2651 65.1051V38.5391C12.2651 24.1175 20.6532 10.7727 34.2623 3.55309Z" fill="url(#paint9_linear_3327_23900)"/>
<path d="M63.1739 45.4582V24.5937C63.1739 14.0202 53.8261 5.42377 42.3284 5.42377C38.7006 5.42377 35.2071 6.2887 31.9824 8.00093C29.8902 9.11299 27.9131 10.384 26.0704 11.7784C28.7001 9.34249 31.6945 7.2066 34.996 5.44141C38.2399 3.72918 41.7142 2.86426 45.342 2.86426C56.8397 2.86426 66.1875 11.4607 66.1875 22.0342V42.8986V44.2932C66.1875 44.3285 66.1875 44.3637 66.1875 44.3814C66.1491 45.1934 64.9591 46.076 63.1548 46.5349V45.4582H63.1739Z" fill="url(#paint10_radial_3327_23900)"/>
<path d="M22.418 67.4699H22.4372V39.1916C22.4372 31.9897 26.1226 25.2467 32.2266 20.9043C27.9461 25.1231 25.47 30.7364 25.47 36.6321V64.9103H25.4508L25.3932 66.2695C25.3548 67.0815 24.1839 67.9465 22.3796 68.4231L22.418 67.4699Z" fill="url(#paint11_radial_3327_23900)"/>
<path d="M49.5587 10.2588C56.1617 10.2588 61.5554 15.2013 61.5554 21.2912V44.5387L61.6322 46.957C61.6898 47.1511 57.5245 46.8511 57.4286 46.498L57.3518 44.0797V20.8322C57.3518 15.8721 53.7816 11.6709 48.8677 10.2941C49.1172 10.2764 49.3284 10.2588 49.5587 10.2588Z" fill="url(#paint12_linear_3327_23900)"/>
<path d="M36.7717 6.83544C39.8621 5.19382 43.1636 4.38184 46.6187 4.38184C48.0583 4.38184 49.4979 4.54069 50.9375 4.84077C50.8991 4.84077 50.8607 4.84077 50.8223 4.84077C47.3673 4.84077 44.0466 5.67041 40.9754 7.29438C28.1917 14.0727 20.2451 26.7114 20.2451 40.2681V68.4757V68.6522C20.2451 68.8287 16.0606 68.511 16.0414 68.1933V68.0167V39.8091C16.0414 26.2525 23.988 13.6138 36.7717 6.83544Z" fill="url(#paint13_linear_3327_23900)"/>
<path opacity="0.5" d="M56.7812 25.2989V46.3929C55.1305 45.9163 54.0556 45.0866 53.998 44.3276V44.31L53.9213 42.8096V24.84C53.9213 20.3388 50.6965 16.5083 46.2625 15.2197C52.0977 15.4315 56.7812 19.8798 56.7812 25.2989Z" fill="url(#paint14_linear_3327_23900)"/>
<g opacity="0.5">
<path d="M34.0636 5.53021C35.5992 4.71822 37.1731 4.1004 38.8047 3.67676C24.8693 11.3553 16.2317 25.3003 16.2317 40.2867V67.9648C14.2354 67.5235 12.8918 66.588 12.8918 65.723V65.5465V39.2453C12.8726 25.3709 20.9919 12.4497 34.0636 5.53021Z" fill="url(#paint15_linear_3327_23900)"/>
</g>
<path d="M42.3571 5.49538C38.5565 5.49538 34.8903 6.34266 31.4737 8.00194C32.7597 7.11935 34.1033 6.30736 35.5045 5.54833C38.5949 3.90671 41.8964 3.09473 45.3514 3.09473C54.8913 3.09473 65.1797 10.0672 65.1797 21.3291V21.382C62.2429 11.4441 51.9737 5.49538 42.3571 5.49538Z" fill="url(#paint16_linear_3327_23900)"/>
<path d="M24.4736 36.0328C23.8018 30.7019 24.5312 23.1293 31.3646 16.4922C37.7372 10.2964 45.4343 8.69006 49.4844 14.6387C47.7377 13.7208 45.7031 13.1736 43.534 13.1736C41.461 13.1736 39.4072 13.6855 37.5836 14.6564C29.5026 18.9281 24.4928 26.9068 24.4928 35.4679V36.0328H24.4736Z" fill="url(#paint17_linear_3327_23900)"/>
<path d="M44.919 91.7605V102.44L50.14 99.6685V88.9891C52.2131 86.8533 53.6719 83.8525 53.6719 81.2753C53.6719 77.7096 50.927 76.2622 47.5487 78.0626C44.1704 79.8631 41.4256 84.2232 41.4256 87.7888C41.4064 90.3837 42.846 91.8311 44.919 91.7605Z" fill="#B78C00"/>
<defs>
<linearGradient id="paint0_linear_3327_23900" x1="-0.630398" y1="86.5672" x2="79.4338" y2="86.5672" gradientUnits="userSpaceOnUse">
<stop stop-color="#FEC303"/>
<stop offset="0.2273" stop-color="#FFEEB6"/>
<stop offset="0.4343" stop-color="#FEC303"/>
</linearGradient>
<linearGradient id="paint1_linear_3327_23900" x1="32.5063" y1="24.6076" x2="40.7782" y2="68.0309" gradientUnits="userSpaceOnUse">
<stop offset="0.0354" stop-color="#FEC303"/>
<stop offset="0.3279" stop-color="#FEC303"/>
<stop offset="0.8925" stop-color="#FFDD70"/>
<stop offset="1" stop-color="#FFEEB5"/>
</linearGradient>
<linearGradient id="paint2_linear_3327_23900" x1="-8.31958" y1="60.1246" x2="91.8612" y2="-6.24797" gradientUnits="userSpaceOnUse">
<stop stop-color="#92C1CF"/>
<stop offset="0.6061" stop-color="#C9E3EC"/>
<stop offset="1" stop-color="#EAF4F8"/>
</linearGradient>
<radialGradient id="paint3_radial_3327_23900" cx="0" cy="0" r="1" gradientUnits="userSpaceOnUse" gradientTransform="translate(73.4299 54.3235) rotate(180) scale(45.2177 41.583)">
<stop stop-color="#FF5F98"/>
<stop offset="0.0152" stop-color="#F75C93"/>
<stop offset="0.132" stop-color="#BE4771"/>
<stop offset="0.252" stop-color="#8B3453"/>
<stop offset="0.3727" stop-color="#602439"/>
<stop offset="0.4942" stop-color="#3E1725"/>
<stop offset="0.6167" stop-color="#230D15"/>
<stop offset="0.7407" stop-color="#0F0609"/>
<stop offset="0.8672" stop-color="#040102"/>
<stop offset="1"/>
</radialGradient>
<radialGradient id="paint4_radial_3327_23900" cx="0" cy="0" r="1" gradientUnits="userSpaceOnUse" gradientTransform="translate(37.6503 78.621) rotate(180) scale(53.8116 49.4859)">
<stop stop-color="#FF5F98"/>
<stop offset="0.0152" stop-color="#F75C93"/>
<stop offset="0.132" stop-color="#BE4771"/>
<stop offset="0.252" stop-color="#8B3453"/>
<stop offset="0.3727" stop-color="#602439"/>
<stop offset="0.4942" stop-color="#3E1725"/>
<stop offset="0.6167" stop-color="#230D15"/>
<stop offset="0.7407" stop-color="#0F0609"/>
<stop offset="0.8672" stop-color="#040102"/>
<stop offset="1"/>
</radialGradient>
<linearGradient id="paint5_linear_3327_23900" x1="53.7144" y1="31.9992" x2="82.1403" y2="13.1663" gradientUnits="userSpaceOnUse">
<stop stop-color="#92C1CF"/>
<stop offset="0.6061" stop-color="#C9E3EC"/>
<stop offset="1" stop-color="#EAF4F8"/>
</linearGradient>
<linearGradient id="paint6_linear_3327_23900" x1="17.0614" y1="43.4176" x2="91.167" y2="17.62" gradientUnits="userSpaceOnUse">
<stop stop-color="#92C1CF"/>
<stop offset="0.6061" stop-color="#C9E3EC"/>
<stop offset="1" stop-color="#EAF4F8"/>
</linearGradient>
<linearGradient id="paint7_linear_3327_23900" x1="43.2677" y1="37.935" x2="65.7666" y2="23.0289" gradientUnits="userSpaceOnUse">
<stop stop-color="#FFE4A7"/>
<stop offset="1"/>
</linearGradient>
<linearGradient id="paint8_linear_3327_23900" x1="-6.69746" y1="57.0956" x2="70.0505" y2="6.24778" gradientUnits="userSpaceOnUse">
<stop stop-color="#FFE4A7"/>
<stop offset="1"/>
</linearGradient>
<linearGradient id="paint9_linear_3327_23900" x1="-6.79705" y1="56.76" x2="89.8718" y2="-7.28569" gradientUnits="userSpaceOnUse">
<stop stop-color="#92C1CF"/>
<stop offset="0.6061" stop-color="#C9E3EC"/>
<stop offset="1" stop-color="#EAF4F8"/>
</linearGradient>
<radialGradient id="paint10_radial_3327_23900" cx="0" cy="0" r="1" gradientUnits="userSpaceOnUse" gradientTransform="translate(73.4299 49.0948) rotate(180) scale(45.1995 41.5662)">
<stop stop-color="#FF5F98"/>
<stop offset="0.0152" stop-color="#F75C93"/>
<stop offset="0.132" stop-color="#BE4771"/>
<stop offset="0.252" stop-color="#8B3453"/>
<stop offset="0.3727" stop-color="#602439"/>
<stop offset="0.4942" stop-color="#3E1725"/>
<stop offset="0.6167" stop-color="#230D15"/>
<stop offset="0.7407" stop-color="#0F0609"/>
<stop offset="0.8672" stop-color="#040102"/>
<stop offset="1"/>
</radialGradient>
<radialGradient id="paint11_radial_3327_23900" cx="0" cy="0" r="1" gradientUnits="userSpaceOnUse" gradientTransform="translate(37.6503 73.1892) rotate(180) scale(53.2233 48.9449)">
<stop stop-color="#FF5F98"/>
<stop offset="0.0152" stop-color="#F75C93"/>
<stop offset="0.132" stop-color="#BE4771"/>
<stop offset="0.252" stop-color="#8B3453"/>
<stop offset="0.3727" stop-color="#602439"/>
<stop offset="0.4942" stop-color="#3E1725"/>
<stop offset="0.6167" stop-color="#230D15"/>
<stop offset="0.7407" stop-color="#0F0609"/>
<stop offset="0.8672" stop-color="#040102"/>
<stop offset="1"/>
</radialGradient>
<linearGradient id="paint12_linear_3327_23900" x1="54.0643" y1="29.2928" x2="78.9783" y2="12.7866" gradientUnits="userSpaceOnUse">
<stop stop-color="#92C1CF"/>
<stop offset="0.6061" stop-color="#C9E3EC"/>
<stop offset="1" stop-color="#EAF4F8"/>
</linearGradient>
<linearGradient id="paint13_linear_3327_23900" x1="17.5317" y1="40.7686" x2="89.4967" y2="15.7163" gradientUnits="userSpaceOnUse">
<stop stop-color="#92C1CF"/>
<stop offset="0.6061" stop-color="#C9E3EC"/>
<stop offset="1" stop-color="#EAF4F8"/>
</linearGradient>
<linearGradient id="paint14_linear_3327_23900" x1="44.7905" y1="34.5695" x2="63.7772" y2="21.9904" gradientUnits="userSpaceOnUse">
<stop stop-color="#FFE4A7"/>
<stop offset="1"/>
</linearGradient>
<linearGradient id="paint15_linear_3327_23900" x1="-5.17493" y1="53.7319" x2="68.061" y2="5.21109" gradientUnits="userSpaceOnUse">
<stop stop-color="#FFE4A7"/>
<stop offset="1"/>
</linearGradient>
<linearGradient id="paint16_linear_3327_23900" x1="53.9005" y1="6.25194" x2="49.455" y2="14.2279" gradientUnits="userSpaceOnUse">
<stop stop-color="#FFE4A7"/>
<stop offset="1"/>
</linearGradient>
<linearGradient id="paint17_linear_3327_23900" x1="23.204" y1="19.9744" x2="75.9163" y2="39.857" gradientUnits="userSpaceOnUse">
<stop stop-color="#FFE4A7"/>
<stop offset="1"/>
</linearGradient>
</defs>
</svg>
