<svg width="27" height="28" viewBox="0 0 27 28" fill="none" xmlns="http://www.w3.org/2000/svg">
<rect x="0.695312" y="0.984375" width="26" height="26.0312" rx="7" fill="#FFC54D"/>
<path d="M6.5 13.4621C6.62025 13.2141 6.84197 13.0826 7.08623 12.9886C8.04826 12.6128 9.0178 12.2445 9.97983 11.8763C13.2868 10.6098 16.5937 9.34343 19.9045 8.07702C19.9834 8.04695 20.0661 8.02065 20.145 8.00937C20.5884 7.94549 20.9041 8.2123 20.8928 8.68204C20.8853 8.98643 20.8176 9.29458 20.7538 9.59521C20.0736 12.797 19.3896 15.9949 18.7057 19.1929C18.6719 19.3545 18.6155 19.5199 18.5403 19.6664C18.3938 19.952 18.1382 20.061 17.8301 19.967C17.6798 19.922 17.5295 19.8543 17.4017 19.7641C16.3683 19.0163 15.3424 18.261 14.3165 17.5094C14.2751 17.4793 14.2338 17.4492 14.1812 17.4154C14.1398 17.453 14.1023 17.4831 14.0647 17.5169C13.5386 18.0167 13.0125 18.5202 12.4901 19.0238C12.336 19.1741 12.1557 19.2606 11.9151 19.2568C11.9302 19.0539 11.9415 18.8547 11.9565 18.6555C12.0204 17.7762 12.0805 16.8968 12.1481 16.0212C12.1519 15.9574 12.1932 15.8784 12.2421 15.8333C14.2338 14.0408 16.2292 12.2483 18.2247 10.4558C18.2397 10.4445 18.2585 10.4332 18.266 10.4182C18.3036 10.3506 18.3374 10.2792 18.375 10.2078C18.2886 10.1927 18.1984 10.1476 18.1195 10.1627C18.0218 10.1814 17.9278 10.2378 17.8414 10.2904C15.3574 11.8424 12.8772 13.3945 10.397 14.9427C10.3406 14.9765 10.2542 14.9953 10.194 14.9765C9.13805 14.6534 8.08584 14.3227 7.02987 13.9957C6.81566 13.9281 6.62401 13.8341 6.50376 13.6312C6.5 13.5748 6.5 13.5185 6.5 13.4621Z" fill="#F2F6FE"/>
</svg>
