<svg width="24" height="24" viewBox="0 0 24 24" fill="none" xmlns="http://www.w3.org/2000/svg">
<path d="M19.9651 24H4.03383C3.99823 23.9863 3.96332 23.9644 3.92635 23.961C1.95052 23.7795 -0.00750922 21.9194 2.16542e-05 19.4876C0.0150834 14.4967 0.00412938 9.5058 0.00481401 4.51557C0.00481401 3.87544 0.101346 3.24833 0.388889 2.67461C1.25152 0.952779 2.63035 0.011419 4.5829 0.00799588C8.53387 -0.000219617 12.4855 0.00525747 16.4365 0.00594209C17.5066 0.00594209 18.5766 -0.011858 19.646 0.0141578C21.6568 0.0620815 23.3841 1.46899 23.8633 3.42154C23.9133 3.62487 23.9509 3.83094 23.9948 4.03633V19.0255C23.9948 19.7827 23.8674 20.5365 23.5922 21.2416C23.3978 21.7401 23.1417 22.2022 22.7159 22.6403C21.9464 23.4331 21.0221 23.7748 19.9651 24ZM4.07423 17.5454C4.11188 17.5816 4.13037 17.6063 4.15501 17.6213C7.55828 19.7074 12.2822 19.4301 15.2391 16.6772C16.4646 15.5367 17.4189 14.1236 17.9235 12.5216C18.1885 11.6802 18.3288 10.8045 18.363 9.92411C18.3856 9.35655 18.4349 9.19361 18.8539 8.82323C19.2613 8.46312 19.5926 8.0544 19.9452 7.64157C19.9329 7.63198 19.9206 7.6224 19.9082 7.61281C19.3619 7.76411 18.8156 7.91473 18.2699 8.06603C18.2569 8.0407 18.2439 8.01537 18.2316 7.99004C18.8628 7.57173 19.3017 7.0124 19.5276 6.30997C19.0251 6.50646 18.5198 6.75292 18.0016 6.90422C17.4361 7.06922 17.2266 6.77346 16.774 6.48044C16.0114 5.98683 15.1124 5.8499 14.2402 6.10732C12.3568 6.66324 11.7283 8.22008 11.8509 10.0378C9.10964 9.83579 6.8716 8.68699 5.07241 6.58451C4.32411 8.29264 4.52197 9.75569 5.98638 10.9606C5.97475 10.9825 5.96379 11.0044 5.95215 11.0264C5.47155 10.8956 4.99094 10.7648 4.48706 10.6279C4.61713 12.2956 5.52084 13.3294 7.09342 13.8326C7.08658 13.8559 7.07973 13.8792 7.07288 13.9025C6.65937 13.9025 6.24586 13.9025 5.79811 13.9025C6.35882 15.2881 7.34057 16.0501 8.83442 16.1905C7.40219 17.2749 5.83303 17.7001 4.07423 17.5454Z" fill="#FFC54D"/>
</svg>
