<svg width="90" height="90" viewBox="0 0 90 90" fill="none" xmlns="http://www.w3.org/2000/svg">
<path d="M53.125 73.4375V74.7959C53.125 76.2939 51.9189 77.5 50.4209 77.5C48.9229 77.5 47.7168 76.2939 47.7168 74.7959V73.4375C47.7168 65.2109 41.0518 58.5459 32.8252 58.5459C24.5986 58.5459 17.9209 65.2109 17.9209 73.4375V74.7959C17.9209 76.2939 16.7148 77.5 15.2168 77.5C13.7061 77.5 12.5 76.2939 12.5 74.7959V73.4375C12.5 62.2148 21.5898 53.125 32.8125 53.125C44.0352 53.125 53.125 62.2148 53.125 73.4375Z" fill="#9E9E9E"/>
<path d="M32.8125 23.3301C26.084 23.3301 20.625 28.7891 20.625 35.5176C20.625 42.2461 26.084 47.7051 32.8125 47.7051C39.541 47.6924 44.9873 42.2461 45 35.5176C45 28.7891 39.541 23.3301 32.8125 23.3301ZM32.8125 42.2969C29.0674 42.2969 26.0459 39.2627 26.0459 35.5303C26.0459 31.7852 29.0801 28.7637 32.8125 28.7637C36.5449 28.7637 39.5791 31.7979 39.5791 35.5303C39.5791 39.2627 36.5576 42.2969 32.8125 42.2969Z" fill="#9E9E9E"/>
<path d="M77.4995 61.249C77.4995 62.7471 76.2935 63.9531 74.7954 63.9531C73.2974 63.9531 72.0913 62.7471 72.0913 61.249C72.0913 57.9229 70.8599 54.7109 68.6382 52.2227C63.6489 46.6494 55.0923 46.167 49.519 51.1562C49.5063 51.1689 49.4936 51.1816 49.481 51.1943C48.3511 52.1846 46.6499 52.0703 45.6597 50.9404C44.6694 49.8232 44.7837 48.1094 45.9009 47.1191C49.3794 44.0088 53.8735 42.2949 58.5454 42.2949C69.0063 42.2949 77.4995 50.7754 77.4995 61.249Z" fill="#FFC54D"/>
<path d="M59.8906 12.5C53.1621 12.5 47.7031 17.959 47.7031 24.6875C47.7031 31.416 53.1621 36.875 59.8906 36.875C66.6191 36.8623 72.0654 31.416 72.0781 24.6875C72.0781 17.959 66.6191 12.5 59.8906 12.5ZM59.8906 31.4541C56.1455 31.4541 53.124 28.4199 53.124 24.6875C53.124 20.9551 56.1582 17.9209 59.8906 17.9209C63.6357 17.9209 66.6572 20.9551 66.6572 24.6875C66.6572 28.4199 63.6357 31.4541 59.8906 31.4541Z" fill="#FFC54D"/>
</svg>
