<svg width="91" height="91" viewBox="0 0 91 91" fill="none" xmlns="http://www.w3.org/2000/svg">
<path d="M25.0653 61.4334C27.6773 61.4334 29.7947 59.3159 29.7947 56.704C29.7947 54.092 27.6773 51.9746 25.0653 51.9746C22.4534 51.9746 20.3359 54.092 20.3359 56.704C20.3359 59.3159 22.4534 61.4334 25.0653 61.4334Z" fill="#FFC54D"/>
<path d="M67.6007 17.2988H23.4599C19.2804 17.3038 15.2735 18.9663 12.3182 21.9217C9.36283 24.877 7.70032 28.8839 7.69531 33.0634L7.69531 58.2867C7.70032 62.4662 9.36283 66.4731 12.3182 69.4285C15.2735 72.3838 19.2804 74.0463 23.4599 74.0513H67.6007C71.7802 74.0463 75.7871 72.3838 78.7424 69.4285C81.6978 66.4731 83.3603 62.4662 83.3653 58.2867V33.0634C83.3603 28.8839 81.6978 24.877 78.7424 21.9217C75.7871 18.9663 71.7802 17.3038 67.6007 17.2988ZM23.4599 23.6047H67.6007C70.1093 23.6047 72.5152 24.6012 74.2891 26.3751C76.0629 28.1489 77.0595 30.5548 77.0595 33.0634H14.0011C14.0011 30.5548 14.9977 28.1489 16.7716 26.3751C18.5454 24.6012 20.9513 23.6047 23.4599 23.6047ZM67.6007 67.7455H23.4599C20.9513 67.7455 18.5454 66.749 16.7716 64.9751C14.9977 63.2012 14.0011 60.7954 14.0011 58.2867V39.3692H77.0595V58.2867C77.0595 60.7954 76.0629 63.2012 74.2891 64.9751C72.5152 66.749 70.1093 67.7455 67.6007 67.7455Z" fill="#9E9E9E"/>
</svg>
