<svg width="123" height="267" viewBox="0 0 123 267" fill="none" xmlns="http://www.w3.org/2000/svg">
<path d="M114.708 265.62L118.756 263.258C120.949 261.993 122.298 259.294 122.383 255.414L118.334 257.776C118.25 261.571 116.9 264.354 114.708 265.62Z" fill="#DFDFDF"/>
<path d="M8.35169 0.950933L4.30322 3.31254C6.49615 2.04739 9.61684 2.21608 12.9906 4.15598L17.0391 1.79437C13.6653 -0.14553 10.5446 -0.314217 8.35169 0.950933Z" fill="#DFDFDF"/>
<path d="M118.334 257.777L122.299 255.416L122.805 77.0293L118.841 79.3066L118.334 257.777Z" fill="#DFDFDF"/>
<path d="M106.606 58.1363L110.57 55.859L17.0335 1.79492L12.985 4.15653L106.606 58.1363Z" fill="#DFDFDF"/>
<path d="M118.842 79.3052L122.891 76.9436C122.891 69.184 117.408 59.6532 110.661 55.7734L106.612 58.1351C113.36 62.0149 118.842 71.5456 118.842 79.3052Z" fill="#DFDFDF"/>
<path d="M12.9912 4.15511C6.24374 0.275317 0.677078 3.39603 0.677078 11.1556L0.171013 189.626C0.171013 197.386 5.65334 206.917 12.4008 210.796L105.938 264.861C112.685 268.74 118.252 265.62 118.252 257.86L118.758 79.3894C118.758 71.6298 113.275 62.099 106.528 58.2192L12.9912 4.15511Z" fill="#FAFCFC"/>
<path d="M102.22 238.782L105.004 237.179C105.594 236.842 106.016 236.083 106.016 234.986L103.232 236.589C103.232 237.685 102.895 238.444 102.22 238.782Z" fill="#BDBDBD"/>
<path d="M83.2415 199.494L80.4582 201.096C81.0486 200.759 81.9764 200.759 82.9042 201.349L85.6875 199.747C84.6754 199.156 83.8319 199.156 83.2415 199.494Z" fill="#BDBDBD"/>
<path d="M103.234 236.688L106.017 235.001L106.102 215.518L103.318 217.12L103.234 236.688Z" fill="#BDBDBD"/>
<path d="M99.8612 211.217L102.656 209.615L85.6915 199.746L82.9082 201.349L99.8612 211.217Z" fill="#BDBDBD"/>
<path d="M103.318 217.122L106.102 215.519C106.102 213.326 104.583 210.712 102.643 209.615L99.8601 211.218C101.8 212.314 103.318 214.929 103.318 217.122Z" fill="#BDBDBD"/>
<path d="M82.903 201.35C81.0474 200.254 79.4449 201.097 79.4449 203.29L79.3606 222.858C79.3606 225.051 80.8787 227.665 82.8186 228.762L99.856 238.546C101.712 239.642 103.314 238.799 103.314 236.606L103.398 217.038C103.398 214.845 101.88 212.23 99.9404 211.134L82.903 201.35Z" fill="#DFDFDF"/>
<path d="M102.392 196.456L105.175 194.853C105.766 194.516 106.188 193.757 106.188 192.66L103.404 194.263C103.404 195.359 102.982 196.118 102.392 196.456Z" fill="#BDBDBD"/>
<path d="M83.3275 157.152L80.5442 158.755C81.1346 158.417 82.0623 158.417 82.9901 159.008L85.7734 157.405C84.8457 156.815 84.0022 156.731 83.3275 157.152Z" fill="#BDBDBD"/>
<path d="M103.404 194.264L106.188 192.661V173.094L103.404 174.696V194.264Z" fill="#BDBDBD"/>
<path d="M100.029 168.791L102.812 167.188L85.7751 157.404L82.9918 159.007L100.029 168.791Z" fill="#BDBDBD"/>
<path d="M103.404 174.696L106.188 173.093C106.188 170.901 104.669 168.286 102.729 167.189L99.9461 168.792C101.886 169.888 103.404 172.587 103.404 174.696Z" fill="#BDBDBD"/>
<path d="M82.9889 159.006C81.1334 157.91 79.5309 158.753 79.5309 160.946L79.4465 180.514C79.4465 182.707 80.9647 185.322 82.9046 186.418L99.942 196.202C101.798 197.298 103.4 196.455 103.4 194.262L103.484 174.694C103.484 172.501 101.966 169.887 100.026 168.79L82.9889 159.006Z" fill="#DFDFDF"/>
<path d="M102.47 154.032L105.254 152.429C105.844 152.092 106.266 151.333 106.266 150.236L103.482 151.839C103.482 152.935 103.145 153.694 102.47 154.032Z" fill="#BDBDBD"/>
<path d="M83.4193 114.737L80.636 116.339C81.2264 116.002 82.1542 116.002 83.0819 116.592L85.9453 114.982C84.9332 114.392 84.0097 114.4 83.4193 114.737Z" fill="#BDBDBD"/>
<path d="M103.484 151.924L106.267 150.237L106.352 130.754L103.568 132.356L103.484 151.924Z" fill="#BDBDBD"/>
<path d="M100.111 126.451L102.898 124.851L85.9415 114.98L83.0738 116.583L100.111 126.451Z" fill="#BDBDBD"/>
<path d="M103.568 132.356L106.352 130.754C106.352 128.561 104.833 125.946 102.893 124.85L100.11 126.452C102.05 127.549 103.568 130.163 103.568 132.356Z" fill="#BDBDBD"/>
<path d="M83.0749 116.583C81.2193 115.486 79.6168 116.33 79.6168 118.522L79.5324 138.09C79.5324 140.283 81.0506 142.898 82.9905 143.994L100.028 153.778C101.883 154.874 103.486 154.031 103.486 151.838L103.57 132.27C103.57 130.078 102.052 127.463 100.112 126.366L83.0749 116.583Z" fill="#DFDFDF"/>
<path d="M102.642 111.69L105.425 110.087C106.016 109.75 106.438 108.991 106.438 107.895L103.654 109.497C103.57 110.594 103.232 111.353 102.642 111.69Z" fill="#BDBDBD"/>
<path d="M83.5775 72.3866L80.7942 73.9891C81.3846 73.6518 82.3123 73.6518 83.2401 74.2422L86.0234 72.6397C85.0957 72.0492 84.1679 71.9649 83.5775 72.3866Z" fill="#BDBDBD"/>
<path d="M103.654 109.498L106.438 107.896V88.3281L103.654 89.9307V109.498Z" fill="#BDBDBD"/>
<path d="M100.279 84.0254L103.062 82.4229L86.0251 72.5547L83.2418 74.2416L100.279 84.0254Z" fill="#BDBDBD"/>
<path d="M103.654 89.9304L106.438 88.3279C106.438 86.1349 104.919 83.5203 102.979 82.4238L100.196 84.0264C102.136 85.1228 103.654 87.8218 103.654 89.9304Z" fill="#BDBDBD"/>
<path d="M83.2389 74.2427C81.3834 73.1463 79.7809 73.9897 79.7809 76.1826L79.6965 95.7503C79.6965 97.9432 81.2147 100.558 83.1546 101.654L100.192 111.438C102.048 112.535 103.65 111.691 103.65 109.498L103.734 89.9306C103.734 87.7377 102.216 85.123 100.276 84.0266L83.2389 74.2427Z" fill="#DFDFDF"/>
<path d="M30.4493 182.539L27.666 184.141C28.2564 183.804 29.0998 183.804 29.9432 184.394L32.7266 182.792C31.8831 182.201 31.0397 182.201 30.4493 182.539Z" fill="#C0D5EB"/>
<path d="M65.3573 204.805L68.1406 203.202L32.8007 182.707L30.0174 184.394L65.3573 204.805Z" fill="#BDBDBD"/>
<path d="M67.6326 212.479L70.416 210.877C71.0064 210.539 71.3438 209.78 71.3438 208.768C71.3438 206.744 69.9099 204.214 68.1387 203.117L65.3554 204.72C67.1266 205.732 68.6448 208.262 68.5604 210.371C68.6448 211.467 68.223 212.142 67.6326 212.479Z" fill="#BDBDBD"/>
<path d="M30.0114 184.394C28.2402 183.382 26.722 184.225 26.722 186.249C26.722 188.274 28.1558 190.804 29.927 191.9L65.3512 212.311C67.1224 213.323 68.6406 212.48 68.6406 210.456C68.6406 208.432 67.2068 205.901 65.4356 204.805L30.0114 184.394Z" fill="#DFDFDF"/>
<path d="M8.94929 156.562L6.16596 158.164C6.75636 157.827 7.59979 157.911 8.44323 158.417L11.2266 156.815C10.3831 156.309 9.5397 156.224 8.94929 156.562Z" fill="#C0D5EB"/>
<path d="M65.4511 191.311L68.2344 189.708L11.3026 156.814L8.51927 158.417L65.4511 191.311Z" fill="#BDBDBD"/>
<path d="M67.7342 198.987L70.5175 197.385C71.1079 197.047 71.4453 196.288 71.4453 195.276C71.4453 193.252 70.0115 190.721 68.2403 189.625L65.4569 191.228C67.2282 192.24 68.7463 194.77 68.662 196.879C68.662 197.975 68.3246 198.65 67.7342 198.987Z" fill="#BDBDBD"/>
<path d="M8.51943 158.417C6.74822 157.405 5.23003 158.248 5.23003 160.273C5.23003 162.297 6.66387 164.827 8.43508 165.924L65.3669 198.818C67.1381 199.83 68.6562 198.986 68.6562 196.962C68.6562 194.938 67.2224 192.408 65.4512 191.311L8.51943 158.417Z" fill="#DFDFDF"/>
<path d="M30.629 140.115L27.8456 141.717C28.4361 141.38 29.2795 141.38 30.1229 141.97L32.9062 140.368C31.9785 139.862 31.2194 139.777 30.629 140.115Z" fill="#C0D5EB"/>
<path d="M65.537 162.381L68.3203 160.778L32.8961 140.367L30.1128 141.97L65.537 162.381Z" fill="#BDBDBD"/>
<path d="M67.8201 170.141L70.6035 168.539C71.1939 168.202 71.5312 167.442 71.5312 166.43C71.5312 164.406 70.0974 161.876 68.3262 160.779L65.5429 162.382C67.3141 163.394 68.8323 165.924 68.7479 168.033C68.7479 169.045 68.4105 169.804 67.8201 170.141Z" fill="#BDBDBD"/>
<path d="M30.1129 141.97C28.3417 140.958 26.8235 141.801 26.8235 143.825C26.8235 145.85 28.2574 148.38 30.0286 149.476L65.4528 169.888C67.224 170.9 68.7422 170.056 68.7422 168.032C68.7422 166.008 67.3083 163.477 65.5371 162.381L30.1129 141.97Z" fill="#DFDFDF"/>
<path d="M9.12117 114.222L6.33783 115.825C6.92824 115.487 7.77167 115.487 8.6151 116.078L11.3984 114.475C10.4707 113.885 9.71157 113.885 9.12117 114.222Z" fill="#C0D5EB"/>
<path d="M65.537 148.887L68.3203 147.285L11.3885 114.391L8.6052 116.077L65.537 148.887Z" fill="#BDBDBD"/>
<path d="M67.8201 156.647L70.6035 155.045C71.1939 154.707 71.5312 153.948 71.5312 152.936C71.5312 150.912 70.0974 148.382 68.3262 147.285L65.5429 148.888C67.3141 149.9 68.8323 152.43 68.7479 154.539C68.8323 155.551 68.4105 156.31 67.8201 156.647Z" fill="#BDBDBD"/>
<path d="M8.60535 116.077C6.83414 115.065 5.31597 115.909 5.31597 117.933C5.31597 119.957 6.74981 122.487 8.52102 123.584L65.4528 156.478C67.224 157.49 68.7422 156.646 68.7422 154.622C68.7422 152.598 67.3083 150.068 65.5371 148.971L8.60535 116.077Z" fill="#DFDFDF"/>
<path d="M30.7149 97.7729L27.9316 99.3754C28.522 99.038 29.3654 99.1224 30.2089 99.6284L32.9922 98.0259C32.1488 97.4355 31.3053 97.4355 30.7149 97.7729Z" fill="#C0D5EB"/>
<path d="M65.6307 120.041L68.4141 118.439L33.0742 97.9434L30.2908 99.6302L65.6307 120.041Z" fill="#BDBDBD"/>
<path d="M67.9061 127.716L70.6894 126.113C71.2798 125.776 71.6172 125.017 71.6172 124.005C71.6172 121.98 70.1834 119.45 68.4121 118.354L65.6288 119.956C67.4 120.968 68.9182 123.498 68.8339 125.607C68.8339 126.704 68.4965 127.378 67.9061 127.716Z" fill="#BDBDBD"/>
<path d="M30.277 99.6281C28.5058 98.616 26.9876 99.4594 26.9876 101.484C26.9876 103.508 28.4214 106.038 30.1926 107.135L65.6169 127.546C67.3881 128.558 68.9062 127.714 68.9062 125.69C68.9062 123.666 67.4724 121.136 65.7012 120.039L30.277 99.6281Z" fill="#DFDFDF"/>
<path d="M9.19147 71.7962L6.40815 73.3987C6.99855 73.0613 7.84198 73.1457 8.68542 73.6517L11.4688 72.0492C10.6253 71.5431 9.78187 71.4588 9.19147 71.7962Z" fill="#BDBDBD"/>
<path d="M65.6932 106.545L68.4766 104.858L11.5448 72.0488L8.67711 73.6513L65.6932 106.545Z" fill="#BDBDBD"/>
<path d="M67.9686 114.221L70.7519 112.619C71.3423 112.282 71.6797 111.522 71.6797 110.51C71.6797 108.486 70.2458 105.956 68.4746 104.859L65.6913 106.462C67.4625 107.474 68.9807 110.004 68.8964 112.113C68.8964 113.125 68.559 113.884 67.9686 114.221Z" fill="#BDBDBD"/>
<path d="M8.67567 73.6515C6.90446 72.6394 5.38627 73.4828 5.38627 75.5071C5.38627 77.5313 6.82011 80.0616 8.59132 81.1581L65.5231 114.052C67.2943 115.064 68.8125 114.221 68.8125 112.196C68.8125 110.172 67.3787 107.642 65.6074 106.545L8.67567 73.6515Z" fill="#DFDFDF"/>
<path d="M30.879 55.3489L28.0956 56.9514C28.6861 56.6141 29.5295 56.6984 30.3729 57.2045L33.1562 55.6019C32.2285 55.0959 31.4694 55.0115 30.879 55.3489Z" fill="#BDBDBD"/>
<path d="M65.787 77.6152L68.5703 76.0127L33.1461 55.6016L30.3628 57.2041L65.787 77.6152Z" fill="#BDBDBD"/>
<path d="M68.0701 85.3758L70.8535 83.7733C71.4439 83.4359 71.7812 82.6768 71.7812 81.6647C71.7812 79.6404 70.3474 77.1101 68.5762 76.0137L65.7929 77.6162C67.5641 78.6283 69.0823 81.1586 68.9979 83.2672C68.9979 84.2793 68.6605 85.0384 68.0701 85.3758Z" fill="#BDBDBD"/>
<path d="M30.3629 57.2043C28.5917 56.1921 27.0735 57.0356 27.0735 59.0598C27.0735 61.0841 28.5074 63.6144 30.2786 64.7108L65.7028 85.1219C67.474 86.134 68.9922 85.2906 68.9922 83.2664C68.9922 81.2421 67.5583 78.7118 65.7871 77.6154L30.3629 57.2043Z" fill="#DFDFDF"/>
<path d="M9.37117 29.455L6.58783 31.0575C7.17824 30.7201 8.02167 30.8045 8.8651 31.3105L11.6484 29.708C10.7207 29.1176 9.96157 29.0333 9.37117 29.455Z" fill="#BDBDBD"/>
<path d="M65.787 64.1214L68.5703 62.5189L11.6385 29.625L8.8552 31.2275L65.787 64.1214Z" fill="#BDBDBD"/>
<path d="M68.0701 71.8797L70.8535 70.2772C71.4439 69.9398 71.7812 69.1807 71.7812 68.1686C71.7812 66.1443 70.3474 63.614 68.5762 62.5176L65.7929 64.1201C67.5641 65.1322 69.0823 67.6625 68.9979 69.7711C68.9979 70.7832 68.6605 71.458 68.0701 71.8797Z" fill="#BDBDBD"/>
<path d="M8.85535 31.2277C7.08414 30.2156 5.56597 31.059 5.56597 33.0833C5.56597 35.1075 6.99979 37.6378 8.77101 38.7343L65.7028 71.6282C67.474 72.6403 68.9922 71.7969 68.9922 69.7726C68.9922 67.7484 67.5583 65.2181 65.7871 64.1216L8.85535 31.2277Z" fill="#DFDFDF"/>
</svg>
