<svg width="90" height="90" viewBox="0 0 90 90" fill="none" xmlns="http://www.w3.org/2000/svg">
<path d="M56 50.6796H48.044L50.1229 45.125C50.3588 44.5016 50.7753 43.965 51.3178 43.5858C51.8604 43.2065 52.5035 43.0023 53.1628 43H56V50.6796ZM58.1667 50.6796H67.7271L63.41 44.4097C63.1106 43.9746 62.7119 43.6192 62.2477 43.3738C61.7835 43.1283 61.2676 43.0001 60.7439 43H58.1667V50.6796ZM72.25 56.165C72.25 55.2921 71.9076 54.4549 71.2981 53.8377C70.6886 53.2205 69.862 52.8737 69 52.8737H49.5C48.638 52.8737 47.8114 53.2205 47.2019 53.8377C46.5924 54.4549 46.25 55.2921 46.25 56.165V60.5533H72.25V56.165ZM54.8538 62.7474C55.4897 67.0853 48.9258 67.0831 49.5628 62.7474H54.8538ZM63.6462 62.7474C63.0103 67.0853 69.5742 67.0831 68.9372 62.7474H63.6462Z" fill="#FFC54D"/>
<path d="M39.4229 55.8291C39.4229 57.3271 38.2168 58.5332 36.7187 58.5332H31.2979C29.7998 58.5332 28.5938 57.3271 28.5938 55.8291C28.5938 54.3311 29.7998 53.125 31.2979 53.125H36.7187C38.2041 53.125 39.4229 54.3311 39.4229 55.8291Z" fill="#9E9E9E"/>
<path d="M44.8311 42.296C44.8311 43.794 43.625 45.0001 42.127 45.0001H31.2979C29.7998 45.0001 28.5938 43.794 28.5938 42.296C28.5938 40.798 29.7998 39.5919 31.2979 39.5919H42.127C43.625 39.5792 44.8311 40.798 44.8311 42.296Z" fill="#9E9E9E"/>
<path d="M55.6729 28.751C55.6729 30.249 54.4668 31.4551 52.9688 31.4551H31.2979C29.7998 31.4551 28.5938 30.249 28.5938 28.751C28.5938 27.2529 29.7998 26.0469 31.2979 26.0469H52.9688C54.4541 26.0469 55.6729 27.2529 55.6729 28.751Z" fill="#9E9E9E"/>
<path d="M66.5 26.0459V31.4668C66.5 32.9648 65.2939 34.1709 63.7959 34.1709C62.2979 34.1709 61.0918 32.9648 61.0918 31.4668V26.0459C61.0918 21.5645 57.4482 17.9209 52.9668 17.9209H31.2959C26.8145 17.9209 23.1709 21.5645 23.1709 26.0459V63.9668C23.1709 68.4482 26.8145 72.0918 31.2959 72.0918H42.125C43.623 72.0918 44.8291 73.2979 44.8291 74.7959C44.8291 76.2939 43.623 77.5 42.125 77.5H31.2959C23.8184 77.5 17.75 71.4316 17.75 63.9541V26.0459C17.75 18.5684 23.8184 12.5 31.2959 12.5H52.9668C60.4316 12.5 66.5 18.5684 66.5 26.0459Z" fill="#9E9E9E"/>
</svg>
