<svg width="183" height="225" viewBox="0 0 183 225" fill="none" xmlns="http://www.w3.org/2000/svg">
<path d="M154.991 0.565907C153.459 -0.309839 151.27 -0.20037 148.861 1.11325L9.07031 81.7913L15.0911 85.2943L154.882 4.61623C157.29 3.19314 159.48 3.08367 161.012 4.06889C159.042 2.97421 157.071 1.77006 154.991 0.565907Z" fill="#E7E7E7"/>
<path d="M154.884 4.72506C159.701 1.98836 163.532 4.17772 163.532 9.65113L163.861 122.075C163.861 127.548 160.029 134.226 155.213 136.963L15.4217 217.641C10.6051 220.378 6.7737 218.188 6.7737 212.715L6.44531 100.291C6.44531 94.8174 10.2767 88.1399 15.0933 85.4032L154.884 4.72506Z" fill="#BFBFBF"/>
<path d="M15.2078 85.4034L9.18707 81.9004C4.37046 84.6371 0.539062 91.4241 0.539062 96.7881L0.867471 209.212C0.867471 211.949 1.85269 213.81 3.38524 214.795L9.406 218.298C7.87344 217.422 6.88822 215.452 6.88822 212.715L6.55982 100.291C6.55982 94.8176 10.3912 88.1401 15.2078 85.4034Z" fill="#E7E7E7"/>
<path d="M162.226 6.36669C160.693 5.49094 158.504 5.60041 156.096 6.91403L16.3047 87.5921L22.3254 91.0951L162.116 10.417C164.525 8.99392 166.714 8.88445 168.247 9.86967C166.276 8.77499 164.196 7.57084 162.226 6.36669Z" fill="#E7E7E7"/>
<path d="M162.119 10.5258C166.935 7.78914 170.767 9.9785 170.767 15.4519L171.095 127.876C171.095 133.349 167.264 140.027 162.447 142.764L22.7655 223.551C17.9489 226.288 14.1175 224.098 14.1175 218.625L13.7891 106.201C13.7891 100.728 17.6204 94.0501 22.437 91.3134L162.119 10.5258Z" fill="#E7E7E7"/>
<path d="M22.325 91.2042L16.3043 87.7012C11.4876 90.4379 7.65625 97.2249 7.65625 102.698L7.98466 215.122C7.98466 217.859 8.96988 219.72 10.5024 220.705L16.5232 224.208C14.9906 223.332 14.0054 221.362 14.0054 218.625L13.677 106.201C13.677 100.728 17.5084 93.9409 22.325 91.2042Z" fill="#E7E7E7"/>
<path d="M141.087 28.2615L135.176 31.655C134.629 31.9834 134.191 32.7497 134.191 33.4065C134.191 34.0634 134.629 34.2823 135.176 33.9539L141.087 30.5604C141.635 30.232 142.072 29.4657 142.072 28.8089C142.182 28.1521 141.744 27.9331 141.087 28.2615ZM129.265 35.158L123.353 38.5515C122.806 38.88 122.368 39.6462 122.368 40.303C122.368 40.9599 122.806 41.1788 123.353 40.8504L129.265 37.4569C129.812 37.1285 130.25 36.3622 130.25 35.7054C130.25 35.0486 129.812 34.8296 129.265 35.158ZM117.333 41.9451L111.421 45.3386C110.874 45.667 110.436 46.4333 110.436 47.0901C110.436 47.7469 110.874 47.9658 111.421 47.6374L117.333 44.2439C117.88 43.9155 118.318 43.1492 118.318 42.4924C118.318 41.9451 117.88 41.6167 117.333 41.9451ZM105.51 48.8416L99.5988 52.2351C99.0514 52.5635 98.6135 53.3298 98.6135 53.9866C98.6135 54.6434 99.0514 54.8623 99.5988 54.5339L105.51 51.1404C106.057 50.812 106.495 50.0457 106.495 49.3889C106.495 48.8416 106.057 48.5132 105.51 48.8416ZM93.578 55.7381L87.6667 59.1316C87.1194 59.46 86.6815 60.2263 86.6815 60.8831C86.6815 61.5399 87.1194 61.7588 87.6667 61.4304L93.578 58.0369C94.1254 57.7085 94.5632 56.9422 94.5632 56.2854C94.5632 55.6286 94.1254 55.4097 93.578 55.7381ZM81.7554 62.5251L75.8442 65.9186C75.2968 66.247 74.8589 67.0133 74.8589 67.6701C74.8589 68.3269 75.2968 68.5459 75.8442 68.2175L81.7554 64.8239C82.3028 64.4955 82.7406 63.7292 82.7406 63.0724C82.7406 62.5251 82.3028 62.3062 81.7554 62.5251ZM69.8234 69.4216L63.9121 72.8151C63.3648 73.1435 62.9269 73.9098 62.9269 74.5666C62.9269 75.2234 63.3648 75.4423 63.9121 75.1139L69.8234 71.7204C70.3707 71.392 70.8086 70.6257 70.8086 69.9689C70.8086 69.3121 70.3707 69.0932 69.8234 69.4216ZM57.8914 76.3181L51.9801 79.7116C51.4327 80.04 50.9949 80.8063 50.9949 81.4631C50.9949 82.1199 51.4327 82.3388 51.9801 82.0104L57.8914 78.6169C58.4387 78.2885 58.8766 77.5222 58.8766 76.8654C58.986 76.2086 58.5482 75.9897 57.8914 76.3181ZM46.0688 83.2146L40.1575 86.6081C39.6102 86.9365 39.1723 87.7028 39.1723 88.3596C39.1723 89.0164 39.6102 89.2354 40.1575 88.9069L46.0688 85.5134C46.6161 85.185 47.054 84.4187 47.054 83.7619C47.054 83.1051 46.6161 82.8862 46.0688 83.2146ZM34.1367 90.0016L29.977 92.4099C29.3202 92.8478 28.6633 93.2857 28.0065 93.7235C27.4592 94.1614 27.1308 94.9277 27.2403 95.5845C27.3497 96.1319 27.7876 96.2413 28.2255 95.9129L28.4444 95.8034C28.9917 95.3656 29.4296 95.0372 29.977 94.7088L34.1367 92.3005C34.6841 91.9721 35.122 91.2058 35.122 90.549C35.122 90.0016 34.6841 89.6732 34.1367 90.0016ZM158.712 19.3946C158.383 19.6135 158.055 19.9419 157.836 20.4893C157.507 21.2556 157.726 21.8029 158.164 21.9124C159.697 22.0218 160.901 22.8976 161.558 24.4301C161.667 24.868 162.105 24.868 162.543 24.6491L162.871 24.3207C163.419 23.7733 163.638 23.007 163.419 22.5692C162.652 20.5987 161.12 19.5041 159.15 19.3946C159.15 19.2851 158.931 19.2851 158.712 19.3946ZM23.2994 99.9632C22.971 100.182 22.7521 100.511 22.5331 100.839C21.2195 103.576 20.4532 106.531 20.4532 109.049C20.4532 109.706 20.8911 109.925 21.4384 109.596C21.9858 109.268 22.4236 108.502 22.4236 107.845C22.4236 105.765 22.971 103.576 24.0657 101.386C24.3941 100.62 24.3941 99.9632 23.9562 99.8538C23.7373 99.8538 23.5183 99.8538 23.2994 99.9632ZM163.2 28.5899C162.652 28.9183 162.215 29.6846 162.215 30.3414V37.2379C162.215 37.8947 162.652 38.1137 163.2 37.7853C163.747 37.4569 164.185 36.6906 164.185 36.0338V29.1373C164.185 28.5899 163.747 28.371 163.2 28.5899ZM21.329 114.304C20.7816 114.632 20.3438 115.398 20.3438 116.055V122.842C20.3438 123.499 20.7816 123.718 21.329 123.389C21.8763 123.061 22.3142 122.295 22.3142 121.638V114.851C22.3142 114.194 21.8763 113.975 21.329 114.304ZM163.2 42.2735C162.652 42.6019 162.215 43.3682 162.215 44.025V50.812C162.215 51.4688 162.652 51.6877 163.2 51.3593C163.747 51.0309 164.185 50.2647 164.185 49.6078V42.8208C164.185 42.2735 163.747 41.9451 163.2 42.2735ZM21.4384 127.878C20.8911 128.206 20.4532 128.972 20.4532 129.629V136.526C20.4532 137.182 20.8911 137.401 21.4384 137.073C21.9858 136.745 22.4236 135.978 22.4236 135.321V128.425C22.4236 127.878 21.9858 127.659 21.4384 127.878ZM163.309 55.957C162.762 56.2854 162.324 57.0517 162.324 57.7085V64.4955L162.434 64.9334C162.652 65.2618 162.981 65.2618 163.309 65.0429C163.747 64.8239 164.076 64.3861 164.185 63.9482L164.294 63.2914V56.5043C164.294 55.957 163.857 55.6286 163.309 55.957ZM21.4384 141.561C20.8911 141.89 20.4532 142.656 20.4532 143.313V150.209C20.4532 150.866 20.8911 151.085 21.4384 150.757C21.9858 150.428 22.4236 149.662 22.4236 149.005V142.109C22.4236 141.561 21.9858 141.233 21.4384 141.561ZM163.309 69.6405C162.762 69.9689 162.324 70.7352 162.324 71.392V78.2885C162.324 78.9453 162.762 79.1643 163.309 78.8359C163.857 78.5075 164.294 77.7412 164.294 77.0844V70.1879C164.294 69.6405 163.857 69.3121 163.309 69.6405ZM21.4384 155.245C20.8911 155.573 20.4532 156.339 20.4532 156.996V163.893C20.4532 164.44 20.8911 164.768 21.4384 164.44C21.9858 164.112 22.4236 163.345 22.4236 162.689V155.792C22.4236 155.245 21.9858 154.916 21.4384 155.245ZM163.309 83.3241C162.762 83.6525 162.324 84.4187 162.324 85.0756V91.9721L162.543 92.5194C162.762 92.7383 162.981 92.7383 163.419 92.5194C163.747 92.3005 164.076 91.972 164.294 91.5342L164.404 90.7679V83.8714C164.294 83.2146 163.857 82.9957 163.309 83.3241ZM21.5479 168.928C21.0005 169.257 20.5627 170.023 20.5627 170.68V177.467C20.5627 178.124 21.0005 178.342 21.5479 178.014C22.0952 177.686 22.5331 176.919 22.5331 176.263V169.476C22.5331 168.819 22.0952 168.6 21.5479 168.928ZM163.419 96.8981C162.871 97.2265 162.434 97.9928 162.434 98.6496V105.546C162.434 106.093 162.871 106.422 163.419 106.093C163.966 105.765 164.404 104.999 164.404 104.342V97.4455C164.404 96.8981 163.966 96.5697 163.419 96.8981ZM21.5479 182.612C21.0005 182.94 20.5627 183.706 20.5627 184.363V191.15C20.5627 191.807 21.0005 192.026 21.5479 191.698C22.0952 191.369 22.5331 190.603 22.5331 189.946V183.159C22.5331 182.502 22.0952 182.283 21.5479 182.612ZM163.419 110.582C162.871 110.91 162.434 111.676 162.434 112.333V119.12C162.434 119.777 162.871 119.996 163.419 119.668C163.966 119.339 164.404 118.573 164.404 117.916V111.129C164.404 110.582 163.966 110.253 163.419 110.582ZM21.6574 196.186C21.11 196.514 20.6722 197.281 20.6722 197.937V204.724C20.6722 205.381 21.11 205.6 21.6574 205.272C22.2047 204.943 22.6426 204.177 22.6426 203.52V196.733C22.6426 196.186 22.0952 195.857 21.6574 196.186ZM163.419 124.375C162.871 124.703 162.434 125.579 162.434 126.126C162.434 128.097 161.886 130.505 160.792 132.694C160.463 133.461 160.463 134.117 160.901 134.227L161.558 134.117C161.886 134.008 162.105 133.679 162.324 133.242C163.747 130.395 164.513 127.549 164.513 124.922V124.813C164.404 124.156 163.966 124.046 163.419 124.375ZM22.2047 209.541C22.0952 209.65 21.9858 209.65 21.8763 209.76C21.329 210.307 21.11 211.074 21.329 211.621C22.0952 213.591 23.6278 214.686 25.5982 214.905L26.1456 214.795C26.474 214.577 26.8024 214.139 27.0213 213.701C27.2402 212.934 27.1308 212.387 26.5834 212.387C25.0509 212.278 23.8467 211.292 23.1899 209.76C22.971 209.322 22.5331 209.213 22.2047 209.541ZM156.522 138.168C156.413 138.168 156.413 138.277 156.303 138.277C155.756 138.715 155.318 139.043 154.771 139.372L150.502 141.78C149.954 142.109 149.516 142.875 149.516 143.532C149.516 144.188 149.954 144.407 150.502 144.079L154.771 141.671C155.428 141.342 156.084 140.795 156.741 140.357C157.289 139.919 157.617 139.153 157.507 138.606C157.398 138.058 157.07 137.839 156.522 138.168ZM144.7 145.174L138.788 148.567C138.241 148.896 137.803 149.662 137.803 150.319C137.803 150.975 138.241 151.194 138.788 150.866L144.7 147.472C145.247 147.144 145.685 146.378 145.685 145.721C145.685 145.064 145.247 144.845 144.7 145.174ZM132.768 152.07L126.856 155.464C126.309 155.792 125.871 156.558 125.871 157.215C125.871 157.872 126.309 158.091 126.856 157.762L132.768 154.369C133.315 154.041 133.753 153.274 133.753 152.617C133.753 151.961 133.315 151.742 132.768 152.07ZM120.945 158.967L115.034 162.36C114.486 162.689 114.049 163.455 114.049 164.112C114.049 164.768 114.486 164.987 115.034 164.659L120.945 161.265C121.492 160.937 121.93 160.171 121.93 159.514C121.93 158.857 121.492 158.638 120.945 158.967ZM109.013 165.754L103.102 169.147C102.554 169.476 102.117 170.242 102.117 170.899C102.117 171.555 102.554 171.774 103.102 171.446L109.013 168.052C109.56 167.724 109.998 166.958 109.998 166.301C109.998 165.754 109.56 165.425 109.013 165.754ZM97.081 172.65L91.1697 176.044C90.6224 176.372 90.1845 177.138 90.1845 177.795C90.1845 178.452 90.6224 178.671 91.1697 178.343L97.081 174.949C97.6283 174.621 98.0662 173.854 98.0662 173.197C98.1757 172.541 97.6283 172.322 97.081 172.65ZM85.2584 179.547L79.3471 182.94C78.7998 183.269 78.3619 184.035 78.3619 184.692C78.3619 185.348 78.7998 185.567 79.3471 185.239L85.2584 181.845C85.8058 181.517 86.2436 180.751 86.2436 180.094C86.2436 179.437 85.8058 179.218 85.2584 179.547ZM73.3264 186.443L67.4151 189.837C66.8678 190.165 66.4299 190.931 66.4299 191.588C66.4299 192.245 66.8678 192.464 67.4151 192.135L73.3264 188.742C73.8737 188.414 74.3116 187.647 74.3116 186.991C74.3116 186.334 73.8737 186.005 73.3264 186.443ZM61.5038 193.23L55.5925 196.624C55.0452 196.952 54.6073 197.718 54.6073 198.375C54.6073 199.032 55.0452 199.251 55.5925 198.923L61.5038 195.529C62.0511 195.201 62.489 194.434 62.489 193.778C62.489 193.121 62.0511 192.902 61.5038 193.23ZM49.5718 200.127L43.6605 203.52C43.1132 203.849 42.6753 204.615 42.6753 205.272C42.6753 205.928 43.1132 206.147 43.6605 205.819L49.5718 202.426C50.1191 202.097 50.557 201.331 50.557 200.674C50.557 200.017 50.1191 199.798 49.5718 200.127ZM37.7492 206.914L31.8379 210.307C31.2906 210.636 30.8527 211.402 30.8527 212.059C30.8527 212.716 31.2906 212.934 31.8379 212.606L37.7492 209.213C38.2965 208.884 38.7344 208.118 38.7344 207.461C38.7344 206.914 38.2965 206.695 37.7492 206.914ZM153.019 21.365L147.108 24.7585C146.561 25.0869 146.123 25.8532 146.123 26.51C146.123 27.1668 146.561 27.3858 147.108 27.0574L153.019 23.6639C153.567 23.3355 154.004 22.5692 154.004 21.9124C154.004 21.365 153.567 21.0366 153.019 21.365Z" fill="#BFBFBF"/>
<path d="M173.829 75.77C178.645 73.0333 182.477 75.2226 182.477 80.6961V90.2198C182.477 95.6932 178.645 102.371 173.829 105.107L135.953 127.001C131.136 129.738 127.305 127.548 127.195 122.075V112.551C127.195 107.078 131.027 100.4 135.843 97.5542L173.829 75.77Z" fill="#DFDFDF"/>
<path d="M173.935 71.6105C172.403 70.7348 170.214 70.8443 167.805 72.2673L129.929 94.161C125.113 96.8977 121.281 103.575 121.281 109.158V118.682C121.281 121.419 122.266 123.28 123.799 124.265L129.82 127.768C128.287 126.892 127.302 124.922 127.302 122.185V112.661C127.302 107.188 131.133 100.51 135.95 97.664L173.826 75.7703C176.234 74.3472 178.424 74.2378 179.956 75.1135L173.935 71.6105Z" fill="#BFBFBF"/>
<path d="M143.951 102.262C147.673 100.183 150.629 101.825 150.629 106.094C150.629 106.641 150.519 107.189 150.519 107.736C149.862 111.567 147.235 115.727 143.951 117.588C140.776 119.449 138.04 118.354 137.383 115.289C137.273 114.851 137.273 114.304 137.273 113.866C137.383 109.597 140.339 104.452 143.951 102.262Z" fill="#A9A9A9"/>
<path d="M145.705 100.073C144.501 99.4164 142.859 99.4164 140.998 100.511C137.276 102.591 134.32 107.845 134.32 112.005C134.32 112.553 134.43 112.99 134.43 113.428C134.649 114.742 135.306 115.727 136.181 116.275L139.246 118.026C138.371 117.479 137.714 116.603 137.495 115.18C137.385 114.742 137.385 114.195 137.385 113.757C137.385 109.488 140.341 104.343 143.954 102.263C145.814 101.168 147.457 101.058 148.661 101.825L145.705 100.073Z" fill="#BFBFBF"/>
</svg>
