<svg width="43" height="72" viewBox="0 0 43 72" fill="none" xmlns="http://www.w3.org/2000/svg">
<path d="M37.3944 71.4357C35.781 70.7423 35.0479 69.4246 34.9003 67.7621C34.6926 65.427 34.9592 63.0869 34.9078 60.7476C34.8387 57.5956 35.0419 54.4413 34.8905 51.2904C34.6454 46.1949 32.2358 42.3528 27.9968 39.6076C27.0553 38.9976 25.9688 38.9716 24.8977 38.9704C20.3566 38.9651 15.8159 38.9768 11.2748 38.981C11.0572 38.9814 10.8397 38.967 10.6221 38.9595C10.5764 38.9236 10.5311 38.8564 10.485 38.856C9.51519 38.8462 8.53702 38.7646 7.57699 38.8594C6.34918 38.9806 5.58629 39.9864 5.74869 41.1152C6.05271 43.2264 6.12447 45.3553 6.2 47.4805C6.27704 49.6517 6.12031 51.8172 5.87294 53.979C5.64596 55.9622 5.2766 57.9083 4.71009 59.8216C3.93436 62.4422 2.6635 64.8265 1.29142 67.1703C0.782325 68.0397 0.317035 68.9688 0.951521 70.0055C0.996086 70.0784 0.962094 70.1992 0.96436 70.2982C0.205999 69.4658 0.0341604 68.4291 0.0262293 67.3712C-0.00209595 63.7433 -0.000209994 60.1147 0.000167676 56.4864C0.000923016 48.6943 0.00545948 40.9022 0.0141459 33.1105C0.0164119 31.13 1.22797 29.9502 3.22132 29.963C3.8947 29.9671 4.56809 29.9766 5.24147 29.9834C5.24714 30.5337 5.47185 30.9714 5.899 31.3192C6.55841 31.8563 7.3704 31.8657 8.14009 31.9061C9.34637 31.9692 10.5587 31.9329 11.768 31.9133C13.8463 31.8793 15.9091 32.0542 17.9452 32.4503C20.9737 33.0395 23.8176 34.1389 26.4847 35.6953C29.3561 37.3706 31.9205 39.418 34.0483 41.9812C35.9532 44.2759 37.4401 46.8271 38.6007 49.5743C40.0041 52.8963 40.7477 56.3674 40.9539 59.9557C41.0389 61.4376 40.9634 62.9226 40.7205 64.3918C40.3659 66.5407 39.7737 68.5971 38.3711 70.3352C38.2555 70.4783 38.0723 70.6143 38.1093 70.8469L38.112 70.8443C38.021 70.8465 37.8752 70.8027 37.996 70.9825C37.834 71.1838 37.5036 71.163 37.3944 71.4357Z" fill="#EAEAEA"/>
<path d="M32.6229 31.4652C31.599 30.9962 30.5937 30.4878 29.5275 30.1105C28.9976 29.9228 28.9674 29.5055 29.4535 29.1188C30.1548 28.561 30.784 27.9314 31.4015 27.2878C34.4591 24.1007 35.0373 20.3836 33.5221 16.3554C32.3755 13.3072 30.1869 11.1032 27.2996 9.59928C26.6187 9.24465 25.8973 9.06223 25.1299 9.06186C20.332 9.05997 15.5341 9.05204 10.7362 9.05997C9.54989 9.06186 8.74055 9.90104 8.7024 11.0881C8.66124 12.374 8.83987 13.6706 8.61327 14.9448C8.21483 17.1837 6.62106 18.5599 4.491 18.5757C2.35301 18.592 0.640277 17.1988 0.172722 15.0445C0.0892567 14.6593 0.0276967 14.2609 0.0265637 13.8681C0.0141006 10.2398 0.0144782 6.61116 0.0171219 2.9825C0.0178773 2.06174 0.336254 1.28337 1.09462 0.71875C2.17022 0.732346 3.24582 0.745565 4.3218 0.759161C4.0529 1.67274 4.34711 2.26606 5.25918 2.53383C6.03152 2.76043 6.8386 2.72116 7.61206 2.58217C9.08913 2.31705 10.576 2.13463 12.0686 2.06892C13.9837 1.9847 15.8997 2.07761 17.8099 2.28079C20.7867 2.59766 23.6211 3.35035 26.2369 4.85499C29.5634 6.76864 31.9321 9.52526 33.453 13.0206C34.316 15.0037 34.8591 17.0749 35.0392 19.2435C35.2027 21.2141 35.2095 23.1705 34.9429 25.1355C34.864 25.719 34.5067 26.2893 34.7631 26.9094C34.4931 27.8558 34.1453 28.7709 33.6656 29.632C33.3223 30.2465 32.9703 30.8545 32.6229 31.4652Z" fill="white"/>
<path d="M4.32094 0.758763C3.24496 0.745545 2.16935 0.73195 1.09375 0.718353C1.58963 0.237957 2.20108 0.0313717 2.87257 0.0313717C9.77298 0.0325047 16.6753 -0.0638018 23.573 0.0755584C32.3059 0.251553 40.3518 5.97212 42.3059 15.3096C43.3698 20.3934 42.8863 25.3708 40.2661 29.9897C39.4473 31.4331 38.2988 32.6201 37.1393 33.7909C36.7352 34.1988 36.299 34.2184 35.8726 33.8487C34.8537 32.9653 33.7528 32.1956 32.6228 31.4648C32.9702 30.8541 33.3222 30.2461 33.6644 29.6324C34.144 28.7713 34.4919 27.8558 34.7619 26.9098C35.7469 23.3627 35.9614 19.7665 35.2366 16.1586C34.3121 11.5563 31.9898 7.73697 28.2682 4.88443C24.5422 2.02849 20.262 0.634889 15.5468 0.639421C12.0564 0.64282 8.56595 0.638665 5.07553 0.632245C4.81342 0.631112 4.56378 0.663968 4.32094 0.758763ZM25.813 1.09527C25.2537 1.05901 24.703 1.10395 24.16 1.22519C23.9299 1.27655 23.6592 1.31998 23.6157 1.60399C23.5723 1.88951 23.848 1.94805 24.0353 2.03C24.2868 2.1399 24.5531 2.22412 24.8201 2.29022C25.6091 2.48585 26.3856 2.7234 27.105 3.10221C29.1429 4.17479 30.8171 5.67527 32.3512 7.38951C34.8031 10.1288 35.998 13.3008 35.9625 16.9517C35.9504 18.2192 36.0762 19.4799 36.12 20.7439C36.1517 21.6537 36.211 22.5926 36.5419 23.4775C36.8829 24.3915 37.4188 24.5973 38.224 24.0176C39.4454 23.1384 40.2751 21.8985 41.1796 20.725C41.8485 19.8575 42.0989 18.8711 42.0098 17.834C41.8602 16.0956 41.3923 14.4266 40.6551 12.8348C38.7648 8.75404 36.2658 5.1809 32.2334 2.94472C30.2484 1.84343 28.1232 1.11226 25.813 1.09527Z" fill="#D6D6D6"/>
<path d="M0.960818 70.2966C0.958175 70.1981 0.992544 70.0768 0.947979 70.004C0.313493 68.9672 0.778783 68.0386 1.28788 67.1688C2.65996 64.8246 3.93044 62.4407 4.70655 59.8201C5.27306 57.9068 5.64242 55.9607 5.86939 53.9775C6.11677 51.8157 6.2735 49.6502 6.19646 47.479C6.12092 45.3538 6.04917 43.2249 5.74514 41.1137C5.58275 39.9848 6.34564 38.9791 7.57344 38.8579C8.53386 38.7631 9.51164 38.8447 10.4815 38.8545C10.5276 38.8549 10.5729 38.9221 10.6186 38.958C9.09545 39.3889 8.71023 39.912 8.71023 41.548C8.71023 50.1872 8.71023 58.8261 8.71023 67.4653C8.71023 69.9492 7.22183 71.7121 4.77264 71.9724C3.56825 72.1004 2.4292 71.7824 1.56547 70.8269C1.51259 70.7955 1.45972 70.7638 1.40685 70.7325C1.3789 70.7113 1.35058 70.6905 1.32263 70.6694C1.33132 70.4609 1.22972 70.3646 1.02351 70.3741C1.00236 70.348 0.98159 70.3223 0.960818 70.2966Z" fill="#D1D2D3"/>
<path d="M37.3951 71.4363C37.5043 71.1636 37.8347 71.1844 37.9971 70.9819C38.0357 70.9359 38.0742 70.8898 38.1131 70.8437L38.1104 70.8464C39.0841 70.3845 39.5074 69.483 39.8768 68.5652C41.0819 65.5711 41.5774 62.4768 41.3512 59.2356C41.216 57.3001 40.9592 55.4015 40.4898 53.5268C40.1498 52.1683 39.6506 50.8612 39.1585 49.5522C39.4848 49.511 39.4784 49.2198 39.5191 49.0106C39.853 47.3013 39.9621 45.5927 39.6744 43.8528C38.9757 39.6251 36.8384 36.3164 33.3469 33.8917C31.5915 32.6726 29.6355 31.9146 27.4813 31.6627C25.6658 31.4505 23.904 31.5849 22.0444 32.1148C22.3378 32.2281 22.5168 32.3032 22.7004 32.3671C24.1446 32.869 25.5163 33.5348 26.837 34.2943C30.006 36.117 32.5655 38.6141 34.6906 41.5664C35.0392 42.0505 35.534 42.4663 35.605 43.1205C35.5162 43.0438 35.4074 42.9811 35.3414 42.8878C33.9723 40.9636 32.3298 39.2966 30.5548 37.7492C28.4368 35.9032 26.096 34.4171 23.5596 33.2081C20.1839 31.5993 16.6497 30.5769 12.9444 30.1256C12.7986 30.1078 12.6649 30.1026 12.6328 29.9235C16.5353 29.8771 20.4472 29.595 24.3364 30.052C32.0443 30.9576 37.2599 35.3356 40.7133 42.0622C41.8139 44.2063 42.3713 46.5127 42.6459 48.9083C43.1017 52.8821 43.0232 56.8624 42.8978 60.8441C42.8536 62.2536 43.0341 63.6525 42.979 65.0601C42.9344 66.2082 42.8978 67.3544 42.752 68.4957C42.5537 70.0491 41.1514 71.4227 39.5116 71.6769C38.7789 71.7913 38.067 71.8117 37.3951 71.4363Z" fill="white"/>
<path d="M20.9777 48.6878L21.0056 48.6746C21.0056 48.6746 21.0241 48.6992 21.0245 48.6992C21.1967 48.6795 21.369 48.6603 21.5408 48.6406C24.271 48.7143 26.1442 51.1476 25.5014 53.7818C25.3862 54.2547 25.1755 54.6822 24.8409 55.0266C24.22 55.666 24.0795 56.4138 24.1852 57.2711C24.4828 59.689 24.9425 62.0811 25.313 64.4869C25.3881 64.9752 25.4433 65.4662 25.5078 65.956C25.2843 66.3099 24.9308 66.325 24.5659 66.3243C23.1002 66.3216 21.6341 66.3239 20.1683 66.3235C18.7702 66.3231 18.3793 65.8155 18.7491 64.4805C18.7755 64.3853 18.8144 64.2935 18.8389 64.198C19.413 61.9644 20.0547 59.7445 20.3523 57.4513C20.4512 56.6899 20.3349 56.0229 19.6173 55.467C17.6228 53.9227 17.4533 51.5275 19.1203 49.6626C19.1977 49.5761 19.3027 49.5025 19.2585 49.3601C19.2585 49.3601 19.2702 49.3537 19.2702 49.3544C19.4931 49.4405 19.609 49.3571 19.6309 49.1263L19.6385 49.1629C19.6864 49.1233 19.7348 49.0833 19.7827 49.0432L19.771 49.0538C19.9112 49.05 20.0698 49.0897 20.1332 48.9023C20.1332 48.9023 20.1196 48.922 20.12 48.922C20.2662 48.9348 20.418 48.9628 20.4935 48.7838L20.4803 48.8079C20.6533 48.7985 20.847 48.8733 20.9777 48.6878Z" fill="white"/>
<path d="M12.6321 29.9244C12.6642 30.1034 12.7979 30.1087 12.9436 30.1264C16.649 30.5778 20.1836 31.6001 23.5588 33.209C26.0952 34.4183 28.436 35.904 30.554 37.7501C32.3294 39.2974 33.9715 40.9644 35.3406 42.8887C35.4067 42.9816 35.5155 43.0443 35.6046 43.1213C36.0117 43.7694 36.4109 44.4228 36.8271 45.0648C37.7486 46.4864 38.388 48.0533 39.1581 49.5527C39.6502 50.8613 40.1491 52.1684 40.4894 53.5273C40.9588 55.402 41.2156 57.3006 41.3508 59.2361C41.5771 62.4773 41.0816 65.5715 39.8764 68.5657C39.5071 69.4831 39.0833 70.3849 38.1101 70.8468C38.073 70.6142 38.2558 70.4782 38.3718 70.3351C39.7744 68.5967 40.3666 66.5406 40.7213 64.3917C40.9637 62.9226 41.0396 61.4375 40.9547 59.9556C40.7488 56.3677 40.0048 52.8962 38.6014 49.5742C37.4408 46.827 35.9539 44.2758 34.049 41.9811C31.9212 39.4183 29.3568 37.3709 26.4854 35.6952C23.8183 34.1388 20.9744 33.039 17.9459 32.4502C15.9099 32.0544 13.8474 31.8796 11.7687 31.9132C10.5594 31.9328 9.34708 31.9691 8.1408 31.906C7.37111 31.866 6.55875 31.8565 5.89971 31.3191C5.47295 30.9713 5.24785 30.5336 5.24219 29.9833C5.905 29.8485 6.57574 29.9282 7.24195 29.9233C9.03853 29.9097 10.8355 29.9221 12.6321 29.9244Z" fill="#D1D2D3"/>
<path d="M1.02344 70.3737C1.22965 70.3642 1.33124 70.4605 1.32255 70.669C1.22285 70.5708 1.12314 70.4723 1.02344 70.3737Z" fill="#333333"/>
<path d="M1.40625 70.7324C1.45912 70.7638 1.512 70.7955 1.56487 70.8268C1.48103 70.8476 1.43911 70.7978 1.40625 70.7324Z" fill="#333333"/>
<path d="M25.5077 65.9569C25.2841 66.3108 24.9306 66.3259 24.5658 66.3251C23.1001 66.3225 21.6339 66.3248 20.1682 66.3244C18.7701 66.324 18.3792 65.8164 18.7489 64.4813C18.7754 64.3862 18.8142 64.2944 18.8388 64.1988C19.4129 61.9653 20.0545 59.7454 20.3521 57.4522C20.4511 56.6908 20.3348 56.0238 19.6172 55.4683C17.6227 53.924 17.4531 51.5288 19.1202 49.6638C19.1976 49.5774 19.3026 49.5037 19.2584 49.3613C17.4274 50.3478 16.7612 53.2721 18.0853 54.8727C18.7542 55.6813 18.9748 56.5148 18.8184 57.5039C18.5627 59.123 18.3082 60.742 18.0514 62.3607C17.872 63.4919 17.6522 64.6184 17.5215 65.7552C17.4105 66.7209 17.8414 67.1583 18.8033 67.1756C19.516 67.1885 20.2286 67.1794 20.9413 67.1783C22.1094 67.1764 23.2779 67.1919 24.4453 67.1636C25.2059 67.1443 25.5742 66.6937 25.5077 65.9569Z" fill="#D1D2D3"/>
<path d="M19.6263 49.1289C19.4752 49.1561 19.3291 49.1908 19.2656 49.357C19.4885 49.4431 19.6044 49.36 19.6263 49.1289Z" fill="#EAEAEA"/>
<path d="M21.0234 48.6996C21.1957 48.68 21.3679 48.6607 21.5397 48.6411C21.3637 48.6245 21.1813 48.5538 21.0234 48.6996Z" fill="#EAEAEA"/>
<path d="M19.7686 49.0539C19.7678 49.0547 19.7674 49.0554 19.7667 49.0565C19.9015 49.0531 20.053 49.089 20.1209 48.9255C20.2584 48.938 20.3997 48.9606 20.4775 48.8111C20.6504 48.8009 20.8438 48.8745 20.9737 48.6895C20.8087 48.7276 20.6127 48.64 20.479 48.8077C20.4824 48.8009 20.4858 48.7944 20.4892 48.7869C20.3627 48.8092 20.2176 48.7812 20.1289 48.9055C19.9978 48.9225 19.8604 48.924 19.7739 49.0471C19.7085 49.0637 19.6194 49.0516 19.6345 49.1653C19.6791 49.1283 19.7236 49.0909 19.7686 49.0539Z" fill="#EAEAEA"/>
<path d="M38.1152 70.843C38.0767 70.8891 38.0382 70.9351 37.9993 70.9812C37.878 70.8014 38.0238 70.8453 38.1152 70.843Z" fill="#010101"/>
<path d="M4.32214 0.758137C4.56498 0.663342 4.81462 0.630485 5.0771 0.630863C8.56752 0.637283 12.058 0.641437 15.5484 0.638038C20.2636 0.633506 24.5441 2.02711 28.2698 4.88305C31.991 7.73559 34.3137 11.555 35.2382 16.1573C35.9629 19.7651 35.7484 23.3613 34.7635 26.9084C34.507 26.2882 34.8643 25.718 34.9432 25.1345C35.2095 23.1695 35.2031 21.2131 35.0395 19.2424C34.8598 17.0739 34.3163 15.0031 33.4533 13.0196C31.9325 9.52462 29.5641 6.76762 26.2372 4.85397C23.6215 3.34933 20.787 2.59664 17.8102 2.27977C15.9 2.07658 13.9841 1.98368 12.0689 2.0679C10.5764 2.13361 9.08947 2.31565 7.6124 2.58115C6.83893 2.72013 6.03185 2.75903 5.25951 2.53281C4.34744 2.26542 4.05324 1.67172 4.32214 0.758137Z" fill="#EAEAEA"/>
<path d="M25.8116 1.09423C28.1218 1.11161 30.247 1.84278 32.2316 2.94331C36.264 5.17949 38.7631 8.75262 40.6533 12.8333C41.3905 14.4248 41.8584 16.0942 42.008 17.8326C42.0971 18.87 41.8467 19.8561 41.1779 20.7236C40.2734 21.8971 39.4436 23.1366 38.2222 24.0162C37.417 24.5959 36.8815 24.3901 36.5401 23.4761C36.2096 22.5908 36.15 21.6523 36.1182 20.7425C36.074 19.4785 35.9483 18.2178 35.9607 16.9503C35.9962 13.2994 34.8013 10.1273 32.3495 7.3881C30.8154 5.67386 29.1412 4.17375 27.1032 3.10079C26.3838 2.72199 25.6077 2.48444 24.8183 2.2888C24.5513 2.22271 24.2851 2.13849 24.0335 2.02859C23.8462 1.94663 23.5705 1.88847 23.6139 1.60258C23.6574 1.31857 23.9282 1.27514 24.1582 1.22377C24.7016 1.10292 25.2519 1.05798 25.8116 1.09423Z" fill="white"/>
<path d="M39.161 49.5515C38.3909 48.0522 37.7515 46.4849 36.83 45.0637C36.4138 44.4216 36.0142 43.7683 35.6075 43.1202C35.5361 42.4661 35.0417 42.0503 34.6931 41.5661C32.5684 38.6138 30.0089 36.1167 26.8395 34.294C25.5192 33.5345 24.1475 32.8691 22.7029 32.3668C22.5197 32.303 22.3403 32.2278 22.0469 32.1145C23.9061 31.585 25.668 31.4502 27.4838 31.6624C29.638 31.9143 31.594 32.6723 33.3494 33.8914C36.841 36.3161 38.9782 39.6249 39.6769 43.8525C39.9643 45.5924 39.8551 47.301 39.5217 49.0103C39.4809 49.2192 39.4873 49.5107 39.161 49.5515Z" fill="#EAEAEA"/>
</svg>
